<svg id="hello" data-name="hello" xmlns="http://www.w3.org/2000/svg" viewBox="0 0 400 600" height="600" width="400">
    <defs>
        <style>
            .cls-1 {
                fill: #f4e0d3;
            }

            .cls-2 {
                fill: #231d1b;
            }

            .cls-3 {
                fill: #161312;
            }

            .cls-4 {
                fill: #756b4b;
            }

            .cls-5 {
                fill: none;
                stroke: #161514;
                stroke-miterlimit: 10;
            }
        </style>
    </defs>
    <g id="cor">
        <path class="cls-1"
            d="M298.13,220c-2.63,9.61-2.14,24.26-3.06,27.23a111.55,111.55,0,0,1-5.61,13.42c-1.23,2.14-7.58,8.13-1.07,9.09,15,2.23,14.28-25,19.54-23s12.79,16.55,13.79,20.48,2.62,8.78,2.91,12.13,3.55,24.1,12.79,25.71,1.17-11.19.78-14.26c-.62-4.87-4.83-16.83-4.83-21s-.43-7,1.21-7.93,6.9,3.64,8.59,6c1.81,2.51,4,6.19,6.08,9.09s5.79,7,6.57,8.2c1.95,2.93,6.36,14.41,16.7,14.77,9.3.32-4-13.16-7-17.48s-6.25-9.49-8.1-12.33-4.83-6-6.46-8.58-2.77-4.45-2.21-4.83,5.9,7.78,7.89,10.58,8.39,9.78,9.66,11.61,5.55,10.59,8.81,12.32c3.42,1.81,6.68-1.74,5.62-6.71-1-4.76-3.7-7.16-6.25-11s-5-7.48-7.32-10.64c-2.15-2.9-5.21-6.94-6.54-9.16-2-3.39-1.77-5.89-.85-6.65s7.71,4.94,11.47,7.13,7.46,6.68,15.35,7.26,6-4.52.89-7.74a135.75,135.75,0,0,1-11.3-7.81c-2.5-2-7.39-6.9-8.95-8.19-1.34-1.11-2.13-3.42-4.19-4.58s-6.19-6.58-13.36-13-12-14-16.2-14.83c-2.85-.57-18.09-1.43-27.64,3.29C301.27,210.77,299,216.93,298.13,220Z" />
        <path class="cls-2"
            d="M354.9,224.54c-.36,1.09-6-.56-31,3.16s-27.07,7.35-28.28,6.19c-.77-.74,0-3,.8-7.73-15.86,7.82-26.69,4.51-56.31,16.31-7.16,2.86-13.55,5.14-19.33,6.94-.94.29-1.63,1.89-2.54,2.16-26.61,7.79-40.42,4.93-60.67.39-.86-.2-1.83-1.84-2.71-2-3.53-.78-7.28-1.61-11.33-2.42-28.44-5.69-36.31-7.29-61.47-17.35-8.47-3.39-8.9-10.84-16.65-22.84,0,0-5.2-14.43-7.34-21.29-3.22-10.32-4.91-31-5.69-36.9-.65-5-5.5-10.57-2.32-15.23,2.66-3.9,3-11.93,4.15-13.38,1.71-6.77.8-15.76,1.78-22.23,1.12-7.31-2.84-13.24-2.69-19l2.57-11s.67-12.16.78-13.42a18.07,18.07,0,0,1,1.57-4.11S56.11,49.46,56,48.1a11.16,11.16,0,0,1,.7-3.53s3.78-18.26,3-21.94,1.49-4.45,2-9-.21-5.42-.32-8.9c-.07-2.36,3.87-13.29,3.87-13.29l204.11-.38s5.15,4.51,4.66,8.64c-.85,7.16.64,9.22,0,15.22s2.61,12.45,1.55,18.07-2,9.74.75,13.8c1.13,1.66-1.46,9.1-1.19,12.15,2.18,5.7,1.84,11.6,1.09,18.24-.22,1.94-.28,3.35-.28,3.35s.58-1.58.94-2.37c1.73-6.18,3.85-14,4.49-17.62,1.14-6.39,12-15.1,24.73-15.49s20.17,19.55,25.5,21c3.37.94,5.26,6.17,6.19,9.9a14.55,14.55,0,0,1,2,3.72c.27.75,1,10.27.57,11.48-1.06,3.16.64,26.84-1.06,31.49s.21,11.48.64,16.51a54.78,54.78,0,0,1-1.43,15.61c-.85,2.71,2.7,8.52,3.13,11.75s-4.55,7.35-5,9.54,5.25,3.23,5.11,7.62c-.11,3.48-2.64,6.88-3.68,8.13.11,2,1.14,6.16,5.67,14.58C351.34,220.41,355.25,223.44,354.9,224.54Z" />
        <path id="séparation_bras" data-name="séparation bras" class="cls-3"
            d="M104.56,53.12c1,5.67,1,24.51,1,28.64s2.85,11.1,1.71,16.65a17.32,17.32,0,0,1-1.85,4.75,20.08,20.08,0,0,1-.42,2.6c-.86,3,2.09,7.42-1,9.87s.38,7.62.38,11.36-.7,7.61-5.67,10.58,1.37,7-.9,12.51a27.51,27.51,0,0,0-2.33,9s-1.51-6.33-1.16-10.58-.24-13.68.89-15.68.43-4.84.15-7.55,4.16-9.74,3.74-11.87-2.52-9.61.32-16.71c1.34-3.34.1-6.66.23-8-2-1.82-2.23-3.6.84-8.75,3.83-6.46.57-13.68-.85-16s3.24-20.46.68-25.49-1.12-11-.55-14.19-1.56-10.2-1-15.23,1.93-17.74,1.93-17.74l3.55.13-.65,9.74s-1.55,1.36-2.84,8c-1.08,5.57,9.1,8.9,9.38,11.23s-8.24-6.07-6.68,8S103.56,47.44,104.56,53.12Z" />
        <path class="cls-3"
            d="M293.88,209.89c-.4-1.06-2.81-3.75-3.63-7.32-1-4.3-1.54-9-.9-12.41.39-2.14-1.21-3.6-1.38-6.84s3.4-6.58,2.3-9.18a69.07,69.07,0,0,1-3.59-15.33c-.45-5,0-12-2.08-16.43s-2.36-19.94-3.51-23.87c-.35-1.22-1-14.44-.91-15.22.15-1.32-1-5.08-.8-8.27s-.08-8.2,2.45-9.46c0,0,2.16-9.82,3.88-12.64S293.89,57,293.89,57s-6.68,15.27-7,18.45-3,10.68-3.8,14.47,1.66,12.58,1.43,16.41-.61,18.41.85,22c3.11,7.61,1.18,5.68,1.78,10.08.56,4.05,2.37,8.36,2.7,12.2.21,2.39,2,7,2.69,11.7,1.62,11.79-.36,11.12-.74,16.3-.47,6.31,2,4.39,1.83,9.51-.06,1.92-2.3,2.95-2.3,7,0,1.54,2.81,2.39,3,4.59s-2.23,2.95-1.33,4.9c3.22,6.92,2.59,11.62,2.59,11.62S294.28,211,293.88,209.89Z" />
    </g>
    <g id="hed">
        <path class="cls-1" d="M159.23,262.6a91.36,91.36,0,0,0-2.86-15c5.38-4.92,18-13.26,30.54-12.86,12.09.39,28.18,7.84,33.24,11.55a79.11,79.11,0,0,0-4.47,19.07c-2.86,24.92,7.55,37.13,7.55,37.13l-74.32,5.4S161,282.14,159.23,262.6Z" />
        <path class="cls-1" d="M230.31,311.83c-.18-9.9-2.82-46.22-41.26-47-33.27-.66-43.5,26.56-46.12,40-2.46,2.69-7.06,8.63-6.68,15.14.38,6.68,4.31,5.09,6.21,3.91,0,1.77,0,3.33,0,4.43,0,3.51-1.9,14.93-.85,25.2s12.55,37.17,46.7,36.21c38.31-1.08,41.73-36.48,41.2-44.86a138.17,138.17,0,0,1,0-15.09c1.51,1.09,6.35,3.95,6.81-3.51C236.68,320.3,232.84,314.78,230.31,311.83Z" />
        <path class="cls-4"
            d="M142.18,311s.11-.33.32-.9l.16-.1s.48-.9.74-1.55a12.33,12.33,0,0,1,1.1-1.8,14.73,14.73,0,0,0,1-2.49,21.72,21.72,0,0,1,1.32-2.61,15.57,15.57,0,0,1,1.26-1.84c.35-.48.35-.68.35-.81a3.12,3.12,0,0,1,.58-1.22c.29-.29.94-1.52,1.2-1.81s1.16-1.71,1.16-1.71a9.94,9.94,0,0,0,2-1.9,13.26,13.26,0,0,1,1-1.61,8.64,8.64,0,0,1,2.64-1.26,3.21,3.21,0,0,0,1.16-.68,7.81,7.81,0,0,1,1.94-.81,4.9,4.9,0,0,1,1.71-.29,3.65,3.65,0,0,0,1.29-.42c.55-.19,1.58-.64,2.23-.87a2.81,2.81,0,0,1,1.35-.09c.65,0,.9-.39,1.42-.65l.55-.26.81,1c.07.14.15.31.33.61a10.5,10.5,0,0,0,.86,1.32,4.71,4.71,0,0,0,1.31,1.26,4.17,4.17,0,0,1,1.18,1.42c.45.71.38.58.83,1.32s.48.48,1.31.84a4.23,4.23,0,0,1,1.33.8,15,15,0,0,0,1.82,1.65c.51.22,2.52,1.45,3.09,1.8a10.44,10.44,0,0,0,2,1c.67.23,2.17.42,3.1.62a17.89,17.89,0,0,1,2.39.51,2.43,2.43,0,0,0,1.66.1,12.5,12.5,0,0,0,1.72-.71c.7-.22,1.65-.45,2.16-.61a2.76,2.76,0,0,0,.91-.53,18.92,18.92,0,0,0,1.81-1l1-.46a4.84,4.84,0,0,0,1-.68c.08-.08.38-.46.68-.8.21-.17.41-.35.61-.53s.76-.4,1.29-.7.42-.49.67-.81a4.07,4.07,0,0,0,.64-1.09.25.25,0,0,1,0-.09c.62-.7,1.19-1.41,1.72-2.1a1.89,1.89,0,0,0,.47-.4c.19-.22.64-1,.77-1.16a3.19,3.19,0,0,0,.25-.52.43.43,0,0,0,0-.07c.08.05.14.1.22.14,1.22.74,1.29.42,2,.81a7.51,7.51,0,0,1,2.14,1.42c.29.48,1.42.82,1.84,1.21s.63.56.95,2.56,1.61,1.42,2.74,2.13.65.74.91,2.16a6.81,6.81,0,0,0,2.83,3.68,4.16,4.16,0,0,1,1.55,2.61,9.07,9.07,0,0,0,1.13,2.32,10.86,10.86,0,0,1,1.52,3.2,4.77,4.77,0,0,0,1.77,2.55c.71.64,1.16,2.29,1.94,3.71a4.06,4.06,0,0,0,1.68,1.7c.35.68.54,1.07.54,1.07s0-.37.09-1a3.07,3.07,0,0,0,.3-1.14,16.92,16.92,0,0,1,.06-3.39,8.23,8.23,0,0,0,.55-2.9c-.09-1-.22-2.48-.22-3a18.78,18.78,0,0,1-.23-2.42,5.46,5.46,0,0,0,0-2.13,19.6,19.6,0,0,1-.21-2.41c-.11-.8.11-3.55-.18-4.36a7.86,7.86,0,0,1-.59-2.16,7.84,7.84,0,0,0-.09-2.26,12,12,0,0,1-.5-1.31l-.18-.88c-.07-.68-.08-1.54-.14-2a8,8,0,0,0-.32-1.52c-.1-.23-.36-.84-.59-1.26s-.48-1.71-.58-1.87-.78-2.41-1-2.92a18.54,18.54,0,0,1-1.12-2.47,5.3,5.3,0,0,0-2-2.13,7.11,7.11,0,0,1-1.51-1.11,12.19,12.19,0,0,1-.51-1.64,3.83,3.83,0,0,0-1.72-1.5c-.73-.2-1.07-.29-1.46-1s-.69-1-1.23-1a3.05,3.05,0,0,1-1.64-.58,3,3,0,0,0-1.22-.58,5.73,5.73,0,0,1-2.53-.82,20.05,20.05,0,0,0-2.54-1.64,8.71,8.71,0,0,0-3.21-.68,10.46,10.46,0,0,1-3.41-.44,8.89,8.89,0,0,0-1.71-.77c-.82-.2-4.57-.29-5.11-.58a10.1,10.1,0,0,0-3.16-.78c-.83,0-1.56,0-2.34.05s-1.85,0-2.29,0a15.72,15.72,0,0,1-2.19,0c-.83-.1-1.41-.34-2-.34a13.4,13.4,0,0,0-3.07.05c-1.12.24-2.34.39-3,.53a26,26,0,0,1-3.46.53c-.68,0-1.26,0-1.85,0a18.85,18.85,0,0,0-2.29,0c-.73,0-1,.53-1.7.67a19,19,0,0,1-3,.29,7.28,7.28,0,0,0-3.36.54c-1.61.62-1.46.87-2.58.92s-2.44,1.16-3.51,1.59-1.9,2.28-2.24,2.47a9.54,9.54,0,0,1-1.61.82,4.57,4.57,0,0,0-1.85.82,6,6,0,0,0-1.61,2.33c-.19.58.15.61-.53,1.4s-.44.82-.93,1.69-.08,1.33-.08,2-.1.41-.41,1.63a10.28,10.28,0,0,1-.53,2.23,36.69,36.69,0,0,0-.72,3.71,7.11,7.11,0,0,0-.49,2.22,4,4,0,0,1,.05,1.91,8.54,8.54,0,0,0-.63,2.19c0,.78-.32.37-.42,1.68s.31,1.11,0,1.89-.05.85-.05,1.77v.05c0,.3-.08.59-.11.88s-.15.31-.28.59c-.29.63,0,.69-.08,1.35s-.6.82-.51,1.4,0,.34.1,1.41a3.9,3.9,0,0,1-.15,1.74c-.09.48,0,1.45-.1,2s-.58,2.08-.58,2.42A11.59,11.59,0,0,0,142.18,311Zm34.9-29.16a13.44,13.44,0,0,0,1.74-.94,19.37,19.37,0,0,1,2.16-.32,4.24,4.24,0,0,0,1.68-.77,8,8,0,0,1,2.52-.36,15.84,15.84,0,0,0,2.19-.32,11.86,11.86,0,0,1,2.77-.32,6.73,6.73,0,0,1,1.58.54,11.15,11.15,0,0,0,2.13.17,20.05,20.05,0,0,1,3.81,1.8c.52.33.55.55,1.19,1.1a3.16,3.16,0,0,0,1.71.55,2.75,2.75,0,0,1,1.19.82,2.23,2.23,0,0,0-.59.54,4.86,4.86,0,0,1-.34.83l0,.05a4.1,4.1,0,0,1-.59.5c-.52.19-.55.46-.84.68a5.45,5.45,0,0,0-.81,1.1c-.16.26-.16.83-.42,1s-.71.62-1,.78a2.69,2.69,0,0,1-.8.48c-.55.23-1,.36-1.23.49a3.15,3.15,0,0,0-.64.77,3.78,3.78,0,0,1-1,.55c-.32.13-1.61.58-1.81.64a1.75,1.75,0,0,1-.8.13,7.09,7.09,0,0,0-2.17.13,2.18,2.18,0,0,1-1.61,0l-1.45-.65a4.77,4.77,0,0,1-1.58-1,7.68,7.68,0,0,0-2.15-1.23c-.27-.09-.68-.18-1-.3s-.47-.41-.7-.62a7.06,7.06,0,0,0-.88-1.14,6.64,6.64,0,0,0-1-.67c-.39-.41-.78-.82-1.15-1.23a9,9,0,0,0-.52-.94,2.53,2.53,0,0,0-.74-.87c-.39-.26-.45-.49-.94-1.07a2.17,2.17,0,0,0-.34-.34l.21-.08C175.57,282.15,176.5,282,177.08,281.86Z" />
    </g>
    <g id="veuchs_mdr" data-name="veuchs mdr">
        <path class="cls-4"
            d="M258.55,514.29c-1.19-11.23-1.75-32.2-6.42-64.14C246,408,229.9,322.23,229.9,322.23s-6.82,35-18.7,40.4-12.75-8.76-25.43-9.24-18.67,13.8-28.64,7.22S142.55,320,142.55,320s-32.26,121.08-32.26,146.45c0,17.61-.19,19.93-1.42,34.16-1.72,20-5,37.71-5,37.71s4.12-8,8-17.8c1.2,12.57,1.14,34.19,1.14,34.19l4.39-32.39s2,21.81,1.66,31.36-3.1,22.62-3.1,22.62a103.87,103.87,0,0,0,6.49-13.88,30.85,30.85,0,0,0,4.28,7,83.42,83.42,0,0,0,6.15,6.45l0-14.76s.34,4.39,4,12.83c3.54,8.22,5.28,10.06,5.28,10.06s-2.47-6.77-2.32-19c.11-9.49,4.35-20.33,4.35-20.33s1.07,9,.29,24.78a189.62,189.62,0,0,1-3.32,27.35c10.19-8.77,13.87-13.53,15.61-18.19a85.82,85.82,0,0,0,3.61-13l4.26,29.42s2.35-7.36,3.1-11a132.37,132.37,0,0,0,1.93-13.58s2.54,9.34,4,14.48c1.29,4.52,5,13.47,5.69,14.21.47,0,3.37.17,4.51.15-.21-2.47-1-4.94-1.37-10.42-.77-11.89,1.84-26,1.84-26s.13,3.74.2,13.48c0,7.59.29,11,2,16.13a26.23,26.23,0,0,0,4.08,8,67,67,0,0,1-1.62-9.14c-.72-5.89-.29-7.38,1.19-19.61s3.19-21.58,3.19-21.58-.67,13-.29,26.52a120.2,120.2,0,0,0,3.13,22.65,31,31,0,0,0,1.07-8.17c0-4.13.35-12,.35-12a72.93,72.93,0,0,0,1.65,9.87c.83,3,2.36,7.1,3,8.75.11,0,1.81-4.83,3.18-9.52.9-3.06,1.75-7.65,1.75-7.65s.27,7.65.62,15.27a123.55,123.55,0,0,0,2.28-16.23c.32-4.62,1.07-35.81,1.07-35.81L215,595.52s1.44-10.83,8.95-14.67l1.31-14.17,3.16,14.45a8.72,8.72,0,0,0,10.86.29l.88-8.36,2.45,7.55c1.68-3.67,2.46-5.89,3.87-12.26a52.12,52.12,0,0,0,1.42-10.19l3,13.55c1.47-2.56,2.72-9.21,3.48-13.81,2.33-14,2.65-16,2.26-27.9,1,6.19,3.2,19.06,3.2,19.06A234,234,0,0,0,258.55,514.29Z" />
    </g>
    <g id="lunettes">
        <path class="cls-5" d="M196.81,318.5l9.8-.34,10.23.43c1.67,0,2.88,2.05,2.88,3.73v5.42a3,3,0,0,1-3,3l-8.71.58-12.58-.58a3,3,0,0,1-3-3l.13-3.15a22,22,0,0,1,1.16-3.67C194.53,319,195.13,318.5,196.81,318.5Z" />
        <path class="cls-5" d="M177.5,318.31l-9.6-.28-10.29.52c-1.67,0-2.89,2.05-2.89,3.73v5.42a3,3,0,0,0,3,3l8.71.58,12.58-.58a3,3,0,0,0,3-3l-.13-3.15a10.69,10.69,0,0,0-1.06-3.68C179.73,318.5,179.17,318.31,177.5,318.31Z" />
        <path class="cls-5" d="M192.31,325.22a13.33,13.33,0,0,1-5.13.73,22.59,22.59,0,0,1-4.94-.53" />
    </g>
</svg>