<svg xmlns="http://www.w3.org/2000/svg" viewBox="0 0 600 600"><defs><style>.cls-1{fill:#fdd3be;}.cls-2{fill:#161312;}.cls-3{fill:#ffd4c1;}.cls-4{fill:#a35c4a;isolation:isolate;opacity:0.8;}.cls-5{fill:#231d1b;}.cls-6{fill:#685953;}.cls-7{fill:none;stroke:#000;stroke-miterlimit:10;}.cls-8{fill:#756b4b;}</style></defs><g id="ETUD"><path class="cls-1" d="M144.77,307.61c-5.08-4.67-8.94-5.51-10.81-10s-10.28-13-18.91-18.18-23.89-8.32-28.57-10.09S72,265.84,69,264s-11.54-8.83-18.71-8.73-8.94,2-8.94,5.2a5.14,5.14,0,0,0,.18,1.19,12.9,12.9,0,0,0-1.81-.3c-4.91-.49-4.08,4.44-4,11.88a43.46,43.46,0,0,1-5.46-4.35c-1.77-2-3.53-17.77-15.59-14.14-3.07.93-4.35,2.39-4.52,4.09a11.87,11.87,0,0,0-2.82,1.27c-8,4.83,6.87,13.87,8.65,18s10,14,13.79,18.17c3.4,3.68,13.44,11.27,19,13.46.78.64,1.65,1.35,2.56,2.06.71.59,1.47,1.15,2.25,1.69l.22.16.06,0c.57.39,1.16.76,1.78,1.11a57.85,57.85,0,0,0,8.67,4.31l.3.17c2,1.61,1.34,2.84,3.39,4.9,3.12,3.11,12.06,4.26,15.7,4.26s9.24,0,12.47.93,10.91,3.53,15.78,2,6.35,14.76,6.24,16.53c-.32,5.31,22.24-2.6,25.15-7.07S149.86,312.29,144.77,307.61ZM76.71,281l-.71.43c0-.18.09-.36.13-.55Zm-22.14-5.73c2.74,1,6.11,2,9.39,2.82a15.61,15.61,0,0,0-.76,1.76,31.43,31.43,0,0,0-.73,4.9h-.1a71.27,71.27,0,0,1-13.07-3.37,56.29,56.29,0,0,0-.18-9.18A19.93,19.93,0,0,0,54.57,275.29Z"/><path id="fond_capuche" data-name="fond capuche" class="cls-2" d="M332.84,228.06c3.74-.77,64.11-9.74,79-12.28,28.75-4.91,41.93,3.62,45.05,31.51.5,4.53-33.78,25.29-42.4,26.58-16.33,2.5-48.89-3.3-61.31-6.89C341.5,263.6,316.63,231.42,332.84,228.06Z"/><g id="formes"><path id="forme_cou" data-name="forme cou" class="cls-3" d="M437.58,178.56c7.06,6.35,4.84,45,11.22,56.26s18.86,17.31,12.16,26-30.09,25.71-42.39,26.33-58.61-4.83-64.06-12.62,23.69-13.71,22.12-22.13-4.82-18.39-8.56-28.84,9.51-35.21,28.84-41S429.79,171.55,437.58,178.56Z"/><path id="ombre_cou" data-name="ombre cou" class="cls-4" d="M377.58,250.57c-6.08,8.71-4.84,16.52,9,16.52s32.06-2.81,39.23-11.8,22.44-13.19,21.4-20-.58-9-2.6-12.88-17.72-3.9-23.54-.47S383,242.73,377.58,250.57Z"/><path id="forme_tête" data-name="forme tête" class="cls-3" d="M393.17,252.9c9.84-.72,38.49-17.46,37.87-33.82s7.64-41.14,5.44-51.27S433.22,114.2,425,107.34s-24-32.27-45.83-29.93-53.86,32.71-54.54,49.09c-.39,8.93,2.07,15.63,5.14,27.9,2.9,11.62,1.55,19,6.08,33.2s9.49,40.64,23.53,51.12C372.27,248.39,382.72,253.69,393.17,252.9Z"/></g><path class="cls-5" d="M590.48,544.83c-.15-2.65-.48-12.48-1.25-22.6s-.62-10.45-3.27-18.7-1.87-4.07-4.36-31.18S571,389.76,569.9,374s-7.93-51-30.22-80.42c-13.28-17.55-38.45-17-68-14.08,7.26-3.37,9.86-8.39,13.79-15,6-10-9.11-19.87-13.09-34.84s-13.47-10.89-20-10.05-3.67,11.05-2.89,15.19-7.17,10.54-12.23,15.67c-4.17,4.24-21.75,23.11-26.74,31.23a20.33,20.33,0,0,0-3.26-1.85c-3.65-1.63-38.5-12.08-43.11-13.88s-30.69-16.43-33.42-25.16.78-9.43,4-11.15,19.64-3.66,6.86-3.81-20.78,2.33-24.53,6.62c-5.92,6.81,2.09,16.59,2.09,16.59s-5.14.08-6.62,3.36c-.32.7-.05,2.06.71,3.79a124.54,124.54,0,0,0-25.54,5.64c-18.86,6.62-48.54,41-50,41.23s-6.78,6.07-14.26,15.74-24.08,42.54-25,45-7.33,5.15-7.33,5.15-5.07-8.95-5.92-11-6.7-6.07-7.25-7.8-9.11-22.2-9.11-23.3-9.6-9.13-11-9.82-5.46-2.91-6.62-3.42-4.24-4.95-6.31-8c-1.83-2.78-7.29-11.59-8.07-12.24a8.15,8.15,0,0,0-4-.82,22.58,22.58,0,0,1-4.2-1.1s6.42,5.47,7.94,13.26-16.87,22.84-22.44,25.48S98.58,330,98.58,330s11.29,4.28,12.08,7-7.17,15.21-5.61,21,9.9,8.73,9.9,8.73-1.63,10.9,0,16.75,9,28.44,9.59,31.79.38,6.85,1.32,8.49,1.71,1.58,2.57,3.28,16.84,23.77,17.62,25.25,0,0,1.39,5.54,16.85,17.92,19.8,19.79,9.52,3.13,11.46,4.21,2.48,3.83,5.53,5.61,15.51-1.18,22.68-3.2,26.31-15.59,28.48-17.3,5.28-.78,10.27-2.65,10.45-18.24,12-19.33,5.15-.3,5.15-.3-2,7.71-3,12.7,1,29.77.07,33.2-4.82,19.36-6.69,26.72-2.19,7-9.45,28.55c-3.86,11.49-1.28,13.09-2.09,30.76-.41,9.07-2.93,17.93,2.54,30.69,3,7.1,73.13,1.56,81.91,5.32,29.4,12.6,57.58,9.7,64.11,9.64,11.62-.11,108.61,16.25,111.13-21.4,1-15.12-3.82-34.67-4.31-42.51-1.87-30,3-91.39,3-91.39s3.74,3.74,6.85,4.37a8.73,8.73,0,0,0,5.78-.94c-.16,0-2,17.82-1.66,20.48,1.81,15.27,9.3,21.17,10,24.56.52,2.66-5.82,6.09-5.15,15.13A23.91,23.91,0,0,0,519.88,543a16,16,0,0,1,2.49,9.82,24.74,24.74,0,0,0,1.12,10.33c1.81,5.07-.55,18-2.33,21.81s2.79,7.86,2.29,13.19-7.86,8.62-6.6,15.21-9.38,18-9.38,18,83.18-12.17,85.47-17.5.5-18-1-23.59,2.54-18,3-21.3S590.48,544.83,590.48,544.83Z"/><g id="lacets"><g id="gauche"><path id="cercle" class="cls-6" d="M433.84,268.26a3.63,3.63,0,0,1-3.57,3.69l-.43,0c-2.79,0-4-.75-4-3.39a4.57,4.57,0,0,1,4-4A4.42,4.42,0,0,1,433.84,268.26Z"/><path id="corde" class="cls-2" d="M430.61,266.35c1.81,1,1.07,4.58-.25,5-4.14.34,3.89,179.7,4.52,182.61s.62,4.67-.63,4.67-2.28-1.24-2.59-4.15-6.33-151.71-6.24-160.12.52-19.27.94-21.89S428.12,265,430.61,266.35Z"/><path id="noeud" class="cls-2" d="M437.43,459c0,1.63-1.36,3-3.74,3s-4-1.41-3.88-3c.13-1.77,1.54-3,3.88-3S437.43,457.32,437.43,459Z"/></g><g id="droit"><ellipse id="cercle-2" class="cls-6" cx="388.23" cy="276.85" rx="3.14" ry="2.98"/><path id="corde-2" class="cls-2" d="M387.43,275.74c.91-1.37,4.23.49,5.36,3.82s-.2,31.17,0,35.44.43,155.64-.62,158.86-1.76,3.74-2.38,3.54,1.61-83.23,1-89.15.34-101.42,0-104.43-.76-4-1.8-4.81S386.81,276.68,387.43,275.74Z"/><path id="noeud-2" class="cls-2" d="M393.94,477.44c0,1.9-1.5,2.63-3.33,2.63s-3.33-.73-3.33-2.63a3.33,3.33,0,0,1,6.66,0Z"/></g></g><g id="yeux"><g id="lunettes"><path id="verre_gauche" data-name="verre gauche" class="cls-7" d="M339.08,164.22c13.36-.75,19.46-2.38,19.45,6.78,0,10.37.57,11.38-14.12,12.9-11.57,1.24-14.66-1.66-16.21-10.8C327.42,168.47,326.61,164.92,339.08,164.22Z"/><path id="verre_droit" data-name="verre droit" class="cls-7" d="M377.49,175.87c6.58,1.13,9.32.2,15.17-1.71,6.31-2.07,12.83-4.22,13-8.22.15-4.32-1.18-13.25-6.24-13.53s-8.26,1.1-15.32,3-12.93,3.27-14.38,6.34S370.45,174.67,377.49,175.87Z"/><path id="lien" class="cls-7" d="M358.19,167.82a22.63,22.63,0,0,1,5.86-2.66,17.48,17.48,0,0,1,5.25-.3"/></g></g><path class="cls-8" d="M516.61,273.64c-7.81-6.86-42.56-50.2-47.23-56.9s-11.07-7.78-19.33-16.67-7.48-17.78-10.6-25.1c-1.53-3.59-4.17-3.66-6.47-2.79-1.11-4.35-2.19-8.24-3.13-11.22h0l-.15-.72c.77-2.76,3.67-12.73,5.91-14.25,3-1.93,6-14.8,4.84-20.33-1.24-5.79-6.66-18.82-10.28-24.94-3.3-5.56-17.22-22.12-32-26.41s-31.5-5.22-42.4-.62-20.42,18.31-25.41,24c-14.65,16.74-.51,57.21-.51,57.21s-6.84-25.52-1.61-34.09a7.35,7.35,0,0,1,2.88-1.83c4.1-1.49,16.78,9.24,24.31,8.37,13.86-1.61,20-26.31,35.11-23,21.11,4.56,28.81,21.52,29.36,25.19a9.73,9.73,0,0,1,.08,1.15c-.07,2.65-.69,6.38-.64,10a17.28,17.28,0,0,0,.95,6.3c1.16,3,3.83,6.82,6.06,9.72l.07.11v.13c-.37.09-.74.27-.71.61a7.37,7.37,0,0,0,.06,1.55,4.12,4.12,0,0,1,.12,2.07,3,3,0,0,0-.3,1.81c0,.15,0,.27,0,.4a15.24,15.24,0,0,0-.51,3.28c0,1,.42,2.3.66,4.53a5.8,5.8,0,0,1-.12,3.08c-.24,1.26-.06,1.32.3,3s.55,2.62.79,3.88.18,1.27.42,2.72a21,21,0,0,1,.06,3.92,7.88,7.88,0,0,0,.54,3c.37,1.44-.36,2.48.25,4.23s.48,1.63.12,2.9a5.26,5.26,0,0,0-.43,2.35,12.08,12.08,0,0,1-.06,2c-.06,1.17-.6,1.6-.24,2.26a6.21,6.21,0,0,1,1,2.7c0,.44-.1.87-.16,1.29-.25.37-.72.5-1,1.32-.43,1.25-.39.67-.33,1.81s-.23,1.68-.3,3.23a8.07,8.07,0,0,1-1,1.61c-.31.12-.68.21-1.09.35-1.15.41-1,.24-1.63,1.21a3.93,3.93,0,0,1-1.93,1.38c-.67.35-.49-.11-2.84,0s-1.63.37-3.08,0a15.07,15.07,0,0,1-2.89-.89,8.39,8.39,0,0,0-2.17-.61,3.85,3.85,0,0,1-1.93-.73,20.77,20.77,0,0,0-1.29-1.69c-.57-.48-1.49-.36-1.61-1.32s-.36-1-.84-1.51a17.08,17.08,0,0,1-1.57-1.75c-.91-1.15-.37-.73-.61-1a5.47,5.47,0,0,0-1.63-2.19c-1.26-1-.46-.63-1.35-1.75s-1.18-1-1.9-1.27a5.29,5.29,0,0,0-2.72-.91c-1.93-.19-.84-.29-2.65-1s-2.18-.36-3.62-.57a18.87,18.87,0,0,1-2.84-.63c-1.39-.36-1.08-.55-2.23-1.09s-1.15.06-2.53.42a14.18,14.18,0,0,1-3.56.37c-1.33.06-.67.3-1.63.93s-2.78.39-3.87.51-.78.31-1.14.83-.85.5-1.93,1-1,.67-1.15,1a10.57,10.57,0,0,1-1.69,2.58c-.9.95-1.51,1.34-2.09,2.07a2.37,2.37,0,0,0-.81,2c.05,1-.54,1.81-.72,2.71a16.36,16.36,0,0,0-.06,3.08c0,1.45-.06,2.47-.06,3.44a2.92,2.92,0,0,0,.33,1.37c-.1.37-.22.83-.33,1.34a5,5,0,0,0,.45,2.86c-.71.25,0,1.08,0,1.85s-1,.84-1.5,1-.18.77-1.21,1.35c-.51.28-.79.34-.91-.26s-1-1-1.26-1.27a11.74,11.74,0,0,1-.91-1.32c-.42-.55-.24-.61-.54-1.21s-.06-.73-.3-1.39-.91-.6-1.57-1.69-.24-1-.44-1.51a9.55,9.55,0,0,0-1.13-2.47,19.3,19.3,0,0,0-2.26-3.53c-1.57-1.92-1.34-2.44-1.46-3.17s-.44-.66-.8-1.32a4.71,4.71,0,0,0-1.33-1.57l-.56-1.12a11.53,11.53,0,0,0-.11-1.6,3,3,0,0,0-.66-1.63,5.18,5.18,0,0,1-1.69-2.42c-.28-1.32-.63-.49-.78-1.53s-.67-.59-.61-1.42a2.45,2.45,0,0,0-1-1.87,10.83,10.83,0,0,1-1.41-1.89c-.19-.38-.22-1.3-.58-2.09s-1-1.07-1.33-1.65-.06-1.25-.12-1.61-1.31-1-1.31-1-.09,0-.08.24l-.36,1c0,.43-.29.9.3,1.39s.42,1.33.48,1.87a5.7,5.7,0,0,0,.31,1.45c.1.3.38.44.59.65.06.27.12.54.19.82h0c-.18.94-.74,2,0,2.63.32.29.57.44.74.58s.13.56.2.84h0a3.83,3.83,0,0,0,.05,1.53c0,.49.31.91.31,1.46s-.36,1,0,1.87,1.1,1.08,1.19,1.41l.34,1.38c.22.9-.34,1.31,0,2s.68.75.89,1.6h0a22,22,0,0,1,0,2.57,6.6,6.6,0,0,0,.41,1.52,11,11,0,0,0,.55,1.49,9.86,9.86,0,0,1,.31,1.57,1.07,1.07,0,0,0,0,1c.29.54,1.51,1.7,1.35,3a4.28,4.28,0,0,0,.57,3.18,5.59,5.59,0,0,0,.56.74c.18.76.34,1.41.46,1.95-.12,1.8-.7,2.22,0,3.25a15.72,15.72,0,0,1,1.65,2.64,14.83,14.83,0,0,0,.52,2.6,10.34,10.34,0,0,1,1,2.36,20,20,0,0,0,1.09,3.56c.42.6.66.54,1.2,1.32s.91,2.42,1.51,3,.73,1,1.69,1.51.61-.06,1.81,1.51a6.7,6.7,0,0,0,3.56,2.17,22.41,22.41,0,0,1,2.35.9,12,12,0,0,0,2.78.67c.9.18,2.59.72,3.2.84a11.78,11.78,0,0,0,2.89.73,11.57,11.57,0,0,1,4.11.48,7,7,0,0,0,3,.72c1.21,0,1.39-.48,3.62-.3a24.1,24.1,0,0,1,5.37.85,9.28,9.28,0,0,0,3.86,0c1.15-.18,2.72-.61,3.62-.79s1.69-.3,2.78-.6a21,21,0,0,1,3.38-.91c1.39-.18,3.74-.06,5.07-.54s1.26-1,2.14-1.81.73-1.05,2.34-1.7,2.15-.35,3.42-.83.94.3,1.87-1.15c.41-.64.57-1.06.8-1.39.63-.32,1.24-.65,1.85-1h0c2.11-.58,1-.09,2.11-.58s2.9-2.29,3.66-2.77a10.23,10.23,0,0,1,2.37-1.09,5,5,0,0,0,2.47-1.2c.85-.85.91-1.09,1.57-1.75a11.16,11.16,0,0,1,1.69-1.63,6.39,6.39,0,0,0,2.29-2.66,48.44,48.44,0,0,1,3.44-5.71,8.51,8.51,0,0,0,2.17-3.46,12.53,12.53,0,0,1,.79-2,4.94,4.94,0,0,0,.48-1.79v-1.69l-.23-.52c0-.07,0-.14,0-.21,3.72,3.64,7.74,9.44,15.26,16.24,12.77,11.53,5,32.89,4.82,49.25s12.8,36.15,17,43.17,9.49,6.56,14.64,5.93,3.12-5.16,4.36-7.8,1.57-.3,7-2.17,6.72,1.54,12-10.45S524.42,280.49,516.61,273.64ZM402.74,221.2a8.26,8.26,0,0,1-1.83.78c-1.59.43-1.09.36-1.51,1s-.36,1.56-1.15,4-.42.6-1.2,1.93-.55,1.51-1.27,2.77a4.15,4.15,0,0,1-2.42,2.18c-1.38.66-1.14.72-1.93,1.93s-1,1.87-1.87,1.87a9.86,9.86,0,0,0-3.13.54c-2.18.54-2.05.9-3.13.84a13.09,13.09,0,0,1-2.3-.48,9.57,9.57,0,0,1-3-1,6.31,6.31,0,0,1-2-1.45,3.53,3.53,0,0,0-2.25-1.33,9.37,9.37,0,0,1-2-.45l-.51-.5a3.09,3.09,0,0,0-.44-1.64c-.78-1.27-.84-.61-1.75-1.27a2.13,2.13,0,0,1-1-1.81c-.11-.66-.37-.79-1.21-1.23-.11-.05-.23-.13-.36-.2,0-.25,0-.52,0-.84,0-1.35-.45-1.25.18-3.14.48-1.45-.42-1.41-.73-2.74s.06-1.26.18-2.4a4.16,4.16,0,0,1,.67-2.12,4.06,4.06,0,0,0,.72-1.9c.12-.94.12-.51.55-1.66s.6-.54,1.44-.85a6.52,6.52,0,0,0,2.18-1c.66-.54.66-.85,1.38-1.13a14,14,0,0,1,2.3-.86c1-.24,1.87-.12,2.58-.86s.31-.35.92-.77,1.08-.12,2.35-.12,2.35.54,4.46.54,1.93-.54,2.72-.42,1.14.78,2.11,1.21c.81.35,1.82-.51,2.74-.53.39.19.8.4,1.23.64a4.47,4.47,0,0,0,1.88,1.64c1.57.66.5.18,1.27.84s.36,1,.9,2,1.27,1.39,2.06,2.61.6.89.84,1.61,0,1.45.54,2a3.85,3.85,0,0,1,.83,1.64Z"/><path id="forme_oreille" data-name="forme oreille" class="cls-3" d="M428.7,161.58c-1-5.74,4.37-22.3,10.44-20.58s7.32,4.08,7.32,10.23-3.19,26.71-8.92,25.93S429.74,167.49,428.7,161.58Z"/></g></svg>