<?xml version="1.0" encoding="utf-8"?>
<!-- Generator: Adobe Illustrator 26.0.2, SVG Export Plug-In . SVG Version: 6.00 Build 0)  -->
<svg version="1.1" id="Calque_1" xmlns="http://www.w3.org/2000/svg" xmlns:xlink="http://www.w3.org/1999/xlink" x="0px" y="0px"
	 viewBox="0 0 24 26.6" style="enable-background:new 0 0 24 26.6;" xml:space="preserve">
<style type="text/css">
	.st0{fill:#4479A1;}
	.st1{fill:#777BB4;}
</style>
<g>
	<path class="st0" d="M18.5,10.3c-2.1,0.5-4.3,0.8-6.5,0.7c-2.2,0-4.4-0.2-6.5-0.7c-0.6-0.1-1.2-0.4-1.7-0.6v4.4
		c0.1,0.2,0.6,0.6,2.1,1c2,0.5,4,0.7,6.1,0.7c2,0,4.1-0.2,6.1-0.7c1.5-0.4,2-0.9,2.1-1V9.7C19.6,10,19.1,10.2,18.5,10.3z M16.5,13.8
		c-0.4,0-0.7-0.2-0.8-0.6s0.2-0.7,0.6-0.8c0.1,0,0.1,0,0.2,0l0,0c0.4,0,0.7,0.3,0.7,0.7c0,0,0,0,0,0C17.2,13.5,16.9,13.8,16.5,13.8
		C16.5,13.8,16.5,13.8,16.5,13.8z"/>
	<path class="st0" d="M5.9,9c2,0.5,4,0.7,6.1,0.7c2,0,4.1-0.2,6.1-0.7c1.5-0.4,2-0.9,2.1-1V3.5c-1.7,1.1-5,1.6-8.2,1.6
		S5.5,4.6,3.8,3.5V8C3.9,8.2,4.4,8.6,5.9,9z M16.5,6.3c0.4,0,0.7,0.2,0.8,0.6s-0.2,0.7-0.6,0.8c-0.1,0-0.1,0-0.2,0l0,0
		c-0.4,0-0.7-0.3-0.7-0.7C15.8,6.6,16.1,6.3,16.5,6.3L16.5,6.3z"/>
	<path class="st0" d="M6,0.7c-1.5,0.5-2,1-2,1.2S4.5,2.6,6,3c2,0.5,4,0.8,6,0.7c2,0,4-0.2,6-0.7c1.5-0.4,2-1,2-1.1s-0.5-0.7-2.1-1.2
		C16,0.2,14,0,12,0C10,0,7.9,0.2,6,0.7z"/>
</g>
<path class="st1" d="M7,18.5H6.1l-0.5,2.6h0.8c0.4,0,0.9-0.1,1.2-0.3c0.3-0.3,0.5-0.6,0.6-1c0.1-0.3,0.1-0.7-0.1-1
	C7.8,18.6,7.4,18.5,7,18.5z M12,14c-6.6,0-12,2.8-12,6.3s5.4,6.3,12,6.3s12-2.8,12-6.3S18.6,14,12,14z M8.7,21.4
	c-0.3,0.3-0.6,0.4-0.9,0.5c-0.4,0.1-0.8,0.2-1.3,0.2H5.4L5,23.8H3.7l1.2-6.3h2.7c0.6-0.1,1.3,0.2,1.7,0.6c0.4,0.5,0.5,1.1,0.3,1.8
	c-0.1,0.3-0.2,0.6-0.3,0.9C9.2,21,9,21.2,8.7,21.4z M12.7,22.2l0.6-2.8c0.1-0.3,0-0.5-0.1-0.6c-0.2-0.1-0.4-0.2-0.7-0.2h-1.1
	l-0.7,3.6H9.4l1.2-6.3H12l-0.3,1.7h1.2c0.6-0.1,1.1,0.1,1.6,0.4c0.3,0.4,0.4,0.8,0.3,1.3l-0.6,3L12.7,22.2z M20.3,19.9
	c-0.1,0.6-0.4,1.1-0.9,1.5c-0.3,0.2-0.6,0.4-0.9,0.5c-0.4,0.1-0.9,0.2-1.3,0.2h-1.2l-0.3,1.7h-1.4l1.2-6.3h2.6
	c0.6,0,1.3,0.2,1.7,0.6C20.4,18.6,20.5,19.3,20.3,19.9L20.3,19.9z M17.8,18.5h-1l-0.5,2.6h0.8c0.4,0,0.9-0.1,1.2-0.3
	c0.3-0.3,0.5-0.6,0.5-1c0.1-0.3,0.1-0.7-0.1-1C18.5,18.6,18.1,18.5,17.8,18.5L17.8,18.5z"/>
</svg>
