<?xml version="1.0" encoding="utf-8"?>
<!-- Generator: Adobe Illustrator 26.0.2, SVG Export Plug-In . SVG Version: 6.00 Build 0)  -->
<svg version="1.1" id="Calque_1" xmlns="http://www.w3.org/2000/svg" xmlns:xlink="http://www.w3.org/1999/xlink" x="0px" y="0px"
	 viewBox="0 0 24 27.2" style="enable-background:new 0 0 24 27.2;" xml:space="preserve">
<style type="text/css">
	.st0{display:none;fill:#FFFFFF;}
	.st1{display:none;}
	.st2{display:inline;fill:#FFFFFF;}
	.st3{fill:#264DE4;}
	.st4{fill:#2965F1;}
	.st5{fill:#F16529;}
	.st6{fill:#E44D26;}
</style>
<path class="st0" d="M2.1,5.6h1.5v1.5H5V5.6h1.5v4.6H5V8.7H3.6v1.5H2.1 M8.6,7.2H7.3V5.6h4.3v1.5h-1.4v3.1H8.6 M12.2,5.6h1.6l1,1.6
	l1-1.6h1.6v4.6h-1.5V8l-1.1,1.7L13.7,8v2.3h-1.5 M18.2,5.6h1.5v3.1h2.2v1.5h-3.7"/>
<g class="st1">
	<path id="path2999" class="st2" d="M5.6,14.9h3.6v1.5h-2V18h2.1v1.5H5.6V14.9z"/>
	<path id="path3001" class="st2" d="M10,14.9h3.6v1.3h-2.1v0.3h2.1v3H10v-1.4h2.1v-0.3H10V14.9z"/>
	<path id="path3003" class="st2" d="M14.4,14.9H18v1.3h-2.1v0.3H18v3h-3.6v-1.4h2.1v-0.3h-2.1V14.9z"/>
</g>
<path class="st3" d="M0,0l2.2,24.5l9.8,2.7l9.8-2.7L24,0H0z M7.3,5.6h4.3v1.5h-1.4v3.1H8.6v-3H7.3V5.6z M3.6,8.7v1.5H2.1V5.6h1.5
	v1.5H5V5.6h1.5v4.6H5V8.7H3.6z M9.3,19.5H5.6v-4.6h3.6v1.5h-2V18h2.1V19.5z M13.6,16.2h-2.1v0.3h2.1v3H10v-1.4h2.1v-0.3H10v-2.9h3.6
	V16.2z M13.7,10.3h-1.5V5.6h1.6l1,1.6l1-1.6h1.6v4.6h-1.5V8l-1.1,1.7L13.7,8V10.3z M18,16.2h-2.1v0.3H18v3h-3.6v-1.4h2.1v-0.3h-2.1
	v-2.9H18V16.2z M18.2,10.2V5.6h1.5v3.1h2.2v1.5H18.2z"/>
<g>
	<rect x="12" y="17.8" class="st4" width="0.1" height="0.3"/>
	<path class="st4" d="M21.2,8.7L21.8,2H12v12.9h1.6v1.3H12v0.3h1.6v3H12v5.6l7.9-2.2l1.2-12.7h-2.9V5.6h1.5v3.1H21.2z M13.7,10.3
		h-1.5V5.6h1.6l1,1.6l1-1.6h1.6v4.6h-1.5V8l-1.1,1.7L13.7,8V10.3z M18,16.2h-2.1v0.3H18v3h-3.6v-1.4h2.1v-0.3h-2.1v-2.9H18V16.2z"/>
</g>
<polygon class="st5" points="12,2 12,13.5 15.9,9.1 15.9,8 14.8,9.7 13.7,8 13.7,10.3 12.2,10.3 12.2,5.6 13.8,5.6 14.8,7.2 
	15.8,5.6 17.4,5.6 17.4,7.4 18.2,6.5 18.2,5.6 19,5.6 21.8,2.5 21.8,2 "/>
<path class="st6" d="M0,0l2.2,24.5l4.4-5h-1v-4.6h3.6v1.5h-2V18H8l2-2.3v-0.8h0.7l5.2-5.8V8l-1.1,1.7L13.7,8v2.3h-1.5V5.6h1.6l1,1.6
	l1-1.6h1.6v1.8l0.8-0.9V5.6H19L24,0H0z M6.5,10.2H5V8.7H3.6v1.5H2.1V5.6h1.5v1.5H5V5.6h1.5V10.2z M11.6,7.1h-1.4v3.1H8.6v-3H7.3V5.6
	h4.3V7.1z"/>
</svg>
