<svg id="Calque_1" data-name="Calque 1" xmlns="http://www.w3.org/2000/svg" viewBox="0 0 24 27"><defs><style>.cls-1{fill:#5382a1;}.cls-2{fill:#e76f00;}</style></defs><path class="cls-1" d="M8.46,20.88s-1,.6.73.8a15.45,15.45,0,0,0,5.59-.23,9.26,9.26,0,0,0,1.49.72C11,24.44,4.31,22,8.46,20.88m-.65-3s-1.16.86.61,1a21.68,21.68,0,0,0,7.21-.34,3.28,3.28,0,0,0,1.12.68c-6.39,1.86-13.51.14-8.94-1.38"/><path class="cls-2" d="M13.26,12.91a2,2,0,0,1-.35,2.85s3.31-1.71,1.79-3.85c-1.42-2-2.5-3,3.38-6.4,0,0-9.24,2.31-4.82,7.4"/><path class="cls-1" d="M20.25,23.07s.76.63-.84,1.11c-3.06.93-12.7,1.21-15.38,0-1-.42.84-1,1.41-1.12A3.77,3.77,0,0,1,6.37,23c-1.07-.75-6.92,1.48-3,2.12,10.77,1.75,19.64-.78,16.85-2M9,14.86S4.05,16,7.22,16.45a36.6,36.6,0,0,0,6.49-.07c2-.17,4.07-.53,4.07-.53a8,8,0,0,0-1.24.66c-5,1.31-14.61.7-11.84-.64a9.24,9.24,0,0,1,4.25-1m8.81,4.92c5.06-2.63,2.72-5.16,1.08-4.82a2.77,2.77,0,0,0-.57.16.86.86,0,0,1,.43-.34c3.23-1.13,5.72,3.36-1.05,5.13a.56.56,0,0,0,.11-.13"/><path class="cls-2" d="M14.7,0S17.51,2.81,12,7.12c-4.38,3.46-1,5.44,0,7.69C9.48,12.5,7.6,10.47,8.86,8.58c1.85-2.78,7-4.12,5.84-8.58"/><path class="cls-1" d="M9.45,26.92c4.86.31,12.33-.18,12.51-2.48,0,0-.34.87-4,1.57a40.06,40.06,0,0,1-12.31.19s.62.51,3.82.72"/></svg>