<svg xmlns="http://www.w3.org/2000/svg" viewBox="0 0 300 300"><defs><style>.cls-1{fill:#ecc3ff;}</style></defs><g id="favicon"><circle class="cls-1" cx="77.82" cy="149.54" r="32.61"/><circle class="cls-1" cx="162.61" cy="149.54" r="32.61"/><polygon class="cls-1" points="117.82 182.15 101.74 197.8 135.22 197.8 117.82 182.15"/><path class="cls-1" d="M259.24,220.37A129.6,129.6,0,0,0,280,150a130.31,130.31,0,1,0-56.79,107.33L280,280Zm-104,39.25V220H140v39.31a110,110,0,0,1-13.92-2.2V220H110.87v32.48a108.81,108.81,0,0,1-14.35-6.66V220H81.3V235.5a109.73,109.73,0,1,1,173.58-53.09c-.52,1.69-1.12,3.35-1.72,5a78.51,78.51,0,0,0-70.93,67.47c-1.72.53-3.43,1.05-5.18,1.49A108.59,108.59,0,0,1,155.22,259.62Z"/></g></svg>