<svg xmlns="http://www.w3.org/2000/svg" viewBox="0 0 300 300">
    <defs>
        <style>
            .cls-1 {
                fill: #ecc3ff;
            }
        </style>
    </defs>
    <g id="logo">
        <polygon class="cls-1" points="300 299.99 226.31 270.68 271.11 222.98 300 299.99" />
        <path class="cls-1" d="M291.56,199.76a150.39,150.39,0,0,1-100.8,94.63,77.54,77.54,0,0,1-2.19-18.52v-.94a79.65,79.65,0,0,1,79.63-78.69c1.33,0,2.7,0,4,.09A78,78,0,0,1,291.56,199.76Z" />
        <path class="cls-1" d="M150,25a125,125,0,0,1,88.39,213.39A125,125,0,0,1,61.61,61.61,124.18,124.18,0,0,1,150,25m0-25A150,150,0,1,0,300,150,150,150,0,0,0,150,0Z" />
        <g id="face">
            <g id="teeth">
                <rect class="cls-1" x="72.03" y="229.62" width="18.66" height="45.62" />
                <rect class="cls-1" x="105.12" y="229.62" width="18.66" height="54.75" />
                <rect class="cls-1" x="138.21" y="229.62" width="18.66" height="60.14" />
            </g>
            <polygon class="cls-1" points="114.54 186.49 94.84 205.98 133.82 205.98 114.54 186.49" />
            <g id="eyes">
                <circle class="cls-1" cx="67.47" cy="149.99" r="36.91" />
                <circle class="cls-1" cx="165.35" cy="149.99" r="36.91" />
            </g>
        </g>
    </g>
</svg>