<svg xmlns="http://www.w3.org/2000/svg" viewBox="0 0 1097.19 300">
    <defs>
        <style>
            .cls-1 {
                fill: #ecc3ff;
            }
        </style>
    </defs>
    <g id="logo_full_length" data-name="logo full length">
        <circle class="cls-1" cx="66.72" cy="149.47" r="37.63" />
        <circle class="cls-1" cx="164.55" cy="149.47" r="37.63" />
        <polygon class="cls-1" points="112.87 187.09 94.31 205.15 132.94 205.15 112.87 187.09" />
        <path class="cls-1" d="M276.05,231.2a150.45,150.45,0,1,0-41.57,42.65L300,300ZM156,276.48V230.74H138.46v45.35a126.56,126.56,0,0,1-16.05-2.54V230.74H104.85v37.47a126.52,126.52,0,0,1-16.56-7.69V230.74H70.73v17.91A126.61,126.61,0,1,1,271,187.4c-.6,1.95-1.29,3.86-2,5.77A90.57,90.57,0,0,0,187.19,271c-2,.6-4,1.21-6,1.72A125.3,125.3,0,0,1,156,276.48Z" />
        <path class="cls-1" d="M630.94,274H580.87V94.75a24,24,0,0,0-2-9.8,26.13,26.13,0,0,0-5.43-8,24.83,24.83,0,0,0-17.77-7.26,25,25,0,0,0-9.81,1.92,24.85,24.85,0,0,0-15.23,23.11V274H480.37V94.75a25,25,0,1,0-50.07,0V274H380.05V94.75a73.88,73.88,0,0,1,5.86-29.32A74.93,74.93,0,0,1,426,25.33a75.85,75.85,0,0,1,56.29-.87A73,73,0,0,1,505.58,38.9,74.94,74.94,0,0,1,585,25.33a74.93,74.93,0,0,1,40.1,40.1,73.88,73.88,0,0,1,5.86,29.32Z" />
        <path class="cls-1"
            d="M876.24,248.3a129.49,129.49,0,0,1-118.62,26.53A130.76,130.76,0,0,1,666.75,184a130.21,130.21,0,0,1,0-68.9,130.7,130.7,0,0,1,90.87-90.95A126.55,126.55,0,0,1,792,19.47a129.65,129.65,0,0,1,45,8,124.84,124.84,0,0,1,39.22,23.2L849.62,94.4a75.07,75.07,0,0,0-26.08-18.29A79.9,79.9,0,0,0,792,69.72,77.44,77.44,0,0,0,760.86,76a82,82,0,0,0-25.39,17.07,79.83,79.83,0,0,0-17.16,25.39,77.64,77.64,0,0,0-6.3,31.07,76.46,76.46,0,0,0,6.3,30.91,80.87,80.87,0,0,0,42.55,42.45A77.28,77.28,0,0,0,792,229.22a79.9,79.9,0,0,0,31.52-6.39,75.1,75.1,0,0,0,26.08-18.3Z" />
        <path class="cls-1" d="M1097.19,23,1014.73,274H964.48L882.37,23h57.07l50.08,167.55L1039.77,23Z" />
    </g>
</svg>