<svg xmlns="http://www.w3.org/2000/svg" viewBox="0 0 300 300"><defs><style>.cls-1{fill:#ecc3ff;}</style></defs><g id="logo"><circle class="cls-1" cx="66.72" cy="149.47" r="37.63"/><circle class="cls-1" cx="164.55" cy="149.47" r="37.63"/><polygon class="cls-1" points="112.87 187.09 94.31 205.15 132.94 205.15 112.87 187.09"/><path class="cls-1" d="M276.05,231.2a150.45,150.45,0,1,0-41.57,42.65L300,300ZM156,276.48V230.74H138.46v45.35a126.56,126.56,0,0,1-16.05-2.54V230.74H104.85v37.47a126.52,126.52,0,0,1-16.56-7.69V230.74H70.73v17.91A126.61,126.61,0,1,1,271,187.4c-.6,1.95-1.29,3.86-2,5.77A90.57,90.57,0,0,0,187.19,271c-2,.6-4,1.21-6,1.72A125.3,125.3,0,0,1,156,276.48Z"/></g></svg>