<?xml version="1.0" encoding="utf-8"?>
<!-- Generator: Adobe Illustrator 26.0.2, SVG Export Plug-In . SVG Version: 6.00 Build 0)  -->
<svg version="1.1" id="Calque_1" xmlns="http://www.w3.org/2000/svg" xmlns:xlink="http://www.w3.org/1999/xlink" x="0px" y="0px"
	 viewBox="0 0 24 27" style="enable-background:new 0 0 24 27;" xml:space="preserve">
<style type="text/css">
	.st0{fill:#5382A1;}
	.st1{fill:#E76F00;}
</style>
<path class="st0" d="M8.5,20.9c0,0-1,0.6,0.7,0.8c2.1,0.2,3.2,0.2,5.6-0.2c0,0,0.6,0.4,1.5,0.7C11,24.4,4.3,22,8.5,20.9 M7.8,17.9
	c0,0-1.2,0.9,0.6,1c2.3,0.2,4.1,0.3,7.2-0.3c0,0,0.4,0.4,1.1,0.7C10.4,21.2,3.2,19.4,7.8,17.9"/>
<path class="st1" d="M13.3,12.9c1.3,1.5-0.3,2.8-0.3,2.8s3.3-1.7,1.8-3.8c-1.4-2-2.5-3,3.4-6.4C18.1,5.5,8.8,7.8,13.3,12.9"/>
<path class="st0" d="M20.2,23.1c0,0,0.8,0.6-0.8,1.1c-3.1,0.9-12.7,1.2-15.4,0c-1-0.4,0.8-1,1.4-1.1C6,23,6.4,23,6.4,23
	c-1.1-0.8-6.9,1.5-3,2.1C14.2,26.9,23,24.3,20.2,23.1 M9,14.9c0,0-4.9,1.2-1.7,1.6c1.3,0.2,4,0.1,6.5-0.1c2-0.2,4.1-0.5,4.1-0.5
	s-0.7,0.3-1.2,0.7c-5,1.3-14.6,0.7-11.8-0.6C7,14.7,9,14.9,9,14.9 M17.8,19.8c5.1-2.6,2.7-5.2,1.1-4.8c-0.4,0.1-0.6,0.2-0.6,0.2
	s0.1-0.2,0.4-0.3c3.2-1.1,5.7,3.4-1,5.1C17.7,19.9,17.7,19.8,17.8,19.8"/>
<path class="st1" d="M14.7,0c0,0,2.8,2.8-2.7,7.1c-4.4,3.5-1,5.4,0,7.7c-2.6-2.3-4.4-4.3-3.2-6.2C10.7,5.8,15.8,4.5,14.7,0"/>
<path class="st0" d="M9.5,26.9c4.9,0.3,12.3-0.2,12.5-2.5c0,0-0.3,0.9-4,1.6c-4.2,0.8-9.3,0.7-12.3,0.2C5.6,26.2,6.3,26.7,9.5,26.9"
	/>
</svg>
