<?xml version="1.0" encoding="utf-8"?>
<!-- Generator: Adobe Illustrator 26.0.2, SVG Export Plug-In . SVG Version: 6.00 Build 0)  -->
<svg version="1.1" id="Calque_1" xmlns="http://www.w3.org/2000/svg" xmlns:xlink="http://www.w3.org/1999/xlink" x="0px" y="0px"
	 viewBox="0 0 24 36" style="enable-background:new 0 0 24 36;" xml:space="preserve">
<style type="text/css">
	.st0{fill:#4479A1;}
	.st1{fill:#777BB4;}
</style>
<g>
	<g>
		<path class="st0" d="M9.3,19c-1.4-0.1-2.7-0.3-3.8-0.6c-0.7-0.2-1.3-0.4-1.7-0.6v2.8C5.3,19.8,7.2,19.3,9.3,19z"/>
		<path class="st0" d="M20.2,20.6v-2.8c-0.4,0.2-1,0.5-1.7,0.6c-1.1,0.3-2.4,0.5-3.8,0.6C16.8,19.3,18.7,19.8,20.2,20.6z"/>
	</g>
	<path class="st0" d="M18.5,12.3c-1.7,0.5-4,0.7-6.5,0.7c-2.4,0-4.8-0.3-6.5-0.7c-0.7-0.2-1.3-0.4-1.7-0.6v4.4
		c0.1,0.2,0.6,0.6,2.1,1c1.6,0.4,3.8,0.7,6.1,0.7c2.3,0,4.4-0.2,6.1-0.7c1.5-0.4,2-0.9,2.1-1v-4.4C19.8,11.9,19.2,12.1,18.5,12.3z
		 M16.5,15.8c-0.4,0-0.7-0.3-0.7-0.7c0-0.4,0.3-0.7,0.7-0.7h0c0.4,0,0.7,0.3,0.7,0.7C17.2,15.5,16.9,15.8,16.5,15.8z"/>
	<path class="st0" d="M5.9,11c1.6,0.4,3.8,0.7,6.1,0.7c2.3,0,4.4-0.2,6.1-0.7c1.5-0.4,2-0.9,2.1-1V5.6c-1.7,1.1-5,1.6-8.2,1.6
		S5.5,6.6,3.8,5.6V10C3.9,10.2,4.4,10.6,5.9,11z M16.5,8.3c0.4,0,0.7,0.3,0.7,0.7c0,0.4-0.3,0.7-0.7,0.7h0c-0.4,0-0.7-0.3-0.7-0.7
		C15.9,8.6,16.2,8.3,16.5,8.3z"/>
	<path class="st0" d="M6,2.7C4.5,3.2,4,3.7,4,3.9C4,4.1,4.5,4.6,6,5c1.6,0.5,3.7,0.7,6,0.7c2.3,0,4.4-0.3,6-0.7
		c1.6-0.5,2.1-1,2.1-1.2c0-0.2-0.5-0.7-2.1-1.2C16.4,2.3,14.3,2,12,2C9.7,2,7.6,2.3,6,2.7z"/>
</g>
<path class="st1" d="M7,23.4H6.1L5.6,26h0.8c0.6,0,1-0.1,1.2-0.3c0.3-0.2,0.5-0.6,0.5-1c0.1-0.5,0.1-0.8-0.1-1
	C7.9,23.5,7.5,23.4,7,23.4z M12,18.9c-6.6,0-12,2.8-12,6.3s5.4,6.3,12,6.3s12-2.8,12-6.3S18.6,18.9,12,18.9z M8.7,26.3
	c-0.3,0.2-0.6,0.4-0.9,0.6C7.5,27,7.1,27,6.5,27H5.4L5,28.7H3.7l1.2-6.3h2.7c0.8,0,1.4,0.2,1.7,0.6c0.4,0.4,0.5,1,0.3,1.8
	c-0.1,0.3-0.2,0.6-0.3,0.8C9.2,25.9,9,26.1,8.7,26.3z M12.8,27l0.5-2.8c0.1-0.3,0-0.5-0.1-0.7c-0.1-0.1-0.3-0.2-0.7-0.2h-1.1
	L10.8,27H9.4l1.2-6.3H12l-0.3,1.7h1.2c0.8,0,1.3,0.1,1.6,0.4s0.4,0.7,0.3,1.3L14.2,27H12.8z M20.4,24.8c-0.1,0.3-0.2,0.6-0.3,0.8
	c-0.1,0.3-0.3,0.5-0.6,0.7c-0.3,0.2-0.6,0.4-0.9,0.6C18.2,27,17.8,27,17.3,27h-1.2l-0.3,1.7h-1.4l1.2-6.3h2.6c0.8,0,1.4,0.2,1.7,0.6
	C20.4,23.4,20.5,24,20.4,24.8z M17.8,23.4h-0.9L16.3,26h0.8c0.6,0,1-0.1,1.2-0.3c0.3-0.2,0.5-0.6,0.6-1c0.1-0.5,0-0.8-0.1-1
	C18.6,23.5,18.3,23.4,17.8,23.4z"/>
</svg>
