<svg xmlns="http://www.w3.org/2000/svg" viewBox="0 0 600 600"><defs><style>.cls-1{fill:#e1aa7d;}.cls-2{fill:#d19c78;}.cls-3{fill:#fdfeeb;}.cls-3,.cls-5{stroke:#eaeace;}.cls-3,.cls-5,.cls-7{stroke-miterlimit:10;}.cls-3,.cls-5,.cls-6,.cls-7,.cls-8{stroke-width:10px;}.cls-4{fill:#3d251a;}.cls-5,.cls-6{fill:none;}.cls-6{stroke:#d6c0b0;}.cls-6,.cls-8{stroke-linecap:round;stroke-linejoin:round;}.cls-7,.cls-8{fill:#3a3a3a;stroke:#232323;}.cls-9{fill:#be8a60;}</style></defs><g id="dessin"><rect class="cls-1" width="600" height="600"/><polygon class="cls-2" points="336.95 153.24 538.05 228.94 552.23 63.6 336.95 153.24"/><polygon class="cls-2" points="251.93 84.58 76.61 59.19 72.29 233.03 251.93 84.58"/><polygon class="cls-2" points="69.64 366.94 229.9 630.55 661.9 454.03 69.64 366.94"/><g id="mug"><path class="cls-3" d="M212,390.76s-90.3,15.57-84.85-56.82,86.41-38.15,86.41-38.15L212,264.65s-115.21-31.91-116,74,116.77,80.18,116.77,80.18Z"/><path class="cls-3" d="M194.08,230.4l6.23,239s37.36,30.36,133.11,28.8,99.65-32.7,99.65-32.7l6.22-236.65S405,210.16,313.18,210.16,194.08,230.4,194.08,230.4Z"/><path class="cls-4" d="M219,237.41s53.71-8,101.2-8S418,236.89,418,236.89l-104.58,10.9Z"/><path class="cls-5" d="M194.08,230.4S236.9,247.53,321.75,246s116.77-16.35,116.77-16.35"/><path class="cls-6" d="M249.9,184.35s-25.29-22.19-24.77-51.61,29.93-43.87,30.45-72.26"/><path class="cls-6" d="M323.71,209.21S298.42,187,298.94,157.6s29.93-43.87,30.45-72.26"/><path class="cls-6" d="M391.84,185.47s-25.29-22.2-24.77-51.62S397,90,397.52,61.6"/></g><g id="face-2" data-name="face"><path class="cls-7" d="M235.14,342.87a28.22,28.22,0,1,0,52,15.26,27.6,27.6,0,0,0-.33-4.29Z"/><path class="cls-7" d="M403.87,341.26a28.22,28.22,0,1,1-52,15.26,28.88,28.88,0,0,1,.32-4.29Z"/><line class="cls-8" x1="292.12" y1="408.06" x2="350.9" y2="408.06"/></g><path class="cls-9" d="M575,25V575H25V25H575M600,0H0V600H600V0Z"/></g></svg>