<svg xmlns="http://www.w3.org/2000/svg" xmlns:xlink="http://www.w3.org/1999/xlink" viewBox="0 0 600 600"><defs><style>.cls-1{fill:#ed7f2e;}.cls-2{fill:#ef843c;}.cls-3{fill:#e57c35;}.cls-4,.cls-5,.cls-6{stroke:#c76706;stroke-linecap:round;stroke-linejoin:round;}.cls-4,.cls-5{stroke-width:10px;}.cls-4{fill:url(#Dégradé_sans_nom_13);}.cls-5,.cls-6{fill:#f0750f;}.cls-6{stroke-width:7px;}.cls-7{fill:#e25b10;}</style><radialGradient id="Dégradé_sans_nom_13" cx="311.84" cy="436.23" r="141.24" gradientUnits="userSpaceOnUse"><stop offset="0" stop-color="#fca430"/><stop offset="0.19" stop-color="#fba02d"/><stop offset="0.39" stop-color="#f89324"/><stop offset="0.6" stop-color="#f27e15"/><stop offset="0.67" stop-color="#f0750f"/></radialGradient></defs><g id="dessin"><rect class="cls-1" width="600" height="600"/><path class="cls-2" d="M713.82,271.92c-33.9-8.55-64.45-15.78-66.59-36.9a57.9,57.9,0,0,1,.28-13.55c16.53-11.36,28.92-33,31.52-52,3.63-26.49,5.38-54.45,1.36-69.8s-34.89-40-61.83-39.61c-30.36.39-52.89,28.62-55.73,43.08s-5.79,49.15,1.23,69.54c4.73,13.75,13.2,30.69,26,42.46a77.27,77.27,0,0,1,0,19.58C586.8,261,502.2,265,496.77,263.67c-34-8.33-64.45-15.78-66.59-36.9a57.36,57.36,0,0,1,.28-13.55c16.53-11.36,28.92-33,31.52-52,3.63-26.49,5.37-54.45,1.35-69.8s-34.88-40-61.83-39.61c-30.36.39-52.88,28.62-55.73,43.08S340,144.07,347,164.46c4.74,13.75,13.21,30.69,25.95,42.46a76.35,76.35,0,0,1,0,19.58c-3.21,26.21-72.92,37.26-74.07,38.4-32.52-8.19-61.1-15.63-63.17-36a57.36,57.36,0,0,1,.28-13.55c16.53-11.36,28.92-33,31.52-52,3.63-26.49,5.37-54.45,1.35-69.8S234,53.58,207,53.93c-30.36.39-52.88,28.62-55.73,43.08s-5.78,49.15,1.24,69.54c4.73,13.75,13.2,30.69,25.94,42.46a76.35,76.35,0,0,1,0,19.58c-3.21,26.21-87.81,30.25-93.24,28.92-34-8.33-64.45-15.78-66.58-36.9a56.84,56.84,0,0,1,.28-13.55c16.52-11.36,28.91-33,31.51-52,3.63-26.49,5.38-54.45,1.36-69.8S16.92,45.33-10,45.68c-30.36.39-52.88,28.62-55.73,43.08s-5.79,49.15,1.23,69.54c4.74,13.75,13.2,30.69,25.95,42.46a77.27,77.27,0,0,1,0,19.58c-3.21,26.21-47.6,32.09-70.87,36.37-9.88,1.82-30.91,58.64-30.91,58.64l4.26,37.16-8.51,96L169,445.45l98.19,5.86,313.34.3,129.09,7.7,35.23-89.46,6.58-18.93S726.3,275.07,713.82,271.92Z"/><path class="cls-3" d="M622.81,509l6.58-18.92s-25.16-75.86-37.64-79c-33.91-8.54-64.45-15.78-66.59-36.9a57.27,57.27,0,0,1,.28-13.54c16.53-11.37,28.92-33,31.52-52,3.63-26.49,5.38-54.44,1.35-69.8s-34.88-40-61.83-39.61c-30.36.39-52.88,28.62-55.73,43.09S435,291.47,442,311.86c4.73,13.75,13.2,30.7,25.94,42.46a76.35,76.35,0,0,1,0,19.58c-3.2,26.21-47.6,32.09-70.86,36.37-8.21,1.51-59.55,12.54-97.1,12.79-14.71-3.45-86-16.25-91.45-17.58-34-8.32-64.44-15.78-66.58-36.9a57.27,57.27,0,0,1,.28-13.54c16.52-11.37,28.91-33,31.51-52,3.63-26.49,5.38-54.45,1.36-69.8s-34.89-40-61.83-39.61c-30.36.39-52.88,28.62-55.73,43.08s-5.79,49.15,1.23,69.54C63.5,320,72,337,84.71,348.73a76.81,76.81,0,0,1,0,19.58c-3.21,26.21-47.6,32.09-70.87,36.37-9.88,1.82-30.9,58.64-30.9,58.64l4.25,37.16-8.51,96,346.45-4.64,262.45,6.62Z"/><g id="Calque_3" data-name="Calque 3"><path class="cls-4" d="M405.26,587.45,397.87,489l49.19-9.89s-25.15-75.85-37.63-79c-33.91-8.55-64.45-15.78-66.59-36.9-2.22-21.88,9.63-39.85,9.63-39.85l-73.81-.53s10.16,13.9,6.95,40.11S238,395,214.75,399.26c-9.89,1.82-30.91,58.64-30.91,58.64L220,500.64l-8.26,93Z"/><path class="cls-5" d="M258.43,231.31c-2.85,14.46-5.78,49.15,1.23,69.54,8.11,23.53,27.11,56.42,59.83,56.69,27.42.22,51.41-32.62,55.15-59.9,3.63-26.49,5.37-54.45,1.35-69.8s-34.88-40-61.83-39.61C283.8,188.62,261.28,216.85,258.43,231.31Z"/><path class="cls-5" d="M415.06,404.23s56.49,91.43,25.29,130.58S304.25,468,304.25,468l-43-31.78,3.52-14.69L281,402.13l23.08,8.29,31,38.71s43.36,1.55,69.17,33"/><path class="cls-5" d="M211.71,401.13s-80.52,112-35.61,140.9c41.41,26.66,135.15-62.24,135.15-62.24l35.65-30.56L353.58,434l-10.39-13.48-11.48-11-13.77-8.35-19,30.93,12.31-25.2-15,.64-16.55,23.55.64,22s-57.85,21.66-68.67,33.76"/><g id="visage-7" data-name="visage"><path class="cls-5" d="M273.65,266.29a43,43,0,0,1,13.16-3.1c7-.38,16.64,2.33,16.64,2.33"/><path class="cls-5" d="M332.1,265.13s9.29-2.32,16.25-2.32a24.44,24.44,0,0,1,14.71,5.42"/><path class="cls-6" d="M274.81,286s7.74,5.81,12.38,5.81S301.13,288,301.13,288"/><path class="cls-6" d="M334,287.58s10.45,5,14.32,5,10.46-5,10.46-5"/><path class="cls-6" d="M303.45,324.35s7.74,4.65,13.16,4.65,13.94-1.94,13.94-1.94"/></g></g><path class="cls-7" d="M575,25V575H25V25H575M600,0H0V600H600V0Z"/></g></svg>