<svg xmlns="http://www.w3.org/2000/svg" viewBox="0 0 600 600"><defs><style>.cls-1{fill:#59000d;}.cls-2{fill:#510013;}.cls-3{fill:#490013;}.cls-4{fill:#1d2e5b;stroke:#102044;}.cls-4,.cls-5,.cls-6{stroke-linecap:round;stroke-linejoin:round;}.cls-4,.cls-5{stroke-width:10px;}.cls-5{fill:#132244;}.cls-5,.cls-6{stroke:#08152d;}.cls-6{fill:none;stroke-width:7px;}.cls-7{fill:#350519;}</style></defs><g id="dessin"><rect class="cls-1" width="600" height="600"/><path class="cls-2" d="M173,186.16c96,11.61,219.1-34.06,286.45-14.71s205.94,113,205.94,113L703.32,680.1-38.35,646.81-19.77,97.13S77,174.55,173,186.16Z"/><path class="cls-3" d="M-39.13,404.48S46,331.71,137.39,334.81,376.61,440.87,463.32,447.06s214.45-72.77,214.45-72.77L664.61,632.87l-704.51.78Z"/><path class="cls-4" d="M522.9,580.26S477.12,438.2,459.84,427.32c-44.41-28-101.24-45-104.45-76.72-3.32-32.83,14.45-59.8,14.45-59.8L259.06,290s15.25,20.87,10.44,60.21-80.82,57.85-106.95,69c-13.87,5.92-53.42,176.52-53.42,176.52L166,589.9l-7.46,106.65,290.51-9.29V595.1ZM314.29,574a73.94,73.94,0,1,1,73.94-73.93A73.94,73.94,0,0,1,314.29,574Z"/><path class="cls-4" d="M152.08,642.5l45-57.56,8-61.63,50.69-31.8s16.9,9.93,13.91,10.93S262,525.26,262,525.26l19.36-13.94,21.06,17V579l-49.69,48.71-17.89,5-35.79,32.8Z"/><path class="cls-4" d="M394.92,637l-70.57-37.77-16.9-54.67,27.83-13.91,5,14.91-2-30.81,34.78-4s5,38.76,12.93,44.73,20.87,8.94,20.87,8.94l-6-24.85-12.93-1V526.69l25.85,3,13.91,35.79,2,54.66Z"/><path class="cls-4" d="M228.7,152.71c-4.28,21.71-8.69,73.76,1.85,104.37,12.16,35.32,40.69,84.69,89.79,85.09,41.16.34,77.16-49,82.78-89.91,5.45-39.76,8.07-81.72,2-104.76s-52.36-60-92.8-59.46C266.78,88.63,233,131,228.7,152.71Z"/><path class="cls-5" d="M339.19,161.94s4.75,10.44,19.73,10.16,11.44,66.71,11.44,66.71-2.82-64.39,5.86-65.76,3.53-3.92,3.53-3.92S350,145,339.19,161.94Z"/><path class="cls-5" d="M292,158s-5,10.32-20,9.63S258.78,234,258.78,234s4.56-64.29-4.08-65.89-3.42-4-3.42-4S281.65,140.77,292,158Z"/><path class="cls-6" d="M331.73,151.87s-7.29-4-7.29-9.94V127.68"/><path class="cls-6" d="M302.58,148.56s6-.39,7.95-5,.33-16.9.33-16.9"/><path class="cls-5" d="M319.56,232.38C347.73,233.6,354.84,265,354.84,265s-3.14,14.71-36.28,13.22-37.95-16.16-37.95-16.16S285.43,230.89,319.56,232.38Z"/><path class="cls-7" d="M575,25V575H25V25H575M600,0H0V600H600V0Z"/></g></svg>