<svg xmlns="http://www.w3.org/2000/svg" viewBox="0 0 600 600"><defs><style>.cls-1{fill:#3c6;}.cls-2{fill:#4ddb78;}.cls-3{fill:#ffeed2;stroke:#e5ceac;}.cls-3,.cls-4,.cls-5,.cls-6{stroke-linecap:round;stroke-linejoin:round;stroke-width:10.97px;}.cls-4{fill:#30272d;stroke:#1c161a;}.cls-5{fill:#d7e6f7;stroke:#c1d3e5;}.cls-6{fill:#1f1e2d;stroke:#141423;}.cls-7{fill:#27af51;}</style></defs><g id="dessin"><rect class="cls-1" width="600" height="600"/><path class="cls-2" d="M48.88,459l69.42,95.43,95.43-69.41-69.41-95.44Zm131.88,20.81L123.5,521.49,81.85,464.23l57.26-41.65Z"/><path class="cls-2" d="M613.77,464.91,475.06,394.4,404.55,533.12l138.72,70.51ZM446.39,519.48l42.31-83.23,83.23,42.3-42.31,83.24Z"/><path class="cls-2" d="M237-36.59,74.61,288.14,399.34,450.55,561.75,125.83ZM366.87,353.12,172,255.68,269.49,60.84l194.83,97.45Z"/><g id="tete-4" data-name="tete"><path class="cls-3" d="M296.69,248.06s2.55,43.31-11.89,54.35,70.48,19.53,62,5.94-13.59-56.89-13.59-56.89Z"/><path class="cls-3" d="M313.67,278.63C351,280.41,366.32,243.81,368,207.3s-8.49-67.08-48.4-70.48-50.95,34.82-51.8,65.39S278,276.93,313.67,278.63Z"/><path class="cls-4" d="M366,217.77s-3.12-56-24.34-60.29S329.24,175.6,314,188.62c-14.92,12.71-26,4.25-26,4.25s5.37-1.7,9.05-11.89-7.07-16.14-7.07-16.14-1.42,13.31-8.21,17.27c-7,4.06-11.32,3.68-11.32,3.68l-1.7,33.68s-41.61-105.29,47.27-101.33S366,217.77,366,217.77Z"/></g><g id="habits-2" data-name="habits"><polygon class="cls-5" points="228.74 587.97 295.32 659.97 391.32 588.74 317 523.71 228.74 587.97"/><polygon class="cls-5" points="285.09 295.89 249.71 365.24 317.07 527.43 385.57 370.62 334.34 297.59 285.09 295.89"/><polygon class="cls-6" points="312.82 326.46 296.41 519.22 351.04 518.37 319.62 325.62 312.82 326.46"/><polygon class="cls-6" points="294.99 316.27 316.79 339.48 336.6 316.84 315.65 299.29 294.99 316.27"/><path class="cls-5" d="M289.61,284.57s-15.28,12.17-9.05,24.63,15.28,18.11,15.28,18.11l20.1-29.72Z"/><path class="cls-5" d="M337.45,325.9l-21.51-28.31,27.74-11.88s13,13.86,8.77,23.21S337.45,325.9,337.45,325.9Z"/><path class="cls-4" d="M281.41,288s1.69,78.12,10.19,113.78,28.87,90,28.87,90,16.13-60.29,22.92-94.25,8.49-110.39,8.49-110.39l54.92,35.1s12.67,19.49,8.49,38.78c-9.72,44.79-31.56,122.65-28.59,151.14,4.25,40.76,34.81,122.28,34.81,122.28s-57.74-.85-82.36-27.17-26.33-47.56-26.33-47.56-26.32,25.48-61.13,40.76-56.05,11.89-56.05,11.89,56.9-79.82,55.2-122.27c-1.2-29.83-24.13-81.48-35.45-118-4.8-15.48,1.27-44.36,1.27-44.36Z"/><polyline class="cls-3" points="309.99 402.04 278.58 357.88 301.5 319.95 309.14 352.5 323.01 361 329.52 351.65 327.54 326.46 341.13 345.43 341.41 369.2 334.05 390.72"/><path class="cls-4" d="M406.8,322.22s37.36,78.69,43.59,107.56,2.26,65.1,2.26,65.1-17.55,12.45-69.06-14.16S300.94,410,300.94,410l40.76-22.64,73,57.74-22.64-56.61"/><polyline class="cls-4" points="217.72 326.75 178.66 469.4 206.4 621.68 242.63 595.08 218.29 479.03 242.06 417.32"/></g><path class="cls-7" d="M575,25V575H25V25H575M600,0H0V600H600V0Z"/></g></svg>