<svg xmlns="http://www.w3.org/2000/svg" viewBox="0 0 600 600"><defs><style>.cls-1{fill:#eb668f;}.cls-12,.cls-13,.cls-15,.cls-2,.cls-4{fill:none;}.cls-2{stroke:#ed7ea6;stroke-width:160px;}.cls-11,.cls-12,.cls-13,.cls-14,.cls-15,.cls-2,.cls-3,.cls-4,.cls-5,.cls-6{stroke-linecap:round;stroke-linejoin:round;}.cls-3,.cls-5{fill:#ffeed2;}.cls-3,.cls-4,.cls-5{stroke:#e5ceac;}.cls-12,.cls-13,.cls-15,.cls-3,.cls-4,.cls-6{stroke-width:7px;}.cls-11,.cls-14,.cls-5{stroke-width:10px;}.cls-6{fill:#3a3a3a;}.cls-12,.cls-6{stroke:#111;}.cls-7{fill:#fbf9b0;}.cls-8{fill:#e66535;}.cls-9{fill:#dd2e49;}.cls-10{fill:#4caecc;}.cls-11{fill:#feb9dc;}.cls-11,.cls-13{stroke:#f28dbd;}.cls-14{fill:#7967ba;}.cls-14,.cls-15{stroke:#452683;}.cls-16{fill:#d65684;}</style></defs><g id="dessin"><rect class="cls-1" width="600" height="600"/><line class="cls-2" x1="100.59" y1="-37.89" x2="305.49" y2="726.81"/><line class="cls-2" x1="506.84" y1="-21.99" x2="305.93" y2="727.84"/><g id="dash"><g id="corps-3" data-name="corps"><g id="V"><path class="cls-3" d="M449.42,264.07s6.43-34.69,10.54-44.24,11.67-16.65,13.06-24.59,3.59-47.91,3.59-47.91S476,134,482.24,134s6.17,14.41,6.17,14.41-1.37,42.16,1.44,43.34,23.7-45.92,23.7-45.92,3.63-9.71,9.74-7.71,1.29,12.5,1.29,12.5L505,199.58l14,6.32,2.41,20.34,2.37,1.15L521,231.55c-3.82,9.31-14.3,28.83-21.49,35-9.05,7.79-11.19,9.26-11.19,9.26L483,303.71s-48.53-14.85-47.89-15.14S449.42,264.07,449.42,264.07Z"/><path class="cls-3" d="M504.1,202.1c.47-1.34,10.47-7.83,14.71-4.71,7.26,5.34.45,16.58.45,16.58"/><path class="cls-3" d="M519.71,234.35a11.46,11.46,0,0,1,2.58-4.32c4-4.33,11.61-9.74,9-14.58-4-7.42-15.11-6-22.3-.73s-15.69,10.64-7.81,13.15,12.49-1.57,12.49-1.57"/><path class="cls-4" d="M458.55,223.84s8.19-17.16,27.77-18.71c12.14-1,24.93-7.32,25.22,3.29s-21.38,13.42-21.38,13.42S483,231.32,480,232.93,469,238.06,469,238.06"/></g><g id="V-2" data-name="V"><path class="cls-3" d="M143.31,254.39s-6.42-34.69-10.54-44.24-11.66-16.65-13.05-24.59-3.6-47.9-3.6-47.9.65-13.31-5.63-13.31-6.17,14.41-6.17,14.41,1.37,42.16-1.44,43.34-23.69-45.92-23.69-45.92-3.64-9.71-9.74-7.71-1.3,12.5-1.3,12.5L87.72,189.9l-17.4,10.44v17.77s13.9,31,23,38.78,11.19,9.26,11.19,9.26L109.71,294s48.52-14.85,47.88-15.14S143.31,254.39,143.31,254.39Z"/><path class="cls-3" d="M88.37,192.11c-.47-1.33-8.68-8.39-13.79-4.84-7.41,5.15-1.45,14.38-1.45,14.38"/><path class="cls-3" d="M73.15,223.88a33.76,33.76,0,0,0-3.58-4.74c-3.8-4.13-9.72-11.23-6.89-15.95,3.19-5.32,13.87-3.4,21.07,1.85s15.69,10.64,7.81,13.15-12.5-1.56-12.5-1.56"/><path class="cls-4" d="M131.19,207.39s-11.35-11-23.45-12.39-26.25-6.87-26.55,3.74,21.38,13.42,21.38,13.42,7.13,9.48,10.21,11.09,10.91,5.13,10.91,5.13"/></g><path class="cls-3" d="M193.9,290.68c11.5-8.7,69.73.57,109.55,2.32,46.48,2.05,97.79-2.62,108,4.26,19,12.77-24.77,66.58-24.77,66.58s10.58,80.36,4,102.81-15.43,60.16-15.43,84.93c0,24,21.49,87.87,21.49,87.87l-184.2-10s15.45-70.12,15.84-80.18S213,488,206.29,463c-7-26.35-5.42-110.42-5.42-110.42S169,309.52,193.9,290.68Z"/><path class="cls-5" d="M263,294.55s10.59-7.74,13.32-18.58,0-41.81,0-41.81H334s-4.11,25.55-.77,37.16c3.26,11.33,16.26,28.68,16.26,28.68"/></g><g id="tete-5" data-name="tete"><path class="cls-5" d="M228.42,137.72s-.63,16.33,3.07,45.33c4.37,34.4,42.9,72.62,71.34,72.62,21.65,0,60.9-30.28,64.88-70.48,3.92-39.66,5.14-67.57,5.14-67.57L301,78.1Z"/><path class="cls-3" d="M280,219.41s19.54-1.49,26.77-3.25c6.36-1.55,14.16-7,14.16-7s2.87,17.62-9.51,20.13C297.89,232.06,280,219.41,280,219.41Z"/><g id="lunettes-6" data-name="lunettes"><line class="cls-6" x1="276.33" y1="158.59" x2="329.92" y2="155.04"/><path class="cls-6" d="M359.58,151.56l-45.71,1.29s-1.16,26.61,23.78,26.6S359.58,151.56,359.58,151.56Z"/><path class="cls-6" d="M284.65,153.93,241.23,158s.07,24.55,23.12,22.7S284.65,153.93,284.65,153.93Z"/></g></g><g id="veuchs"><path class="cls-7" d="M375.18,118.37s-37-9.34-52.56,1.87a60.88,60.88,0,0,0-20.83,26.66s-.38-19.34,2.78-27c2.78-6.76,10.81-16.37,10.81-16.37s-26,24.82-47.17,33.91-25.37,5.36-41.48,20.82-21.52,26.95-21.52,26.95S196.86,133,205,111.6,239.31,75,239.31,75s-12.83.26-21.71,2.91c-10,3-23.26,11.12-23.26,11.12S204.85,67.9,221.1,61.33,275.52,53,275.52,53s-10.12-6.21-21-7.56S225.94,45,225.94,45,284.1,16.07,335.4,58.38C378.7,94.1,375.18,118.37,375.18,118.37Z"/><path class="cls-8" d="M253.62,146.38S268.21,99.23,304,91.47s56.29-4.8,56.29-4.8L329.18,53.62,232.76,68.88S199,114.4,201.51,134.19s5.32,43.41,5.32,43.41,12.24-17.43,24.34-23.22A112.14,112.14,0,0,1,253.62,146.38Z"/><path class="cls-9" d="M230.29,85.27s39.5-21.89,74.89-20.47,38.23,2.56,38.23,2.56-41-34-67.38-31.94c-9.73.77-29.58,1.82-32,4.6-4.09,4.77,23.09,11.5,23.09,11.5S217.36,57.87,210.6,68s-9.15,16.47-9.15,16.47l31.83-10.52Z"/><path class="cls-10" d="M205.79,189.12a3.7,3.7,0,0,1-1.15,0,4,4,0,0,1-3.37-3.3c-.34-2.18-8.41-53.5,0-75.63,4.76-12.58,15.15-23,23.57-29.8a53,53,0,0,0-6.07,1.37c-9.39,2.81-22.19,10.61-22.32,10.69a4,4,0,0,1-5.65-5.17c.46-.91,11.39-22.58,28.83-29.64,9.69-3.92,26.38-6.16,39-7.36a36.84,36.84,0,0,0-4.57-.87c-10.43-1.29-27.72-.49-27.89-.48a4,4,0,0,1-2-7.54c.63-.31,15.46-7.58,36.91-9.56,19.86-1.83,49.32.76,76.86,23.48,44.52,36.72,41.35,62.55,41.2,63.63a4,4,0,0,1-4.92,3.29c-9.8-2.46-37.76-7-49.26,1.24a56.94,56.94,0,0,0-19.39,24.72,4,4,0,0,1-7.75-1.21c0-1.78-.24-15.73,1.89-24.79-8.92,7-19.86,14.58-29.92,18.89a162.77,162.77,0,0,1-16.69,6c-8.65,2.72-13.41,4.21-23.6,14-15.27,14.66-20.63,25.68-20.68,25.78A4,4,0,0,1,205.79,189.12ZM225.32,72.25a119.38,119.38,0,0,1,13.91-1.2,4,4,0,0,1,2.07,7.43c-.24.14-25.12,14.75-32.61,34.53-5.47,14.43-2.92,44.6-1,60.78A138.68,138.68,0,0,1,224,155.37c11.53-11.07,17.58-13,26.73-15.84a153.47,153.47,0,0,0,15.93-5.77c20.29-8.7,45.74-32.89,46-33.13a4,4,0,0,1,5.81,5.43c-.08.09-7.68,9.23-10.19,15.34a37.1,37.1,0,0,0-1.85,9.28A65.17,65.17,0,0,1,320.29,117c13.31-9.59,39.42-5.85,50.62-3.65-1.39-8.21-8-27.12-38.05-51.91-28.78-23.74-60.05-24.05-80.94-20.26,1.07.09,2.1.19,3.08.32,11.61,1.44,22.16,7.85,22.61,8.12A4,4,0,0,1,275.7,57c-.37,0-37.69,1.79-53.11,8-6.51,2.64-12.08,8-16.27,13.11a75,75,0,0,1,10.14-4A64.09,64.09,0,0,1,225.32,72.25Z"/></g></g><g id="flutter"><g id="corps-4" data-name="corps"><path class="cls-5" d="M421.78,542.29,411.5,662.68l22.09,1.7,113.22,8.75-5.29-106.45,23.49,84,34.84-6.2s-6.24-54.87-11.92-74S577,531.84,565.78,519.06s-59.88-5.41-83.1-10.06-41-20.13-50.18-15.48S405.82,513.65,403.74,550s-5.57,58.84-5.57,58.84l47.57,67.36"/><path class="cls-5" d="M452.87,510.16s1.94-1.55,2.71-9.68S450,459.06,450,459.06l49.16-7.74s-1.93,40.65,0,46.07,12.39,21.67,12.39,21.67"/></g><path class="cls-11" d="M386.36,528.35s31.73-10,35.6-78.49,14.71-151-23.61-157.93-91.83,4.47-65.79,58C375.14,437.39,386.36,528.35,386.36,528.35Z"/><g id="visage-8" data-name="visage"><path class="cls-5" d="M464.1,476c29.14,2.06,80.31-50.64,68.88-118.73-9.69-57.73-41.67-67.37-89.51-49.53s-42.63,79.08-34.2,111.68S447.61,474.87,464.1,476Z"/><path class="cls-5" d="M441.7,444.44s11.23,1.16,14.71-1.93a34.74,34.74,0,0,0,6.2-8.13"/><g id="lunettes-7" data-name="lunettes"><line class="cls-6" x1="445.74" y1="386.4" x2="419.26" y2="387.89"/><path class="cls-12" d="M469.18,383.67s39.49-3.49,46.85,0,6.58,8.51,6.58,8.51"/><path class="cls-6" d="M436.64,382.77l35.41-1.51s.55,25-9.84,25C443.24,406.23,436.64,382.77,436.64,382.77Z"/><path class="cls-6" d="M419.26,385.22l-15.52,2.67s2,16.29,6.82,18.23S419.26,385.22,419.26,385.22Z"/></g></g><path class="cls-11" d="M530.35,339.93s-36-22.46-70.07-18.2S410,345.34,410,345.34s-30.58-61.54-63.48-30.58,40.64,136.77,44.9,161.48a178.78,178.78,0,0,1,1.16,47.94s-27,22.45-54.51,5.42-39.94-49.55-20.2-63.48,32.91,25.58,32.91,25.58-22.07-21.71-27.1-10.48,7,27.48,22.45,26.71S384,488.18,357.7,441.34s-81.84-136.71-5-169.16C415,245.86,471.12,266.76,495,284.56,528.61,309.6,530.35,339.93,530.35,339.93Z"/><g id="mèches"><path class="cls-13" d="M433.59,329.06s-8.27-23.46-35.11-35.72a159,159,0,0,0-59.26-14"/><path class="cls-13" d="M448.93,323.82s-2.31-23.29-25.42-40.28c-24.84-18.27-51.31-18.18-51.31-18.18"/><path class="cls-13" d="M467.12,321.22s4.64-22.2,0-33.55-15.22-22.31-15.22-22.31"/><path class="cls-13" d="M479,321.79s5.91-16.32,6.17-24.83-4.69-21.32-4.69-21.32"/><path class="cls-13" d="M369.5,473.77s5.75,29.9-1.73,40.74S343,532.28,343,532.28"/></g></g><g id="rarity"><g id="corps-5" data-name="corps"><path class="cls-5" d="M68.53,691.71S36.7,580.23,36.7,545.65c0-35.1,50.82-30.76,90.05-36.44s56.81-25.46,80.28-18.28C220.4,495,258.34,520.19,292.24,550c44.09,38.74,77.54,74.4,77.54,74.4L359.52,662.5l-134-112.73L369.39,682.11,168.92,707.4,98.36,577.85l34.78,139.87Z"/><path class="cls-5" d="M103.7,520.85s6.32-8,2.12-27-20.58-45.44-20.58-45.44l77.35,9.27s-5.15,27.82,3.84,38.95,14.14,17.77,14.14,17.77"/></g><path class="cls-14" d="M231.66,399.2s12.47,20.21,38.31,22.42,7.3,34.43,7.3,34.43l-12.71,11-23.78-.67-24.3-9.81-17.35-38.84Z"/><path class="cls-14" d="M235.83,466.1s50.56,10.93,56-21.6-19.46-28.28-36.48-14.29-13.08,31.62,1.21,24.63,18.85-17.64,18.85-17.64"/><path class="cls-14" d="M99,338.62s49.06-4.48,74,41.12,23.41,73,45.3,80.87,22.5,5.78,22.5,5.78-27.06-14-14.29-36.49,41.35-43.17,41.35-43.17,16.42-88.77-42-101.24C176.26,274.89,99,338.62,99,338.62Z"/><g id="autres_meches" data-name="autres meches"><path class="cls-15" d="M199.74,303.73s7.29,24.93-3,43.48-24.79,34.35-24.79,34.35"/><path class="cls-15" d="M221,310s4.69,31.72-9.3,56.34-28.1,38.31-28.1,38.31"/><path class="cls-15" d="M259.94,333.53s-33.64,24.93-44.89,62.63,9.62,65.36,9.62,65.36"/></g><g id="visage-9" data-name="visage"><path class="cls-5" d="M152.47,486.41c11.36-4.52,73.95-135.42,1.42-168.76-58-26.65-109.28,35.42-104.69,70s29,63.29,47.54,75.52S141.12,490.94,152.47,486.41Z"/><g id="lunettes-8" data-name="lunettes"><line class="cls-6" x1="178.45" y1="367.31" x2="148.23" y2="371.16"/><path class="cls-12" d="M108.74,381.52s-33.55,9.54-38.45,13.67c-3.89,3.28-2.84,11.36-2.84,11.36"/><path class="cls-6" d="M160.74,366.34l-55.21,12.87s15.71,26,35.05,19.7S160.74,366.34,160.74,366.34Z"/><path class="cls-6" d="M180.57,362.07l11,6.73s5.12,23.86-1.29,23.5S180.57,362.07,180.57,362.07Z"/></g><path class="cls-5" d="M145.59,445s11.3-3.75,20-3.75,7.32,1.85,7.32,1.85"/></g><path class="cls-14" d="M66.36,344.09s-1.43-33.72,9.81-59.79c9.72-22.5,20-32.93,20-32.93S151.7,205.43,224.26,265s43.58,121.71,43.58,121.71,15.52-77.81-58.68-81.48c-30.79-1.52-43.28,23.64-43.28,23.64s-32.18-1.82-48.9,0C98.43,330.91,66.36,344.09,66.36,344.09Z"/><g id="meches"><path class="cls-15" d="M68.53,337S87.37,297.21,102,280.79s46.16-42.74,46.16-42.74"/><path class="cls-15" d="M92.56,330.83s9.86-33.87,48-53.94c34.66-18.24,66.47-20,66.47-20"/><path class="cls-15" d="M111,330.83s19.23-34.71,65.14-43.83,65.52-4.32,65.52-4.32"/></g></g><path class="cls-16" d="M575,25V575H25V25H575M600,0H0V600H600V0Z"/></g></svg>