<svg xmlns="http://www.w3.org/2000/svg" viewBox="0 0 600 600"><defs><style>.cls-1,.cls-3{fill:#38506d;}.cls-2{fill:#4c4c4b;}.cls-2,.cls-3{stroke:#303030;stroke-linecap:round;stroke-linejoin:round;stroke-width:10px;}.cls-4{fill:#1d1d1b;}</style></defs><g id="dessin"><rect class="cls-1" width="600" height="600"/><g id="golem"><g id="pics_sur_le_dos" data-name="pics sur le dos"><polygon class="cls-2" points="63.84 211.32 42.94 156.74 53.39 98.68 118.42 104.48 157.9 161.39 63.84 211.32"/><polygon class="cls-2" points="181.13 161.39 153.26 107.97 177.65 49.9 227.58 56.87 258.94 128.87 181.13 161.39"/><polygon class="cls-2" points="267.06 134.68 260.1 71.97 314.68 -18.61 385.52 49.9 377.39 137 267.06 134.68"/><polygon class="cls-2" points="566.48 214.42 587.39 159.84 576.93 101.77 511.9 107.58 472.42 164.48 566.48 214.42"/><polygon class="cls-2" points="459.26 163.71 487.13 110.29 462.74 52.23 412.81 59.19 381.45 131.19 459.26 163.71"/></g><g id="corps"><path class="cls-2" d="M9.26,283.32S69.59,108,321.65,118.42,591.06,271.71,591.06,271.71l-2.32,213.68L502,431.58,481.13,516l-25.55,43.35,32.52,34.07L97.9,597.26l45.68-36.39-12.39-43L130,426.16l-119.61,101Z"/><polyline class="cls-2" points="153.65 539.19 251.97 540.74 283.71 483.45"/><polyline class="cls-2" points="344.1 482.68 370.42 540.74 444.74 539.97"/></g><path class="cls-2" d="M211.85,308.86s-26.62-146.3,108.36-139.11C444,176.34,395.62,336,395.62,336l-93.71,46.13Z"/><path class="cls-2" d="M287.25,418.73c87.93,2.51,158.87-8.06,151.55-93.72s-24.89,1.47-24.89,1.47,9.52-93.72-10.25-96.65-22.79,93.08-22.79,93.08-4.67,5.21-14.83,5.49c-10,.27-11.89-4-11.89-4s-2.76-49.64-18.12-50.24c-14-.55-12.82,49.05-12.82,49.05s-1.55,8.42-16.93,8.42c-14.08,0-15.74-9.52-15.74-9.52s-5.49-54.18-17.21-54.18-22.6,55.83-22.6,55.83-4.76,5.68-12.08,5.49c-6.75-.17-12.08-6.86-12.08-6.86s21.05-98.48-2.29-101.22c-27-3.18-32.21,90.69-32.21,90.69s-2.95-103.94-24.9-5.58C144.93,405.92,210.37,416.53,287.25,418.73Z"/><path class="cls-3" d="M257,227.58l37.94.77s-3.1,21.68-22.07,22.07S257,227.58,257,227.58Z"/><path class="cls-3" d="M331.71,230.68l38.71,1.55s-4.65,21.29-20.13,22.06S331.71,230.68,331.71,230.68Z"/></g><g id="fg"><path class="cls-4" d="M575,25V575H25V25H575M600,0H0V600H600V0Z"/></g></g></svg>