<svg xmlns="http://www.w3.org/2000/svg" viewBox="0 0 600 600"><defs><style>.cls-1{fill:#4c8dd3;}.cls-2,.cls-9{fill:#327aba;}.cls-2{stroke:#327aba;stroke-miterlimit:10;stroke-width:25px;}.cls-3,.cls-8{fill:none;}.cls-3{stroke:#f2c6c2;}.cls-3,.cls-4,.cls-5,.cls-6,.cls-7,.cls-8{stroke-linecap:round;stroke-linejoin:round;}.cls-3,.cls-4,.cls-7,.cls-8{stroke-width:10px;}.cls-4{fill:#502524;}.cls-4,.cls-6,.cls-7{stroke:#1e1a16;}.cls-5{fill:#eddace;stroke:#d6beb0;}.cls-5,.cls-6{stroke-width:7px;}.cls-6,.cls-7{fill:#26221d;}.cls-8{stroke:#601e15;}</style></defs><g id="dessin"><rect class="cls-1" width="600" height="600"/><polyline class="cls-2" points="27.29 13.13 156.58 149 291.68 13.9 431.81 154.03 572.71 13.13"/><polyline class="cls-2" points="568.39 588.07 439.1 452.2 304.01 587.29 163.88 447.17 22.98 588.07"/><g id="chien"><path class="cls-3" d="M437.76,383.72s48.35,32.63,106,56.06S691.38,480,691.38,480"/><polygon class="cls-4" points="152.36 279.09 126.7 451.2 291.52 471.51 308.91 292.37 152.36 279.09"/><polyline class="cls-5" points="295.69 318.86 256.56 340.87 230.09 309.91 173.91 336.3 146.02 296.9 108.93 318.35 111.82 292.66"/><polyline class="cls-5" points="79.42 423.02 120.16 400.7 156.8 435.78 206.2 413.63 244.32 450.21 283.38 428.23 282.57 456.51"/><g id="back"><path class="cls-6" d="M392.32,482.85s38.38,54.71,54.92,39.87c18.58-16.65-31.43-56-31.43-56"/><path class="cls-6" d="M320.11,487.14s40.06,53.77,56.13,40.6c17.34-14.22-24-56.3-24-56.3"/><path class="cls-6" d="M243.72,489.58s-10.71,18.69,3.89,25.68c15.29,7.31,42.21-28.67,42.21-28.67"/><path class="cls-6" d="M174.69,466.05s-19.45,29.27-4.16,37c17.09,8.61,51.64-31.64,51.64-31.64"/><path class="cls-6" d="M424.76,369.64s31.07-76.51,53.33-64.15-32.53,84.23-32.53,84.23Z"/><path class="cls-6" d="M329.59,259.22a413.71,413.71,0,0,1,42.72-26.49c24.76-13.38,42.2-24.25,51.22-9.84s-2,24.61-29.23,41.1c-26.3,15.92-33.17,16.12-33.17,16.12Z"/><path class="cls-6" d="M249.12,242.29s15.07-11.31,38.79-26,39.8-24.45,49.15-9.53.65,25.77-21.94,37.42"/></g><g id="corps-6" data-name="corps"><path class="cls-7" d="M268.83,217.71S383.49,249.52,393.12,262s2.19,75.13,12.17,81,52.48,20.48,57.22,34.41-29.26,113-42.59,115.81-136.58,2-136.58,2l-.77-38.71,13.11-137.65-37.66-5Z"/><polygon class="cls-7" points="79.42 423.02 71.54 458 283.33 495.22 282.57 456.51 79.42 423.02"/><polygon class="cls-7" points="111.82 292.66 148.33 206.32 268.83 217.71 258.02 313.84 111.82 292.66"/></g><line class="cls-5" x1="149.68" y1="246.87" x2="167.43" y2="267.78"/><line class="cls-5" x1="235.82" y1="258.92" x2="209.55" y2="275.28"/><line class="cls-8" x1="404.89" y1="334.3" x2="315.41" y2="493.9"/></g><path class="cls-9" d="M575,25V575H25V25H575M600,0H0V600H600V0Z"/></g></svg>