<svg xmlns="http://www.w3.org/2000/svg" viewBox="0 0 600 600"><defs><style>.cls-1{fill:#baab6c;}.cls-2{fill:#a59449;}.cls-3,.cls-4{fill:#c1ae40;stroke:#a5912f;stroke-linecap:round;stroke-linejoin:round;}.cls-3{stroke-width:5px;}.cls-4{stroke-width:10px;}.cls-5{fill:#a5912f;}</style></defs><g id="dessin"><rect class="cls-1" width="600" height="600"/><g id="bg"><path class="cls-2" d="M2.5,5.42l556.44,5S567,121.13,536.1,121.13c-44.52,0-19-95.21-30.71-92.9-20.91,4.12-27.78-2.23-32.26-1.55-6.68,1,25.79,43.09-8.65,44.9-29.42,1.55-4.25-55.64-9.77-53.81C440.42,22.54,413.77,9.26,415,40.5c1.33,33.27,45.2,67.45,10.79,75.55s-24.28-40.47-29-68.81-19.56-29-35.08-27,15.52,114.68-25,117.38c-18.42,1.22-22.45-20.89-25.57-45-3.73-28.9-6.16-60.7-30.42-58.86-44.52,3.37-2,116-.67,139.64s-15.52,43.17-35.76,45.19-37.1-16.18-35.75-47.22,15.52-67.45,12.82-99.83-6.07-40.48-24.29-35.08S174.2,54.66,180.94,77.6s9.45,52.62-24.28,52.62-20.24-36.43-21.59-66.79S131.7,27,114.84,29.7,96.62,43.2,81.11,41.17s-35.24-16-45.35-16.65S2.5,5.42,2.5,5.42Z"/><path class="cls-2" d="M446.63,166.79c-11.62-.43-1,31.87-8.09,49.58s-23.27,64.76,21.75,60.71,7.59-51.6,2.53-69.31S460.29,167.29,446.63,166.79Z"/></g><g id="elemen_taire" data-name="elemen taire"><g id="mmmmmh_feet" data-name="mmmmmh feet"><path class="cls-3" d="M253.66,518.28c27.56,11.08-52.76,24.41-52.76,24.41S227,507.56,253.66,518.28Z"/><path class="cls-3" d="M393.68,505.13c-26.77,19.49,61,7.42,61,7.42S411,492.51,393.68,505.13Z"/><line class="cls-3" x1="245" y1="497.38" x2="245" y2="519.82"/><line class="cls-3" x1="399.35" y1="474.54" x2="402.1" y2="504.86"/></g><path class="cls-4" d="M231.47,266.68s-10.49-31.14,16.68-53,39-7.68,39-7.68,35.44-8.27,44.89,2.36a33.16,33.16,0,0,1,8.26,23.21s33.67-13.17,47.84,11.64a79.18,79.18,0,0,1,9.45,49.61s52,7.09,56.7,39.57-30.12,44.3-30.12,44.3,17.13,12.4,17.13,27.76S430.06,431,430.06,431s24.8,8.86-2.36,30.72-26.58,3.54-26.58,3.54-12.41,28.94-44.3,32.48S306,483,306,483s-37.21,30.44-60.84,15.22-25.39-31.76-25.39-31.76-46.66,8.27-54.34-41.34,28.35-51.39,28.35-51.39-14.17-15.35-8.86-30.12,17.72-15.35,17.72-15.35S180.82,307,190.86,285.15,231.47,266.68,231.47,266.68Z"/><line class="cls-3" x1="296.58" y1="315.08" x2="292.64" y2="331.22"/><line class="cls-3" x1="308.39" y1="315.08" x2="310.75" y2="328.86"/><path class="cls-3" d="M295.4,353.27s-2.76,12.6,3.54,13,8.27-13,8.27-13"/><g id="mano_mano" data-name="mano mano"><path class="cls-4" d="M241.06,423s-16.93,9.45-30.32,3.55-9.84-28-9.84-28"/><path class="cls-4" d="M245,394.22s-15,19.29-1.58,31.89,34.65,0,34.65,0"/><path class="cls-4" d="M376.9,439.11s27.17-5.52,27.56-21.27-13.78-36.22-13.78-36.22"/><path class="cls-4" d="M366.27,386.74s14.3,8.43,26.25-2.28-1.83-43.4-1.83-43.4"/></g><g id="gouttes_uwu" data-name="gouttes uwu"><path class="cls-3" d="M124.12,289.09s-26,16.93-11,22.44S124.12,289.09,124.12,289.09Z"/><path class="cls-3" d="M167,337.91s-13,1.58-17.33,8.27-6.3,14.57,4.73,15.36,6.3-11,7.48-15.36S167,337.91,167,337.91Z"/><path class="cls-3" d="M460.77,372.56s3.94,3.15,4.33,7.09-3.94,18.9,9.84,16.54,3.94-14.57,0-17.72S460.77,372.56,460.77,372.56Z"/><path class="cls-3" d="M509.2,319s.39,9.06,0,13.79-.39,17.32,10.24,11.41S526.23,330,523,326.5C519.05,322.21,509.2,319,509.2,319Z"/></g></g><path class="cls-5" d="M575,25V575H25V25H575M600,0H0V600H600V0Z"/></g></svg>