<svg xmlns="http://www.w3.org/2000/svg" xmlns:xlink="http://www.w3.org/1999/xlink" viewBox="0 0 600 600"><defs><style>.cls-1,.cls-16,.cls-22,.cls-26{fill:none;}.cls-2{fill:#69c453;}.cls-3{fill:#78e55a;}.cls-4{fill:#388e38;}.cls-5,.cls-6{fill:#adf2f0;}.cls-6{stroke:#9beae4;}.cls-10,.cls-11,.cls-12,.cls-13,.cls-15,.cls-16,.cls-18,.cls-22,.cls-24,.cls-26,.cls-6,.cls-8{stroke-linecap:round;stroke-linejoin:round;}.cls-10,.cls-15,.cls-26,.cls-6,.cls-8{stroke-width:10px;}.cls-7{fill:#91e5e1;}.cls-18,.cls-8,.cls-9{fill:#ffeed2;}.cls-18,.cls-8{stroke:#e5ceac;}.cls-10,.cls-11{fill:#53d3c7;stroke:#42bcad;}.cls-11,.cls-16,.cls-18,.cls-24{stroke-width:7px;}.cls-12,.cls-13{fill:#b58f5d;stroke:#a07644;}.cls-12{stroke-width:8px;}.cls-13{stroke-width:5px;}.cls-14{fill:#e5ceac;}.cls-15,.cls-24{fill:#3a3a3a;}.cls-15{stroke:#111;}.cls-16,.cls-22,.cls-24{stroke:#3a3a3a;}.cls-17{fill:#fff;}.cls-19{clip-path:url(#clip-path);}.cls-20{fill:#7ff4e9;}.cls-21{clip-path:url(#clip-path-2);}.cls-22{stroke-width:2px;}.cls-23{fill:#e8d738;}.cls-25{fill:#d1bd2a;}.cls-26{stroke:#c4e8e4;}</style><clipPath id="clip-path"><path class="cls-1" d="M259.43,268.79l33.29-4.65s-6,17.42-15.68,18.39S259.43,268.79,259.43,268.79Z"/></clipPath><clipPath id="clip-path-2"><path class="cls-1" d="M214.33,266.1l24.78,2.52s-3.68,14.51-11.42,11.61S214.33,266.1,214.33,266.1Z"/></clipPath></defs><g id="dessin"><rect class="cls-2" width="600" height="600"/><path class="cls-3" d="M522.17,140.45c9.18,11.59,24.2,54.5,21.35,68.44A212.24,212.24,0,0,1,531,249.09c-3.19,1.73-3.19-3.27-5.19-2.27-43-114-163-197-288-162-107,30-179,145-145,253,17,54,56,98,109,118,57,21,121,10,167-31,57-51,65-146,6-198-23-20-51-32-81-30-34,2-65,25-79,56-2,6-7,15-1,21,19-28,49-51,86-47,38,5,68,36,73,74,4,29-4,57-23,79-33,38-87,47-132,28-68-29-97-116-64-183,32-65,106-100,177-83a175.88,175.88,0,0,1,129,125c20,71-5,146-60,195-59,52-142,64-213,36-72-28-124-92-139-170-20-97,25.94-200.48,88.57-245.44S403.05-10,522.17,140.45Z"/><path class="cls-4" d="M575,25V575H25V25H575M600,0H0V600H600V0Z"/><g id="mendia"><g id="ailes"><g id="gauche-2" data-name="gauche"><path class="cls-5" d="M353.49,361.82s-27.4-32.62-21.21-138.43,34-171.57,28.5-185.81c-4.17-10.83-107.11,36.55-117.59,169.5s21.53,252.2,21.53,252.2Z"/><path class="cls-6" d="M356.61,41.46s-35.23,37.67-43,82.58-8.26,103.74-8.26,103.74"/><path class="cls-7" d="M264.72,464.28a5.28,5.28,0,0,1-1.18-.14,5,5,0,0,1-3.65-3.56c-.32-1.21-32.1-121.61-21.68-253.89,5.06-64.26,31.27-106.66,52.36-130.91,25.69-29.55,52.33-42.78,64-44.47,7.57-1.1,10.08,2.34,10.9,4.48,2.79,7.26-.34,20.86-6,45.55-7.37,32-18.51,80.29-22.14,142.34-6,101.78,19.81,134.63,20.07,135a5,5,0,0,1-.15,6.55l-88.77,97.47A5,5,0,0,1,264.72,464.28ZM356.46,41.13c-4.08.45-15.31,4.17-30.92,15.7-20.91,15.43-70.3,61-77.36,150.65C239.53,317.29,260.34,418.82,267.35,449l79.78-87.59c-6.91-11.22-25-49.63-19.84-138.28,3.68-62.9,14.93-111.71,22.37-144C353.58,62.11,357,47.21,356.46,41.13Z"/></g><g id="droite-2" data-name="droite"><path class="cls-5" d="M347.51,376.11s62.21-18.8,78.53-113.77-14.74-219.59-.8-228.88,148.12,121.8,141.41,218.32c-18.18,261.57-143.2,325.39-143.2,325.39"/><path class="cls-6" d="M428.33,36.09s28.91,32.46,43.36,93.37-1,128,27.87,135.87,35.09-22.07,22.19-35.49-21.68,3.44-19.1,12.82"/><path class="cls-6" d="M448.46,313.2a16.26,16.26,0,0,0,6.66-16c-1.6-10.84-11.3-15.49-22.66,7.61s16,34.71,37.16,11.51,10.67-97.64,10.67-97.64"/><path class="cls-6" d="M449.49,552s-21.67-59.68,13.42-144.32,79-41.29,48,25.29-63,65.81-45.93,18.2,40.26-64.65,32-35.75-14.09,35.75-14.09,35.75"/><path class="cls-7" d="M423.45,582.17a5,5,0,0,1-2.28-9.45c.3-.15,31-16.31,63.42-63.68,30-43.85,67.8-124.13,77.08-257.61,1.85-26.64-7.23-58.11-27-93.54C513.58,120,486.89,89.7,472.86,75c-24.8-26-40.42-35.77-45-36.88-.61,1.46-1.62,5.74-1.23,17.81.36,11,1.73,25.58,3.31,42.43,4.39,46.6,10.39,110.42,1,164.85-8.66,50.42-30.27,79.65-46.87,95.29-18.24,17.18-34.45,22.21-35.13,22.41a5,5,0,0,1-2.91-9.56h0c.15-.05,15-4.76,31.62-20.55C393,336.2,413,308.86,421.11,261.5c9.12-53.13,3.2-116.18-1.13-162.23-4.3-45.73-5.72-64.51,2.48-70,4.67-3.11,11.21,0,15.74,2.64,17.89,10.4,52.84,43.77,82.37,85.16,25.13,35.23,54.39,87.25,51.07,135-4.17,60.08-14.37,114.73-30.29,162.42-12.78,38.29-29.27,72.22-49,100.85C458.49,564.53,427,581,425.72,581.63A5,5,0,0,1,423.45,582.17Zm4.76-544.72Z"/></g></g><g id="corps-7" data-name="corps"><path id="corps-8" data-name="corps" class="cls-8" d="M294,579.86S264.68,516,262.32,488.12s122.47-28.84,122.47-28.84,7.09,93.15,0,111.12S294,579.86,294,579.86Z"/><path class="cls-8" d="M376.28,486.23s6.62,0,11.66-13.71-3.62-19.86-2.21-36.41,31.44-13.76,35.7-36.46-5.75-37.08-28.13-38.72c-21.47-1.59-84.65-32.72-94.19-44.61s-40.3-6.39-42.39,21.39c0,0-1.16,7-20.13,8.52s-37.55,47.23-43,63.48-30.95,132.78-11.2,149.81,42-39.41,49.16-59.48c7.48-21,14.68-58.73,14.68-58.73-2.36,10.4-8.88,32.16.53,43.5A38.17,38.17,0,0,0,268,498.05"/></g><path class="cls-9" d="M389.05,424.91s-2.32,47.23-2.32,67.75-.67,67.34-.67,67.34l-18.82,39.12s40.51,11.43,54,7.76S435.89,537.17,435.89,505s13.94-61.93,15.49-103-58.2-41.13-61.19-41.53"/><g id="habits-3" data-name="habits"><g id="haut"><path class="cls-10" d="M234.78,423.13s3.36,4.65,8,15.23-6.19,35.61,2.33,49.29a193.61,193.61,0,0,0,15.48,21.8l57.81-56.64s-20.33-24.91-45.88-31.68C246.4,414.2,234.78,423.13,234.78,423.13Z"/><path class="cls-11" d="M274.25,491.85s14.4-20.51,9-40-26.05-15-29,2.56c-1.55,9.1,5.3,19.31,13.74,15.49,8.13-3.68,5-15.87,1.36-14.71"/><path class="cls-10" d="M392.27,577.17l-118.14-9.26s1.7-3.35-4.51-29.42c-7.86-33-12.19-33.35-12.19-33.35s22.2-20.1,41.27-52.85c31.57-54.19,88.07-48.38,88.07-48.38s-11.48,15-1,40.64"/><path class="cls-11" d="M377.88,431s-31.16-16-42,8.09,4.65,39.14,21.87,37.2,18.4-23.75,13-31.35c-4.84-6.77-25.42-.94-19.81,11.23"/><path class="cls-10" d="M333.11,489.49a74.74,74.74,0,0,0,29.13,4.65c16-.77,24.53-4.65,24.53-4.65"/></g><g id="ceinture-2" data-name="ceinture"><path class="cls-12" d="M386.81,513.73a196.41,196.41,0,0,1-59.38,25c-46.17,11-59.64,8.32-59.64,8.32l1.43,29.1,117.52,4.3Z"/><g id="boucle"><ellipse class="cls-12" cx="355.08" cy="551.97" rx="30.19" ry="22.71" transform="translate(-297.6 620.91) rotate(-63.28)"/><path class="cls-13" d="M376,538.1s-31.09-10.32-34.38,14.33c-2.18,16.39,15.19,17.19,21.61,11,8.1-7.77.58-21.24-6.76-17.28-7.67,4.15-1.76,10.39-1.76,10.39"/></g></g></g><path class="cls-14" d="M414.28,612.58c-17.19,0-44.79-7.62-48.4-8.64a5,5,0,0,1-3.15-7l18.35-38.14c.1-7.2.65-47.66.65-66.16,0-20.41,2.31-67.52,2.33-68a5,5,0,0,1,10,.49c0,.47-2.32,47.34-2.32,67.5s-.66,66.94-.67,67.41a5,5,0,0,1-.49,2.09l-16.22,33.7c15.53,4,37.76,8.32,45.57,6.19.42-.18,11-5.69,11-97,0-16.38,3.46-32,7.12-48.5,3.74-16.86,7.6-34.29,8.37-54.65,1.09-28.92-34-35.14-55-36.26-.93-.05-1.4-.08-1.8-.13a5,5,0,0,1,1.3-9.92c.14,0,.52,0,1,.06,42,2.26,65.52,19.25,64.49,46.62-.8,21.27-4.76,39.15-8.6,56.44-3.54,16-6.88,31.06-6.88,46.34,0,89.58-9.27,104.19-18.34,106.66A32.59,32.59,0,0,1,414.28,612.58Z"/><path class="cls-8" d="M389.49,559.13s-32.87-1-44.51-1.93c-11.43-.89-43,6.19-67.36-.78s-40.26-24-60.38-24-22.84,20.91-23.62,33.68,19,17.42,25.55,11.61-8.9-15.09-8.9-15.09,12,6.19,20.51,10.84,45.29,10.45,58.07,12.38,33.29,9.29,51.87,15.1,68.78,11.18,82.73,4.6"/><g id="tete-6" data-name="tete"><path class="cls-15" d="M194.2,301.91C191.66,316.65,178.91,329,178.91,329s8.91,3.88,23.81,2.71a50.46,50.46,0,0,0,25.55-9.87L223,218.68l-21.68,2.52S197.11,285.07,194.2,301.91Z"/><path class="cls-8" d="M281.49,165.84c78.17-1.92,91,88.65,58.45,133.55s-61.54,51.87-82.45,51.1S202.14,294.36,206,248.68,234.27,167,281.49,165.84Z"/><g id="visage-10" data-name="visage"><path class="cls-16" d="M293.49,251.78s-25,9.87-29.8,8.13a29.18,29.18,0,0,1-8.52-5"/><path class="cls-16" d="M214.33,253.33s10.45,5.22,14.32,5.42,8.52-5.42,8.52-5.42"/><path class="cls-17" d="M259.43,268.81l33.29-4.64s-6,17.41-15.68,18.38S259.43,268.81,259.43,268.81Z"/><path class="cls-17" d="M214.33,266.1l24.78,2.52s-3.68,14.51-11.42,11.61S214.33,266.1,214.33,266.1Z"/><path class="cls-18" d="M244,319.75s9.06-4.6,12.93-4.4,9.29.77,9.29.77"/><path class="cls-18" d="M243.17,281.58s.39,8.71-1.93,12.59-7.36,6.58-7.36,6.58,6.63,4.06,9.31,4.06"/><g id="yeux"><g class="cls-19"><ellipse class="cls-20" cx="269.28" cy="274.55" rx="5.12" ry="6.9" transform="translate(-25 26.99) rotate(-5.48)"/></g><g class="cls-21"><ellipse class="cls-20" cx="227.98" cy="275.31" rx="4.29" ry="7.11"/></g><ellipse class="cls-22" cx="227.69" cy="275.31" rx="0.73" ry="2.82"/><ellipse class="cls-22" cx="268.57" cy="274.81" rx="0.52" ry="2.48"/></g></g><path class="cls-15" d="M193.48,305.8c4.79-29.63-5.45-36.87.34-79.38,5-37,31.93-65.61,74.51-74.13S360.65,179.78,374.2,216s4.65,103.26,4.65,103.26-2.52,4.74-25.74,12.29-67,2.9-67,2.9,28.84-39.09,30.19-81.09-34.64-56.52-34.64-56.52-4.45,17.42-13.94,29.23-23.42,19-23.42,19-9.29-6.38-11.61-20.32a185.29,185.29,0,0,1-2.52-24.19s-13.54,7-18.42,22.26c-11,34.45-3.78,77.8-3.78,77.8"/></g><g id="bras-2" data-name="bras"><path class="cls-8" d="M257.1,349.09s21.3,6,16.26,13.79S250.14,377.2,249,384.55s1.55,13.16-10.45,16.65-29.81,20.94-27.88,53.06,10.46,42.55,7.75,65,5.42,52.65-35.62,51.1c-31.48-1.19-24.77-40.26-22.84-55.74s14.71-40.65,14.71-55.36,2.1-46.51,7.14-62,14.61-47,31.39-61.51c16.06-13.92,46.25-10.05,45.09,0s-.78,27.48-8.13,27.48h-8.9"/><path class="cls-8" d="M230.4,342.36s17.42,9.29,17,17-5.19,22.09-11.69,21.88l-6.5-.2"/><path class="cls-8" d="M217.86,351.06s8.65,2,10.22,4.56,4.35,9.31,4.36,14.86-5.16,12.61-5.16,12.61"/><path class="cls-8" d="M211.43,365.26s9.68,3,9.68,9,.77,14.91-3.1,15.29-9.29-2.9-9.29-2.9"/></g></g><g id="bebeille"><g id="ailailes"><line class="cls-16" x1="52.72" y1="332.9" x2="55.13" y2="363.01"/><line class="cls-16" x1="65.59" y1="336.99" x2="55.89" y2="346.99"/><path class="cls-16" d="M43.66,351.05c.18.1,9.46,4.08,9.46,4.08"/><path class="cls-16" d="M46.16,364.2S32.8,325.47,57,331.31s4.6,33,4.6,33"/></g><g id="aile_agian" data-name="aile agian"><path class="cls-16" d="M73.13,362.72s4.53-37.64,23.62-26.84-9.08,34.56-9.08,34.56"/><line class="cls-16" x1="97.02" y1="339.91" x2="80.92" y2="364.87"/><line class="cls-16" x1="83.3" y1="339.17" x2="88.66" y2="349.33"/><path class="cls-16" d="M97.29,360.26c-.38-.09-12.5-.57-12.5-.57"/></g><ellipse class="cls-23" cx="65.27" cy="380.72" rx="24.77" ry="18.63"/><polygon class="cls-24" points="62.23 364.26 56.81 397.19 67.76 398.19 73.13 365 62.23 364.26"/><path class="cls-25" d="M65.27,402.86c-15.59,0-28.27-9.93-28.27-22.14s12.68-22.13,28.27-22.13,28.28,9.93,28.28,22.13S80.86,402.86,65.27,402.86Zm0-37.27c-11.73,0-21.27,6.79-21.27,15.13s9.54,15.14,21.27,15.14,21.28-6.79,21.28-15.14S77,365.59,65.27,365.59Z"/><line id="oeil" class="cls-16" x1="50.37" y1="373.87" x2="49.6" y2="379.1"/><path class="cls-26" d="M103.39,386.63s23.5-1.1,43.82,12.73-81,26.19-61.23,43,20.91,92.32,20.91,92.32"/></g></g></svg>