<svg xmlns="http://www.w3.org/2000/svg" viewBox="0 0 600 600"><defs><style>.cls-1{fill:#1d2e5b;}.cls-2{fill:#223966;}.cls-3{fill:#7f5741;stroke:#6b4532;stroke-linecap:round;stroke-linejoin:round;stroke-width:10px;}.cls-4,.cls-5{fill:#a88960;stroke:#91724d;stroke-miterlimit:10;}.cls-4{stroke-width:7px;}.cls-5{stroke-width:5px;}.cls-6{fill:#102044;}</style></defs><g id="dessin"><rect class="cls-1" width="600" height="600"/><g id="bg"><circle class="cls-2" cx="110.29" cy="118.17" r="27.87"/><circle class="cls-2" cx="185.61" cy="379.87" r="37.32"/><circle class="cls-2" cx="523.35" cy="70.05" r="15.68"/><circle class="cls-2" cx="428.28" cy="258.94" r="21.38"/><circle class="cls-2" cx="523.35" cy="524.07" r="36.8"/><circle class="cls-2" cx="199.19" cy="215.07" r="14.91"/><circle class="cls-2" cx="91.71" cy="520.23" r="41.81"/><circle class="cls-2" cx="496.42" cy="379.87" r="14.52"/><circle class="cls-2" cx="252.1" cy="90.04" r="52.92"/><circle class="cls-2" cx="107.97" cy="301.9" r="25.55"/><circle class="cls-2" cx="358.99" cy="508.22" r="69.28"/><circle class="cls-2" cx="449.65" cy="146.04" r="25.55"/></g><g id="T"><polygon class="cls-3" points="259.26 511.88 148.29 763.75 166.36 772.01 279.9 515.49 259.26 511.88"/><polygon class="cls-3" points="297.45 511.88 289.71 807.62 307.26 807.62 314.49 511.88 297.45 511.88"/><polygon class="cls-3" points="343.39 509.3 431.65 776.14 445.58 765.3 357.32 501.04 343.39 509.3"/><path class="cls-3" d="M403,497.8c-22.95-6.46-56.29-10.53-93.41-10.53s-70.46,4.07-93.4,10.53H184.28v21.05c0,17.44,56.11,31.58,125.33,31.58s125.33-14.14,125.33-31.58V497.8Z"/><ellipse class="cls-3" cx="309.61" cy="497.8" rx="125.33" ry="31.58"/></g><g id="C"><polygon class="cls-4" points="296.39 -5.98 294.08 122.3 306.91 125.26 306.91 -10.65 296.39 -5.98"/><path class="cls-4" d="M295.73,165.39s.89,29.6-8.93,49-90.74,150.32,25.7,150.32,17.44-139.46,11.84-154.92-11.51-44.41-11.51-44.41l-6.42,12s.51,24.22,9.38,43.55c7.31,15.92,86.91,129.67-6.18,129.67-95.07,0-13.2-126.17-9.28-135.92C306.41,199.64,303,171,303,171Z"/><path class="cls-5" d="M305,48.78c-16.81,2.07-19.61,12.59-18.5,17.52s38.36,2,39.84-5.92S319.08,47.06,305,48.78Z"/><path class="cls-5" d="M305,59.52C288.21,61.58,285.41,72.1,286.52,77s38.36,2,39.84-5.92S319.08,57.79,305,59.52Z"/><path class="cls-5" d="M305,70.37c-16.81,2.06-19.61,12.58-18.5,17.52s38.36,2,39.84-5.93S319.08,68.64,305,70.37Z"/><path class="cls-5" d="M305,82.21c-16.81,2.07-19.61,12.58-18.5,17.52s38.36,2,39.84-5.92S319.08,80.48,305,82.21Z"/><path class="cls-5" d="M305,92.94c-16.81,2.07-19.61,12.58-18.5,17.52s38.36,2,39.84-5.92S319.08,91.22,305,92.94Z"/><path class="cls-5" d="M305,103.8c-16.81,2.06-19.61,12.58-18.5,17.51s38.36,2,39.84-5.92S319.08,102.07,305,103.8Z"/><path class="cls-5" d="M305,113.92c-16.81,2.07-19.61,12.58-18.5,17.52s38.36,2,39.84-5.92S319.08,112.2,305,113.92Z"/><path class="cls-5" d="M305,124.65c-16.81,2.07-19.61,12.59-18.5,17.52s38.36,2,39.84-5.92S319.08,122.93,305,124.65Z"/><path class="cls-5" d="M305,135.51c-16.81,2.06-19.61,12.58-18.5,17.51s38.36,2,39.84-5.92S319.08,133.78,305,135.51Z"/><path class="cls-5" d="M305,147.35c-16.81,2.06-19.61,12.58-18.5,17.52s38.36,2,39.84-5.93S319.08,145.62,305,147.35Z"/><path class="cls-5" d="M305,159.31c-16.81,2.06-19.61,11.35-18.5,16.29s38.36,2,39.84-5.92S319.08,157.58,305,159.31Z"/><path class="cls-5" d="M304.9,170.41c-16.81,2.06-19.49,11.11-18.38,16s38.36,2,39.84-5.92S319,168.68,304.9,170.41Z"/><path class="cls-5" d="M305.88,183.23c-16.81,2.07-20,9.59-18.87,14.52s38.36,2,39.84-5.92S320,181.51,305.88,183.23Z"/></g><path class="cls-6" d="M575,25V575H25V25H575M600,0H0V600H600V0Z"/></g></svg>