<svg xmlns="http://www.w3.org/2000/svg" viewBox="0 0 600 600"><defs><style>.cls-1{fill:#308dd8;}.cls-2{fill:#46a2e0;}.cls-3,.cls-4{fill:#7a7a7a;stroke:#606060;}.cls-3,.cls-4,.cls-5{stroke-linecap:round;stroke-linejoin:round;}.cls-3,.cls-7{stroke-width:10px;}.cls-4{stroke-width:5px;}.cls-5{fill:#dbdb5d;stroke:#c6c240;}.cls-5,.cls-6{stroke-width:7px;}.cls-6{fill:#ffc3fa;stroke:#e59ee1;}.cls-6,.cls-7{stroke-miterlimit:10;}.cls-7{fill:#dd2f2f;stroke:#c12525;}.cls-8{fill:#2662c4;}</style></defs><g id="dessin"><rect class="cls-1" width="600" height="600"/><polygon class="cls-2" points="317.53 113.96 330.19 221 404.6 128.38 372.4 231.34 485.03 154.98 409.99 247.4 553.75 192.11 440.59 268.17 606.47 237.43 462.28 292.36 639.84 288.08 473.7 318.43 651.8 340.9 474.14 344.76 641.57 392.56 463.56 369.68 609.81 439.81 442.62 391.63 558.5 479.68 412.66 409.24 490.88 509.68 375.54 421.39 411.2 527.9 333.6 427.32 324.45 533.22 289.48 426.67 236.09 525.3 245.94 419.46 151.68 504.62 205.72 406.16 76.51 472.5 171.36 387.59 15.31 430.95 145.01 364.94 -28.08 382.58 128.32 339.61 -50.93 330.44 122.34 313.2 -51.8 277.78 127.45 287.37 -30.63 227.94 143.34 263.75 11.23 184.03 168.99 243.81 71.16 148.82 202.8 228.81 145.4 124.52 242.64 219.7 229.28 112.65 286.01 217.04 317.53 113.96"/><g id="trap_" data-name="trap*"><g id="centre"><polygon class="cls-3" points="100.37 299.56 496.66 370.52 513 329.3 119.16 265.65 100.37 299.56"/><path class="cls-3" d="M339.52,312.55c-6.57,39.57-94.47,34.12-87.47-14.88S349.48,252.63,339.52,312.55Z"/><path class="cls-4" d="M261.5,346.93c10.75,3.21,11.67,9.46,8.3,10.37s-6.48-3.63-10.37-4.53-11.54,3.5-13.49-.65S251.52,344,261.5,346.93Z"/><path class="cls-4" d="M265.4,340.86c9.86,3.47,11.66,9.31,8.13,11.65-2.91,1.94-6.48-2.68-10.5-4.05-3.78-1.28-11.15.58-12.62-3.76S255.57,337.41,265.4,340.86Z"/><path class="cls-4" d="M269.87,334.3c9.52,4.32,10.8,10.29,7.08,12.32-3.07,1.67-6.22-3.25-10.1-5-3.66-1.61-11.17-.41-12.25-4.86S260.38,330,269.87,334.3Z"/><path class="cls-4" d="M274,327.07c9.39,4.6,10.49,10.6,6.72,12.52-3.12,1.58-6.12-3.43-10-5.25-3.6-1.72-11.14-.74-12.1-5.22S264.65,322.48,274,327.07Z"/><path class="cls-4" d="M277.32,320.46c9.48,4.41,10.69,10.4,6.95,12.39-3.08,1.64-6.18-3.31-10-5.06-3.64-1.65-11.16-.52-12.19-5S267.88,316.05,277.32,320.46Z"/></g><g id="droite-3" data-name="droite"><path class="cls-3" d="M471.77,255.44c-39.65-27.21-63.94-37.52-78.15-41.14l-14.15-35.12L373,188.55l-31.92-5.48L337,223l31,11.67,7.86,20.55s65.86,18.34,95.67,45,33.19,51.86,33.19,51.86S548.52,308.1,471.77,255.44Z"/><path class="cls-3" d="M516.37,311.41S482.66,389.19,393,392.3c-50.44,1.75-88.26-.27-111.7-2.37l-17.67-37.81-12.79,11L221.64,355l-5,46.64,32.15,7.78,17.11,23.33S394.51,453,466.07,409.68,516.37,311.41,516.37,311.41Z"/><path class="cls-3" d="M421.28,235.57c.78-.58,28.2-39.08,28.2-39.08l9.91,57.75"/><path class="cls-3" d="M466.78,261.44c-.19-.59,22.56-38.9,22.56-38.9l5.83,60.09"/><polyline class="cls-3" points="495.17 284.96 514.23 254.24 512.09 311.41"/><path class="cls-3" d="M463.87,377.91c0-1.36,21.58-71.36,21.58-71.36l16.92,47.25"/><path class="cls-3" d="M404.36,398.72c0-.58,28.78-60.86,28.78-60.86l25.67,47.64"/><polyline class="cls-3" points="340.19 398.72 367.99 348.16 395.42 399.89"/></g><g id="gauche-3" data-name="gauche"><path class="cls-3" d="M254.24,355.75l-3.37,35-27.48,2.59L206,408.12S134.72,384,107,353.41s-18.66-72.59-18.66-72.59,13,42.43,62.22,63.65c47.19,20.35,54.19,15.43,54.19,15.43l12.19-27,7.26,13.74Z"/><path class="cls-3" d="M363.66,197.59V245s-105.27-6-180.72,10.4C125.11,268,91.8,317.89,91.8,317.89S56.57,246,173.87,217.29c92-22.55,141.82-11.14,141.82-11.14l11.67-27,8,14.78Z"/><polyline class="cls-3" points="228.07 215.21 250.09 167.25 275.24 209.78"/><polyline class="cls-3" points="220.99 215.87 190.46 170.88 171.4 225.33"/><path class="cls-3" d="M161.94,225.33,136,185.92a135.69,135.69,0,0,0-9.59,29c-3.1,15-4.67,30.85-4.67,30.85"/><path class="cls-3" d="M96.6,272.91l-.78-64.17a218.1,218.1,0,0,0,14.78,19.44c11.15,12.64,18.28,19.58,18.28,19.58"/><polyline class="cls-3" points="94.01 315.56 116.57 283.15 128.88 337.86"/><path class="cls-3" d="M133.68,342.26c.52-1,21.26-39.92,21.26-39.92l22,60.15"/><polyline class="cls-3" points="87.46 302.34 85.45 240.82 102.57 286"/></g></g><g id="cupcake"><g id="Calque_8-2" data-name="Calque 8"><path class="cls-5" d="M252.78,246.85,259,303.63s12.41,23.87,50.94,18.53c26.19-3.63,31-23.71,31-23.71l6.29-47.7Z"/><line class="cls-5" x1="269.28" y1="263.44" x2="269.28" y2="313.23"/><line class="cls-5" x1="282.37" y1="266.56" x2="282.37" y2="319.19"/><line class="cls-5" x1="296.24" y1="269.93" x2="298.39" y2="322.94"/><line class="cls-5" x1="312.58" y1="268.89" x2="312.58" y2="319.19"/><line class="cls-5" x1="329.95" y1="267.59" x2="326.58" y2="313.23"/></g><path class="cls-6" d="M299.87,209.78c65.86,2.59,92.28,73.11,1,69S231.5,207.08,299.87,209.78Z"/><path class="cls-6" d="M298.51,199.72c50.84,2,71.24,56.45.78,53.25S245.73,197.65,298.51,199.72Z"/><path class="cls-6" d="M299.93,189.35c35.28,1.39,49.43,39.16.54,36.94S263.31,187.91,299.93,189.35Z"/><circle class="cls-7" cx="300" cy="192.07" r="17.63"/></g><path class="cls-8" d="M575,25V575H25V25H575M600,0H0V600H600V0Z"/></g></svg>