<svg xmlns="http://www.w3.org/2000/svg" viewBox="0 0 600 600"><defs><style>.cls-1{fill:#1c8182;}.cls-2{fill:none;stroke:#e2e2e2;}.cls-2,.cls-3,.cls-4,.cls-5{stroke-linecap:round;stroke-linejoin:round;stroke-width:10px;}.cls-3,.cls-4{fill:#ffeed2;}.cls-3{stroke:#e5ceac;}.cls-4,.cls-5{stroke:#111;}.cls-5{fill:#3a3a3a;}.cls-6{fill:#0a6b7a;}</style></defs><g id="dessin"><rect class="cls-1" width="600" height="600"/><g id="body-2" data-name="body"><line class="cls-2" x1="560.87" y1="238.03" x2="403.71" y2="224.87"/><path class="cls-3" d="M360.53,265.27l72.73-17.69s77.65,47.18,91.41,35.38-80.6-64.87-80.6-64.87L334,224"/><line class="cls-2" x1="64.61" y1="87.06" x2="507.45" y2="85.52"/><line class="cls-2" x1="89.39" y1="515.97" x2="320.87" y2="518.29"/><polygon class="cls-3" points="600 558.38 600 595.21 590.43 600 571.38 600 455.84 485.06 406.68 436.15 388.05 417.62 395.83 399.84 414.06 358.17 415.57 354.72 432.28 373.17 530.7 481.85 600 558.38"/><g id="visage-2" data-name="visage"><path class="cls-3" d="M288.77,256.43,269.12,228.9l-25.56,7.87-16.71-29.49,7.86-9.83S211,116.7,297.62,125.7c75.68,7.86,27.52,112.05,27.52,112.05Z"/><path class="cls-3" d="M235.71,221.77s10.06,0,13.16-7.74"/><g id="lunettes"><path class="cls-4" d="M304,184.42s-1.55-17.42-17-17.81-56.13,3.1-56.13,3.1"/><path class="cls-5" d="M242.48,168.16s1.94,8.32.2,14.71-12.2,9.1-12.2,9.1l-.58-22.65Z"/></g></g><polygon class="cls-3" points="276.98 244.63 331.04 223.01 418.32 345.35 400.5 398.95 343.82 409.76 276.98 244.63"/><line class="cls-2" x1="70.81" y1="251.97" x2="265.9" y2="266.68"/><path class="cls-3" d="M286.81,240.7,218,275.1s7.9-62.91-9.82-62.91c-19.66,0-34.41,117-34.41,117l135.64-32.44"/><path class="cls-3" d="M401.81,322.28l.21.24.05.06c2.59,3,23.72,27.88,30.21,50.59,2,7,2.62,13.81.85,19.7-4.76,15.86-14.6,30.44-26.45,43.28-32.31,35-79.57,57.16-79.57,57.16l124.82,31.45s-.65,55-11.39,75.24H419.25c-11.63-14.14-17.44-43.79-17.44-43.79L231.39,517.39l-6.51-1.48L339.88,400l11.8-11.89"/></g><path class="cls-6" d="M575,25V575H25V25H575M600,0H0V600H600V0Z"/><line class="cls-2" x1="216.35" y1="362.68" x2="391.32" y2="358.03"/><line class="cls-2" x1="402.94" y1="487.32" x2="565.52" y2="480.35"/></g></svg>