<svg xmlns="http://www.w3.org/2000/svg" xmlns:xlink="http://www.w3.org/1999/xlink" viewBox="0 0 600 600"><defs><style>.cls-1{fill:#bf4e1d;}.cls-2{fill:#fa5a26;}.cls-3,.cls-4{fill:#ffeed2;stroke:#e5ceac;}.cls-3,.cls-4,.cls-5,.cls-6,.cls-7,.cls-8{stroke-linecap:round;stroke-linejoin:round;}.cls-3,.cls-7,.cls-8{stroke-width:10px;}.cls-4,.cls-5,.cls-6{stroke-width:7px;}.cls-5,.cls-8{fill:none;}.cls-5,.cls-6{stroke:#111;}.cls-6{fill:#3a3a3a;}.cls-7,.cls-8{stroke:#c6ac89;}.cls-7{fill:url(#Dégradé_sans_nom_12);}.cls-9{fill:#67371e;}</style><linearGradient id="Dégradé_sans_nom_12" x1="-1714.34" y1="-910.89" x2="-1714.34" y2="-680.35" gradientTransform="matrix(0.74, -0.68, 0.68, 0.74, 2173.38, -274.81)" gradientUnits="userSpaceOnUse"><stop offset="0" stop-color="#ffeed2"/><stop offset="0.44" stop-color="#edc6a4"/><stop offset="0.8" stop-color="#e1ab86"/><stop offset="1" stop-color="#dda17a"/></linearGradient></defs><g id="dessin"><rect class="cls-1" width="600" height="600"/><circle class="cls-2" cx="356.48" cy="342.55" r="222.19"/><circle class="cls-2" cx="210.55" cy="220.61" r="142.84"/><g id="charac"><polygon class="cls-3" points="178.94 408.21 200.77 361.71 194.13 316.16 256.44 306.29 261.19 362.28 286.81 410.68 178.94 408.21"/><path class="cls-3" d="M155.26,595.49l-14-75.65-52.65-48S96,392.75,123.06,368.48c18.59-16.64,195.5-9.54,195.5-9.54l50.3,67.37-40.81,94.27-6.4,70.48Z"/><path class="cls-3" d="M228.66,344s-61.68,1-88.25-87.3S251.53,98.23,278,221.61C295.32,302.29,228.66,344,228.66,344Z"/><g id="visage-4" data-name="visage"><path class="cls-4" d="M193.63,301.88c14.7,2.37,15.42-9,21.82-13.29s18.51-.95,23.72-9"/><g id="lunettes-2" data-name="lunettes"><line class="cls-5" x1="177.6" y1="245" x2="216.56" y2="228.39"/><path class="cls-6" d="M139.1,260.49l45.39-19.83s7,23.72-12.62,32.86S139.1,260.49,139.1,260.49Z"/><path class="cls-6" d="M207.32,230.14l45.39-19.83s8,21.6-11.61,30.74S207.32,230.14,207.32,230.14Z"/></g></g><g id="coquille"><path class="cls-7" d="M452.91,384.6C442.51,395,395,394,369.93,399s-49.27,12.43-49.27,12.43-13.13.25-19.12-3.92a23,23,0,0,1-8-9.41s-10.34-2.11-13.62-9.42-2.85-9.87-2.85-9.87-9.6-9-12-16.3a61,61,0,0,1-2.82-13.12,29.64,29.64,0,0,1-2.59-32.5s-8.09-13-6.18-21.21A27.4,27.4,0,0,1,260,283s-2.79-11.22.15-17.15a20.5,20.5,0,0,1,7.86-8.53s1.24-11,7.73-19S289,227.87,289,227.87s1.68-8.23,10.14-14.94,14.25-8.38,14.25-8.38a30.42,30.42,0,0,1,9.69-9.35c6-3.34,14.54-4.78,14.54-4.78s5.44-6.95,16.89-10,14.77.61,14.77.61,14.62-6.57,22.56-6.13S408,182.22,408,182.22s8.18-2.8,11.94-1.52,8.26,6.17,8.26,6.17,9.48,1.17,14.47,5.19a18.29,18.29,0,0,1,6.1,9.89s9.58,1.29,13.54,6.05a15.14,15.14,0,0,1,3.75,9.46s6.17,2.72,9.22,7.44,1.54,6.34,1.54,6.34,5.28,5,7.34,15A86.15,86.15,0,0,1,486,263.9a474,474,0,0,0-15.86,50.35C462.68,343.31,466.12,371.36,452.91,384.6Z"/><path class="cls-8" d="M445.68,376.4s-41.12-5.73-84.24.06-58.59,14.23-58.59,14.23"/><path class="cls-8" d="M444,373.64s-43.24-17-90.42-25.25c-29.66-5.16-80.92-.42-80.92-.42"/><path class="cls-8" d="M439.87,370.56s-47.93-33.81-92.11-55.14S271.59,287,271.59,287"/><path class="cls-8" d="M446.43,374.41s-6-50.9-1.29-72c11.29-50.87,24-66.49,24-66.49"/><path class="cls-8" d="M439.34,367.17S415.93,298.73,418.05,258s6.67-63.84,6.67-63.84"/><path class="cls-8" d="M435.81,365.68s-19.13-36.21-39.18-88.37-26.5-85.83-26.5-85.83"/><line class="cls-8" x1="446.43" y1="374.41" x2="308.07" y2="223.22"/></g><polyline class="cls-3" points="359.32 413 449.39 512.1 469.45 440.55 440.03 395.95 403.02 407.33 397.33 380.76 426.74 319.08 452.37 329.52 517.21 419.99 469.13 602.68 310.97 461.74"/><polyline class="cls-3" points="142.06 467.12 135.84 556.23 68.93 600 11.05 600 10.42 555.07 70.81 519.84 99.19 414.94"/></g><path class="cls-9" d="M575,25V575H25V25H575M600,0H0V600H600V0Z"/></g></svg>