<svg xmlns="http://www.w3.org/2000/svg" xmlns:xlink="http://www.w3.org/1999/xlink" viewBox="0 0 600 600"><defs><style>.cls-1{fill:#61b3b5;}.cls-2{fill:#72c1c1;}.cls-3{fill:#7bb758;stroke:#69a542;stroke-miterlimit:10;}.cls-10,.cls-11,.cls-14,.cls-15,.cls-16,.cls-3,.cls-4,.cls-5,.cls-6{stroke-width:10px;}.cls-4,.cls-5{stroke:#8579cc;}.cls-10,.cls-11,.cls-12,.cls-13,.cls-14,.cls-15,.cls-16,.cls-4,.cls-5,.cls-6,.cls-7,.cls-8{stroke-linecap:round;stroke-linejoin:round;}.cls-4{fill:url(#Dégradé_sans_nom_6);}.cls-5{fill:url(#Dégradé_sans_nom_6-2);}.cls-6,.cls-9{fill:#847ddb;}.cls-10,.cls-6{stroke:#6b69c4;}.cls-7{fill:#3131aa;stroke:#1e1e8e;}.cls-12,.cls-13,.cls-7,.cls-8{stroke-width:7px;}.cls-8{fill:#e0e28d;stroke:#cacc7a;}.cls-10,.cls-13{fill:none;}.cls-11,.cls-12{fill:#343435;}.cls-11,.cls-14{stroke:#1d1d1e;}.cls-12,.cls-13{stroke:#151516;}.cls-14{fill:#262626;}.cls-15{fill:#efcab1;stroke:#dbb79e;}.cls-16{fill:#1d1d1e;stroke:#4c3226;}.cls-17{fill:#477e8a;}</style><linearGradient id="Dégradé_sans_nom_6" x1="931.57" y1="4.27" x2="988.86" y2="114.98" gradientTransform="translate(-537.86 65.74) rotate(10.13)" gradientUnits="userSpaceOnUse"><stop offset="0" stop-color="#9d8ce5"/><stop offset="0.99" stop-color="#aea4ea"/></linearGradient><linearGradient id="Dégradé_sans_nom_6-2" x1="1055.12" y1="4.25" x2="990.47" y2="112.25" xlink:href="#Dégradé_sans_nom_6"/></defs><g id="dessin"><rect class="cls-1" width="600" height="600"/><path class="cls-2" d="M551.58,119.07a38.07,38.07,0,0,0-69.05-22.15,38,38,0,0,0-68,30.8c5.28,32.87,41.82,67.54,68,77.06,26.19-9.52,62.73-44.19,68-77A38,38,0,0,0,551.58,119.07Z"/><path class="cls-2" d="M357,358.21a87.6,87.6,0,0,0-158.88-51A87.52,87.52,0,0,0,41.57,378.11c12.17,75.63,96.25,155.41,156.51,177.31,60.26-21.9,144.35-101.68,156.5-177.3A86.53,86.53,0,0,0,357,358.21Z"/><g id="pensée"><path class="cls-3" d="M397.63,333.34S348.87,374.08,323.91,458s-29.66,133.09-29.66,133.09l-21.12-5.68s-2-31.16,29.7-132.48c32.75-104.68,81.06-132.14,81.06-132.14Z"/><path class="cls-4" d="M416.28,359.52s65.21-78.16,36.85-113.75c-37.21-46.7-73.9-25-73.9-25s-58-2.75-55.41,65.27C326.23,350.37,416.28,359.52,416.28,359.52Z"/><path class="cls-5" d="M410.35,359.58s101.06,12.17,115.48-31C544.76,272,506.6,253,506.6,253s-29.23-50.12-84.91-11C369,279.05,410.35,359.58,410.35,359.58Z"/><path class="cls-6" d="M413.48,338.52s-78.76,18-83.75,35.4,1,19.07,1,19.07-3.51,8.18-1.83,15.56A37.61,37.61,0,0,0,335.46,422s3.25,14.43,23.82,21.72,26.33-3.79,26.33-3.79-1.27,10.63,21.58,16.6,31.19-2.77,31.19-2.77a29.85,29.85,0,0,0,15-7.24c7.28-6.41,9.34-17.06,9.34-17.06S470,427.61,473,409.1,413.48,338.52,413.48,338.52Z"/><path class="cls-7" d="M385.38,358.18s-41,4.11-24.32,39.31c15.71,33.08,37.84,1.64,37.84,1.64s-.23,33.72,28.56,18.47c33.87-17.93,2.31-46,2.31-46Z"/><path class="cls-8" d="M380.83,344s10.4,25.45,22.7,29.22,37.06-7.14,37.06-7.14L413.18,336.8Z"/><path class="cls-9" d="M414.08,354.52c6.35,24.15,42.77,47.77,60.71,49.56,45,4.49,27.3-28.64,28.51-40.7s11.57-22.49-7.72-41.35-49.42-7.89-49.42-7.89-8.23-2.41-21.31,8.32C418.71,327.48,410,338.84,414.08,354.52Z"/><path class="cls-9" d="M406.79,349.39c-17.38,17.93-60.71,20.64-77.21,13.4-41.45-18.18-9.74-38.35-4.88-49.45s.94-25.27,27-32.25,46.93,17.38,46.93,17.38,8.36,1.93,14.5,17.69C416,323.56,418.08,337.74,406.79,349.39Z"/><path class="cls-7" d="M414.59,331.15s-24-28.28-38.89-22.28-19.5,29.94-12,40.72,16.46,13.56,16.46,13.56,25.87-8.36,31.13-18S414.59,331.15,414.59,331.15Z"/><path class="cls-7" d="M419,332.42s35.92-9.38,44.63,4-1.2,35.72-13.53,40.24-21.26,1.67-21.26,1.67-16.4-21.69-15.17-32.63S419,332.42,419,332.42Z"/><path class="cls-10" d="M414.08,354.52c6.35,24.15,42.77,47.77,60.71,49.56,45,4.49,27.3-28.64,28.51-40.7s11.57-22.49-7.72-41.35-49.42-7.89-49.42-7.89-8.23-2.41-21.31,8.32C418.71,327.48,410,338.84,414.08,354.52Z"/><path class="cls-10" d="M406.79,349.39c-17.38,17.93-60.71,20.64-77.21,13.4-41.45-18.18-9.74-38.35-4.88-49.45s.94-25.27,27-32.25,46.93,17.38,46.93,17.38,8.36,1.93,14.5,17.69C416,323.56,418.08,337.74,406.79,349.39Z"/></g><g id="lys"><path class="cls-3" d="M233.39,258.55s37,51.68,40.06,139.16-13.16,183.48-13.16,183.48l21.87-.19s18.21-76.87,13-182.9c-5.42-109.55-45.29-148.26-45.29-148.26Z"/><path class="cls-11" d="M217.86,251.37s-41.66-20.22-68.13-55.85-34.25-51.08-34.25-51.08,11-16.25,30.62-23.18a63.2,63.2,0,0,1,36-2s21.51,26,31,50.92,20.69,75.73,20.69,75.73Z"/><path class="cls-11" d="M242.12,249.93s-58.27-79.87-35.66-147.35,92.1-29.5,92.1-29.5-23.34-7.32-25.67,3.85,4,54.87-7.62,98.36S251,250.49,251,250.49Z"/><path class="cls-11" d="M147.14,239.23c-15.71-9.3-21.51-15.95-32.81-17.35S81.71,228,76.51,229.05s-15.86-6.07-22-.49S47.76,249,47.76,249s-10.89-65,48.17-72.14,133.54,78.9,133.54,78.9S162.84,248.53,147.14,239.23Z"/><g id="pistils"><path class="cls-12" d="M227.2,242.83l-49.81-93.15s-34.68-44.27-21.46-49.54,27.15,46.49,27.15,46.49l48.51,95.21Z"/><path class="cls-13" d="M221.21,243.27s-39.48-60.08-48.17-67a117.51,117.51,0,0,0-15.94-10.82"/><path class="cls-13" d="M222.42,222.76c-.5-1.75-25.26-68.4-27.12-80.85S194,125,194,125"/><path class="cls-13" d="M228.82,226.49s-19.09-59.58-19.69-72.62S211,135.73,211,135.73"/><path class="cls-13" d="M216.66,225.43S173.22,158.12,163,151.19l-10.23-6.92"/></g><g id="petal"><path class="cls-14" d="M239.54,262.94s-57.58-1.6-73.43-7.67S150,241.57,150,241.57l18.12-10.52s33.49,8.71,46.58,14.4S239.54,262.94,239.54,262.94Z"/><path class="cls-11" d="M100.26,309.31s-29.58-16.7-13.91-53.48C97.74,229.07,131,233.6,147.4,232.9c5.63-.24,19.92-1.74,19.92-1.74s-6.47,10.31-11.82,13.48c-4.44,2.63-22.35,6.35-31,17.64C103.38,289.73,100.26,309.31,100.26,309.31Z"/></g><g id="petal-2" data-name="petal"><path class="cls-14" d="M251.77,254.68s27-53.83,28.87-71.36a250.18,250.18,0,0,0,1.6-28s-19.62,29.89-22.8,44.63S251.77,254.68,251.77,254.68Z"/><path class="cls-11" d="M260.63,197.05s21.88-64.26,53.1-50.15,38.53,21.46,38.53,21.46S370,129,327.81,118C255.58,99.19,260.63,197.05,260.63,197.05Z"/></g><g id="petal-3" data-name="petal"><path class="cls-14" d="M239.54,262.94s-19.71-8.44-35.06-18.2-29.89-23.42-29.89-23.42l88.6-46.17s-4.19,26.49-5.54,43.79c-1.07,13.58-6.71,36.75-6.71,36.75Z"/><path class="cls-11" d="M174.59,221.32s19.63-1.21,29,.57c17.39,3.32,34.42,7.68,34.42,7.68s7.29-15.24,14.46-32.27c7.6-18,9.51-23.54,9.51-23.54s-33.54,4.59-49.46,13.18S174.59,221.32,174.59,221.32Z"/></g></g><g id="link"><path class="cls-15" d="M262,459.71c5.55,0,14.81,6.71,14.81,6.71s3.9-7.23,8.55-6.32,8.77,8.25,8.77,8.25,8.26-4.25,12.52-3.87,6.06,7,6.06,7,11.87-5.42,17.42-4.13S320,482.81,320,482.81s1.42,13.16-5.29,41.93-11.49,31.1-11.49,31.1,11.87,13.81,4.52,13.81S293,565.39,293,565.39a7.37,7.37,0,0,1-7,4c-5.29,0-7.61-3.1-7.61-3.1s-4,4.52-9.29,3.48S263,563.1,263,563.1s-10,4.35-16.32,2.55,11.09-13.94,11.09-13.94a249.35,249.35,0,0,1-.64-40.13A173.92,173.92,0,0,1,263.32,477S256.48,459.71,262,459.71Z"/><path class="cls-15" d="M276,503.19s-3.49,15.49-3.1,20.52.39,13.94.39,13.94"/><path class="cls-15" d="M301.13,490.81s.77,11.22.39,17-5,14.71-5,14.71"/><path class="cls-16" d="M259.71,478s12.43-1.4,33.58,1.16c19.94,2.42,29.9,8.13,29.9,8.13"/><path class="cls-16" d="M253.52,548.23a164.1,164.1,0,0,0,28.79,5.22c14.69,1.14,26.95,1.49,26.95,1.49"/></g><path class="cls-17" d="M575,25V575H25V25H575M600,0H0V600H600V0Z"/></g></svg>