<svg xmlns="http://www.w3.org/2000/svg" viewBox="0 0 600 600"><defs><style>.cls-1{fill:#2c81a3;}.cls-2{fill:#3d93ad;}.cls-3{fill:#774c36;stroke:#5e3726;}.cls-3,.cls-4,.cls-5{stroke-miterlimit:10;stroke-width:10px;}.cls-4{fill:#f6a17c;stroke:#843415;}.cls-5{fill:#d33e2a;stroke:#994537;}.cls-6{fill:#305aa5;}.cls-7{fill:#3b5882;}</style></defs><g id="dessin"><rect class="cls-1" width="600" height="600"/><rect class="cls-2" x="173" y="103.32" width="157.47" height="171.87"/><rect class="cls-2" x="234.16" y="256.61" width="291.1" height="328.26"/><g id="panal"><polygon class="cls-3" points="261.86 599.32 269.77 174.55 304.79 172.71 298.1 599.32 261.86 599.32"/><path class="cls-4" d="M59.46,468.64S174.32,451,298.71,445.45s252.77-14.13,252.77-14.13,2.49-19.26-.92-83.84S541.8,271,541.8,271s-142.35,6.91-176.9,13.82S300.25,301.71,276.29,298s-91.83-4-91.83-4l-5.53-4.61L41.65,298.34s2.76,60.5,6.14,92.13S59.46,468.64,59.46,468.64Z"/><path class="cls-5" d="M156.76,263.55s59.1-21.16,88.84-28.37S367,216.68,367,216.68l5.13,25.55L448.55,190l-89.7-30.65,1.62,28.83s-88,11.09-129.13,12.17-87-3.74-87-3.74l34.77,27.58Z"/></g><path class="cls-6" d="M575,25V575H25V25H575M600,0H0V600H600V0Z"/><path class="cls-7" d="M159.75,416.89l.3,1.5a.85.85,0,0,0,1,.71c-.23.48-.51.73-.84.74a6.27,6.27,0,0,0-1,.11c-.32.07-.48.34-.49.84a9.19,9.19,0,0,0,.71,2.73,3.68,3.68,0,0,0-1.15.39,3.33,3.33,0,0,0-.57.45.56.56,0,0,1-.46.17,4.29,4.29,0,0,1-1-.38l.63,3.16a4.74,4.74,0,0,0,1.11-2.69c.42-.08.68.14.79.67a11.66,11.66,0,0,1,.12,2.27l.35-1.55c.42-.08.68,0,.79.26a4,4,0,0,1,.22,1.1c0,.48.08.94.11,1.37a2.5,2.5,0,0,0,.3,1.09c-.42.63-1.42,1.11-3,1.42a.77.77,0,0,0-1,.62,5.12,5.12,0,0,0-.11,1.5,3.48,3.48,0,0,1,0,1.07c-.06.23-.27.05-.6-.54-.51.21-.72.5-.65.87a3.19,3.19,0,0,1,0,1.06,9.57,9.57,0,0,1-2.42-1,18.53,18.53,0,0,1-2-1.4,3.63,3.63,0,0,1,1.9-2q-.28-.6-.45-.57a1,1,0,0,0-.42.33,1.07,1.07,0,0,1-.59.36c-.21,0-.51-.11-.91-.47-.84.17-1,.83-.59,2a9.94,9.94,0,0,1,.74,2.89,5.18,5.18,0,0,0-3,1.17c-.7.63-1.6.62-2.72,0-.42.09-.55.25-.39.49a.51.51,0,0,0,.55.3c0,.55-.16.75-.46.59a2.68,2.68,0,0,0-1.12-.27l-.57-.38a.44.44,0,0,1-.22-.28,1.2,1.2,0,0,0-.65.45c-.22.26-.21.43,0,.49a1.45,1.45,0,0,1-1.1-.6,2.66,2.66,0,0,0-.82-.82,2.25,2.25,0,0,0-1.33-.06,1.59,1.59,0,0,1-1.17-.1,3.34,3.34,0,0,1-1.56-1.25,5.56,5.56,0,0,0-1.44-1.43,4.91,4.91,0,0,0-2.08-1c-.86-.21-1.17-.78-.91-1.71.71-.25,1.24-.22,1.57.1s.92.34,1.74.06c-.36-1.24-1.51-1.56-3.47-.95l-1-4.73a2,2,0,0,1,1.24.41,1.14,1.14,0,0,1,.22.69,7.76,7.76,0,0,1-.12,1.09,3.23,3.23,0,0,0,.24,1.6q.66,0,.63-.54a7,7,0,0,0-.14-1.12,1.85,1.85,0,0,1,0-1c.1-.29.56-.35,1.36-.18a4.76,4.76,0,0,1-1.2-2.72c-.09-1-.16-1.91-.24-2.82a10.32,10.32,0,0,0-.5-2.53,3.47,3.47,0,0,0-1.69-1.88c.11-.57.35-.7.74-.39s.93.28,1.63-.08a1.51,1.51,0,0,0-.38-1.08,7.32,7.32,0,0,1-.69-1,.8.8,0,0,1-.14-.71c.07-.18.53-.35,1.37-.52a5.45,5.45,0,0,1-.47-2.77q0-1.89-1.23-1.65c-.15-.73.07-1,.66-.79s.84.39.76.51c.38-.29.52-.51.44-.66l-.36-.59a3.7,3.7,0,0,1-.41-.82c-.12-.3,0-.72.49-1.24l-.25-1.27c0-.54,0-1.06-.07-1.54a10.62,10.62,0,0,0-.19-1.36,14.21,14.21,0,0,0,.1,2.11l-.54-2.68a5,5,0,0,1,.15-1.34c.09-.35.2-.75.33-1.22,0-.1,0,0,0,.26s0,.68,0,1.23a6.82,6.82,0,0,1,1,.38q.63.28.6.12l-1.1-1.42a3.94,3.94,0,0,1-.65-1.18,1.28,1.28,0,0,1,.18-1.19,2.36,2.36,0,0,1,.49,0c.22,0,.32,0,.3-.14a1.54,1.54,0,0,0-.1-.89,5.59,5.59,0,0,1-.22-.69,1.92,1.92,0,0,0,.49-1.25c.05-.56.09-1.19.11-1.91a11.4,11.4,0,0,1,.3-2.19,9.19,9.19,0,0,1,.87-2.23,3,3,0,0,1-1.7.51q-1.14.06-2.37.06a19.66,19.66,0,0,0-2.35.14,2,2,0,0,0-1.5.71,1.11,1.11,0,0,1-1.33.76,1.43,1.43,0,0,0-1.51.63c-.42.63-.58.82-.46.58s0-.38-.33-.42-.63.12-.57.44,0,.48-.06.5a9.48,9.48,0,0,1-2.89.74,4.07,4.07,0,0,0-2.48,1.15,2.91,2.91,0,0,1-1.33.76,4.83,4.83,0,0,0-1.64.82,7.31,7.31,0,0,0-1.39.44,14.71,14.71,0,0,0-1.64.82,4.13,4.13,0,0,1-1.34.68,8.1,8.1,0,0,0-1.66.74,4.34,4.34,0,0,1-1.34.68,7.59,7.59,0,0,0-1.66.74q-.28.23-.27.3c0,.05,0,.14-.11.27a.46.46,0,0,0-.09.34,7.22,7.22,0,0,1-2.5.66,3.07,3.07,0,0,0-2.08,1.08,10.81,10.81,0,0,1-1.2,1,4.77,4.77,0,0,1-2.59.59c-.74.15-.92.6-.55,1.34a3.23,3.23,0,0,1,.39,2c-.06.23-.32.45-.77.64s-.67.36-.65.46a12.18,12.18,0,0,0-.1,2,20.17,20.17,0,0,1-.06,2.15c-.07.78-.36,1.22-.89,1.32a.72.72,0,0,0-.63.95.64.64,0,0,1-.53.6,1.75,1.75,0,0,0-.89.5,15.58,15.58,0,0,1,1.17,1.74,6.13,6.13,0,0,1,.72,1.58,1.2,1.2,0,0,1-.15,1.26,2.27,2.27,0,0,1-.49,0c-.23,0-.32,0-.3.14a1.17,1.17,0,0,0,.17.86c.18.35.21.54.11.56-.42.63-.54,1.15-.35,1.54a7.81,7.81,0,0,1,.35,2.56c0,.11-.1.21-.35.32a.74.74,0,0,0-.44.66l.15.79c0,.11-.09.35-.34.73l-.26.37a4.62,4.62,0,0,0,.37,2.23,1.59,1.59,0,0,1-.24,1.69,3.46,3.46,0,0,0,0,1.23c.06.59.14,1.28.25,2.08s.2,1.58.3,2.32a7.82,7.82,0,0,1,.08,1.63c0,.89-.07,2-.07,3.38a15.3,15.3,0,0,0,.85,4.67,4.78,4.78,0,0,1-2.59.19c-.69-.19-1-.84-1-1.93a1.84,1.84,0,0,0-1.23,1.64,4.48,4.48,0,0,1-.51,2,2.46,2.46,0,0,0-1.46-.36c-.61,0-1.21,0-1.8,0a3.68,3.68,0,0,1-1.53-.27c-.43-.19-.62-.73-.57-1.61-.78-.07-1.21.1-1.3.5a3.65,3.65,0,0,0,0,1.39,11.47,11.47,0,0,0-4.21-.14,6.3,6.3,0,0,1-4.4-1.1,8.67,8.67,0,0,0-2-.91c-.82-.27-.89-.92-.22-1.93-.31-.48-.6-.51-.84-.08a1.22,1.22,0,0,1-1.37.52,52.85,52.85,0,0,1-1.61-8.46q-.66-5.37-1.44-10.95a2.19,2.19,0,0,1,.25-1.2,1.59,1.59,0,0,0,.1-1.17c-.11-1.62-.18-2.81-.22-3.57a38.19,38.19,0,0,1,.16-4.13q0-.17.27-.3a.76.76,0,0,0,.36-.65,9.76,9.76,0,0,0-.41-1.23q-.34-.92-.06-1.14a3.25,3.25,0,0,0,.41-2.05q0-1.64.06-3c.13-1,.23-1.46.3-1.37a2.46,2.46,0,0,0,1.12.27A3,3,0,0,1,66.05,403a35.14,35.14,0,0,1,.51-3.63A12.45,12.45,0,0,0,66.8,396a2.19,2.19,0,0,0-1.86-1.93c0-.76.38-1.2,1.29-1.33s1.41-.47,1.52-1a7.05,7.05,0,0,1-.1-2.52,14.15,14.15,0,0,1,.73-2.53,1.91,1.91,0,0,0,.13-1.42,7.8,7.8,0,0,1-.1-2.52c0-.11.1-.21.35-.32a.5.5,0,0,0,.29-.63,15.32,15.32,0,0,1,.33-1.62,8.85,8.85,0,0,1,.62-1.85,1.34,1.34,0,0,0,.17-1.59,3.73,3.73,0,0,1-.17-2.51c.06-.23.18-.34.34-.32s.27-.19.29-.63a7,7,0,0,1,.11-1.91,7.38,7.38,0,0,1,.68-2.35,2.1,2.1,0,0,0,0-1.56,5.26,5.26,0,0,1,0-2.55c.06-.23.3-.41.71-.55s.65-.32.71-.55a7.12,7.12,0,0,0,0-3.61A3,3,0,0,1,74,357a2,2,0,0,0-.75-1.32,2.45,2.45,0,0,1-.82-1.64,4.07,4.07,0,0,0,.53-.19c.25-.11.34-.37.26-.79l-.16-.79a2.61,2.61,0,0,0,.2-1,6.5,6.5,0,0,1,.15-1.34c0-.44,0-.85.08-1.25s.1-.86.2-1.43l.35-2.37c0-.44.11-.68.27-.71a.53.53,0,0,0,.36-.23,6.18,6.18,0,0,0-.22-2.75,8.18,8.18,0,0,1-.28-3.06.66.66,0,0,1,.44-.26c.21,0,.29-.22.22-.53s-.09-.89-.15-2,0-1.84.31-2.12c.45-.52.59-.91.43-1.15a2.17,2.17,0,0,1-.11-1.37c.06-.23.17-.83.3-1.79a6.07,6.07,0,0,0-.45-3.11,8,8,0,0,0,4.42-.47,12,12,0,0,1,5.2-.63q.17,0,.15.72c0,.49,0,.78.17.86,1.7-.77,3-1,3.9-.61s2.07.9,3.52,1.6a10.78,10.78,0,0,1,1.27.64,3.07,3.07,0,0,0,1.57.43c.52-.1.66,0,.41.41a1.13,1.13,0,0,0-.1,1.17c.8-.38,1.26-.28,1.37.3a1,1,0,0,0,1.16.84c.73-.15,1.19.2,1.35,1a2.07,2.07,0,0,0,1.64,1.64A69.38,69.38,0,0,1,102.83,345a74,74,0,0,1-.12,10.12c-.28,3.28-.68,6.45-1.22,9.51s-1,6.17-1.35,9.3a1.22,1.22,0,0,0,1.49.44c.67-.19,1.07,0,1.2.67.37-.3.52-.54.42-.75a2.62,2.62,0,0,0-.25-.44c-.07-.09,0-.21.17-.36a5.4,5.4,0,0,1,1.71-.51c1.45-.39,3.17-1,5.16-1.68s3.58-1.37,4.78-1.94c.09.42-.06.64-.44.66a1.48,1.48,0,0,0-1,.44c.36.7.67.86.92.48a3.42,3.42,0,0,1,.66-.79,1,1,0,0,1,.79-.16,1,1,0,0,0,.79-.16c.31-.61.69-.9,1.14-.88a4.19,4.19,0,0,0,1.86-.54c-.11,0,.06-.11.49-.42a10.44,10.44,0,0,1,1.55-.88,11.67,11.67,0,0,1,1.83-.7,1.79,1.79,0,0,1,1.5.11c.42.47.6.57.55.3a3.57,3.57,0,0,1,.08-1.24,4.13,4.13,0,0,1,1.48,1.26,7.74,7.74,0,0,0,1.36,1.45c1.16-.23,2.36-.49,3.61-.8a4.26,4.26,0,0,1,3,.14c.16-.25.33-.53.49-.83a3.42,3.42,0,0,1,.64-.87l1.43-1.1c.12-.47,0-.66-.37-.59s-.56.06-.58,0a5.91,5.91,0,0,1,.38-1.8,3.77,3.77,0,0,0-.54-3.09c.19-.14.44,0,.76.51a3.17,3.17,0,0,1,.35.91c.9-.4,1.15-1.32.76-2.78s-.76-2.69-1.07-3.72c.88.59,1.46.75,1.73.47a1.94,1.94,0,0,0,.49-1.24c.05-.56.1-1.14.14-1.75a1.73,1.73,0,0,1,.79-1.39,5.87,5.87,0,0,0-.37-1.9,6.55,6.55,0,0,1-.41-2.05c0-.21.19-.39.71-.55s.75-.34.71-.55a3.07,3.07,0,0,0-.14-1.12.78.78,0,0,0-.41-.41.48.48,0,0,1-.32-.35,3,3,0,0,1,.27-1.12c.15-.36.32-.48.5-.35s.24-.07.13-.6,0-1,.05-1.4a6.62,6.62,0,0,1,.24-1.28,2.61,2.61,0,0,0,.2-1,6.5,6.5,0,0,1,.15-1.34,1.27,1.27,0,0,1,.26-.71,2.86,2.86,0,0,0,.34-.39,6.93,6.93,0,0,0-.33-2.48,2.9,2.9,0,0,1,.2-2.26,3,3,0,0,0,.11-1.5,16.47,16.47,0,0,1-.11-1.78,2.34,2.34,0,0,1,.32-1.3c.21-.31.63-.26,1.26.16.17-.79.12-1.31-.14-1.53a2.33,2.33,0,0,0-.91-.47,5,5,0,0,1-1-.38c-.31-.16-.42-.57-.33-1.25q3.15.19,1.89-2.84a10.9,10.9,0,0,1-1,1.34c-.14.14-.21.07-.21-.2s0-.72.07-1.33a7.65,7.65,0,0,0-.16-2c.69-.36,1-.72,1-1.1a2.66,2.66,0,0,0-.3-1.09,1.49,1.49,0,0,1-.19-1c.06-.28.46-.45,1.22-.49-.27-.82-.11-1.39.47-1.73-.1-.53-.29-.66-.56-.38s-.35.45-.23.53a2.62,2.62,0,0,1-1.54-2.4,7.58,7.58,0,0,1,.44-3.12c.49-.32.85-.3,1.08,0s.45.49.66.44a1.32,1.32,0,0,0,1-.28,5.9,5.9,0,0,1,.71-.55,1.6,1.6,0,0,1,.85-.25,4.13,4.13,0,0,1,1.38.3,2.21,2.21,0,0,1,.48.8c.2.45.41.66.62.62.46.13.63,0,.51-.35s-.09-.56.12-.6c-.1,0,0,.07.19.13a6.66,6.66,0,0,0,.85.15l1.33.07a4.3,4.3,0,0,0,1.4.46,4.9,4.9,0,0,0,2.7-.46c.51,1.43,1.13,2.24,1.88,2.42a3.42,3.42,0,0,0,2.7-.87,1.53,1.53,0,0,0,1.2,1.07,5.73,5.73,0,0,0,1.81.05l2-.23a4.21,4.21,0,0,1,1.92.19,5.32,5.32,0,0,0,.52,2.19,12.49,12.49,0,0,1,1.06,2.42l1.23,1.64c.67.91.79,1.62.34,2.15s-.39.65-.09.75.47.6.54,1.46a4.78,4.78,0,0,1-.59,2.82,11.78,11.78,0,0,0-1,2.57,4.86,4.86,0,0,0,.45,1.88,3.22,3.22,0,0,1,.3,1.91c0,.21-.14.55-.54,1s-.57.8-.53,1a6.84,6.84,0,0,0,.47,2.78,9.25,9.25,0,0,1,.6,2.59c0,.1-.12.24-.41.41s-.42.36-.38.57l.15.79a5,5,0,0,0,.05,1.87,13.35,13.35,0,0,1,.11,3c0,.1-.1.21-.35.31a.5.5,0,0,0-.28.63,7.3,7.3,0,0,1,0,2.14,6.7,6.7,0,0,0,0,2,2.58,2.58,0,0,0,.31.76.72.72,0,0,1,0,.82,2.59,2.59,0,0,1-.63.94c-.36.4-.52.71-.48.92A3.39,3.39,0,0,0,169,354a5.43,5.43,0,0,1,.49,2,.62.62,0,0,0-.44.25.92.92,0,0,0-.19.69l.16.79a4.11,4.11,0,0,0,0,1.56,8.56,8.56,0,0,1-.14,2.58c0,.21-.17.39-.63.53s-.73.34-.79.57a1.86,1.86,0,0,0,.3,1.5A1.89,1.89,0,0,1,168,366c.05.21-.13.55-.53,1s-.58.8-.54,1a2.17,2.17,0,0,0,.22,1.52,2.94,2.94,0,0,1,.38,1.48,3.45,3.45,0,0,1-.7,1c-.4.46-.58.8-.53,1a1.89,1.89,0,0,0,.29,1.5,1.86,1.86,0,0,1,.3,1.5c-.06.23-.32.45-.77.65s-.67.35-.65.45a2.1,2.1,0,0,0,.32,1.58,2.1,2.1,0,0,1,.31,1.58,3.18,3.18,0,0,1-.69,1c-.4.46-.59.75-.57.85a2.25,2.25,0,0,0,.33,1.66,1.94,1.94,0,0,1,.3,1.5,2.76,2.76,0,0,1-.71,1c-.41.41-.6.72-.56.93a2.1,2.1,0,0,0,.32,1.58,2.1,2.1,0,0,1,.31,1.58.38.38,0,0,1-.42.33c-.22,0-.35.21-.37.65a2.41,2.41,0,0,1-.12,1l.16.79c-.26-.17-.51.48-.76,1.95a6.59,6.59,0,0,0,.12-1.83,2,2,0,0,0-.19,1.52l.07.31-.19,1.52a6.73,6.73,0,0,0,.23.77c.14.41.16.68.08.81l-.47.09-.32.07c-.08.12,0,.36.14.71a1.24,1.24,0,0,1,.18.86c-.28.28-.4.47-.38.57a4.29,4.29,0,0,1-.13,1c0,.45-.14.69-.35.73a.28.28,0,0,0-.25.38,9.46,9.46,0,0,0,.28,2.65,7.55,7.55,0,0,1,0,3,.55.55,0,0,1-.36.24c-.16,0-.25.27-.27.7,0,.76.08,1.38.13,1.87a10.9,10.9,0,0,1,0,1.39,2.21,2.21,0,0,1-.16.85,1.39,1.39,0,0,0-.33,1.21,10.7,10.7,0,0,1,0,1.47,1.92,1.92,0,0,1-.22.95C160.89,417.24,160.46,417.19,159.75,416.89Zm-27.3-12.61c0,.11,0,0,0-.24a3,3,0,0,1,0-.9l.16.79A.46.46,0,0,0,132.45,404.28Zm7.88,21.41a1.35,1.35,0,0,0-.35-1.33,1.9,1.9,0,0,0-1-.54,1,1,0,0,0-.64.05c-.1.08.2.21.9.4a4.34,4.34,0,0,0,.44,1.8C140,426.72,140.18,426.59,140.33,425.69Zm3.47,10c0-.55.17-.77.52-.67l1.21.33c.17-.8.11-1.25-.18-1.36a1.94,1.94,0,0,0-1.08,0l-1.1.22c-.32.06-.53-.17-.63-.7s-.4-.85-.79-.66C142.08,434.47,142.77,435.43,143.8,435.66ZM143.21,408a1.78,1.78,0,0,1-.09-1.29l.33-1.22c.1-.34.05-.58-.14-.71a2.89,2.89,0,0,0-1.55.06,8.38,8.38,0,0,1,.47,2C142.32,407.54,142.64,407.94,143.21,408Zm6.27,22.39a4.25,4.25,0,0,1,1.41-.36c.43,0,.64-.33.64-.87a1,1,0,0,0-.91-.07c-.36.13-.58,0-.66-.44.31-.06.47-.2.49-.42a1.44,1.44,0,0,0-.13-.64c-.1-.19-.2-.29-.3-.27s-.18.2-.22.54a1.67,1.67,0,0,1-.41,1.23C149.11,429.41,149.14,429.84,149.48,430.43Zm-10.77-96.82a2.63,2.63,0,0,0,1.21.33c.56.05.78.31.65.77s-.35.7-.68.71a.89.89,0,0,0-.74.4,5.18,5.18,0,0,0,0,2.28,3.93,3.93,0,0,1,.1,1.79c-.1.57-.28.79-.52.68a.7.7,0,0,1-.42-.49,5.75,5.75,0,0,1,.38-3A5.15,5.15,0,0,0,138.71,333.61ZM157.22,433c-.17-.3-.09-.56.25-.79a3.14,3.14,0,0,1,1.21-.49,3.22,3.22,0,0,1,1.31,0q.6.12.54.63Zm2.68-11.21a.77.77,0,0,1,.92.48,5.29,5.29,0,0,1,.42,1.31,8.1,8.1,0,0,1,.15,1.53,2.43,2.43,0,0,0,.25,1.26c-.76.05-1.22-.08-1.39-.38a2.09,2.09,0,0,1-.28-1,5.92,5.92,0,0,1,.12-1.42A3.22,3.22,0,0,0,159.9,421.78Zm3.81-31.12c-1.43,0-1.93-.05-1.48,0s.9.42,1.38,1.2Z"/><path class="cls-7" d="M192,325.9c-.25-.34-.31-.55-.18-.65a.47.47,0,0,1,.5,0,1.32,1.32,0,0,1,.53.58.52.52,0,0,1-.16.71c.23.48.42.92.59,1.31a3.52,3.52,0,0,0,1.15,1.29c.42-.31.36-.66-.18-1s-.83-.67-.87-.91c.08-.58.55-1,1.41-1.24s1.29-1,1.32-2.16a2,2,0,0,1-1.36-1c-.26-.52-.45-1-.59-1.31s-.29-.53-.48-.52-.53.39-1,1.14a2.08,2.08,0,0,1,.37-2.13,5,5,0,0,1,1.82-1c.74-.23,1.5-.47,2.28-.73a3.25,3.25,0,0,0,1.74-1.2,3.65,3.65,0,0,1,1.57.79,5.34,5.34,0,0,1,1.35-3.16,2.65,2.65,0,0,0,3.17-1c.47.29,1.15.67,2,1.13s1.53.39,2-.21a.58.58,0,0,1,.66-.3,1.31,1.31,0,0,1,.65.49,1.68,1.68,0,0,1,.34.72c.05.23,0,.38-.06.44.63-.21.83-.29.6-.25s-.32-.16-.25-.6a1.78,1.78,0,0,1,.53-.59,1.84,1.84,0,0,0,.54-.59c.64.17,1,.5,1,1a3.1,3.1,0,0,1-.13,1.26c-.13.36-.16.54-.08.55a6.38,6.38,0,0,0,1.17-1.17,7.14,7.14,0,0,0,1.12,2.68,1.85,1.85,0,0,1-.19,2.49l2,1.63c.67.55.86,1.06.56,1.54.63.31.94.38.93.19a4.93,4.93,0,0,0-.25-1,6.47,6.47,0,0,1-.3-1.44,1.21,1.21,0,0,1,.79-1.17c.48.82.89,1.16,1.25,1a2.34,2.34,0,0,0,1-.86,3.29,3.29,0,0,1,1-.92q.49-.25,1.2,1a3.27,3.27,0,0,1,1.42-1.64,6.22,6.22,0,0,1,1.77-.64,10,10,0,0,1,1.86-.12,5.87,5.87,0,0,0,1.82-.18,1.42,1.42,0,0,0,1.05-.68,1.43,1.43,0,0,1,1-.69l1.48-.23a5.3,5.3,0,0,0,1.27-.26,5.05,5.05,0,0,1,.41.67,4.26,4.26,0,0,0,.45.74c.16.21.25.3.3.27a3.18,3.18,0,0,0-.25-1,6.27,6.27,0,0,1,2.94-.63,31.34,31.34,0,0,1,3.26.3l1.72-.3a6.9,6.9,0,0,1,2.13,0c.16-.12.38,0,.65.49s.52.66.75.61a1.24,1.24,0,0,0,.94-.31,1.28,1.28,0,0,1,.94-.31q.34-.06.69.66c.23.48.39.62.5.41l.37-.28a.43.43,0,0,0,.16-.31,1.38,1.38,0,0,1,.86.63c.28.37.54.54.77.5s.38-.35.4-.5a.43.43,0,0,0,.16-.31q.22,0,.69.66a2.53,2.53,0,0,0,.78.78,2.16,2.16,0,0,0,.92-.59c.39-.35.65-.45.77-.28a1.83,1.83,0,0,1,1.58,1.07c.38.69.85.7,1.39,0,.56.24.59.57.07,1s-.66.73-.45.83c0,.15.13.26.45.34a4.76,4.76,0,0,1,.8.29.66.66,0,0,1,.37.5c.05.23-.23.56-.81,1a1.44,1.44,0,0,0,1,0,2.58,2.58,0,0,1,1.13-.06,2.87,2.87,0,0,1,.82,1.24,7.34,7.34,0,0,0,.54,1.26c.21.36.4.58.58.64s.46-.17.83-.72a1.2,1.2,0,0,1,0,1.63,15.59,15.59,0,0,0-1.05,1.47q.57.75,1.08-.12c.35-.59.63-.82.83-.72.42.21.58.42.47.63l-.31.62c.31.42.62.58.93.47a.68.68,0,0,0,.51-.37.89.89,0,0,1,.4.67,2.2,2.2,0,0,0,.37.9,8.92,8.92,0,0,0,2.07,1.58,1.13,1.13,0,0,1,.46,1.8,2.44,2.44,0,0,0,1,.71,1.2,1.2,0,0,0,.83-.32c.4.35.55.69.47,1a2.48,2.48,0,0,1-.6,1c-.31.37-.65.75-1,1.14a2.11,2.11,0,0,0-.6,1,6.55,6.55,0,0,0,2,1.52,1.77,1.77,0,0,0,2.09-.48c.25.33.25.56,0,.67a.39.39,0,0,1-.55-.08c-.29.48-.33.87-.11,1.16l.7.94-1.6,1.78c.81,0,1.26.17,1.34.37a1.24,1.24,0,0,1,.06.73,5.37,5.37,0,0,0,0,1c0,.38.37.77,1.06,1.16-.06.44-.36.44-.89,0s-.91-.66-1.14-.62c-.42.31-.36.7.17,1.14s.78.75.76.9-.06.44-.57.81a2.25,2.25,0,0,1-.53.59c.19.25.49.26.89,0a10.73,10.73,0,0,0,1.05-.68,2.77,2.77,0,0,1,.68-.41c.16-.05.12.21-.11.77a1.33,1.33,0,0,1-.57.81,1.06,1.06,0,0,0-.47.94,2.76,2.76,0,0,0,.48,1.69,5.39,5.39,0,0,0,1.48,1.73,3.14,3.14,0,0,0-.87,2.5c.16.73.36,1.52.6,2.38a1.41,1.41,0,0,1-.7.23,1,1,0,0,0-.74.45,6.09,6.09,0,0,1,2.37,4.09,10.18,10.18,0,0,1-.58,4.33A3,3,0,0,1,278,370a1.59,1.59,0,0,1,.3,1.05,5.11,5.11,0,0,1-.24,1.25,2.72,2.72,0,0,0-.08,1.33,1.15,1.15,0,0,0,.42,1,1.9,1.9,0,0,1,.54.86c0,.3-.29.58-.74.84s-.61.49-.48.66a9.08,9.08,0,0,1,.19,2.1c0,.48-.13,1.3-.3,2.47a10.35,10.35,0,0,0,.43,2,6.47,6.47,0,0,1,.31,2.11,3.27,3.27,0,0,1-.62,1.53,4,4,0,0,0-.65,1.75,4.91,4.91,0,0,0-.22,1.15,4.07,4.07,0,0,1-.05.72c0,.21-.07.47-.11.76a5,5,0,0,1-.54,1.38,22.65,22.65,0,0,0-.55,2.66,6.37,6.37,0,0,1-1.56,3.4c.23.49.43.66.59.54l.63-.47c.33.27.44.55.33.83a2.07,2.07,0,0,1-.68.8,6.94,6.94,0,0,1-.92.59q-.43.21-.3.12a1.36,1.36,0,0,0,.36,1c.28.38.37.6.29.66a1.62,1.62,0,0,1-.92.59,2.65,2.65,0,0,0-1.18.78,9.06,9.06,0,0,0-1,1.82,4.63,4.63,0,0,0-.55,1.87c.08.46,0,.74-.35.84s-.67.24-1.07.41a3.22,3.22,0,0,0-1.05.68,1.61,1.61,0,0,0-.27,1.47c.06.61.06.87,0,.79s-.42,0-1.07.4a5.69,5.69,0,0,0-1.06,1.58,5.9,5.9,0,0,1-.95,1.48,2.06,2.06,0,0,1-1.28.77c-.34,0-.65.22-.94.7a18.12,18.12,0,0,0-2.69,3.07,9.34,9.34,0,0,1-2.84,2.6,2,2,0,0,1-.78,0,.52.52,0,0,0-.6.25,2.17,2.17,0,0,0-.61.75,1.94,1.94,0,0,1-.49.66,2.42,2.42,0,0,1-1.3.09l-1.48-.16a2.27,2.27,0,0,0-.63,1.25c-.17.64-.44,1-.82,1-.23,0-.48-.12-.76-.5s-.5-.57-.64-.6c-.3,0-.51.15-.65.58a1.75,1.75,0,0,1-.45.83,3.21,3.21,0,0,1-1.65-.24,2.87,2.87,0,0,0-1.76-.15c-.3,0-.64.19-1,.69a1.39,1.39,0,0,1-1.27.65c-.15,0-.35-.2-.6-.53a1.29,1.29,0,0,0-.81-.57c-.23,0-.4.3-.5.77s-.28.72-.5.76a1.17,1.17,0,0,1-.8-.67c-.24-.41-.48-.59-.7-.55a4.09,4.09,0,0,0-2,.49,5.39,5.39,0,0,1-2.53.53l-.56-.76c-.31-.41-.59-.6-.81-.56l-.8.5a1.94,1.94,0,0,1-.9.37,2.05,2.05,0,0,1-.68-.66,1.33,1.33,0,0,0-.82-.57l-.44.72a1.5,1.5,0,0,1-.9-.69c-.31-.42-.51-.59-.6-.53a8,8,0,0,1-1.76-.15,9.05,9.05,0,0,0-2.8,0c-.15-.54-.28-1-.41-1.46a1.66,1.66,0,0,1,.26-1.36,1.19,1.19,0,0,0-1.11-.05,4.64,4.64,0,0,0-.95.7l-.84.83a.83.83,0,0,1-.93.2,1.13,1.13,0,0,1-.93-1.25,1.28,1.28,0,0,0-.81-1.35,5.31,5.31,0,0,1,0,1c-.09.59-.37.73-.85.44-.29,0-.66-.36-1.09-.95s-.77-.85-1-.81a2.38,2.38,0,0,1-1.88-.56,15.76,15.76,0,0,0-2.47-1.86,2,2,0,0,0-1.31-.2,1.25,1.25,0,0,1-1.25-.63c1-.37,1.47-.6,1.33-.7a5.31,5.31,0,0,0-.89-.41,4.28,4.28,0,0,1-1.19-.67c-.33-.27-.14-.81.57-1.6a.64.64,0,0,0-.95,0,6.78,6.78,0,0,1-.71.62,6.48,6.48,0,0,0-1.9-2.68,10.32,10.32,0,0,0-2.53-1.43c-.92-.35-1.85-.73-2.8-1.13a9.5,9.5,0,0,1-2.89-2.05c.53-.52.9-.76,1.12-.73a1.06,1.06,0,0,1,.65.49,5.68,5.68,0,0,0,.88.91,2.42,2.42,0,0,0,1.54.5c.3-.47.15-.89-.43-1.23s-1-.31-1.19.1A6,6,0,0,0,197,407c-.37-.58-.81-.6-1.33-.09a.91.91,0,0,1-.34-1.11,6.16,6.16,0,0,1,.74-1.23c.32-.44.6-.85.85-1.22a1.2,1.2,0,0,0,.11-1.16c-.54-.37-.87-.46-1-.25a1.7,1.7,0,0,0-.13.87,4.53,4.53,0,0,1-.13,1.27,1.45,1.45,0,0,1-1.1,1c-.72-.63-1.46-1.22-2.2-1.78s-1.5-1.19-2.29-1.9a1.13,1.13,0,0,1,1.39,0,.75.75,0,0,0,1.21-.21,1,1,0,0,0-.2-1.31,1,1,0,0,1-.08-1.41,1.19,1.19,0,0,0-1,.07,3.22,3.22,0,0,1-1,.36,2.25,2.25,0,0,1-1,0c-.32-.08-.69-.49-1.11-1.22.3-.48.63-.6,1-.36a5.38,5.38,0,0,0,1.09.56c.36-.4.34-.68,0-.85a1.16,1.16,0,0,1-.7-.94,6.92,6.92,0,0,1,3.15.57,1,1,0,0,0-.42-1.35,1,1,0,0,0-1.26-.12c-.42-.21-.56-.5-.44-.85a10.88,10.88,0,0,1,.51-1.16,5.82,5.82,0,0,0,.47-1.33,1.22,1.22,0,0,0-.43-1.23c-.34-.27-.45-.55-.33-.83a4.31,4.31,0,0,0,.24-.87,1.05,1.05,0,0,0-.22-.81,5,5,0,0,0-1.53-1,3.78,3.78,0,0,0,.2-2.49,6.49,6.49,0,0,1-.28-2.34,1.15,1.15,0,0,0-1.38-.14,4.84,4.84,0,0,1-1.12.45q-.94-.47,0-.78A1.64,1.64,0,0,0,188,381c0-.15-.12-.33-.42-.57a3.84,3.84,0,0,1-.78-.78,3.37,3.37,0,0,1-.49-.91c-.1-.31.06-.63.48-.94s.64-.31.67,0a7.52,7.52,0,0,1,0,1.17,4.67,4.67,0,0,0,.16,1.54,1.7,1.7,0,0,0,1.06,1.16,2,2,0,0,0,.73-1.52,6.46,6.46,0,0,0-.29-1.44,6,6,0,0,1-.3-1.44,2,2,0,0,1,.73-1.52,3.8,3.8,0,0,0-1.13-1.11,2.38,2.38,0,0,0-1-.26,3.63,3.63,0,0,1-1-.14,2.2,2.2,0,0,1-1.05-.88c1-.45,1.2-1.09.73-1.9a6.24,6.24,0,0,1-.84-2.7A1.19,1.19,0,0,1,186,368c.41-.24.55-.45.42-.61a5.47,5.47,0,0,1-.15-2,23.3,23.3,0,0,0,.17-2.66,12.94,12.94,0,0,0-.34-3.46c-.29-1.34.19-2.15,1.42-2.42a5.79,5.79,0,0,1-1.38-1.32c-.49-.67-.45-.86.15-.59s1.23.61,1.92,1a3,3,0,0,0,1,3.38c.55-2.23-.67-4.38-3.64-6.46a3.45,3.45,0,0,1,2.06,0,6.18,6.18,0,0,1,2,1c.36-.4.43-.74.21-1a4,4,0,0,0-.94-.86l-1.26-.91a5.17,5.17,0,0,1-1-1c.73-.94,1.44-1.82,2.12-2.65s.56-1.69-.35-2.57q2.88-2.15,6.63,2.08a1.8,1.8,0,0,0-.14-1.75,5.51,5.51,0,0,0-1.33-1.25q-.81-.57-1.71-1.26a6.32,6.32,0,0,1-1.62-1.91c-.21.41-.09.84.37,1.28s.88.84,1.28,1.19a2.21,2.21,0,0,1-1.93.17,7,7,0,0,1-1.95-1.18c2.26-2.21,2.66-4.19,1.21-6,.35-.39.53-.46.53-.2s0,.43-.13.49a1,1,0,0,0,.72.05c.27-.07.52-.13.75-.17a2,2,0,0,1,.83.06,2.26,2.26,0,0,1,1,.88,27.7,27.7,0,0,1,.29-3.53,13.14,13.14,0,0,1,1.07-3.54,1,1,0,0,0-1.19.5,6.42,6.42,0,0,0-.5,1.55c-.13.61-.24,1.25-.34,1.9a3,3,0,0,1-.8,1.68c-1-.59-1.43-1.09-1.4-1.49a1.45,1.45,0,0,1,.42-1,3.46,3.46,0,0,0,.63-.86c.16-.32-.14-.71-.89-1.19.27.19.62.12,1-.19a7.05,7.05,0,0,0,1.09-1,1.55,1.55,0,0,0,.48-.94c0-.26-.28-.25-.85,0-.33-.27-.41-.5-.23-.7a4.57,4.57,0,0,1,.64-.58,1,1,0,0,0,.44-.72C192.9,327,192.62,326.5,192,325.9Zm14.31,92a1.85,1.85,0,0,1-1.75-.26,13,13,0,0,1-2.12-1.54c-.73-.63-1.46-1.29-2.17-2a11,11,0,0,0-2.11-1.65,4.36,4.36,0,0,1,2.45.41,10.28,10.28,0,0,1,1.88,1.34,17.9,17.9,0,0,1,1.74,1.82A11.11,11.11,0,0,0,206.35,417.89Zm-19.84-33.42c.05-.29.27-.3.68,0a5.69,5.69,0,0,1,1.17,1.18,4,4,0,0,1,.73,1.5,1,1,0,0,1-.68,1.19,2,2,0,0,1-1.06-.77,2.49,2.49,0,0,1-.25-1c0-.37,0-.72,0-1.06A1.38,1.38,0,0,0,186.51,384.47Zm-.54-7c-.23-1-.13-1.62.27-1.86a1.35,1.35,0,0,1,1.15-.17.6.6,0,0,1,.39.79C187.68,376.6,187.08,377,186,377.45Zm60.77,23.41a19.22,19.22,0,0,1-1.59-1.35l-1.37-1.32a9.45,9.45,0,0,0,1.89-3.36,24.73,24.73,0,0,0,.79-3.52c.17-1.16.35-2.28.54-3.33a10.57,10.57,0,0,1,1.2-3.23q-.12.09.39,0a2,2,0,0,0,.89-.38,2,2,0,0,0,.62-.74c.15-.32,0-.65-.36-1a5.21,5.21,0,0,0-.79.78c-.27.34-.64.36-1.12.06.59-1.48,1-2.22,1.16-2.23h1.85c.21.1.31-.07.3-.52s-.16-.69-.45-.73a1.39,1.39,0,0,0-1.29.37c-.5.37-.9.35-1.22-.07a17.65,17.65,0,0,0,.33-5.71,43.66,43.66,0,0,1-.23-5.68,5.13,5.13,0,0,0,2.19-1.25,3.77,3.77,0,0,1,1.95-1.05,15.24,15.24,0,0,1-2.44-1.31,1.2,1.2,0,0,0-1.53.17c.08-.06.23.09.43.45a4.17,4.17,0,0,1,.45,1.13.91.91,0,0,1-.13.88q-.25.3-1.2-.18a29.12,29.12,0,0,0-.16-3.1,16.51,16.51,0,0,1-.07-3,2.88,2.88,0,0,0,1.28.8,9,9,0,0,0,.92.19.75.75,0,0,1,.52.3,1.87,1.87,0,0,1,.18,1,18.57,18.57,0,0,0,1.4-3.09q.5-1.44-1.44-2.73a.94.94,0,0,1-.85.44,1.28,1.28,0,0,0-.94.31,1.24,1.24,0,0,0-.35,1.23c.13.43-.17.52-.87.27a2.71,2.71,0,0,0,0-2.35,2.34,2.34,0,0,1,.23-2.32,1.63,1.63,0,0,1,.6,1.21,1.32,1.32,0,0,0,.74,1.11,3.13,3.13,0,0,1,2.41-1.21,4.17,4.17,0,0,1-1.15-2.07,13.34,13.34,0,0,1-.2-2.1c0-.7,0-1.36-.1-2a2.6,2.6,0,0,0-1.09-1.72.66.66,0,0,0-1.07,0,1.05,1.05,0,0,1-1.31.2,1.42,1.42,0,0,0-.2-1.32c-.28-.37-.61-.77-1-1.2a8.11,8.11,0,0,1-.93-1.26,1.2,1.2,0,0,1,.08-1.33l1.61.46a6.08,6.08,0,0,0,1.64.24,1.9,1.9,0,0,1-1.5-1.23,7.6,7.6,0,0,1-.37-1.67,3.2,3.2,0,0,0-.23-1.1q-.17-.36-1.05.3c.73.63.91,1.21.53,1.75s-1,.56-1.91.06a1.41,1.41,0,0,0,.19-1.32c-.16-.39,0-.78.51-1.15a15.27,15.27,0,0,1-1.44-1.67c-.43-.58-.3-1.27.41-2.06a3.66,3.66,0,0,1,1,2.16c-.21.42,0,.54.56.36s.82-.34.69-.51q-.44-.06-.42-.57T246,338a.83.83,0,0,1,.47,1q-.17.71.81.18a10.76,10.76,0,0,0-1.2-2.13c-.4-.55,0-.84,1.31-.88-.63-.83-1.18-1.14-1.66-.91a2.68,2.68,0,0,1-1.6.21,2.6,2.6,0,0,1-.51-1.47,2.87,2.87,0,0,0-.61-1.6,3.83,3.83,0,0,0-.91,2.44,1.31,1.31,0,0,0-.37-1.28,3.6,3.6,0,0,0-1.14-.62c-.43-.13-.84-.25-1.24-.34a1.45,1.45,0,0,1-.87-.52c-.06-.09,0-.3.09-.66a3.26,3.26,0,0,0,.21-1,1.16,1.16,0,0,0-.17-.75c-.12-.17-.48,0-1.07.4.15.55.24.93.28,1.16s-.11.54-.47.94c-.67-.55-1.15-.71-1.44-.49a6.88,6.88,0,0,1-1.16.67,2.83,2.83,0,0,1-1.09-.16,10.35,10.35,0,0,0-1.19-.29,6.32,6.32,0,0,0-2.18,1.53,7.07,7.07,0,0,1-2.31,1.62,3.76,3.76,0,0,1-1.56-.4,3.11,3.11,0,0,0-1.69-.3,2.32,2.32,0,0,0-.66,1.86,1.93,1.93,0,0,1-.76,1.73c0,.15-.39.17-1.13.06a2.38,2.38,0,0,0-1.34,0,2.64,2.64,0,0,0-.58,1.71q-.06,1.11-.27,1.08c-.09.06-.34-.15-.75-.62s-.71-.64-.88-.52c-.35.4-.78.91-1.29,1.55a3.93,3.93,0,0,0-.75,2.51c-.52-.52-1-.73-1.36-.64a3.14,3.14,0,0,0-1.15.56,8.47,8.47,0,0,0-1.1,1,2.08,2.08,0,0,1-1.22.72,5.75,5.75,0,0,1,.15,2.42c-.11,1-.26,2-.45,3.07a26.64,26.64,0,0,0-.37,2.91q-.08,1.33.42,1.74c.48.29.64.47.48.52s-.22.26-.2.64a52.07,52.07,0,0,1-.39,6.15,57.15,57.15,0,0,0-.46,5.8c.33.27.64.56.94.86s.63.64,1,1a1.11,1.11,0,0,0,0,1.35,1.55,1.55,0,0,1,.41,1.06,2.18,2.18,0,0,1-.46,1.61,1.75,1.75,0,0,0-.43,1.4,3.85,3.85,0,0,0,.9,1.86,5.35,5.35,0,0,1,1,1.77,1.05,1.05,0,0,1-.61.75.9.9,0,0,0-.52.88,2.53,2.53,0,0,0,.81.56c.42.21.6.46.56.75l-.44.33c-.37.28-.51.58-.41.89a1.91,1.91,0,0,0,.91,1.48c.6.46.63,1,.09,1.69a19.49,19.49,0,0,0,2.68,2.29,27.9,27.9,0,0,1,.85,4.15,5.52,5.52,0,0,0,1,3.05,5,5,0,0,1,1.52,2.18,6.9,6.9,0,0,0,1.09,2.12l2.43,3.26a9.33,9.33,0,0,1,1.53,2.57.61.61,0,0,0,.41.28,2.47,2.47,0,0,1,.53.19.67.67,0,0,1,.2.93c-.2.34-.27.56-.21.64a9.28,9.28,0,0,0,2.52,1.93,9.89,9.89,0,0,1,2.7,2.18c.66-.49,1.35-.35,2.06.42a9,9,0,0,0,2-1.95c.48-.68.9-1,1.27-1.05.67,0,1.1-.49,1.29-1.54a8.55,8.55,0,0,0,.23-1.93c.14-.5.41-.63.78-.39s.48-.09.31-1c-.18-.25,0-.77.51-1.55a11.69,11.69,0,0,1,1.89-2.18,7.58,7.58,0,0,1,2-1.44c.64-.28,1.05,0,1.23.74a1.29,1.29,0,0,0-.94.31,4.41,4.41,0,0,0-.84.83c-.24.3-.32.53-.27.69s.4.06,1.05-.3a1.35,1.35,0,0,1,1.22-.71A1.36,1.36,0,0,0,246.74,400.86Zm-53.2-53.05c-1-.59-1.43-1.14-1.43-1.67s-.44-1.1-1.31-1.75c-.65.35-.92.78-.8,1.28a2.78,2.78,0,0,0,.85,1.41,4.12,4.12,0,0,0,1.49.94A1,1,0,0,0,193.54,347.81Zm5.22-19.7c.15,0,.34-.16.59-.53a4.93,4.93,0,0,0,.56-1.21,7.59,7.59,0,0,0,.29-1.19c.05-.36,0-.59-.23-.7a1,1,0,0,0-1,.47,3.53,3.53,0,0,0-.52,1.26,2.65,2.65,0,0,0,0,1.28C198.5,327.88,198.62,328.09,198.76,328.11Zm49.45,62.68A3,3,0,0,0,249,389a3.51,3.51,0,0,0-.43-1.62,2.55,2.55,0,0,0-.76,1.73A7.8,7.8,0,0,0,248.21,390.79Zm1.67-2.22c.81,0,1.21-.16,1.2-.61a1.61,1.61,0,0,0-.6-1.2,5.09,5.09,0,0,0-1.33-.87c-.49-.22-.8-.15-.92.2a13,13,0,0,1,1.15,1.29,6.05,6.05,0,0,1,.59.92Q250.2,388.73,249.88,388.57Zm.17-15.74q-.28.41-.69.9l-.82,1c0,.82.11,1.16.47,1a2.4,2.4,0,0,0,1-.86,4.52,4.52,0,0,0,.71-1.4C250.88,373,250.66,372.77,250.05,372.83Zm-14.56-39.7a.8.8,0,0,1,1.19-.11.91.91,0,0,0,1.32-.19c.37.5.5.89.38,1.17a.75.75,0,0,1-.73.45,2.35,2.35,0,0,1-1.19-.28A2.14,2.14,0,0,1,235.49,333.13ZM252,350.3c-.46.08-.75.49-.85,1.22a5.77,5.77,0,0,0-.07,1.22c-.13.87-.1,1.21.08,1a3.78,3.78,0,0,0,.55-1.1,12.85,12.85,0,0,0,.46-1.61C252.28,350.51,252.23,350.26,252,350.3Zm-13.73-14.75a1,1,0,0,1,.86-.16,2.91,2.91,0,0,1,.89.42,4.49,4.49,0,0,0,.83.45.54.54,0,0,0,.71-.23c.39.36.5.63.32.83a1,1,0,0,1-.92.2,4.72,4.72,0,0,1-1.44-.49A3.42,3.42,0,0,1,238.27,335.55ZM251,348.14a3.49,3.49,0,0,1-1.12-.73q-.6-.53-1-.87a1.33,1.33,0,0,0-.91-.31c-.3,0-.57.33-.8.89C248.57,348.24,249.86,348.57,251,348.14Zm3.27,5.17c-.27.34-.48.45-.61.36a1.14,1.14,0,0,1-.37-.5,4.1,4.1,0,0,0-.36-.61c-.13-.17-.32-.16-.57,0,.27,1.24.59,1.84,1,1.82a1.7,1.7,0,0,0,1.08-.51A1.62,1.62,0,0,0,255,353C255,352.68,254.76,352.79,254.24,353.31Z"/><path class="cls-7" d="M298.23,415.31c-.43.37-.77.43-1,.18a5.61,5.61,0,0,1-.67-.84,2.44,2.44,0,0,0-.48-.59c-.11-.07-.15.23-.13.92-.84-.25-1.14-.54-.9-.88a1.57,1.57,0,0,1,1.07-.64,2.59,2.59,0,0,1,1.53.25C298.18,414,298.38,414.49,298.23,415.31Zm-1.16-23.7c-.18-.46-.33-.61-.45-.44a.9.9,0,0,0-.09.69c-.78-.46-1.16-.91-1.14-1.36a2.28,2.28,0,0,1,.64-1.37A5.14,5.14,0,0,1,297.6,388c.64-.31,1.19-.56,1.65-.74-.3-.54-.53-.77-.72-.69a2,2,0,0,0-.58.48,9.1,9.1,0,0,1-.69.72,1,1,0,0,1-1,.18.71.71,0,0,0,.27-.94,2.21,2.21,0,0,1-.09-1.32,8,8,0,0,1,.74-.88,2.6,2.6,0,0,0,.59-.85,3,3,0,0,0-.65-.7,1.42,1.42,0,0,1-.58-1.15c0,.19.14.07.31-.35s.26-.6.28-.5c.1-.51.19-1,.24-1.53a3.51,3.51,0,0,0-.21-1.6c.3-.54.55-.76.77-.65a4.88,4.88,0,0,0,1.25.29,3.19,3.19,0,0,1-1.32-1.92,3.45,3.45,0,0,1,.25-2.34,3,3,0,0,0,.05-1,12,12,0,0,1,0-1.34,2.54,2.54,0,0,1,.31-1.17,1.51,1.51,0,0,1,1.14-.65,9,9,0,0,1-.43-4.08q.29-1.68.69-3.54c.4-.56.73-.8,1-.7a3.57,3.57,0,0,0,1.29.14,2.15,2.15,0,0,0-.59-1.6c-.34-.28-.52-.13-.51.47q-.88,0-1-.42a1.52,1.52,0,0,1,.13-.92,5.4,5.4,0,0,0,.33-1,1.06,1.06,0,0,0-.41-1,2.76,2.76,0,0,0,.72-1.38c.06-.46.44-.7,1.13-.73a5.76,5.76,0,0,1-.79-.67,1.54,1.54,0,0,1-.44-1.19c.06-.2.28-.39.65-.56a1.81,1.81,0,0,0,.66-.41,3.86,3.86,0,0,0-.28-2,2,2,0,0,1,.07-1.72c0-.3.08-.76.12-1.36a6.91,6.91,0,0,1,.15-1.21c.33-.36.43-.65.29-.87a2,2,0,0,1-.07-1.25,3.25,3.25,0,0,1,.57-.92c.33-.4.48-.65.46-.75a2.15,2.15,0,0,0-.19-1.08,4.65,4.65,0,0,1-.34-1.05,1,1,0,0,1,.16-.77c.15-.23.53-.34,1.12-.35a1.12,1.12,0,0,0,0-1c-.19-.46-.4-.94-.64-1.44a11.13,11.13,0,0,1-.56-1.46,1.26,1.26,0,0,1,0-1.05q0-.13.27-.12a2.19,2.19,0,0,0,.45,0,7.88,7.88,0,0,0-.36-3.21,3.15,3.15,0,0,1,.45-2.9,2.88,2.88,0,0,0-.24-1.29,4.27,4.27,0,0,0-.5-.73,1.2,1.2,0,0,1-.33-.61,1.79,1.79,0,0,1,.27-.94c.43-.37.77-.38,1,0s.44.51.53.49a.83.83,0,0,0,.36-.88c0-.44,0-.67.1-.69,1.3.07,2.39.09,3.28.08a14.88,14.88,0,0,0,2.49-.22,1.9,1.9,0,0,0,1.47-.86c.36-.76.67-1,.93-.61s.62.38,1.06.1a6.75,6.75,0,0,0,2.11-1.05,6.62,6.62,0,0,1,3.46-1,2.3,2.3,0,0,0,1.41.78,15.92,15.92,0,0,0,1.74.21,6.32,6.32,0,0,1,1.61.3,2.12,2.12,0,0,1,1.16,1.06,5.05,5.05,0,0,1,3-.25,11.56,11.56,0,0,0,2.82.39.92.92,0,0,0,.71-.13.94.94,0,0,1,.72-.13,1.3,1.3,0,0,1,.64.63,2.56,2.56,0,0,0,.48.65,1.66,1.66,0,0,0,.69-.35.58.58,0,0,1,.73,0,2.26,2.26,0,0,1,1,.93,1.58,1.58,0,0,0,1,.8,3.65,3.65,0,0,0,1.28.51,2.07,2.07,0,0,1,1.14.54,1.14,1.14,0,0,1,.2.7,1.17,1.17,0,0,0,.2.71,5.48,5.48,0,0,1,1,.48A3.73,3.73,0,0,1,342,328l1.23,1.86a2.52,2.52,0,0,1,.95,1.16,3.67,3.67,0,0,0,1.15,1.43,4.47,4.47,0,0,1,1.13,2.17,6.24,6.24,0,0,0,1.36,2.58,5.6,5.6,0,0,1,1.22,2.67,6.18,6.18,0,0,0,1.76,3.18,3.22,3.22,0,0,1,1.06,2.18,13.56,13.56,0,0,0,1,3.39,12.46,12.46,0,0,0,1.32,2.36,13,13,0,0,1,1.29,2.21,12.39,12.39,0,0,1,.73,2.84,6.34,6.34,0,0,0,1.17,2.76,2.93,2.93,0,0,0,1-1,9.18,9.18,0,0,0,.59-1.22,3.24,3.24,0,0,1,.7-1.09,2.29,2.29,0,0,1,1.3-.6,1.57,1.57,0,0,1-.74-1.65c.05-.8.6-1.3,1.66-1.49a1.34,1.34,0,0,1,.11,1,7.24,7.24,0,0,0-.32.73,5.75,5.75,0,0,0-.23.78,1.57,1.57,0,0,0,.34,1.05,7.45,7.45,0,0,0-1.06.27,6.39,6.39,0,0,1-.93.24,1.73,1.73,0,0,1,.69,1.36,6.78,6.78,0,0,1-.23,1.6,8.71,8.71,0,0,1-.65,1.75,7.31,7.31,0,0,0-.59,1.67,3.2,3.2,0,0,0,2.24-2,8.5,8.5,0,0,0,.24-3.16c.77.45,1.19.55,1.24.29a2.38,2.38,0,0,0,0-.88,1.71,1.71,0,0,1,.06-.91c.1-.26.63-.23,1.58.09a11.08,11.08,0,0,0-.64-1.07,1.29,1.29,0,0,1-.25-.55,3.34,3.34,0,0,1,0-.66c0-.25,0-.67,0-1.26a2.72,2.72,0,0,1,1.88-1.08,3.86,3.86,0,0,1-.23-1.74c.07-.41.49-.68,1.26-.82a1,1,0,0,1-.41-1,6.78,6.78,0,0,1,.27-.94,1.2,1.2,0,0,0,.1-.69c0-.19-.24-.25-.62-.18-.09-.48,0-.64.21-.49l.51.36c.73-.33,1-.76.95-1.29a1.38,1.38,0,0,1,.5-1.35c.17-.13.49,0,.94.28s.76.35.92.13,0-.4-.47-.51-.69-.13-.67,0a2.25,2.25,0,0,1,.67-1.24,1.19,1.19,0,0,0,.38-1.18,3.11,3.11,0,0,1,.7-2.28c.59-.84,1.25-1.73,2-2.65s1.4-1.84,2-2.74a5.25,5.25,0,0,0,1-2.57,1,1,0,0,1,.84.15,1,1,0,0,0,.84.15c-.17-1-.54-1.39-1.12-1.29l1.47-2.12a15.71,15.71,0,0,1,2-2.37,2.36,2.36,0,0,1-.39-1.34,3.55,3.55,0,0,1,.2-.93,2.32,2.32,0,0,0,.15-.84,4.65,4.65,0,0,0-.31-1.28,21.32,21.32,0,0,0,2.37-1.69c.69-.57.82-1.51.38-2.81.09-.61.2-.86.32-.73a3,3,0,0,1,.44.81,6.88,6.88,0,0,1,.4,1.41l.22,1.23a1,1,0,0,0,.36-1.33,4.78,4.78,0,0,1-.3-1.65c.57.39,1,.49,1.17.31a1.6,1.6,0,0,0,.42-1c.07-.46.12-1,.17-1.52a4,4,0,0,1,.29-1.31c.47-.09.75,0,.81.37a2.88,2.88,0,0,0,.31.91c.52-.39.73-.72.63-1a2.9,2.9,0,0,0-.52-.87,11,11,0,0,1-.79-1,1.69,1.69,0,0,1-.24-1.36,3.45,3.45,0,0,1,2.57-1.36,16.59,16.59,0,0,1,3.09-.18,12.3,12.3,0,0,0,4.3-.85c.36-.17.94-.42,1.72-.76a10.77,10.77,0,0,1,2.46-.74,8.19,8.19,0,0,1,2.51-.08,3,3,0,0,1,2,1.05c.73-.33,1.42-.62,2.06-.89a3.92,3.92,0,0,1,2.2-.17,3,3,0,0,1,.93.65c.41.37.72.54.91.5a20.06,20.06,0,0,0,3.65-.36,7.74,7.74,0,0,1,3.58.1,2.4,2.4,0,0,1,1.42,1.3c.43.77.94,1.1,1.51,1a1.35,1.35,0,0,1,1.32.73,1.87,1.87,0,0,1,.06,2c.28.45.49.61.61.49a1.28,1.28,0,0,0,.3-.43c.07-.16.15-.22.26-.19s.27.42.51,1.17l.83,2.59a10.46,10.46,0,0,1,.52,3.25.46.46,0,0,0-.27.2c-.23.34-.34.56-.32.65a.53.53,0,0,0,.12.28.53.53,0,0,1,0,.44l.24,1.36a12.76,12.76,0,0,1,.12,2.29.65.65,0,0,1-.41.22q-.29,0-.18.63a3.49,3.49,0,0,1-.2,1.37c-.19.62-.38,1.2-.58,1.73a19.22,19.22,0,0,0-.65,3.39,21.12,21.12,0,0,1-.75,3.7,3.39,3.39,0,0,0-.31.72c-.13.37-.28.82-.43,1.34a8.76,8.76,0,0,0-.31,1.54,4.3,4.3,0,0,0,0,1.19,1.06,1.06,0,0,1-.54,1.14.94.94,0,0,0-.37,1.25,11.08,11.08,0,0,1-.34,1.4,14.72,14.72,0,0,0-.41,1.85q-.33.66-.54,1.14c-.14.32-.31.7-.53,1.14s-.2.95-.29,1.31a5.37,5.37,0,0,1-.57,1.36,3.41,3.41,0,0,0-.2,2.19,4,4,0,0,1-.17,2.34,4.89,4.89,0,0,1-.64,1,3.16,3.16,0,0,0-.27,1.39c.08-.12.05.24-.1,1a8.57,8.57,0,0,0-.2,1.38l-.43.08-.29.05c-.08.11,0,.32.26.62s.29.52.12.64l-.43.08-.29.05a1,1,0,0,0,.21.78c.21.31.22.53.05.66a2.94,2.94,0,0,0-.35,1.77,8,8,0,0,1-.13,2.18c-.06.21-.28.37-.65.49s-.55.27-.51.46a.9.9,0,0,0,.13.72,1,1,0,0,1,.12.72,1.55,1.55,0,0,1-.85.23c-.39,0-.62.09-.7.2a2.05,2.05,0,0,0,.36.75c.2.31.22.53,0,.66s-.28.37-.65.49-.6.28-.66.49,0,.46.29.76.29.52.12.65l-.29.05-.29.05a1.19,1.19,0,0,0,.14.8c.16.31.2.53.12.64a.55.55,0,0,1-.41.22l-.28.06a4.1,4.1,0,0,0,0,2,3.79,3.79,0,0,1,.08,1.69.81.81,0,0,1-.58.48,1.43,1.43,0,0,0-.73.5.83.83,0,0,0,.2.71.57.57,0,0,1,.06.73c0,.1-.08.14-.28.12a.43.43,0,0,0-.41.15,4.14,4.14,0,0,0,0,1.57,8.41,8.41,0,0,1,.16,1.3.8.8,0,0,1-.24.71c-.18.14-.59,0-1.25-.36.15.86.53,1.29,1.12,1.28-.11.51-.28.64-.53.39s-.58-.24-1,0a3.77,3.77,0,0,1,0,1c0,.35-.07.73-.1,1.13l.33-.65c.69,0,1,.09.88.36a3.67,3.67,0,0,1-.57.92l-.86,1c-.28.35-.26.59.06.73l.51.36a4.21,4.21,0,0,0-.87-.29c-.26-.05-.37,0-.36.06a1.1,1.1,0,0,0,0,1c.18.47,0,.7-.47.68.15.28.33.37.57.27s.43-.17.62-.26.28-.1.29-.05a7.65,7.65,0,0,1-.41,1,4.9,4.9,0,0,1-.5.53,5.5,5.5,0,0,0-.67.79.82.82,0,0,0-.16.78c.09.23.44.39,1.05.47-.18.63-.36.89-.53.77a2.36,2.36,0,0,1-.59-.79c-.22-.4-.47-.83-.75-1.27s-.56-.64-.85-.59a1.14,1.14,0,0,0-.3,1.17,3.36,3.36,0,0,0,.66,1.21,5.66,5.66,0,0,0,1.16,1.06,4.15,4.15,0,0,0,1,.56,2.22,2.22,0,0,1-.33,2.29c-.51.49-1,.95-1.61,1.4A4.41,4.41,0,0,0,403,402.6c-.29.59-.08,1.52.65,2.78-.64.31-1.05.36-1.24.14s0-.36.44-.45c-.12-.67-.34-1.07-.67-1.21a1.5,1.5,0,0,1-.75-.91c-.45.28-.45.55,0,.82a1.39,1.39,0,0,1,.56,1.46q-2-1.28-1.89,1.08.45.81.57.27a2.81,2.81,0,0,0,0-1.12.9.9,0,0,1,.72.69,1.74,1.74,0,0,1-.18,1.07,3.06,3.06,0,0,1-.85,1,1.68,1.68,0,0,1-1.18.43.69.69,0,0,0,.91.51.64.64,0,0,0,.53-.77c.47-.09.7-.05.68.1a5.54,5.54,0,0,1-.17.7c-.09.31-.18.65-.26,1a1,1,0,0,0,.41,1,4.38,4.38,0,0,0-2.43-.3.49.49,0,0,0-.61.33,2.36,2.36,0,0,0-.15.84c0,.3,0,.57,0,.82a1,1,0,0,1-.12.54c-.16.23-.49.31-1,.26a1.34,1.34,0,0,0-1.13.27l-.36.51-.23.34a.87.87,0,0,1-.8-.3.59.59,0,0,0-.77-.16c-.1,0-.21.24-.33.65s-.44.58-.95.47c-.12-.08-.16-.32-.13-.72s0-.64-.13-.71a8,8,0,0,1-3.39,1,5.87,5.87,0,0,1-3.44-.94,2.7,2.7,0,0,1-1.08-1.07,3.34,3.34,0,0,0-1.71-1.25,22.12,22.12,0,0,0-1.35-6.66,42.56,42.56,0,0,1-1.93-7.45c0-.49.12-.69.34-.58a.64.64,0,0,1,.38.45,10,10,0,0,1,.5,2,2.58,2.58,0,0,1,.27,1.07,4,4,0,0,0,.19,1.07,1,1,0,0,0,.48.59c.22.11.6,0,1.14-.28.36-.16.48-.36.34-.58a4.57,4.57,0,0,0-.75-.83,13,13,0,0,1-1-1.08,1.84,1.84,0,0,1-.34-1.5c.54-.3,1-.32,1.25-.08a1.3,1.3,0,0,0,1.15.24,8.9,8.9,0,0,1-1.24-2.37,6.72,6.72,0,0,0-1.39-2.35c-.54.29-.77.53-.69.71a1.86,1.86,0,0,0,.48.59c.23.2.47.43.72.68a1,1,0,0,1,.18,1c-.79,0-1.26-.12-1.43-.48a3.08,3.08,0,0,1-.23-1.3c0-.5,0-1.07.06-1.72a4,4,0,0,0-.42-1.93,2.21,2.21,0,0,1,1.69,1.11,1.86,1.86,0,0,0,1.8.94c.29-.55.14-.87-.47-1a11.37,11.37,0,0,0-1.2-.08c-.09-.48.21-.75.89-.83a3.83,3.83,0,0,0,1.68-.52,1.36,1.36,0,0,0-.9-.88,1.86,1.86,0,0,1-1.07-1c-.41-.12-.52.13-.31.73s.21.93,0,1l-1.84-1.15c0-.5.2-.71.56-.62a.59.59,0,0,0,.75-.36,1,1,0,0,0,0-1c-.18-.42,0-.62.48-.61-.14-.76-.51-1.19-1.12-1.28.1-.51.35-.81.73-.88s.62.14.71.62a1.16,1.16,0,0,0,.41-1.41c-.17-.66-.48-.9-.95-.72a.8.8,0,0,1,.27-.57.51.51,0,0,1,.45,0,.48.48,0,0,0,.44,0c.14-.07.18-.26.13-.54.51.1.65.35.43.74a1.34,1.34,0,0,0,.1,1.39.69.69,0,0,0,.5-.91c-.12-.42.05-.68.53-.76-.08-.48-.26-.77-.52-.87a4,4,0,0,0-.93-.21,2.3,2.3,0,0,1-.94-.27q-.42-.22-.42-1.11c.95.32,1.4.39,1.37.19a4.88,4.88,0,0,0-.3-.83,1.73,1.73,0,0,1-.18-1c0-.3.61-.45,1.7-.45a.86.86,0,0,0-.51-.73,4.6,4.6,0,0,0-.78-.23.84.84,0,0,1-.59-.41,1.56,1.56,0,0,1-.05-1.11,2,2,0,0,1,.79.3,5.37,5.37,0,0,0,.67.4,1,1,0,0,0,.61.12c.19,0,.45-.28.76-.73-.07-.39-.27-.55-.6-.49a2.89,2.89,0,0,1-1,0,10.41,10.41,0,0,1-.46-1.77,9.39,9.39,0,0,0-.44-1.62.71.71,0,0,1,.71.24,7.53,7.53,0,0,0,.55.57,1.23,1.23,0,0,0,.72.31,1.85,1.85,0,0,0,1.24-.52c.16-.22,0-.36-.59-.41s-.87,0-.95.1a2.18,2.18,0,0,1,1-1l1.29-.68c.4-.22.63-.46.68-.72s-.21-.63-.79-1.12c-.48.09-.68.23-.6.41a2.64,2.64,0,0,0,.41.59c.18.22.27.4.24.55s-.42.25-1.2.29c-.49-1.59-.2-2.43.88-2.53a.9.9,0,0,0-.61-.48,3,3,0,0,1-.71-.25,1.75,1.75,0,0,1-.62-.55,1.78,1.78,0,0,1-.16-1.31,2,2,0,0,1,1.75-.17,3,3,0,0,0,1.39.34c-.53-.2-.8-.45-.8-.74a2.78,2.78,0,0,1,.09-.76.48.48,0,0,0-.09-.5c-.12-.13-.51-.08-1.17.13-.28-.44-.21-.78.2-1a2.44,2.44,0,0,0,.84-.67,2.35,2.35,0,0,0-.11-1l-.34-1.05a.88.88,0,0,1,.08-.83c.15-.23.53-.34,1.12-.35a1.38,1.38,0,0,0-.18,1.07,3.73,3.73,0,0,0,.36.75,2.28,2.28,0,0,1,.29.77,1.87,1.87,0,0,1-.25,1.08,2.62,2.62,0,0,1,.7-.65,3.27,3.27,0,0,1,1.18-.43A3.93,3.93,0,0,1,387,359.3c-.34-.78.19-1.4,1.6-1.85-.19-.46-.48-.61-.9-.43a.71.71,0,0,0-.51.83c-1-.21-1.28-.73-.73-1.57a2.25,2.25,0,0,1,2.32-1.09,1.58,1.58,0,0,0-1.15-.61c-.5-.06-.77-.48-.82-1.26.56-.2.88-.06,1,.42.29-.05.41-.18.38-.37a4.91,4.91,0,0,0-.2-.7,5.36,5.36,0,0,1-.23-.85,1.6,1.6,0,0,1,.13-.92c.06-.21.29-.3.7-.27s.59,0,.57-.11a2.72,2.72,0,0,0,.07-1.27q-.12-.64,1.08-.57a9.06,9.06,0,0,0-2.36-.76q-1,0-.9.39a3.41,3.41,0,0,0,.52.79c.25.31.47.56.66.78s0,.32-.61.33c-.1,0-.2-.14-.31-.47s-.29-.41-.56-.27c-.43.38-.56.65-.38.82s.21.45.08.87a9.49,9.49,0,0,1-1.32,1.28,2.16,2.16,0,0,0-.89,2.09c0,.5-.19.75-.53.76a.78.78,0,0,0-.73.51c-.15.22-.07.55.26,1a1.14,1.14,0,0,1,.28,1.13c-.08.12-.33.14-.74.06s-.64,0-.7.2a2.2,2.2,0,0,0-.23,1.23c0,.59,0,.94,0,1a.35.35,0,0,1-.39.3c-.2,0-.26.22-.17.7a6.17,6.17,0,0,1-.63,1.45c-.44.87-1,1.26-1.57,1.17a3.72,3.72,0,0,1-.85,3.94q-1.65,2-2.82,3.7c-.16.23-.31.33-.47.31s-.18.21-.1.68,0,.6-.54.7-.7.37-.52.83a1.09,1.09,0,0,0-1.25.08,16.64,16.64,0,0,0-1.52,1,9.14,9.14,0,0,1-1.47.94,1.11,1.11,0,0,1-1.19,0l-.13-.72a1.15,1.15,0,0,0-.55.62c-.1.27-.1.39,0,.37a3.92,3.92,0,0,1-1.27-.07,13.58,13.58,0,0,0-1.59-.16,1.36,1.36,0,0,0-1.11.43,1.72,1.72,0,0,0-.19,1.44.9.9,0,0,1-1-.33,1.84,1.84,0,0,0-.79-.68,3,3,0,0,0-.81-.37,1.65,1.65,0,0,1-.86-.66c-.39.07-.51.21-.37.43a4.79,4.79,0,0,1,.34.68.42.42,0,0,1-.12.55,3.41,3.41,0,0,1-1.61.14c.21.06.1,0-.34-.24s-.64-.28-.62-.18a4,4,0,0,0-1.27-.44c-.62-.14-1.24-.3-1.87-.48a8.44,8.44,0,0,1-1.93-.4c-.58-.19-1.29-.45-2.15-.8-.22-.15-.3-.29-.22-.4s-.12-.13-.6,0c-.3-.05-.63-.34-1-.87a2.54,2.54,0,0,0-1-1,1.76,1.76,0,0,1-.91-.51,6.79,6.79,0,0,0-.79-.68,1.28,1.28,0,0,0-1,0,1.72,1.72,0,0,1-1.19,0,1.87,1.87,0,0,1-.57-1.08c-.15-.57-.57-.59-1.27-.07a2.78,2.78,0,0,0-.59-2.05,11.86,11.86,0,0,0-1.34-1.24,5.76,5.76,0,0,1-1.08-1.07c-.27-.34-.22-.9.14-1.66-.23-.15-.41-.07-.55.25s-.16.48-.06.46a5.84,5.84,0,0,1-.88-.36c-.38-.18-.59-.37-.62-.56a.88.88,0,0,1-.36-.75c0-.34,0-.57-.05-.66-.55-.3-.82-.57-.81-.82a2.83,2.83,0,0,0-.44-1.18,30.88,30.88,0,0,0-2.48-3.49,6.23,6.23,0,0,1-1.51-3.81c-.89,0-1.29.23-1.19.8a.89.89,0,0,1-.53,1.14,4.45,4.45,0,0,1-.21,3A1.7,1.7,0,0,0,329,360a2.79,2.79,0,0,1,0,1.64,3.37,3.37,0,0,1-.51.9c-.27.4-.4.65-.38.74a1.36,1.36,0,0,0,.22,1.23,1.1,1.1,0,0,1,.19,1.07c-.06.22-.26.37-.58.48a.79.79,0,0,0-.58.48c-.16.22-.1.56.18,1a1.84,1.84,0,0,1,.35,1.13,4.65,4.65,0,0,1-1.36,1.5,2.81,2.81,0,0,0-1.1,1.32c-.08.11,0,.22.28.32s.36,0,.29-.43c.14-.32.31-.35.5-.09l.49.66a1,1,0,0,1-.46,1.12,3.31,3.31,0,0,1-1.32.53c.26.35.53.75.81,1.19a4.24,4.24,0,0,1,.57,1.54c-1,.07-1.33.38-1.09.93a2.09,2.09,0,0,1,.19,1.45,1.35,1.35,0,0,1-.69.72,1.82,1.82,0,0,0-.71.58,2.54,2.54,0,0,0,.33.6c.21.32.22.54.05.66s-.22.71-.48,1.5a4.09,4.09,0,0,0,0,2.45c-.25.25-.45.28-.58.1a1.18,1.18,0,0,1-.24-.55c-.56.21-.62.44-.17.7a1.2,1.2,0,0,1,.53,1.32,4.88,4.88,0,0,0-.19,2.26,1.25,1.25,0,0,1-1.06.27,2.29,2.29,0,0,1-.67-.4l-.53-.5a.94.94,0,0,0-.85-.15c0,.9,0,1.43.22,1.6a.53.53,0,0,0,.61.11,4.79,4.79,0,0,0,.68-.34c.22-.14.37,0,.44.36a2.13,2.13,0,0,1-.14,1.29l.27-.57a.83.83,0,0,1,.48,1,9.07,9.07,0,0,1-.55,1.51,6.73,6.73,0,0,0-.53,1.95,3.2,3.2,0,0,0,.64,2.33c-.54.3-.91.29-1.12,0a6.25,6.25,0,0,1-.58-1.16c-.54.3-.79.54-.76.74a1.1,1.1,0,0,0,.41.59c.23.21.47.43.71.69a.92.92,0,0,1,.3.83,2.35,2.35,0,0,1,0,1.35q-.21.48-.48,1.05a3.19,3.19,0,0,0-.3,1.24,3.58,3.58,0,0,0,.61,1.75c-.08.61-.21.85-.38.74a2,2,0,0,1-.52-.8,7.57,7.57,0,0,1-.4-1.41l-.22-1.23a.84.84,0,0,0-.5.91,4.25,4.25,0,0,0,.31,1.35,15.1,15.1,0,0,1,.49,1.48,4.49,4.49,0,0,1,.18,1.37c-.57-.39-.95-.42-1.13-.09a8.7,8.7,0,0,0-.54,1.14,2.56,2.56,0,0,1-.71,1c-.3.25-.85.1-1.64-.45a1.13,1.13,0,0,0,.28,1.14,2.88,2.88,0,0,0,1,.72,1.19,1.19,0,0,0,.9.06c.28-.1.37-.39.29-.87.65-.22.85.07.6.85a2.6,2.6,0,0,1-.79,1.41,7.37,7.37,0,0,0,.47,2.22c.3.79-.11,1.13-1.22,1a2.59,2.59,0,0,1,.86,2.3,6.58,6.58,0,0,0,.44,3.26c-.66.22-1,.24-1.18.06a1.55,1.55,0,0,1-.23-.85c0-.39,0-.81-.07-1.25a1.92,1.92,0,0,0-.75-1.27c-.58.1-.71.45-.41,1a2,2,0,0,1,.27,1.51,5.62,5.62,0,0,1-1.07-.18,1.78,1.78,0,0,0-1.78.84c.28.45.6.58,1,.42a.69.69,0,0,0,.45-.82c.38-.07.62,0,.71.24a5.21,5.21,0,0,1,.24.92l.21,1.15a1.8,1.8,0,0,0,.46,1,.89.89,0,0,1-.93-.65c-.13-.42-.28-.87-.46-1.33a1.55,1.55,0,0,0-1,1.89c.17.91.38,1.83.65,2.78a3.33,3.33,0,0,0-1.74-.21.91.91,0,0,0-.63.63,2.45,2.45,0,0,0,0,1.12,4.85,4.85,0,0,1,.07,1.25q-.95.47-1.26,0a6.46,6.46,0,0,1-.58-1.15,2.09,2.09,0,0,1-.57.54,4.22,4.22,0,0,0-.71.58,3.07,3.07,0,0,1-1.72.75,3.07,3.07,0,0,0-1.72.76,1.16,1.16,0,0,1,.22.4l.05.29A2.22,2.22,0,0,1,305,431a4.89,4.89,0,0,0-1.66-.52l-1.58-.16a4.64,4.64,0,0,1-1.52-.62,34.51,34.51,0,0,1-1.28-3.78q-.45-1.69-.87-3.18c-.28-1-.6-2-1-2.95a25.93,25.93,0,0,0-1.44-3.08,4.55,4.55,0,0,0,1.76.28c.64,0,.69.42.16,1.31.48-.09.76-.29.85-.6a4.19,4.19,0,0,0,.18-1.07,4.63,4.63,0,0,0-.06-1.18,1.81,1.81,0,0,1,.11-1.06q-.5-2.73-3.37-2.21a.72.72,0,0,1-.28-.69,1,1,0,0,1,.43-.53,7,7,0,0,1,1-.48c-.09-.48-.24-.65-.47-.51s-.4.12-.53-.05-.07-.43.16-.77a.61.61,0,0,1,.41-.23,13.06,13.06,0,0,1-1-2.05,7.61,7.61,0,0,1-.33-3.5l.29-.05.28,0a9.29,9.29,0,0,0-.36-2.84,8.55,8.55,0,0,1-.24-3,1.48,1.48,0,0,0,.38-.36,2.22,2.22,0,0,0,.33-.65,5.32,5.32,0,0,1-.11-1.4c0-.35.38-.68,1-1l-.13-.72a2.25,2.25,0,0,1-.66-.4c0-.05,0,0,.15,0a2.33,2.33,0,0,0,.42.23c.16.07.19.11.09.13a.75.75,0,0,0,.36-.88C296.44,392.05,296.61,391.79,297.07,391.61Zm1.42,30.93c.73,2.93,1.88,4.95,3.47,6a5.75,5.75,0,0,1,.71-2.2,5.87,5.87,0,0,0,.74-2.07c-.61-.09-1,0-1.06.27a2.32,2.32,0,0,0-.15.84,1.67,1.67,0,0,1-.22.86c-.14.27-.52.36-1.13.28a1.53,1.53,0,0,1,.44-1.27,2,2,0,0,0,.61-1.15,3.25,3.25,0,0,0-1.37.25c-.41.17-.71,0-.89-.44a5.23,5.23,0,0,0,2-1.41c.71-.72.56-1.18-.47-1.39,0,.89-.36,1.45-1,1.65A1.88,1.88,0,0,1,298.49,422.54Zm-.91-19.88a2.73,2.73,0,0,0-.22-1.23,2.49,2.49,0,0,0-.7-1,1,1,0,0,0-.79-.31c-.24.05-.37.32-.38.81.77-.13,1,0,.74.39s-.4.69-.36.88.33.19.6,0,.4,0,.39.53a4.54,4.54,0,0,0-1.06.71,1,1,0,0,0-.27.56c0,.21.28.3.87.29a1,1,0,0,1,.26-1Zm.62-4c-.08.12-.11.07-.1-.13s0-.42.1-.68.09-.46.11-.62,0-.18.06-.08c0-1-.06-1.45-.24-1.37a1.68,1.68,0,0,0-.59.85c-.21.48-.41,1-.61,1.59s-.24.86-.14.85a.91.91,0,0,1,.72-.13A.67.67,0,0,0,298.2,398.68Zm4.62,29.76a1.34,1.34,0,0,1,1.39-.1c.39.22.63.08.74-.43a1.41,1.41,0,0,1-1-1.46,1.75,1.75,0,0,1,.76-.28c.34-.06.47-.29.4-.67l-.93.17a4.33,4.33,0,0,0-1.06.34,3.15,3.15,0,0,1,0,1.26C303,427.63,302.94,428,302.82,428.44Zm-4.74-46.07c.25.26.51.21.79-.14a2.52,2.52,0,0,0,.55-1.06,1.49,1.49,0,0,0-.1-1c-.16-.32-.57-.37-1.22-.16a1.28,1.28,0,0,1,.22.41l.08.43ZM311.47,427a1.59,1.59,0,0,0,.41-1,.66.66,0,0,0-.39-.52l-.74-.39a1.59,1.59,0,0,1-.66-.77.48.48,0,0,0,.38-.37c.06-.21-.16-.32-.65-.33a2.24,2.24,0,0,0,0,2.15A2.44,2.44,0,0,0,311.47,427Zm1-5.37a4.56,4.56,0,0,0-1.27.37c-1.06.19-1.55.36-1.47.49s.33.21.78.23a4.76,4.76,0,0,0,1.45-.18C312.45,422.42,312.62,422.12,312.44,421.66Zm.14-9.09c.73-.32,1.21-.29,1.43.12a1.56,1.56,0,0,0,1,.79q-.48-.21-.72-1.5a5.58,5.58,0,0,0-.65-2,1.62,1.62,0,0,0-1.13-.09c-.52.1-.44.18.27.25A5.21,5.21,0,0,1,312.58,412.57Zm4.59,4.08c-.47-1-.47-1.7,0-2.08a2,2,0,0,0,.65-1.75c-.57.1-.92-.16-1-.78s-.42-.94-.91-1a2.46,2.46,0,0,1,.52,1.69c0,.6-.09,1.15-.14,1.66a4.88,4.88,0,0,0,0,1.33C316.34,416.15,316.64,416.44,317.17,416.65Zm66.67-5.78a24.66,24.66,0,0,0-.13-2.79,6.74,6.74,0,0,0-1.17-2.76c.53-.4.64-.61.33-.66s-.65.22-1.05.78a3,3,0,0,1,1,2.65,7.37,7.37,0,0,0,.43,3.63,2.43,2.43,0,0,1,1.1.32,2.92,2.92,0,0,0,.88.36.63.63,0,0,0,.63-.19,1.71,1.71,0,0,0,.24-1.15,3,3,0,0,0-1.29.23A.66.66,0,0,1,383.84,410.87Zm13.6.52a2,2,0,0,0-1.82-1.9A2,2,0,0,0,397.44,411.39Zm-7.37-64a5,5,0,0,1-.4-1.41l-1.58.28a5,5,0,0,0,.4,1.41Zm2.17,6.29a5,5,0,0,0-.4-1.41l-1.44.26a5.31,5.31,0,0,1,.41,1.41Zm10,52.84c.48-.08.71,0,.7.17a2.71,2.71,0,0,1-.17.7,6.68,6.68,0,0,0-.27,1,1.18,1.18,0,0,0,.43,1.11c-.48.08-.77,0-.87-.29a2.25,2.25,0,0,1-.1-1,10.39,10.39,0,0,1,.18-1.07A2.42,2.42,0,0,0,402.21,406.52Zm-10.28-60.36a2.79,2.79,0,0,1-.08-1.69c.14-.57.29-1.11.44-1.64a7.39,7.39,0,0,0,.29-1.31c0-.35-.15-.54-.55-.57a7.06,7.06,0,0,1-.37,1.25c-.2.54-.38,1-.54,1.51a3.42,3.42,0,0,0-.19,1.44C391,345.65,391.3,346,391.93,346.16Zm11.85,53.4-.3.42a1.51,1.51,0,0,1,1-.55l.05.29.07.43c.23.16.38,0,.46-.38s.06-.6,0-.59c-.34.26-.49.17-.42-.29s.45-.4,1.14.16c0-.78-.29-1.23-.76-1.34a2.14,2.14,0,0,1-1.06-.56c-.34-.23-.52-.27-.55-.12a1.52,1.52,0,0,0,.12.65,5.48,5.48,0,0,1,.25,1A2.07,2.07,0,0,1,403.78,399.56Z"/><path class="cls-7" d="M514.12,308.36c.5,0,.64-.24.41-.63a3.84,3.84,0,0,0,1.38.07,3.51,3.51,0,0,1-.47,1,.53.53,0,0,1-.52.18l-.78-.18a4,4,0,0,0-1.22-.08c-.07.41,0,.68.28.82a3.84,3.84,0,0,0,.86.33c.31.08.59.17.85.25a.6.6,0,0,1,.41.58.85.85,0,0,0,.63-.87.73.73,0,0,1,.79-.73,2,2,0,0,0-1.65-2.18l-.6,0a3.25,3.25,0,0,0,.71-.73,1.77,1.77,0,0,0,.24-1.15.78.78,0,0,1,.41.58,4.38,4.38,0,0,1,.12.75,5,5,0,0,0,1.22.08c.41,0,.68-.45.84-1.27.51.18.68.34.48.51a1.31,1.31,0,0,0-.41.7,1.13,1.13,0,0,0-.45.11,1,1,0,0,1-.45.1c.32.18.48.38.49.58.19-.22.34-.33.44-.33a4.47,4.47,0,0,1,.93,2.83c.61.06.84-.26.7-1a15.05,15.05,0,0,1-.28-2.11,5,5,0,0,0,1.31.3q.53,0,.6-1.47a3.19,3.19,0,0,0,1,.54l1.25.46a2.22,2.22,0,0,0,.69.18c.1,0-.06-.2-.49-.58.15-.81.45-1,.88-.5a3.32,3.32,0,0,1,.53,1.18c.21.09.5,0,.89-.36a2.19,2.19,0,0,1,1.33-.54,1.39,1.39,0,0,1,1.09.47,1,1,0,0,0,1.23.15c0,.51-.14.75-.49.72a.93.93,0,0,0-.82.27c.45.79.89.94,1.32.46a1.73,1.73,0,0,1,1.56-.63.66.66,0,0,1,.55.35,4.23,4.23,0,0,0,.65.72,2.33,2.33,0,0,0,.79.48c.26.09.63,0,1.11-.37-.16.62-.14,1,.07,1.13a2.55,2.55,0,0,0,.78.34,2.55,2.55,0,0,1,.78.33c.21.14.24.52.07,1.13.6-.13,1-.11,1.15.09a5.25,5.25,0,0,1,.49.72,2.08,2.08,0,0,0,.66.72c.26.19.74.16,1.43-.08a2.35,2.35,0,0,0-.75,1.41,3.19,3.19,0,0,0,0,1.52c.12.39.29.59.49.57s.37-.47.52-1.39a1.17,1.17,0,0,1,.89.93,1.91,1.91,0,0,1-.22,1.3,2.3,2.3,0,0,1-1.08,1,2,2,0,0,1-1.67-.05,1.83,1.83,0,0,0,1.2,1,9.15,9.15,0,0,0,1.76.35c-.19.11-.28.4-.25.85s-.06.69-.26.7a1.08,1.08,0,0,1-1.08-.24,1,1,0,0,1-.48-.43c-.49.24-.65.5-.48.79a.54.54,0,0,1-.18.77,10.13,10.13,0,0,0-1.09-.31.62.62,0,0,0-.52.11c-.15.11-.1.46.14,1-1.14-.43-2.25-.8-3.33-1.09a9.77,9.77,0,0,0-4.18,0,12.68,12.68,0,0,0-.16-1.44.91.91,0,0,0-.88-.78c-.5.13-.67.3-.5.49a.65.65,0,0,0,.54.27c-.16.62-.34,1-.54,1.1a.85.85,0,0,1-.6.11c-.2,0-.46-.07-.76-.11s-.6.17-.88.59a2.43,2.43,0,0,0,2.35,1.14l3.34,0a8.94,8.94,0,0,1,3,.43q1.32.45,1.29,2.43c-.44-.48-.8-.64-1.09-.47s-.19.34.33.52c.05.7-.2.92-.72.65a1.49,1.49,0,0,1-.79-.56c-.51,0-.57.28-.18.77s.22.74-.49.79a.48.48,0,0,1-.55-.35c-.07-.25-.15-.37-.25-.37a3,3,0,0,0-1.42.39,4.41,4.41,0,0,1-1.56.55l0-.75a2,2,0,0,0-.67.27,4.67,4.67,0,0,1-1,.36c-.3.07-.48,0-.53-.12s.14-.54.61-1.18c-1.54-.21-2.21.34-2,1.64a3,3,0,0,0-2.44-.15l-.31-.13c-.91.05-1.43-.17-1.56-.67-.42-.18-.61,0-.58.41a2.49,2.49,0,0,1-.09,1,.29.29,0,0,0-.23.09.34.34,0,0,1-.22.09.36.36,0,0,1-.25-.44c0-.21,0-.31-.1-.3-.41-.08-.58,0-.51.26a.43.43,0,0,1-.2.54l.76-.05a3.62,3.62,0,0,1-2.12.13l1.36-.08-.68,0a3.82,3.82,0,0,1-1-.09l-.16-.14c-.33-.39-.54-.52-.63-.42a3.46,3.46,0,0,1-.88.51l-1.67.1a3.86,3.86,0,0,0-1.2.23c-.61-.07-1.2-.11-1.75-.13a5.88,5.88,0,0,0-1.59.18l2.9.12h-.16l.05.76a13.18,13.18,0,0,1-1.37-.07c-.71,0-1.5-.08-2.36-.08a20.36,20.36,0,0,0-2.42.14c-.75.1-1.18.25-1.26.46a2.16,2.16,0,0,1-1.2.37,8.73,8.73,0,0,0-1.95.43,4,4,0,0,1-2.11.2,7.93,7.93,0,0,0-2.42.07q-4.5,1-8.83,2.28t-8.18,2.7a11.59,11.59,0,0,1-1.48,1.91,3.23,3.23,0,0,0-.52,2.77,4.91,4.91,0,0,0-2.13,2.41c-.45,1-.89,2-1.34,3-.07.51.07.78.43.81a4.71,4.71,0,0,0,1.21-.07,10.79,10.79,0,0,1,1.13-.15c.3,0,.42.23.35.74a4.15,4.15,0,0,0,1.37-2.36c.52.17.71.34.56.5a.75.75,0,0,1-.51.26.79.79,0,0,0,.88.7q.68,0,.72.72.17.13.66-.42a6,6,0,0,1,1.3-1.07,5.62,5.62,0,0,1,1.63-.7,1.91,1.91,0,0,1,1.62.35c.42.38.71.47.85.26s.61-.35,1.42-.39l0,.75a2.58,2.58,0,0,0,1.19-.37,4.34,4.34,0,0,1,1-.45,1.09,1.09,0,0,1,.85.18,2.73,2.73,0,0,1,.75,1.17c.42.18.58,0,.5-.56s0-.88.17-1c1.21,0,2.25,0,3.11,0s1.65,0,2.35-.07a2.11,2.11,0,0,0,1.35-.38c.27-.42.44-.56.5-.41s.4.25,1,.32a2.32,2.32,0,0,0,.7-1c.17-.47.62-.62,1.33-.46-.26.62-.31,1-.15,1.15a1.05,1.05,0,0,0,.77.18c.35,0,.75-.07,1.2-.15a3.73,3.73,0,0,1,1.29,0,1.17,1.17,0,0,1,.58.81,1.21,1.21,0,0,0,.27.66,1.16,1.16,0,0,0,.83-.05,1.16,1.16,0,0,1,.83,0,2.05,2.05,0,0,0,.8.64,2.33,2.33,0,0,0,1.37,0c.53.48.73.84.6,1.1a8.13,8.13,0,0,0-.46,1.17,5.42,5.42,0,0,1,2.51.08,5.27,5.27,0,0,1,1.72.88c.48.37,1,.75,1.51,1.12a3.87,3.87,0,0,0,2,.64q.33.59-.51.48c-.56-.06-.88,0-1,.21-.18.52.12.83.89.94s1.51.24,2.23.4c-.08.51-.34.75-.8.73a4.52,4.52,0,0,0-1.43.16,1.62,1.62,0,0,0,1,.77c.46.13.66.59.61,1.41a.92.92,0,0,0,.57.57,3.24,3.24,0,0,1,.7.34,1.35,1.35,0,0,1,.5.65,2.36,2.36,0,0,1-.07,1.37A1.76,1.76,0,0,0,520,359a3.59,3.59,0,0,0-1.5.24,1.15,1.15,0,0,0-.78.88c-.08.41.14.81.67,1.18.24.49.45.61.63.34a1.1,1.1,0,0,1,.89-.43,1.38,1.38,0,0,1,.71.41,1,1,0,0,0,.85.25,4,4,0,0,1-1.74,2.61,12.16,12.16,0,0,1-3.33,1.49,4.69,4.69,0,0,0,.57-3.07,1.62,1.62,0,0,0-.77,1c-.12.46-.54.66-1.25.6-.08.41.13.6.64.57-.17.62-.33.78-.5.49a1,1,0,0,0-1-.4A71.3,71.3,0,0,1,500.59,367a78.37,78.37,0,0,0-12,1.34l-2.23.89c-.5.13-.73.4-.71.8-.5.14-.7.07-.62-.19s0-.43-.18-.52-.43,0-.67.27a2.11,2.11,0,0,1-.8.58c-.5,0-1,0-1.52,0a4.77,4.77,0,0,0-1.5.17,3.6,3.6,0,0,0-1.12.44,2.18,2.18,0,0,1-1.12.3,16.4,16.4,0,0,1-2.78.47,8.35,8.35,0,0,0-2.47.6l-.75.05-.61,0a3,3,0,0,1-2.06,1c-1,.17-2.13.34-3.39.51s-2.53.38-3.83.62a12.81,12.81,0,0,0-3.43,1c.56.87.51,1.46-.12,1.75a2.07,2.07,0,0,0-1.22,1.21,1.26,1.26,0,0,0,.07,1.21,1.28,1.28,0,0,1,.07,1.22c-.09.1-.37.09-.83,0s-.74-.08-.83.13a1.73,1.73,0,0,0,.09,1.43,2.2,2.2,0,0,1,.09,1.59c0,.2-.18.34-.58.42s-.64.21-.73.42a1.44,1.44,0,0,0,0,.84,1.73,1.73,0,0,1,0,.91.92.92,0,0,1-.57.57,2.85,2.85,0,0,1-1.52-.06c0,.3.35.51,1,.62s1.3.2,1.92.26a4.24,4.24,0,0,0,1.36,0c.3-.06.09-.18-.63-.34a1.53,1.53,0,0,1,1.32-.76,3.17,3.17,0,0,1,1.47.44,12.15,12.15,0,0,1,1.43,1,3.53,3.53,0,0,0,1.18.69c.16-.72.08-1.15-.23-1.28a5,5,0,0,0-1.23-.3c.06-.62.25-.93.55-1a1.62,1.62,0,0,1,.92.25,3.87,3.87,0,0,1,.88.7,2.33,2.33,0,0,0,.72.57c.4,0,.6-.16.58-.42a1,1,0,0,0-.5-.73,8.65,8.65,0,0,0-1-.62l-.86-.4c0-.3.15-.44.5-.41a8,8,0,0,1,1.08.16,1.91,1.91,0,0,0,1.06-.06c.34-.12.49-.54.45-1.24.41.07.59.16.55.27s-.11.26-.2.46a3.13,3.13,0,0,0-.19.62c0,.21.15.45.58.73a1.72,1.72,0,0,1,.73-.35,5.33,5.33,0,0,0,1-.44c.29-.17.46-.34.5-.49s-.19-.27-.7-.34q.26-.77.51-.33c.17.29.5.37,1,.24a1.34,1.34,0,0,1-.41.71,1,1,0,0,0-.25.85c.91.05,1.43-.11,1.56-.47s.46-.31,1,.16c-.76-.76-.65-1.17.3-1.23s1.94-.17,2.95-.33c.15-.72.08-1.09-.22-1.13s-.45.16-.43.56c-.5.13-.68-.08-.57-.65s.28-.9.47-1a2.88,2.88,0,0,1,2.39.46,4.22,4.22,0,0,0,3.57.09.8.8,0,0,0-.88-.71,7.22,7.22,0,0,1-1.45-.06,1.08,1.08,0,0,1,1.17-.76,7,7,0,0,0,1.82-.18c-.26.72-.24,1.15.07,1.28a2.2,2.2,0,0,0,1.08.16,2.89,2.89,0,0,1,1.14.16c.37.13.42.56.16,1.29a3.85,3.85,0,0,0,1.76-1,2.33,2.33,0,0,1,1.94-.58c0-.7-.22-1.07-.53-1.1a2.73,2.73,0,0,0-.9.05,1.87,1.87,0,0,1-.76.05c-.21,0-.28-.47-.23-1.28.72.16,1.44.29,2.15.4s1.06.72,1,1.84a1.94,1.94,0,0,0,.85-1.12c.17-.51.37-.47.61.12.4-.13.6-.24.59-.34a.91.91,0,0,0-.26-.44,1,1,0,0,1-.26-.59c0-.2.17-.47.56-.79a.72.72,0,0,1,.71.41l.42.73c.11.2.22.24.32.13a3.17,3.17,0,0,0,.06-1.37c.41,0,.62.19.65.65a7.77,7.77,0,0,0,.24,1.43,1.76,1.76,0,0,0,1.09-.75c.23-.37.09-.64-.43-.81a1,1,0,0,1,.87-.81,5.75,5.75,0,0,1,1.66-.18c.6,0,1.21.05,1.82.12a4.77,4.77,0,0,0,1.67-.1,2.08,2.08,0,0,1-.77,1.11,1.45,1.45,0,0,0-.62,1.1,13.55,13.55,0,0,1,2.59-1.15,9.74,9.74,0,0,0,2.58-1.29c1.13.33,2.27.64,3.4.93a2.93,2.93,0,0,1,2.13,2.53c1-1.18,1.5-1,1.4.52a2.54,2.54,0,0,1,2.64-.24,2.7,2.7,0,0,1,2,2.24,1.15,1.15,0,0,0,1.14-.07,1.13,1.13,0,0,1,1.13-.07q.31.14.12.75a1.23,1.23,0,0,0,0,.91,1.63,1.63,0,0,0,1.15.24,1.6,1.6,0,0,1,1.16.23,2.48,2.48,0,0,1,.58.88,1,1,0,0,0,1,.54,8.82,8.82,0,0,1,.14,2.35c0,.86.47,1.06,1.56.58a14.11,14.11,0,0,1,0,1.45.86.86,0,0,1-.63.87c-.08.41.17.7.74.87s.85.35.86.55a1.48,1.48,0,0,1-.26.62,4.25,4.25,0,0,0-.4.86.66.66,0,0,0,.11.68c.17.2.65.22,1.45.06a1,1,0,0,1-.25.86c-.2.16-.41.32-.66.49a1.72,1.72,0,0,0-.56.64,1.3,1.3,0,0,0,.14,1.13,8.87,8.87,0,0,0-3.25.2,10.63,10.63,0,0,1-3.56.22l0-.91c-1.12.07-2.32.19-3.63.37s-2.63.34-4,.47-2.67.24-3.93.31a11.77,11.77,0,0,1-3.43-.24,1.35,1.35,0,0,1-.7-.19c-.26-.14-.34-.26-.25-.36a1,1,0,0,0-.58.49c-.08.21-.17.44-.26.7a.91.91,0,0,1-.57.56,2.27,2.27,0,0,1-1.37-.07,3.12,3.12,0,0,0,.47-2.3c-.51,0-.77.37-.78,1a1.62,1.62,0,0,1-.45,1.32,3.7,3.7,0,0,1-2.36-.09c-1.08-.28-1.81-.16-2.18.36a1.87,1.87,0,0,1-1.94.5,1.6,1.6,0,0,0-1.79.49c-.48.54-.89.76-1.25.68a3.78,3.78,0,0,0-1.73.26l-2.23.89c-.1,0-.32.17-.65.5s-.61.44-.81.35l-.05-.76a4.66,4.66,0,0,0-1,.3,4.53,4.53,0,0,0-1.17.6,8.67,8.67,0,0,1-2.24.74,12.54,12.54,0,0,1-2.75.85,22.38,22.38,0,0,0-3.8,1.22,5,5,0,0,1-1,.37,5.59,5.59,0,0,0-1.34.53l-1.27,1.6a9.68,9.68,0,0,1-2.92.71,6.9,6.9,0,0,0-3.05,1c-.19.21-.45.53-.78.95a3.34,3.34,0,0,1-.78.81,5.82,5.82,0,0,1-1.8.49,6.35,6.35,0,0,0-1.79.49c-.49.23-1,.49-1.47.77s-1,.54-1.47.77L450,418.4a3.35,3.35,0,0,1-.85-.1c-.36-.08-.58,0-.67.19-.27.42-.57.62-.87.58a3.17,3.17,0,0,0-1.35.32,6,6,0,0,0-2.73,1.38,3.39,3.39,0,0,1-1.68,1,4.83,4.83,0,0,1-1.76-.12l-1.31-.46-2.16-.47a1.71,1.71,0,0,1-.9-1.09,2.79,2.79,0,0,0-.76-1.24,3.63,3.63,0,0,0-1.31-.3,2.63,2.63,0,0,1-1.15-.31c-.21-.09-.27-.21-.18-.37s-.07-.27-.48-.35-.74-.26-1-.85-.49-1-.61-1.18a10.9,10.9,0,0,0-2-2.31,3.86,3.86,0,0,1-1.34-2c.07-.51-.14-.7-.64-.57s-.8.1-.92-.1a3.08,3.08,0,0,1-.59-2.24c0-1-.39-1.49-1.3-1.44a11.09,11.09,0,0,1,.54-1.09,2.13,2.13,0,0,0,.23-1.23,5.19,5.19,0,0,0,1.61.2,7,7,0,0,1,1.14,0,1.58,1.58,0,0,1,.86.4,5.18,5.18,0,0,1,.92,1.39c.5-.13.66-.29.5-.49a.68.68,0,0,0-.55-.27,20.46,20.46,0,0,0,.91-2.56,4.53,4.53,0,0,1,1.24-2.12q.76.26.33.51c-.29.17-.37.5-.24,1,.71.06,1-.21.93-.82a2.15,2.15,0,0,1,.29-1.53,3.32,3.32,0,0,1,1.69-.94c.75-.2.95-.69.59-1.48a.74.74,0,0,0-.94-.62,5.16,5.16,0,0,1-1.52,0,6.59,6.59,0,0,0-.61-2.54,20,20,0,0,0-1.1-1.91,18.11,18.11,0,0,1-1.11-1.91,6.54,6.54,0,0,1-.61-2.54,1.48,1.48,0,0,0,1.26-.61,3.33,3.33,0,0,0,.45-1.32,4,4,0,0,1,.45-1.39,1.39,1.39,0,0,1,1.24-.69l-.22-3.78a3.3,3.3,0,0,1,1.26.76,2.48,2.48,0,0,1,.55,1.56c.79-.25.91-.79.36-1.61a5.58,5.58,0,0,0-1.31-1.52,6.73,6.73,0,0,0,.59-1.55,5.57,5.57,0,0,0-.06-2.13c.16-.81.33-.9.52-.26A8,8,0,0,1,434,377a1.88,1.88,0,0,1,.73-.57.86.86,0,0,1,.61,0,1.33,1.33,0,0,0,.61.12,1.79,1.79,0,0,0,.88-.51c0-.5-.17-.67-.41-.51a.64.64,0,0,0-.34.56c-.63-.27-.83-.61-.6-1a4,4,0,0,0,.45-1.39c-.13-.5-.36-.56-.7-.19a1.28,1.28,0,0,1-1.42.31c.25-.82.51-1.62.77-2.4a7.26,7.26,0,0,1,1.08-2.11,5.43,5.43,0,0,0,2.07.25,4.06,4.06,0,0,0,1.19-.37,8.59,8.59,0,0,1,1-.45,3.21,3.21,0,0,1,1.75.2,6,6,0,0,1-.58-.95,3.12,3.12,0,0,1-.31-1.27c.65.67,1.09.79,1.31.37a3.39,3.39,0,0,0,.36-1.61c0-.66,0-1.19.06-1.6s.16-.26.4.43c.49-.23.73-.47.72-.73a1.56,1.56,0,0,0-.27-.74,5.56,5.56,0,0,1-.43-.73c-.12-.25.07-.54.56-.87a.92.92,0,0,1,.63.49,3.1,3.1,0,0,0,.42.66,1.38,1.38,0,0,0,.71.41,2.23,2.23,0,0,0,1.35-.23c.26-.73.21-1.15-.15-1.28a2.77,2.77,0,0,0-1.15-.16,2.44,2.44,0,0,1-1.07-.16c-.31-.14-.34-.57-.08-1.29a2.4,2.4,0,0,0-.71.88c-.18.36-.33.68-.47.94a.94.94,0,0,1-.65.49c-.3.07-.67-.13-1.1-.62-.2.12-.35.56-.46,1.32a1.65,1.65,0,0,0,.64,1.71A1.54,1.54,0,0,1,440,365a14.14,14.14,0,0,0-2.93.4c-.13-.49.1-.76.71-.8l-.09-1.51c.3,0,.46.15.48.5a3.11,3.11,0,0,0,.21,1c.6-.14.9-.31.88-.51a1.13,1.13,0,0,0-.34-.67,6,6,0,0,1-.66-.87.88.88,0,0,1-.06-1c.41.18.75.33,1,.47a1.42,1.42,0,0,1,.59,1,.91.91,0,0,0,.56-.79,2.55,2.55,0,0,0-.29-1c-.17-.35-.35-.69-.52-1a1,1,0,0,1,0-1c.18-.32.38-.28.61.11s.29.59.19.6c.4,0,.66-.37.77-1s.58-.87,1.41-.61c-.49.33-.7.65-.63.95a.71.71,0,0,0,.49.57.65.65,0,0,0,.74-.27,1.41,1.41,0,0,0,.15-1.3,4.11,4.11,0,0,1,1.65,2.18,1.29,1.29,0,0,0,.54-1.1,4.35,4.35,0,0,0-.31-1.34c-.18-.5-.36-1.07-.55-1.72a3.38,3.38,0,0,1,0-1.89c0-.1.22-.12.68,0s.73.05.83-.05c-.14-.6-.31-.9-.51-.88a1.1,1.1,0,0,0-.66.34,6.57,6.57,0,0,1-.87.66.86.86,0,0,1-1,.06,1.3,1.3,0,0,0,.22,1.05,6.46,6.46,0,0,1,.5.73c.11.19.09.32-.05.38a6,6,0,0,1-1.29.15,2.39,2.39,0,0,1-.23-1.35,1.54,1.54,0,0,1,.49-.79,3.23,3.23,0,0,1,.72-.5c.25-.11.37-.27.35-.47a.83.83,0,0,0-.37-1.12c-.42-.23-.35-.86.19-1.91a28.17,28.17,0,0,1,2.26,2.22,3,3,0,0,1,.34,3.09,5.48,5.48,0,0,0,.84-1.19,11.25,11.25,0,0,0,.53-1.32,1.35,1.35,0,0,0,1.14,0,1,1,0,0,0,.41-.71,3.65,3.65,0,0,1,.18-.85,2,2,0,0,1,.41-.71,5.49,5.49,0,0,0,1,.47,2.17,2.17,0,0,0,1.29,0,6.22,6.22,0,0,0-1.11-.77c-.41-.22-.83-.43-1.25-.61-.12-.39,0-.58.5-.56a1.15,1.15,0,0,0,1-.28,1.84,1.84,0,0,0-.14-1.13q-.28-.83,0-1.14a1.61,1.61,0,0,1,1.12-.38,1.61,1.61,0,0,0,1.12-.37,4.48,4.48,0,0,1-.95-3.13,2.14,2.14,0,0,0-.64.72,3.16,3.16,0,0,0-.27.63c0,.15-.16.21-.37.17a2.43,2.43,0,0,1-.95-.62,4.45,4.45,0,0,1,.69,2.54,6,6,0,0,1-1.17,2c-.4,0-.61-.14-.64-.49a3.11,3.11,0,0,0-.21-1c-1.29.39-1.73,1.43-1.33,3.12a4.14,4.14,0,0,0-.93-.4c-.31-.08-.5.08-.58.49-.3,0-.49-.09-.55-.34a1.32,1.32,0,0,1,.17-.92,2.4,2.4,0,0,1,.71-.88,1.3,1.3,0,0,1,1-.22q-.79-.56-.66-.87a3.41,3.41,0,0,1,.41-.71q.27-.39.63-.87a1.67,1.67,0,0,0,.14-1.38c.73.26.95.6.67,1a3.26,3.26,0,0,0-.52,1.39c1.1-.16,1.55-.7,1.35-1.59a4.83,4.83,0,0,1-.07-2.28,3,3,0,0,1,.79-.88c.43-.38.64-.62.64-.73a2.45,2.45,0,0,0-.08-1.2,2.48,2.48,0,0,1-.07-1.21c.38-.33.89-.31,1.52.05a4.9,4.9,0,0,1,.79.56c.1,0,.27-.22.5-.63s.23-.68,0-.76c.51.17.81.43.88.78s.36.51.86.48.68-.17.51-.41a.64.64,0,0,0-.55-.35c-.13-.5,0-.69.5-.56s.78.08,1-.14a2.23,2.23,0,0,0,.13-1.75,1.18,1.18,0,0,1,.44-1.47c-.82-.05-1.23.2-1.25.76s-.06,1.14-.12,1.75a1.94,1.94,0,0,1-1.75,0,2.68,2.68,0,0,0-1.32-.53l.09,1.51c-.61-.06-.95-.19-1-.39a.75.75,0,0,1,.26-.7,5.47,5.47,0,0,1,.79-.73c.29-.22.44-.38.43-.48a3.73,3.73,0,0,0,.3-1.31,5,5,0,0,1,.16-1.15.69.69,0,0,1,.5-.56c.24-.07.69.13,1.32.6a3.82,3.82,0,0,1-.89-2.22,16.34,16.34,0,0,0,1.64.73,4.79,4.79,0,0,0,.85.25c.2,0,.15-.08-.18-.36a1.36,1.36,0,0,1-.61-.12c-.32-.18-.38-.38-.19-.6.48-.43.59-.64.34-.62a7.14,7.14,0,0,1-1.14-.09,1.31,1.31,0,0,1,.41-.7,1,1,0,0,0,.25-.86,1.4,1.4,0,0,0-1.19-.83,1.66,1.66,0,0,1-1.17-.54,1.17,1.17,0,0,1-.05-.83c.08-.36.07-.59,0-.68l-.91.05a10.3,10.3,0,0,1-.45-2.55,4.61,4.61,0,0,1,.18-2c.17-.51,0-.76-.65-.72,0-.4.14-.61.49-.64a3,3,0,0,0,1-.21l.1,1.52a8.52,8.52,0,0,0,1.66-1.39c.43-.49,1.06-.35,1.92.41.07-.51-.15-.75-.65-.72,0-.7.22-.92.8-.65s.76.46.56.57c.49-.23.66-.47.49-.71s-.06-.53.33-.86a1.74,1.74,0,0,1,1-.44,2.6,2.6,0,0,0,1.18-.45,8,8,0,0,0,1.21-1.37,3.18,3.18,0,0,1,1.68-1.09,3.1,3.1,0,0,1-.93-2.83,1.84,1.84,0,0,0,1-.36c.49-.34.34-1-.43-2.1,1.9-.42,2.65.34,2.27,2.29.71.06,1.15-.07,1.34-.39a1.17,1.17,0,0,1,1-.51c.38-.33.74-.38,1-.14a6,6,0,0,1,.89.78c.27.29.46.48.56.57s.25-.11.42-.63a.65.65,0,0,1,1,.39c.18.5.38.79.59.88a2.18,2.18,0,0,0,1.44.06c.55-.13,1.07-.26,1.57-.4a3.25,3.25,0,0,1,1.37-.08,1.39,1.39,0,0,1,1,.85c.4,0,.59-.21.57-.56a3.18,3.18,0,0,1,.09-1,1.21,1.21,0,0,1,1.52.05c.43.38.7.57.8.56a3.38,3.38,0,0,0,2.51-1.13c.86-.82,1.24-1.22,1.14-1.21.31,0,.46,0,.47.12a.84.84,0,0,1-.13.39,3.13,3.13,0,0,0-.27.55c-.09.21-.09.31,0,.3s.41.08.91-.06,1-.23,1.5-.31a2.74,2.74,0,0,1,1.45.14q.7.25.78,1.47c.4,0,.59-.16.58-.42a.84.84,0,0,0-.5-.65l-1-.62a1.87,1.87,0,0,0-.71-.34q.09-1.07.54-1.17a1.24,1.24,0,0,1,.92.17,1.8,1.8,0,0,1,.73.79c.18.35.21.57.12.68.2,0,.34-.15.43-.41a3.24,3.24,0,0,1,.34-.7,1.56,1.56,0,0,1,.5-.49,1.09,1.09,0,0,1,.92.1l.08,1.36c0,.41.29.64.8.71.49-.33.59-.69.32-1.08s-.2-1.05.26-2a2.79,2.79,0,0,0,1.32.6c.57.12.83-.12.79-.73.63.27.9.61.82,1a2.63,2.63,0,0,1-.68,1.26,2.23,2.23,0,0,1,1.09-.82c.54-.24.69-.75.44-1.55a8.43,8.43,0,0,1,2.65,0c1.18.14,1.79-.21,1.84-1,.52.17.78.36.8.56a1.15,1.15,0,0,1-.27.7,5.46,5.46,0,0,0-.48.86.87.87,0,0,0,.13.91c.79-.46,1.23-1.5,1.33-3.12.69-.45,1.07-.32,1.17.38a2.65,2.65,0,0,0,.3,1.2c.51.07.87-.21,1.09-.83s.58-.84,1.09-.67c-.31-.18-.42-.38-.33-.59l.48.58h-.15l.16.14.73.64c.26.24.64.24,1.14,0a.94.94,0,0,0-.34-.59l-.46,0v-.15h-.15c.08-.31.18-.47.28-.48a1.64,1.64,0,0,1,.1-.76,7,7,0,0,1,2.08.41,15.12,15.12,0,0,1,1.64.73,3.8,3.8,0,0,1,1.37.07l-1.06.06a3.48,3.48,0,0,0,1.71.66.69.69,0,0,0,.09.3A.67.67,0,0,1,514.12,308.36Zm-82.37,96.72a1.92,1.92,0,0,0-1.5-2.19A1.92,1.92,0,0,0,431.75,405.08Zm3.79-2.51c0-1-.23-1.66-.8-1.92s-1.17-.59-1.8-1q-.35,1.85.66,2.16C434.27,402.07,434.92,402.31,435.54,402.57Zm-3.29-14.23a2.35,2.35,0,0,0,2.33-1.65c-.7.14-1.33.25-1.88.34S432,387.55,432.25,388.34Zm-.13-2.11a2.18,2.18,0,0,0,1.12-.3,3,3,0,0,1,.59-.34.92.92,0,0,1,.53,0,2,2,0,0,1,.79.48c.16-.72.08-1.19-.24-1.43a1.27,1.27,0,0,0-1.15-.15,3.14,3.14,0,0,0-1.25.68A1,1,0,0,0,432.12,386.23ZM435,371.62c.34.49.63.67.87.56s.52-.26.81-.43a2,2,0,0,1,.82-.28c.25,0,.49.23.73.72a1,1,0,0,0-.93,1,1.31,1.31,0,0,1-.61,1.18c1.32,0,1.83-.72,1.54-2.22.49-.24.66-.75.51-1.55a2.16,2.16,0,0,0,1.19-.38c.29-.22.13-.41-.49-.58a1.13,1.13,0,0,1-1.09.75,6,6,0,0,1-1.38-.22,2.26,2.26,0,0,0-1.29,0C435.31,370.34,435.08,370.81,435,371.62Zm7.89,4.84a1.85,1.85,0,0,1-1.06.06,5.47,5.47,0,0,0-1.29-.07,2.85,2.85,0,0,0-1.05.22c-.25.11-.36.37-.34.78a3.08,3.08,0,0,0,2.32.61A1.33,1.33,0,0,0,442.92,376.46ZM444,368.8c0,.51-.21.73-.72.66a.48.48,0,0,0-.33-.44c-.2-.09-.35.07-.42.48a1.32,1.32,0,0,0,.95.7,1.29,1.29,0,0,0,1-.13.94.94,0,0,0,.42-.64C444.88,369.18,444.59,369,444,368.8Zm1.47-.85a1.58,1.58,0,0,0-.47-1.48,1.61,1.61,0,0,1-.47-1.5.79.79,0,0,1,.65-.57,7.57,7.57,0,0,1,1-.13,2.94,2.94,0,0,0,.9-.21.71.71,0,0,0,.41-.78,5.41,5.41,0,0,0-3.74,1,3.09,3.09,0,0,1,.48,1.65c0,.5-.05.91-.08,1.22a.75.75,0,0,0,.19.67A1.82,1.82,0,0,0,445.44,368Zm.6-15.22-.08-1.36,1.51-.09.08,1.36Zm8.4-11.74c-.14-.6-.26-.82-.35-.67a3.09,3.09,0,0,0-.25.78,8.83,8.83,0,0,1-.32,1.08c-.13.36-.3.5-.5.41.1,0,0-.35-.29-1s-.49-.83-.56-.43a2.79,2.79,0,0,0,.59,2.17q.84,1.4,1,1.38a2.87,2.87,0,0,1-.08-1.36,2.55,2.55,0,0,1,.33-.78,4.38,4.38,0,0,1,.42-.55C454.56,341.81,454.57,341.49,454.44,341Zm3.12,1.33a3.59,3.59,0,0,0-.26-1.73c-.24-.65-.44-.56-.59.26a2.1,2.1,0,0,0,.17,1.66C457.17,343.1,457.4,343,457.56,342.32Zm24.72-28.08c.38-.42.46-.76.24-1a1.34,1.34,0,0,0-.93-.4,3.56,3.56,0,0,0-1.21.15q-.6.19-.42.63c0-.1.4,0,1.23.16S482.37,314.14,482.28,314.24Zm12-2.24a1.74,1.74,0,0,0,.42.65,1.23,1.23,0,0,1,.28.82.83.83,0,0,0,.38-1.16,2.32,2.32,0,0,1,.19-1.91c-.28.32-.54.62-.78.88A2.78,2.78,0,0,0,494.29,312Zm13.24-4.6-.63-.27V307l1.08.24A.58.58,0,0,1,507.53,307.4Zm2.42-.15c.32.28.43.43.33.44a.43.43,0,0,0,.29-.17,2.68,2.68,0,0,0,.74-.35ZM517,328.69a7.09,7.09,0,0,1-1.67-.05,7.91,7.91,0,0,1-1.43.24l-1.44.09a.62.62,0,0,0-.44.17l5.29-.32A.39.39,0,0,1,517,328.69Zm-3-21.23c.1,0,.26.08.47.27l-.6,0a1.73,1.73,0,0,0-.65-.72l1.21-.07Zm5.42-.79a1.31,1.31,0,0,0-1.35.24v-.15l0-.31a5,5,0,0,0,.83-.12,3.24,3.24,0,0,1,.52-.11Zm.72,22c-.28.22-.44.23-.45,0Zm2.54-.76a.45.45,0,0,1,.17.22c0,.05.05.12.16.21s.06.15.16.15l-3,.18v-.15Zm-3.15-22c.1.09.06.2-.14.31,0-.1,0-.15.07-.16S519.59,306,519.59,305.91Zm19,19.81a3.2,3.2,0,0,0-1-.85,10.5,10.5,0,0,0-1.33-.53q0-.6.33-.78a2.42,2.42,0,0,1,1.06-.14l1.3.07a2.33,2.33,0,0,0,1-.14q-.23,1.38.84,1.32a2.61,2.61,0,0,1-1.91,2.39,10.29,10.29,0,0,1-4,.4,3.52,3.52,0,0,1,.69-1.18.82.82,0,0,1,.67-.2c.26,0,.56.07.92.1A2.68,2.68,0,0,0,538.55,325.72Z"/></g></svg>