<svg xmlns="http://www.w3.org/2000/svg" viewBox="0 0 600 600"><defs><style>.cls-1{fill:#b33951;}.cls-2{fill:#a52f4b;}.cls-3,.cls-5{fill:#ffeed2;}.cls-3,.cls-4,.cls-5{stroke:#e5ceac;}.cls-3,.cls-4,.cls-5,.cls-6{stroke-linecap:round;stroke-linejoin:round;}.cls-3,.cls-4{stroke-width:10px;}.cls-4{fill:none;}.cls-5,.cls-6{stroke-width:7px;}.cls-6{fill:#3a3a3a;stroke:#111;}.cls-7{fill:#d35e8d;}</style></defs><g id="dessin"><rect class="cls-1" width="600" height="600"/><path class="cls-2" d="M315,475.61C134.69,475.61-11.45,621.76-11.45,802S134.69,1128.45,315,1128.45,641.39,982.31,641.39,802,495.24,475.61,315,475.61Zm0,544c-120.19,0-217.62-97.43-217.62-217.62S194.78,584.42,315,584.42,532.58,681.85,532.58,802,435.15,1019.65,315,1019.65Z"/><path class="cls-2" d="M232.26,78.39a150,150,0,1,0,150,150A150,150,0,0,0,232.26,78.39Zm0,250a100,100,0,1,1,100-100A100,100,0,0,1,232.26,328.39Z"/><path class="cls-2" d="M375.45,85.32a150,150,0,1,0,150,150A150,150,0,0,0,375.45,85.32Zm0,250a100,100,0,1,1,100-100A100,100,0,0,1,375.45,335.32Z"/><g id="gauche"><path class="cls-3" d="M263.58,324.35S228,386.29,216.35,394.81c-11.07,8.11-69.29,28.64-69.29,28.64l-14.32-20.13,70.07-31,37.54-69.67"/><path class="cls-3" d="M307.71,414.16C279.45,501.65,229.9,544.23,188.1,524.48c-13.34-6.3-88-63.3-82.07-82.06,2.23-7-.38-55.36-.38-55.36l30.58,25.17,85.93-1.94s6-69.08,17.16-106.45c1.81-6,2.58-17.42-1.48-32.32-2.21-8.09-14.32-22.36-14.32-22.36l30.29-20.9s.9,19.5,7.16,35.13c4.94,12.34,12.79,24.51,17.61,28.5C302.3,311.5,327.14,354,307.71,414.16Z"/><path class="cls-3" d="M116.1,394.81s-36.39-20.91-51.87-12-8.13,75.48-.78,112.25,21.68,53.42,21.68,70.46-6.58,65.42-6.58,65.42,33.68-31.75,36.77-54.59S113.39,550,113.39,550s-12-10.06-15.1-19-6.19-70.83-6.19-70.83Z"/><path class="cls-4" d="M197,438.55s45.29,1.16,50.32-2.71,25.16-78.58,25.16-78.58"/><path class="cls-3" d="M227.19,458.68s-38.32-42.2-64.25-60.39-65.42-35.23-76.26-30.58S70,422.68,66.16,464.1s-17.81,120-25.93,135.09S17.39,634,17.39,634s50.06-12,58.06-37.55c3.87-12.38-5.8-19.74-4.64-28.64s42.58-84.39,43-99.87,0-60.78,0-60.78"/><path id="epaule" class="cls-3" d="M238.81,305.58s3.29-7.74,10.25-9.48,6.2-1,6.2-1"/><g id="tete"><path class="cls-3" d="M215.19,277.9s20.91,1.94,40.65-22.84,22.06-40.25,8.9-60-51.87-13.16-64.26,7.36S199.71,272.87,215.19,277.9Z"/><path class="cls-5" d="M207.84,264.48s8-1.07,12.64-3.22A24,24,0,0,0,228,256"/><g id="lunettes-3" data-name="lunettes"><polyline class="cls-6" points="264.69 213.4 254.63 214.94 234.61 215.46 208.46 223.53"/><path class="cls-6" d="M204.06,224.2,224.2,219s-4.19,19.33-13,21.75C208.72,241.37,204.06,224.2,204.06,224.2Z"/><path class="cls-6" d="M200.77,225.94s5.26,11.32-7,19.95c-2.84.76-5.84-15.6-5.84-15.6Z"/></g></g></g><g id="droite"><path id="body-3" data-name="body" class="cls-3" d="M316.74,301.65c-15.39,10.61-47,166.19-23.22,210.58,7.16,13.39,26.94,26.68,47.09,28.51,27.87,2.54,48.78-15.48,48.78-15.48s25.33,7.94,37.55,4.26a163.18,163.18,0,0,0,31.74-13.94S484,332.61,448.87,313s-43.35-19.1-70.71-21.16S331.71,291.32,316.74,301.65Z"/><polyline class="cls-3" points="464.1 496.61 480.36 392.48 437.39 397.9 390.55 477.64"/><path class="cls-3" d="M467.58,368.87,439.71,499.71s-6.07,31.51-5.81,37.55c.78,17.8,22.66,58.52,42.58,48.77,18.2-8.9,3.1-73.55,3.1-73.55l31-145.93Z"/><path id="cou" class="cls-3" d="M400.23,299.58s-2.71-4.26-4.65-13.55-4.64-21.29-4.64-21.29l-30.59-1.16s4.26,26.71,1.94,31"/><path class="cls-3" d="M312.35,486.16s28.13-63.74,52.91-102.45,40.77-45.94,57.29-42.32S497.9,470.42,528.87,488c19,10.74,89.29,39.22,75.36,54.19s-93.31-4.1-99.1-20.64c-10.84-31-50.58-32.52-74.84-77.42-11-20.31-16-46.45-16-46.45l-28,127.61"/><g id="tete-2" data-name="tete"><path class="cls-3" d="M363.32,296.23c16.42,4.56,51.79-19.63,53.16-59.88,1.17-34.12-16-43.35-45.42-38.7s-33.54,40.25-32.51,59.87S354,293.65,363.32,296.23Z"/><polyline class="cls-5" points="359.19 277.9 372.36 278.42 379.58 276.87"/><g id="lunettes-4" data-name="lunettes"><polyline class="cls-6" points="358.3 242.25 368.46 241.87 388.42 243.65 415.32 238.61"/><path class="cls-6" d="M335.31,242.59l23-.34s-2.4,15.72-10.91,16.3C338.63,259.15,335.31,242.59,335.31,242.59Z"/><path class="cls-6" d="M368.46,241.87l20.81.23s-1.76,17.45-11.11,17.22S368.46,241.87,368.46,241.87Z"/></g></g><path id="main" class="cls-3" d="M499.32,336.35s-41.42,29.81-49.93,39.1-33.68,60.78-21.68,67,38.71-6.58,38.71-6.58S478,404.1,478,398.68s.39-13.55.39-13.55,30.58-5.42,39.87-16.65,5.42-22.06,5.42-22.06Z"/><path class="cls-3" d="M322.81,335.19s69.67,32.13,88.25,30.2,89.42-22.07,89.42-22.07,25.17,11.62,21.68,19.36a32.73,32.73,0,0,1-10.45,12.38l19.35-10.83L530.68,341s-24-20.13-30.2-21.68-38.71,7.36-43.35,7.36-34.84,1.93-56.13-1.55-61.16-20.52-61.16-20.52"/></g><path class="cls-7" d="M575,25V575H25V25H575M600,0H0V600H600V0Z"/></g></svg>