<svg xmlns="http://www.w3.org/2000/svg" xmlns:xlink="http://www.w3.org/1999/xlink" viewBox="0 0 600 600"><defs><style>.cls-1{fill:url(#Dégradé_sans_nom_49);}.cls-2{fill:#ffeed2;stroke:#e5ceac;stroke-linecap:round;stroke-linejoin:round;stroke-width:10px;}.cls-3{fill:url(#Dégradé_sans_nom_2);}.cls-4{fill:#ffa1ff;}.cls-5{fill:#c381c9;}</style><radialGradient id="Dégradé_sans_nom_49" cx="300" cy="300" r="300" gradientUnits="userSpaceOnUse"><stop offset="0" stop-color="#b773bc"/><stop offset="0.29" stop-color="#c683ca"/><stop offset="0.67" stop-color="#d390d7"/><stop offset="1" stop-color="#d895db"/></radialGradient><radialGradient id="Dégradé_sans_nom_2" cx="299.88" cy="343.22" r="203.28" gradientUnits="userSpaceOnUse"><stop offset="0" stop-color="#ffa1ff" stop-opacity="0"/><stop offset="0.35" stop-color="#ffa1ff" stop-opacity="0.01"/><stop offset="0.47" stop-color="#ffa1ff" stop-opacity="0.03"/><stop offset="0.56" stop-color="#ffa1ff" stop-opacity="0.08"/><stop offset="0.63" stop-color="#ffa1ff" stop-opacity="0.15"/><stop offset="0.7" stop-color="#ffa1ff" stop-opacity="0.23"/><stop offset="0.75" stop-color="#ffa1ff" stop-opacity="0.34"/><stop offset="0.8" stop-color="#ffa1ff" stop-opacity="0.47"/><stop offset="0.84" stop-color="#ffa1ff" stop-opacity="0.61"/><stop offset="0.89" stop-color="#ffa1ff" stop-opacity="0.78"/><stop offset="0.92" stop-color="#ffa1ff" stop-opacity="0.96"/><stop offset="0.93" stop-color="#ffa1ff"/><stop offset="1" stop-color="#ffa1ff"/></radialGradient></defs><g id="dessin"><rect class="cls-1" width="600" height="600"/><g id="perso"><path id="corps-3" data-name="corps" class="cls-2" d="M238.68,216.74,238,346s-15.48,83.23,7,109.16,108.77,31,127.74,1.16,7.74-97.54-4.26-119.22-23.61-38.32-23.61-38.32l20.52-60.13s0-18.2-3.1-21.55-39.1-14.32-69.29-12.39A188.28,188.28,0,0,0,238.68,216.74Z"/><path class="cls-2" d="M236.87,330.94s19.74,58.45,42.58,94.06,28.26,40.26,28.26,40.26l7.74,34.45,23.23,12,35.61-3.87s-34.45-29-39.1-40.65-16.64-38.71-16.64-38.71l-12.78-81.29Z"/><path class="cls-2" d="M297.65,303.45l-1.94,143.61-30.19,53-15.1,19L286,522.55l33.29-22.07,1.16-44.9s22.07-40.26,24.78-69.29,1.16-75.48,1.16-75.48Z"/><path class="cls-2" d="M265.13,227.19c-2.71-22.06-5.81-58.06,33.68-59.22s35.61,46.84,33.29,65.42-12,50.71-31.36,50.71C280.55,284.1,267.84,249.26,265.13,227.19Z"/><path class="cls-2" d="M253.52,211.71s-26.33,3.87-29,29.42-5.42,114.58-5.42,114.58,44.13,12.77,67,12.77a171,171,0,0,0,41-5l20.13,22.07-2.32,8.9,12.39-7,9.68-16.64-.78-23.23-10.45-7.74-29.81-.78s-45.67-8.51-57.29-10.06-21.29-3.1-21.29-3.1l8.52-66.19"/><path class="cls-2" d="M331.71,240.74l-3.87,51.1L269.39,257l-10.84-32.52-21.68-8.9-13.93,15.1-3.88,20.51,26.33,18.58,11.22.39s31.74,45.29,44.52,53.42S334.81,344.1,341,343.71s24.39-36.39,26.71-58.06-.39-60.52-5.55-68"/></g><g id="carapace"><circle class="cls-3" cx="299.88" cy="343.22" r="203.28"/><g id="pics-2" data-name="pics"><polygon class="cls-4" points="105.89 289.3 53.9 237.99 123.04 246.74 105.89 289.3"/><polygon class="cls-4" points="395.74 167.41 486.92 99.16 446.98 205.42 395.74 167.41"/><polygon class="cls-4" points="480.24 254.59 554.68 238.54 495.52 294.05 480.24 254.59"/><polygon class="cls-4" points="261.46 145.3 259.94 116.79 279.77 126.16 302.36 28.1 333.21 127.26 354.15 115.69 356.49 149.85 306.08 141.17 261.46 145.3"/><polygon class="cls-4" points="173.24 187.86 115.05 85.39 209.6 163.28 173.24 187.86"/><polygon class="cls-4" points="457.72 218.02 499.04 196.67 470.53 236.41 457.72 218.02"/><polygon class="cls-4" points="137.3 224.43 122.22 198.33 151.34 207.07 137.3 224.43"/></g></g><path class="cls-5" d="M575,25V575H25V25H575M600,0H0V600H600V0Z"/></g></svg>