<svg xmlns="http://www.w3.org/2000/svg" viewBox="0 0 600 600"><defs><style>.cls-1{fill:#b73d59;}.cls-2{fill:#f77578;}.cls-3{fill:#1c161a;stroke:#30272d;}.cls-3,.cls-4,.cls-5,.cls-6,.cls-7,.cls-9{stroke-linecap:round;}.cls-3,.cls-4,.cls-5,.cls-6,.cls-7,.cls-8,.cls-9{stroke-linejoin:round;}.cls-3,.cls-4,.cls-5,.cls-6{stroke-width:10px;}.cls-4,.cls-9{fill:#30272d;}.cls-4,.cls-5,.cls-8,.cls-9{stroke:#1c161a;}.cls-5{fill:#42393f;}.cls-6{fill:#e8d8c8;}.cls-6,.cls-7{stroke:#edc498;}.cls-7{fill:#fff;}.cls-7,.cls-8,.cls-9{stroke-width:5px;}.cls-8{fill:none;}.cls-10{fill:#602a43;}</style></defs><g id="dessin"><rect class="cls-1" width="600" height="600"/><path class="cls-2" d="M479.58,353.58c0,16.08-.76,31.87-2.23,47.26q-1.34,14.07-3.45,27.67h0c-1.7,11-3.77,21.72-6.17,32.17v0c-13,56.56-36,105-65.5,139.29H192.29c-34.06-39.71-59.53-98.23-70.85-166.42l-.21-1.24q-.48-2.94-.92-5.9a490.4,490.4,0,0,1-5.37-72.86c0-110,40.71-176.78,97.38-209.45a178.37,178.37,0,0,1,41.89-17.39,196.24,196.24,0,0,1,28-5.52,214.81,214.81,0,0,1,26.67-1.64A203.63,203.63,0,0,1,333.6,121q5.88.7,11.58,1.78a152,152,0,0,1,41.23,13.86C443.72,166,479.58,234.47,479.58,353.58Z"/><g id="grunwald"><g id="corps-2" data-name="corps"><polygon class="cls-3" points="225.65 415.06 378.42 398.03 361.39 234.42 236.48 226.16 225.65 415.06"/><polygon class="cls-4" points="190.81 327.1 242.56 471.25 384.87 356.67 190.81 327.1"/><path class="cls-4" d="M494,600H102.36c4.13-83.7,5.29-91.78,5.29-91.78l-24-18.48,37.82-56.16,1-1.41,22.22-33,36.68-9.87,29.05-7.81,17.51-4.71,104.53-28.12h0l39.49-10.62.29-.08,3.12-.83,37.31-10-14.79,44.35,79.54,29.39,5.48,2S487.39,491.64,494,600Z"/><path class="cls-4" d="M482.68,420.74s-13.94,63.49-59.62,92.13-89,39.48-89,39.48"/><path class="cls-4" d="M312.35,466.42s-43.35,5.42-79.74-4.65-84.38-60.38-84.38-60.38,35.61,75.87,67.35,92.9,45.68,17.81,45.68,17.81"/><path class="cls-4" d="M139.71,413.77s3.83,61.88,20.13,85.94,53.42,37.16,53.42,37.16"/><polygon class="cls-5" points="186 383.97 146.68 428.48 115.51 433.2 145.13 391.32 186 383.97"/></g><g id="visage-3" data-name="visage"><polygon class="cls-4" points="286.92 125.65 281.64 133.47 246.32 185.75 243.39 190.07 240.72 194.03 240.49 193.62 228.65 172.83 212.32 144.13 130.27 0 153.16 0 269.74 109.51 282.2 121.22 286.92 125.65"/><polygon class="cls-4" points="448.53 0 386.41 136.68 368.7 175.65 364.54 184.79 356.47 177.04 353.12 173.83 349.95 170.79 318.34 140.43 323.14 134.33 333.6 121.04 337.95 115.51 428.86 0 448.53 0"/><polygon class="cls-6" points="237.01 210.66 268.43 312.31 320.18 314.16 362.69 216.2 349.75 134.88 261.04 133.04 237.01 210.66"/><polygon class="cls-7" points="239.97 207.45 350.29 210.94 353.39 170.29 240.74 186.55 239.97 207.45"/><polyline class="cls-8" points="269.77 206.1 270.94 173.39 326.1 175.32 325.9 207.58"/><path class="cls-4" d="M227.19,348s24.61-44.9,24.61-91.11-2-66.44-2-66.44l37.08,5.45L290,240.1l-12.35,2,17.26,26,19.7-26-12.94-1.85,6-45,37.74-2.13s.61,23.07,4.3,67.43,25.88,85,25.88,85l-7.39-181.12s-11.09-33.27-31.42-49.91a122.49,122.49,0,0,0-40.66-22.17S274,99.77,253.65,127.49s-25.88,48.05-25.88,48.05Z"/><path class="cls-9" d="M273.77,284.74s5,1.29,19.88,1.68,22.58-.77,22.58-.77"/></g></g><path class="cls-10" d="M575,25V575H25V25H575M600,0H0V600H600V0Z"/></g></svg>