<svg xmlns="http://www.w3.org/2000/svg" xmlns:xlink="http://www.w3.org/1999/xlink" viewBox="0 0 600 600"><defs><style>.cls-1{fill:#492c58;}.cls-2{fill:#ffeed2;stroke:#e5ceac;}.cls-10,.cls-11,.cls-2,.cls-3,.cls-5,.cls-6,.cls-7,.cls-8,.cls-9{stroke-linecap:round;stroke-linejoin:round;}.cls-10,.cls-11,.cls-2,.cls-3,.cls-4,.cls-5,.cls-6{stroke-width:10px;}.cls-3,.cls-8{fill:#3a3a3a;}.cls-3,.cls-8,.cls-9{stroke:#111;}.cls-4{fill:#38151e;stroke:#260b13;stroke-miterlimit:10;}.cls-5{fill:#e3d64c;stroke:#cebb36;}.cls-10,.cls-6{stroke:#775347;}.cls-6{fill:url(#Dégradé_sans_nom_3);}.cls-7{fill:#7bb758;stroke:#69a542;}.cls-7,.cls-8,.cls-9{stroke-width:5px;}.cls-9{fill:#3a2e2a;}.cls-10{fill:#89675b;}.cls-11{fill:#dbd0be;stroke:#c6b8a5;}.cls-12{fill:#351c44;}</style><radialGradient id="Dégradé_sans_nom_3" cx="-1110.12" cy="185.49" r="128.27" gradientTransform="translate(1150.12 -191.71) rotate(-15.12)" gradientUnits="userSpaceOnUse"><stop offset="0" stop-color="#789b68"/><stop offset="0.33" stop-color="#759765"/><stop offset="0.67" stop-color="#6b8b5c"/><stop offset="1" stop-color="#5b774d"/></radialGradient></defs><g id="dessin"><rect class="cls-1" width="600" height="600"/><g id="yugi"><path class="cls-2" d="M385.13,359.58s53.42,192,20.9,254.71S298.42,738.94,298.42,738.94l478.45-6.2L587.19,343.32Z"/><path class="cls-2" d="M177.74,209.12c3.34,93.89,53.45,185.93,102.44,223.79C397.79,523.8,476.88,537.2,491.73,537.2s112-14,199.3-80.91c71.25-54.56,123.21-145.48,122.47-244.95S800.15-30.23,494-31.38,174.4,115.22,177.74,209.12Z"/><path class="cls-2" d="M451.64,409.16l96.87-9.65s-30.43,33-48.25,33.4S451.64,409.16,451.64,409.16Z"/><path class="cls-2" d="M480.1,322.68s3.09,9.8-1.16,16.45c-3.16,4.93-13.36,4.26-13.36,4.26s1.87,6.32,9.48,11.35a16.61,16.61,0,0,0,12.13,2.65"/><g id="luynettes"><path class="cls-3" d="M411.56,285.38s54-3.89,87.4-4.45,71.82,3.34,71.82,3.34"/><path class="cls-3" d="M239.54,186.85l183.71,70.7s40.08,54.56,7.79,62.35-122.1,9.46-170.9-28.39S239.54,186.85,239.54,186.85Z"/><path class="cls-3" d="M731.31,190.31,547.6,261s-40.09,54.56-7.8,62.35S661.9,332.82,710.71,295,731.31,190.31,731.31,190.31Z"/></g><line class="cls-2" x1="435.5" y1="225.26" x2="455.54" y2="263.12"/><line class="cls-2" x1="482.82" y1="219.14" x2="485.6" y2="260.89"/><line class="cls-2" x1="535.15" y1="226.37" x2="515.66" y2="258.66"/><g id="veuchs-2" data-name="veuchs"><path class="cls-4" d="M202,207.84S186.94,140.48,154.42,101,54.55,38.29,54.55,38.29L242.68-34.87l5.8-91.74L526-98.74,753.65,130,500.48,45.26,340.23,42.94,293.77,206.68Z"/><polygon class="cls-5" points="469.13 27.84 391.32 -26.74 366.94 60.35 69.64 253.13 274.03 1.13 308.87 -144.03 474.94 -53.45 637.52 -152.16 787.32 128.87 610.81 44.1 551.58 -26.74 469.13 27.84"/><polygon class="cls-5" points="485.39 77.77 407.58 23.19 383.19 110.29 85.9 303.06 290.29 51.06 325.13 -94.1 491.19 -3.52 653.77 -102.23 803.58 178.81 627.07 94.03 567.84 23.19 485.39 77.77"/><polygon class="cls-5" points="487.71 147.45 409.9 92.87 385.52 179.97 88.23 372.74 292.61 120.74 327.45 -24.42 493.52 66.16 656.1 -32.55 805.9 248.48 629.39 163.71 570.16 92.87 487.71 147.45"/></g></g><g id="karte"><path class="cls-2" d="M271.55,444.77s19.31,68.64,16.25,130.28-75.21,79-75.21,79L196.17,431.18Z"/><g id="Calque_8" data-name="Calque 8"><polygon class="cls-6" points="-35.13 199.82 230.91 129.39 290.01 353.49 22 421.95 -35.13 199.82"/><g id="lotus"><path class="cls-7" d="M133.21,304.18s2.86,28.1,1.57,46-7.41,40.11-7.41,40.11l15.19-3.64a190.68,190.68,0,0,0,5.27-36.07c.63-18.19-2-46.8-2-46.8Z"/><g id="fleur"><path class="cls-8" d="M134.12,300.7s-7.4,20.47,14,26.24,44.91-4.74,44.91-4.74-11.76-21.31-24.58-24.31S144.66,291.84,134.12,300.7Z"/><path class="cls-8" d="M119.51,265.84S93.46,252.78,89,242.56c-3.63-8.27-5.92-25.77-5.92-25.77s23.12,8.65,29.55,18.35S119.51,265.84,119.51,265.84Z"/><path class="cls-8" d="M143.48,297.71s23.54,3.34,42.41-5.45S218,260.5,218,260.5,193.7,264.74,175.14,273,143.48,297.71,143.48,297.71Z"/><path class="cls-8" d="M147.61,287.35s7.25,11.44-8.89,21.81-58.9,14.52-58.9,14.52,22.05-29.52,32.38-32.31S147.61,287.35,147.61,287.35Z"/><path class="cls-8" d="M93.2,270.64s-8.78-6.87-16.92-19.91-16.4-26.52-16.4-26.52,20.47,7.4,31.35,22S93.2,270.64,93.2,270.64Z"/><path class="cls-8" d="M130.29,298.5s-34,7.35-52.6-1.5a63.55,63.55,0,0,1-26.85-24.16s45.71,3.36,61.5,8.79S130.29,298.5,130.29,298.5Z"/><path class="cls-8" d="M112.63,291.26S92.93,285,82,271.82A213.1,213.1,0,0,1,64.2,247.06s19.65,9.47,30,15.44S112.63,291.26,112.63,291.26Z"/><path class="cls-8" d="M160.93,276.82s24.07-3.26,37-20.17,12.35-27.81,12.35-27.81a53.15,53.15,0,0,1-14.73,10.44c-9,4.28-12.6,2.94-26.52,16.4S160.93,276.82,160.93,276.82Z"/><path class="cls-8" d="M120.6,248.92s-9.24-13.68-9.33-24.28,6.28-10.93,6.41-15.59-2-14.24-2-14.24,21.44.68,23.81,23.14S120.6,248.92,120.6,248.92Z"/><path class="cls-8" d="M130.65,248.51s18-20.57,19.63-31.63,3.15-22.56,3.15-22.56,17.77,12.75,11.74,31.47S130.65,248.51,130.65,248.51Z"/><ellipse class="cls-9" cx="134.88" cy="246.21" rx="22.52" ry="25.2" transform="translate(-121.13 131.01) rotate(-37.06)"/><path class="cls-8" d="M146.39,293.11s-4.75-22.74,3.86-42.16,19.46-23.73,21.39-30.26a53.12,53.12,0,0,0,1.8-13.88s17.76,29.85,8.22,57.83S146.39,293.11,146.39,293.11Z"/><path class="cls-8" d="M147.82,298.38s-27.95,9.4-44.75-15.16S87.3,238.51,87.3,238.51s10.34,9.22,17.45,13.3,29.05,3.24,37.38,20.39S147.82,298.38,147.82,298.38Z"/></g></g><path class="cls-10" d="M236.61,112.14l-284,78.13L58.26,610.42l295-79.68ZM30.74,410.66-25,207.08l250.25-65.45,55.52,202.91Z"/><polygon class="cls-11" points="32.92 437.22 68.04 569.91 325.61 502.48 290.43 366.95 32.92 437.22"/><g id="txt"><polyline class="cls-11" points="52.54 460.18 55.13 453.1 71.63 458.02 81.65 450.04 95.59 451.43 122.58 428.46 150.78 429.21 176.72 425.85 188.56 422.12 190.82 417.07 222.08 409.14 234.51 413.42 258.08 394.9 283.79 396.92"/><polyline class="cls-11" points="62.23 484.89 82.31 482.69 90.51 473.73 108.84 473.55 133.39 477.63 167.91 467.82 196.23 450.84 211.54 442.94 227.53 444.49 242.42 435.28 262.84 425.23 264.67 435.27 284.35 427.4 288.32 420.3"/><polyline class="cls-11" points="65.19 506.87 71.46 500.93 82.78 508.82 92.99 500.13 111.31 501.35 110.03 491.6 132.4 497.78 174.06 475.81 188.73 480.66 207.68 466.18 228.15 476.86 238.81 463.66 268.47 462.59 272.58 450.1 293.68 447.99"/><polyline class="cls-11" points="74.17 537.24 84.7 526.82 113.23 530.66 132.47 518.72 158.37 520.54 205.45 499.06 219.14 500.69 241.15 489.75 262.38 489.28 279.85 475.03 299.02 471.38"/></g></g><path class="cls-2" d="M126.93,631.31s23.56-43.87-4.16-119.6S60.44,397.12,92.07,382.12s89.74,31.32,122.92,125,28.22,120.32,28.22,120.32"/></g><path class="cls-12" d="M575,25V575H25V25H575M600,0H0V600H600V0Z"/></g></svg>