<svg xmlns="http://www.w3.org/2000/svg" viewBox="0 0 600 600"><defs><style>.cls-1{fill:#141416;}.cls-2,.cls-3,.cls-4{fill:#f9f5ed;stroke:#e5dfd3;}.cls-10,.cls-11,.cls-12,.cls-13,.cls-14,.cls-17,.cls-18,.cls-19,.cls-2,.cls-22,.cls-3,.cls-4,.cls-5,.cls-6,.cls-7,.cls-8,.cls-9{stroke-linecap:round;stroke-linejoin:round;}.cls-10,.cls-14,.cls-15,.cls-19,.cls-2,.cls-22,.cls-9{stroke-width:10px;}.cls-17,.cls-3,.cls-5,.cls-6{stroke-width:5px;}.cls-11,.cls-12,.cls-13,.cls-18,.cls-21,.cls-4{stroke-width:7px;}.cls-5,.cls-7{fill:#7f662e;stroke:#705622;}.cls-6,.cls-8{fill:#8ca240;stroke:#77892b;}.cls-7,.cls-8{stroke-width:3px;}.cls-9{fill:#7a7a7a;stroke:#606060;}.cls-10,.cls-14{fill:#606060;}.cls-10{stroke:#7a7a7a;}.cls-11,.cls-16{fill:#d73f32;}.cls-11,.cls-18{stroke:#c42a22;}.cls-12,.cls-17{fill:#ecb127;stroke:#db942c;}.cls-13{fill:#f4c76e;stroke:#ddad58;}.cls-14{stroke:#4f4f4f;}.cls-15,.cls-21{fill:#e8b422;stroke:#cc9919;stroke-miterlimit:10;}.cls-18,.cls-22{fill:none;}.cls-19,.cls-20{fill:#fff0d9;}.cls-19,.cls-22{stroke:#e5d0b5;}.cls-23{fill:#19192d;}</style></defs><g id="dessin"><rect class="cls-1" width="600" height="600"/><g id="étoiles"><path class="cls-2" d="M107.8,115.14s-1.83,11.22-6.48,19.74S83.9,148.43,83.9,148.43a25.81,25.81,0,0,1,16.26,10.92c6.58,9.6,7.74,22,7.74,22s2.71-14.36,10.46-20.73,13.33-10.06,13.33-10.06-9.46-1.34-14.5-12.56S107.8,115.14,107.8,115.14Z"/><path class="cls-3" d="M488.17,241.9a29.78,29.78,0,0,1-2.65,8.09c-1.9,3.48-7.13,5.54-7.13,5.54A10.57,10.57,0,0,1,485,260a21.51,21.51,0,0,1,3.17,9s1.11-5.89,4.28-8.49S498,256.4,498,256.4a8.42,8.42,0,0,1-5.93-5.15C490,246.66,488.17,241.9,488.17,241.9Z"/><path class="cls-3" d="M148,343.62A38.07,38.07,0,0,1,144.6,354c-2.44,4.47-9.13,7.11-9.13,7.11A13.55,13.55,0,0,1,144,366.8a27.73,27.73,0,0,1,4.06,11.53s1.42-7.53,5.48-10.87,7-5.28,7-5.28-5-.7-7.6-6.58S148,343.62,148,343.62Z"/><path class="cls-2" d="M504.84,55.74a50.63,50.63,0,0,1-4.52,13.77C497.08,75.45,488.17,79,488.17,79a18,18,0,0,1,11.34,7.62c4.59,6.69,5.4,15.33,5.4,15.33s1.89-10,7.29-14.46,9.3-7,9.3-7-6.6-.93-10.11-8.76S504.84,55.74,504.84,55.74Z"/><path class="cls-4" d="M360.27,327.64a36.31,36.31,0,0,1-3.24,9.87c-2.32,4.26-8.71,6.78-8.71,6.78a12.88,12.88,0,0,1,8.13,5.46,26.43,26.43,0,0,1,3.87,11s1.36-7.18,5.23-10.37,6.66-5,6.66-5-4.73-.66-7.24-6.28S360.27,327.64,360.27,327.64Z"/><path class="cls-3" d="M252.14,55.74a44.25,44.25,0,0,1-4,12.06c-2.84,5.21-10.65,8.28-10.65,8.28a15.8,15.8,0,0,1,9.94,6.68c4,5.86,4.73,13.43,4.73,13.43s1.66-8.78,6.39-12.67,8.15-6.15,8.15-6.15-5.79-.81-8.86-7.67S252.14,55.74,252.14,55.74Z"/></g><g id="arbre"><path class="cls-5" d="M236.78,439s1.55-23.23-5.81-65.81S218.2,307,218.2,307s19,79.74,28.64,97.16,13.55,24,13.55,24Z"/><path class="cls-6" d="M206.59,267.91s2.32,7-1.94,12.78-12,11.61-12,11.61,8.13,2.06,11.36,1.81a17.57,17.57,0,0,0,6.58-2.33s-1.68,9.16-4,10.71-8.65,4.52-8.65,4.52,4,1.42,6.45,1.16a62.25,62.25,0,0,0,6.2-1.16s-4.78,9.29-10.07,10.19-11.87,2.33-5.16,6.07,16.13-4.39,16.13-4.39-1,9.55-5.68,12.93c-4.36,3.17-11.87,5-11.87,5s7.34,3.07,12.65,1.67a20.75,20.75,0,0,0,8-4.13s5,4.78-6.21,13.94-19.22,8.39-19.22,8.39,13,4.38,21.42-1.42,10.84-11.74,10.84-11.74S220,361.86,210.84,365.2s-19,2.07-19,2.07,6.45,10.32,17.55,9,14.19-15,14.19-15,2.53,10-.9,13.55a69.93,69.93,0,0,1-15.1,11.74s8.77,1.68,12,.13a14.94,14.94,0,0,0,5.11-4.15s.05,4.67-2.53,7.76-7.36,5.17-7.36,5.17,13.68,1.16,16.78-2.46,4.26-10.45,4.26-10.45,5.42,2.2,14.71,2.2,9.8-8.26,0-9.17-10.2-3.87-10.2-3.87,8.78.26,14.2-.25,11.74-4.13,11.74-4.13-9.55,0-14.45-1.16S241.43,359,241.43,359s5.41,2.71,17.16.52,15.35-12.78,15.35-12.78-12.13,6.32-18.84,6.07-17.42-4.39-17.42-4.39,10.46.64,16.13-.52c2.92-.59,5.55-3.87,5.55-3.87s-10.32.65-17.68-2.19a14,14,0,0,1-6.32-5.16,82.54,82.54,0,0,0,10.71,1.42,12.3,12.3,0,0,0,7.36-2.33A50.48,50.48,0,0,1,243,332.43a115.54,115.54,0,0,1-10.71-6.32s2.33.9,9.17.51S255,320.43,255,320.43s-8.25,1.42-14.32.39-11.74-6.33-11.74-6.33a55.62,55.62,0,0,0,7-.25c3.87-.39,7.87-3.62,7.87-3.62a69.76,69.76,0,0,1-10.84-1.29c-4.26-1-14.71-10.58-14.71-10.58s9.55,1.29,13.35,0,5-5.81,5-5.81a65.56,65.56,0,0,1-11.61-.64,18.61,18.61,0,0,1-8.52-3.74s4.78-.13,8-.26a5.4,5.4,0,0,0,4.52-2.71s-8.65-1.68-12.9-6.45S206.59,267.91,206.59,267.91Z"/><path class="cls-7" d="M425.35,455.39S437.8,441,454,409.68s24.29-49.39,24.29-49.39-26.94,61.27-29.22,77.38-3,22.3-3,22.3Z"/><path class="cls-8" d="M490,329.11s-1.92,5.68-7.55,7.37-13.53,1.65-13.53,1.65,4.27,5.35,6.5,6.77a14.36,14.36,0,0,0,5.43,1.73s-5.61,5.14-7.88,5-7.86-1.32-7.86-1.32a16,16,0,0,0,3.63,3.94,49.94,49.94,0,0,0,4.61,2.29s-7.69,3.7-11.58,1.68-8.87-4.33-6.34,1.41,12.66,5.09,12.66,5.09-5.38,5.7-10.07,5.62c-4.4-.09-10.2-2.59-10.2-2.59s3.27,5.62,7.41,7.32a16.91,16.91,0,0,0,7.26,1.26s.91,5.58-10.91,6-16.65-4-16.65-4,6.32,9.27,14.65,9.62,12.84-2.3,12.84-2.3-10,11.24-17.57,8.9a37.17,37.17,0,0,1-13.37-8s-.88,9.9,7,14.53S455,398.33,455,398.33s-3.27,7.76-7.26,8.38a57.11,57.11,0,0,1-15.61.21s4.88,5.41,7.75,6a12.18,12.18,0,0,0,5.37-.18,11.05,11.05,0,0,1-5.47,3.81,18.9,18.9,0,0,1-7.33-.27s8.33,7.5,12.13,6.67,7.92-4.71,7.92-4.71,2.45,4.1,8.5,8.68,10.45-.55,4.51-6-4.73-7.54-4.73-7.54,5.58,4.49,9.37,6.82,9.68,3.1,9.68,3.1-6.22-4.7-8.84-7.88-3.25-9.85-3.25-9.85,2.2,4.44,10.92,8.79a17,17,0,0,0,16.29-.75s-11-1.86-15.25-5.33-9.18-11.44-9.18-11.44,6.49,5.57,10.75,7.61c2.2,1,5.52.21,5.52.21s-7-4.66-10.43-10.14a11.39,11.39,0,0,1-1.57-6.47,68.07,68.07,0,0,0,6.27,6.2,10.07,10.07,0,0,0,5.94,2.11,41,41,0,0,1-5.16-7.33,93.64,93.64,0,0,1-3.85-9.4s1.06,1.74,5.71,4.85,11.87,2.64,11.87,2.64-6.08-3.14-9.52-6.8-4.53-9.9-4.53-9.9a43.8,43.8,0,0,0,4.67,3.26c2.71,1.66,6.9,1.53,6.9,1.53a56.38,56.38,0,0,1-6.42-6.18c-2.27-2.77-4.37-14.14-4.37-14.14s5.58,5.55,8.7,6.58,6.09-1.33,6.09-1.33a53.9,53.9,0,0,1-7.24-6.14,15.2,15.2,0,0,1-3.7-6.63s3.17,2.26,5.33,3.77a4.43,4.43,0,0,0,4.28.46s-4.8-5.35-5.22-10.56S490,329.11,490,329.11Z"/><path class="cls-7" d="M133.55,498.17s-3.44-16.58-16.91-45-21.87-43.92-21.87-43.92,28.86,52.21,39,62.53S148,486,148,486Z"/><path class="cls-8" d="M79,384.11s3,4.43,1.14,9.33A50.68,50.68,0,0,1,74,403.92s6.1-.14,8.31-.95a12.78,12.78,0,0,0,4.16-2.91s.61,6.75-.71,8.29-5.18,4.85-5.18,4.85a14.08,14.08,0,0,0,4.75-.44,44.32,44.32,0,0,0,4.11-2s-1.53,7.44-5.06,9.11-7.87,3.94-2.44,5.26,10.45-6.23,10.45-6.23,1.14,6.9-1.46,10.17c-2.43,3.08-7.35,5.83-7.35,5.83s5.75.73,9.2-1.29a15,15,0,0,0,4.81-4.46s4.45,2.37-1.63,11-11.84,9.63-11.84,9.63,10,.54,14.74-5.17,5.31-10.35,5.31-10.35,2.58,13.13-3.19,17.27a33,33,0,0,1-12.9,5.14s6.54,6,14.07,2.91,7-13.26,7-13.26,3.72,6.51,2,9.67a50.91,50.91,0,0,1-8.29,11.18s6.47-.53,8.43-2.25a10.84,10.84,0,0,0,2.78-3.9,9.83,9.83,0,0,1-.26,5.93,16.78,16.78,0,0,1-4.15,5s9.81-1.85,11.28-5,1-8.16,1-8.16a31.08,31.08,0,0,0,10.74-1.33c6.51-1.81,5.26-7.7-1.79-6.42s-7.9-.73-7.9-.73,6.2-1.53,9.9-2.95,7.43-5.18,7.43-5.18-6.7,1.86-10.36,2-8.74-3-8.74-3,4.33.84,12.13-3a15.14,15.14,0,0,0,8.28-11.95s-7.27,6.8-12,7.93-13.07.32-13.07.32S124,432.9,127.72,431c1.93-1,3.13-3.8,3.13-3.8s-7.11,2.47-12.82,1.91a10.17,10.17,0,0,1-5.44-2.38,58.64,58.64,0,0,0,7.79-1.1,9,9,0,0,0,4.7-3.06,36.29,36.29,0,0,1-8-.31,84.54,84.54,0,0,1-8.74-2.34s1.8.18,6.52-1.43,8.29-7,8.29-7-5.51,2.61-10,3.07-9.46-2.14-9.46-2.14a41,41,0,0,0,4.83-1.54c2.64-1,4.82-4.07,4.82-4.07a51.07,51.07,0,0,1-7.85,1.21c-3.19.11-12.38-4.55-12.38-4.55s7-1,9.36-2.61,2.35-5,2.35-5a47.41,47.41,0,0,1-8.27,1.82,13.55,13.55,0,0,1-6.7-1s3.33-1,5.56-1.75a3.92,3.92,0,0,0,2.64-2.78s-6.39.51-10.31-2S79,384.11,79,384.11Z"/></g><g id="rocaille"><path class="cls-9" d="M490.27,528.84l4.12-22.49s-4.84-14.15-27.67-37.76c-26.27-27.16-55.33-29.89-55.33-29.89l-20,5.68a210.33,210.33,0,0,0-35.18-11.16l-9.86-15.34S337,407.43,289,410.14c-48.7,2.75-65,15.45-65,15.45v21a211.94,211.94,0,0,0-54.57,35.54H132.64s-22.37,27-34.21,63.16-9.87,38.16-9.87,38.16L105,588.18a216.25,216.25,0,0,0-6.85,54.16c0,118.26,95,214.14,212.17,214.14S522.5,760.6,522.5,642.34A214.68,214.68,0,0,0,490.27,528.84Z"/><ellipse class="cls-10" cx="197.36" cy="582.29" rx="74.54" ry="53.68"/><ellipse class="cls-10" cx="444.03" cy="598.29" rx="45.16" ry="55.74"/></g><g id="feu"><path class="cls-11" d="M308.2,499.17c31.94,1.93,55-32.13,55-32.13s-1.94-21.68-9.29-32.13a78.5,78.5,0,0,0-15.1-16.26L337.23,431s-14.71-16.65-20.51-31.74S308.2,361,308.2,361s-11,13.16-16.26,28.25c-3.84,11.11-6.19,26.71-6.19,26.71l-7.36-17.42S274.52,423.69,266,441.1s-17.81,27.1-17.81,27.1S273.37,497.06,308.2,499.17Z"/><path class="cls-12" d="M307.43,499.19c29.2,2.38,42.66-17.5,42.66-17.5s-5.82-19.87-10.93-27.13a54.29,54.29,0,0,0-10.49-11.29l-1.07,8.6s-10.22-11.56-14.25-22-5.92-26.62-5.92-26.62-7.66,9.14-11.29,19.63a126.39,126.39,0,0,0-4.3,18.55l-5.11-12.1s-2.69,17.47-8.61,29.57-16.2,21.69-16.2,21.69S278.59,496.85,307.43,499.19Z"/><path class="cls-13" d="M308.2,499.17c-21.48,0-37.77-11.9-37.77-11.9s15.37-11.22,18.41-15.55,2.33-12.42,2.33-12.42l4.56,10.82s6.08-6.88,8.49-13.13,3.52-15.85,3.52-15.85a42.72,42.72,0,0,1,6.72,11.69A75.83,75.83,0,0,1,317,463.88l3-7.21s1.6,10.41,5.12,17.62S338,490.85,338,490.85,334.79,499.17,308.2,499.17Z"/><g id="kayou"><ellipse class="cls-14" cx="309.87" cy="522.98" rx="10.44" ry="13.74"/><ellipse class="cls-14" cx="356.32" cy="509.23" rx="9.48" ry="13.84" transform="translate(-262.85 563.2) rotate(-60)"/><ellipse class="cls-14" cx="269.91" cy="512.69" rx="13.09" ry="9.92" transform="translate(-269.84 302.05) rotate(-40.92)"/><ellipse class="cls-14" cx="380.62" cy="481.72" rx="7.56" ry="12.61" transform="matrix(0.17, -0.98, 0.98, 0.17, -160.13, 772.43)"/><ellipse class="cls-14" cx="239.1" cy="489.49" rx="13.55" ry="9.29" transform="translate(-68.39 39.8) rotate(-8.33)"/></g></g><g id="vaissal"><circle class="cls-15" cx="309.64" cy="113.17" r="50.62"/><path class="cls-16" d="M302.84,307.07S269,241.78,268.23,234s26.06-31.48,32.25-31.23,35.1,19.1,35.1,26.84S322.42,249.58,316,263.46C309.4,277.59,302.84,307.07,302.84,307.07Z"/><path class="cls-17" d="M300,270s-21.26-47.12-21.27-51.69c0-3,18.66-14.62,22.3-14.47S324.46,214,324.46,216.5c0,4.55-10.5,13.81-14.29,22S300,270,300,270Z"/><path class="cls-18" d="M302.84,307.07S269,241.78,268.23,234s26.06-31.48,32.25-31.23,35.1,19.1,35.1,26.84S322.42,249.58,316,263.46C309.4,277.59,302.84,307.07,302.84,307.07Z"/><path class="cls-19" d="M271.06,194.68l17.55-23.49,34.58,1.29,12.39,25s-15.87,6-31.22,5.22S271.06,194.68,271.06,194.68Z"/><path class="cls-20" d="M254.05,115.77s.1,17.08-1.44,27.17-9.46,26.42-9.46,26.42,34.87,10.3,67.92,11.84a138.15,138.15,0,0,0,59.21-10.78s-4.62-6.79-5.39-21.87-.77-36.63-.77-36.63-27.61,13.86-61.53,10.78S254.05,115.77,254.05,115.77Z"/><circle class="cls-21" cx="307.84" cy="152.83" r="10.97"/><circle class="cls-21" cx="263.04" cy="143.13" r="10.9"/><circle class="cls-21" cx="354.42" cy="146.63" r="9.68"/><path class="cls-22" d="M254.05,115.77s.1,17.08-1.44,27.17-9.46,26.42-9.46,26.42,34.87,10.3,67.92,11.84a138.15,138.15,0,0,0,59.21-10.78s-4.62-6.79-5.39-21.87-.77-36.63-.77-36.63-27.61,13.86-61.53,10.78S254.05,115.77,254.05,115.77Z"/></g><path class="cls-23" d="M575,25V575H25V25H575M600,0H0V600H600V0Z"/></g></svg>