<svg xmlns="http://www.w3.org/2000/svg" viewBox="0 0 600 600"><defs><style>.cls-1{fill:#eebf2b;}.cls-2{fill:#efc44b;}.cls-3{fill:#d6a040;}.cls-4{fill:#49698c;stroke:#395a77;stroke-width:10px;}.cls-4,.cls-5,.cls-6{stroke-linecap:round;stroke-linejoin:round;}.cls-5{fill:#c59334;stroke:#b27d28;}.cls-5,.cls-6{stroke-width:7px;}.cls-6{fill:none;stroke:#4f3c1e;}.cls-7{fill:#e8c5bf;stroke:#c4aaa7;stroke-miterlimit:10;stroke-width:5px;}.cls-8{fill:#3a3231;}.cls-9{fill:#c68e34;}</style></defs><g id="dessin"><rect class="cls-1" width="600" height="600"/><circle class="cls-2" cx="326.68" cy="341.39" r="176.13"/><path class="cls-3" d="M7.32,203.19C46,170.68,180,389.77,180,389.77l-37.16-48s22.45-30.19,104.51,35.62S478,592.61,478,592.61L1.9,605.77Z"/><path class="cls-3" d="M599.58,639.06S284.48,305.39,317.77,253.52c16.59-25.85,88.26,68.9,88.26,68.9S281.39,220.23,305.39,183.06,406,226.42,406,226.42,195.45,49.9,231.06,4.23,581.77,214.81,581.77,214.81s-82.06-52.65-76.64-83.62S598,188.48,598,188.48"/><g id="griffon"><path id="aile_back" class="cls-4" d="M339.92,351.68s54.21,4.27,95.18,22.19,57.19,57.2,79,55.92,18.78-63.17,0-113.53-46.52-78.54-46.52-78.54l9.81,22.2s-22.19-30.73-46.52-53.78A383.49,383.49,0,0,0,383,167.73s34.53,28.07,26.46,92.19C401.38,324.36,285,287.06,285,287.06Z"/><g id="patte_back" data-name="patte back"><path class="cls-4" d="M350.29,429.65s34.45,37.41,48.13,45.29,40.39,19.35,40.39,19.35l13.93-25s-25.55-21.29-33.16-38.2-22.32-41.29-22.32-41.29Z"/><g id="patoune"><path class="cls-5" d="M488.61,492.74s7.87,14.58-1.8,20.91c-18.16,11.86-21.55-8.65-21.55-8.65s-12.78,4.52-30.07-7.35-20.64-23.49-20.64-23.49L425,465l31.61-6.06,22.07,7.61Z"/><path class="cls-5" d="M485.52,473.77s19.74-3.22,12.51,17.17-20.26.9-20.26.9"/><path class="cls-5" d="M464.48,459.58s17.81-10.06,21.81,4.26-2.84,19.1-9.55,18.84"/><path class="cls-5" d="M431.71,465.26s15.48-23,30.06-14.45,4.65,20.9-.64,21.8"/><path class="cls-5" d="M416.35,478S405,457,420,454.68,434,471.58,434,471.58"/><path class="cls-6" d="M423.17,468.08s-.44,1.33,1.06,3.76"/><path class="cls-6" d="M458.68,462.42s2.71,3.74,2.84,6.19a22.58,22.58,0,0,1-.65,5.55"/><path class="cls-6" d="M479.58,471.06s2.07,3.49,2.19,6.46a16.82,16.82,0,0,1-.51,4.9"/><path class="cls-6" d="M490.42,488.87a25.77,25.77,0,0,1,0,7.36,9.34,9.34,0,0,1-3.61,5"/><path class="cls-6" d="M479.32,508.61s-.51,4.52-3.35,6.45a9.82,9.82,0,0,1-5.42,1.68"/></g></g><path id="corps-3" data-name="corps" class="cls-4" d="M65.13,57.9S29,81.13,88.35,126.55c24.52,18.76,57.81,38.19,86.71,69.16s-8.77,199.23,120.26,237.42,150.71.52,141.42-55.23S320.1,305.13,307.19,297.39s-55.74-58.33-80-82.58S101.26,125,88.35,104.35,94,83.71,94,83.71l8.78-30.45Z"/><g id="visage-6" data-name="visage"><path class="cls-7" d="M380.87,399.06s-3.75,26,28.84,22.65c30.45-3.1,16.71-26.9,16.71-26.9"/><path class="cls-8" d="M385.65,401.13s4.9,20,21.8,18.45c20.84-1.93,16.78-18.58,16.78-18.58"/><path class="cls-4" d="M375.06,385.65s4.17,16.91,29.94,19.87c24.77,2.83,23.23-22.2,23.23-22.2"/><path class="cls-5" d="M378.94,414.81s17.8,6.71,21.67,13.93,7.74,21.68,7.74,21.68,2.33-13.68,7.23-20.39,15.74-16.26,15.74-16.26-9.55,3.62-14.19-2.06-2.84-7.48-7.23-8.26-3.87,3.87-7.74,7.49S378.94,414.81,378.94,414.81Z"/></g><g id="patte"><path id="patte_1" data-name="patte 1" class="cls-4" d="M228.1,333.39s.25,8.64,2.58,12.77a28.5,28.5,0,0,0,5.67,7s-12.06-4.78-17.54-.78c-11.36,8.29-.91,24.13-.91,24.13l-15.09-9s0,9.48,2.13,13c2.25,3.69,8.32,7.23,8.32,7.23l-20.71-7.61s3.64,8.56,6.19,12.29c2.32,3.38,8.71,5.51,8.71,5.51l-25.93-5.22s4.42,7.78,6.58,10.64c4.16,5.52,8.22,7.36,8.22,7.36l-21.51.64s2.06,5.15,10.58,10.58a61.67,61.67,0,0,0,13.67,6.84l-14.32,1.55s5.81,6.32,12.13,8a63.65,63.65,0,0,0,9.16,1.94l-13,3.93s8.62,8.13,20.49,10.39c11.14,2.12,17.54.64,17.54.64l-10.32,7.75s27.87,10.19,55.61,8a170.37,170.37,0,0,0,48.13-10.84s-36.38-38.33-33.93-60.39,10.71-19.87,10.71-19.87"/><g id="patoune-2" data-name="patoune"><path class="cls-5" d="M352.77,436.56s17.88-.81,16.61,12.56-26,12.24-26,12.24,17.9,8,9.72,20.19-40.68-7.46-40.68-7.46-2.78,8.12-14.74,4.86c0,0-16.07,8.7-16.28-8.12s21.69-25.63,22-25.22S352.77,436.56,352.77,436.56Z"/><path class="cls-5" d="M330.75,442s10.55-26.81,22.86-11.38-8.23,22.28-8.23,22.28"/><path class="cls-5" d="M306.92,452.07s5.14-27.11,19.67-23.45,6.79,21.84,6.79,21.84"/><path class="cls-5" d="M282.13,465.41s8.11-29.26,21.84-25.13,6.75,22.35,6.75,22.35"/><path class="cls-6" d="M302.81,451.58a11.17,11.17,0,0,1,4.32,5.09,13.28,13.28,0,0,1,1.05,6.27"/><path class="cls-6" d="M325.28,438.38s3.55,2.59,4.84,5.9.74,4.86.74,4.86"/><path class="cls-6" d="M347.09,439.92s2.43,3.19,2.25,6.43c-.27,4.78-1.25,6.81-1.25,6.81"/><path class="cls-6" d="M363.75,450.45s1.83,1.79,1.94,6.8-1.08,7.11-1.08,7.11"/><path class="cls-6" d="M345.39,476.17s2.64-.48,3.23-1.37"/></g></g><path class="cls-4" d="M175.06,257.65s1.55,22.7,13.42,36.64,16.52,16,16.52,16l-16.52-7.23s18.58,20.65,37.17,31.49,24.77,15,24.77,15"/><path class="cls-4" d="M258.68,259.19c64.52,62.44,51.09,81,42.32,87.75S-31.39,124-31.39,124s74.84,22.71,104.26,37.16S128.1,190,128.1,190L82.68,150.29S194.68,197.26,258.68,259.19Z"/></g><path class="cls-9" d="M575,25V575H25V25H575M600,0H0V600H600V0Z"/></g></svg>