<svg xmlns="http://www.w3.org/2000/svg" viewBox="0 0 600 600"><defs><style>.cls-1{fill:#f49390;}.cls-2{fill:#f45866;}.cls-3,.cls-5{fill:#ffeed2;stroke:#e5ceac;}.cls-3,.cls-4,.cls-5,.cls-6,.cls-7{stroke-linecap:round;stroke-linejoin:round;}.cls-3,.cls-6{stroke-width:10px;}.cls-4{fill:#ffdd57;stroke:#efc43c;stroke-width:5px;}.cls-5,.cls-7{stroke-width:7px;}.cls-6,.cls-7{fill:#3a3a3a;stroke:#111;}.cls-8{fill:#a2666f;}</style></defs><g id="dessin"><rect class="cls-1" width="600" height="600"/><polygon class="cls-2" points="421.17 90.53 281.27 192.17 334.71 356.63 507.63 356.63 561.07 192.17 421.17 90.53"/><polygon class="cls-2" points="222.44 14.66 83.99 81.33 49.8 231.15 145.6 351.29 299.27 351.29 395.08 231.15 360.88 81.33 222.44 14.66"/><g id="corps-8" data-name="corps"><path class="cls-3" d="M222.44,330c-11.39,0-5.79-3.83-38.75,7.8-17.55,6.18-38.83,3.07-38.83,3.07S40.31,578,36.72,603.68s227.89,32.61,227.89,8.55,15.51-270.51,15.51-270.51S247.62,330,222.44,330ZM194.53,462.18A45.44,45.44,0,1,1,240,416.74,45.43,45.43,0,0,1,194.53,462.18Z"/><path class="cls-4" d="M188.51,442.43c17.18,3.22,26.22-7.53,26.22-7.53s-5.69,1.61-3.81-1.57,11.32-3.63,12.63-18.1S222.12,395,222.12,395s-3.85,9.48-5.44,4.65,3.91-11.68-1.08-25.42-13.31-21.05-13.31-21.05-2.51,20.11-5.95,20.29-4.28-1.39-4.28-1.39-5.27,5.58-6.82,12.6S182,398.24,182,398.24s-4.29,3.8-6,.51-.86-11.47-.86-11.47-11.79,12-9.83,22.87,7.1,16.85,4.34,16.89-4.49-2.73-4.49-2.73S169,438.77,188.51,442.43Z"/><path class="cls-3" d="M243.84,336s85.55-5,90.81,21.79c6.85,34.94-20.32,96.23-51.33,136.86s-69,77.52-105.31,58.8-67.9-87.67-67.9-87.67-18.18,18.71-22.45,13.9,14.43-56.14,30.47-53.46,93,77,93,77,14.15-31.83,29.65-55.35,26.5-36.19,26.5-36.19"/><path class="cls-3" d="M207.84,333.26s-30,1.26-42.81,2.33-34.61-8.84-62.94,16.28S75.89,403.2,61.46,431s-71.1,96.76-3.21,102.11,152.37-45.18,167.87-44.51,22.45,3.88,33.15-15.9,24.59-34.22-9.63-36.36-56.71,32.08-56.71,32.08-49.67,1.6-74.27,7.49-34.21,10.15-34.21,10.15l39-78.23"/><path class="cls-3" d="M178,553.42c-36.36-18.71-67.9-87.67-67.9-87.67s-18.18,18.71-22.45,13.9,14.43-56.14,30.47-53.46,93,77,93,77"/></g><path class="cls-3" d="M261.93,351.87s-4.8-11.22-5.34-37.95,10.7-68.43,10.7-68.43l-70.57-2.68S192.44,299,193,315s0,23,0,23"/><path class="cls-3" d="M203.13,293.6c26.47,6.62,89.28-33.68,89.28-99.44s-8-91.95-71.64-91.95-71.63,73.78-67.36,98.9S166.78,284.51,203.13,293.6Z"/><path class="cls-3" d="M174.26,225.71,247.33,215s-.72,39.21-30.3,41.7S174.26,225.71,174.26,225.71Z"/><path class="cls-5" d="M214.54,171.53s8.91,9.63,18.89,8.91,21.38-8.91,21.38-8.91"/><path class="cls-5" d="M165.35,178.42s7.73,5,16.4,4.52c9.26-.54,15-9.09,15-9.09"/><g id="noego"><path class="cls-3" d="M503.25,380.07l-79-38-79.09,37.29,16,304.71,172.95,1.79Zm-73.92,105.4a39.8,39.8,0,1,1,39.79-39.79A39.79,39.79,0,0,1,429.33,485.47Z"/><path class="cls-4" d="M433.87,420.87s-9.67,3.54-11.78,9.86-2.52,17-2.52,17-1.05,2.11-2.74,1.48-4.83-2.32-4.83-2.32,1.57,8.92,3.78,13.42,7.56,10.14,14.4,10.14,12.95-3.55,15.05-9.65,1.26-13.49,1.26-13.49l-5.54.38.5-13.32s-3.79,9.67-7.44,7C429.88,438.4,433.87,420.87,433.87,420.87Z"/><path class="cls-3" d="M355.46,437.08s4,96.61,5.55,151.46S327,668.12,327,668.12,312.17,591,307.87,560.58s-3.06-160.35,11.47-175.66c13.26-14,73.6-28.29,73.6-28.29"/><path class="cls-3" d="M454.5,356.63s61.24,14,66.3,21.91c24.33,38.2,30.52,43.92,52.72,104.57,10,27.23,31.44-125.87,36.2-110.76,14.45,45.84,46.58,31.74,46.58,31.74S594.16,548,575.06,538.73C533,518.24,505.9,443,505.9,443"/><g id="tete-7" data-name="tete"><path class="cls-3" d="M391.41,363.31c3.76-8.33,7.94-34.91,7.26-44.09-.78-10.49-.78-44.8-.78-44.8l51.29,46.41s1.81,16.94,5,27.16A125.5,125.5,0,0,0,462,366.81"/><path class="cls-3" d="M457.29,340.14c-34.23,2.41-79-50.76-79.89-89.72-1.33-58.77,30.18-81.3,63.41-81.3,38,0,57.66,39.88,57.61,87.75C498.4,279.65,490.71,337.79,457.29,340.14Z"/><path class="cls-3" d="M464.52,305.66s-17.07,1-20.92-1.35a30,30,0,0,1-7.06-6.58"/><line class="cls-6" x1="446.66" y1="235.93" x2="463.71" y2="235.93"/><path class="cls-7" d="M412,232.61h37.83s.08,22.25-20.5,22.35S412,232.61,412,232.61Z"/><path class="cls-7" d="M459.84,232.61H490s1.94,21.29-15.09,20.91S459.84,232.61,459.84,232.61Z"/><path class="cls-7" d="M412,237s-10.61.52-17.32,0-9.55,6.07-9.55,6.07"/></g></g><path class="cls-8" d="M575,25V575H25V25H575M600,0H0V600H600V0Z"/></g></svg>