<svg xmlns="http://www.w3.org/2000/svg" viewBox="0 0 600 600"><defs><style>.cls-1{fill:#1c2541;}.cls-2{fill:#9e9e9e;stroke:#5d5d5d;}.cls-2,.cls-3,.cls-4,.cls-5,.cls-6{stroke-linecap:round;stroke-linejoin:round;stroke-width:10px;}.cls-3{fill:#e3d8ad;stroke:#beb881;}.cls-4{fill:#507a28;}.cls-4,.cls-5{stroke:#2e4615;}.cls-5,.cls-6{fill:none;}.cls-6{stroke:#b6bb92;}.cls-7{fill:#0b132b;}</style></defs><g id="dessin"><rect class="cls-1" width="600" height="600"/><g id="un_truca" data-name="un truca"><g id="muret"><polygon class="cls-2" points="304.36 360.7 301.96 268.73 267.54 248.98 266.98 343.21 304.36 360.7"/><polygon class="cls-2" points="340.89 250.4 342.58 342.64 304.36 360.7 301.96 268.73 340.89 250.4"/><polygon class="cls-2" points="304.21 231.21 267.54 248.98 301.96 268.73 340.89 250.4 304.21 231.21"/></g><g id="sable"><polygon class="cls-3" points="304.07 130 230.44 166.4 303.23 202.79 375.59 166.4 304.07 130"/><path class="cls-3" d="M230.44,255.68c1.27.85,72.79,36.4,72.79,36.4V202.79L230.44,166.4Z"/><polygon class="cls-3" points="377.7 255.26 375.59 166.4 303.23 202.79 303.23 292.08 377.7 255.26"/></g><g id="cactu"><path class="cls-4" d="M239.75,164.92s63.48,33.43,63.48,31.73.42-89.71.42-89.71L240.18,75.63Z"/><polygon class="cls-4" points="366.28 76.47 303.65 106.94 303.23 196.65 367.13 164.91 366.28 76.47"/><polygon class="cls-4" points="304.92 44.31 240.18 75.63 303.65 106.94 366.28 76.47 304.92 44.31"/><polyline class="cls-5" points="259.22 172.96 259.64 84.94 272.34 78.59"/><polyline class="cls-5" points="281.64 183.96 282.49 96.36 293.07 90.86"/><polyline class="cls-5" points="323.96 183.53 323.96 95.94 309.57 88.75"/><polyline class="cls-5" points="347.24 172.11 345.97 84.09 329.04 76.47"/><g id="pics-3" data-name="pics"><line class="cls-6" x1="239.33" y1="111.17" x2="234.25" y2="109.06"/><line class="cls-6" x1="243.14" y1="90.44" x2="234.25" y2="86.21"/><line class="cls-6" x1="241.44" y1="145.87" x2="234.25" y2="141.64"/><line class="cls-6" x1="302.38" y1="142.06" x2="296.46" y2="144.18"/><line class="cls-6" x1="299.42" y1="162.8" x2="305.77" y2="166.18"/><line class="cls-6" x1="305.77" y1="118.79" x2="296.88" y2="121.75"/><line class="cls-6" x1="265.71" y1="125" x2="268.95" y2="123.3"/><line class="cls-6" x1="330.73" y1="126.41" x2="333.69" y2="128.1"/><line class="cls-6" x1="365.01" y1="106.52" x2="372.2" y2="105.25"/><line class="cls-6" x1="364.16" y1="136.14" x2="372.2" y2="131.91"/><line class="cls-6" x1="294.55" y1="76.05" x2="294.55" y2="76.05"/><line class="cls-6" x1="316.98" y1="68.65" x2="316.98" y2="68.65"/><line class="cls-6" x1="335.39" y1="59.83" x2="339.2" y2="58.14"/><line class="cls-6" x1="302.8" y1="92.27" x2="302.8" y2="92.27"/><line class="cls-6" x1="327.35" y1="86.35" x2="327.35" y2="86.35"/><line class="cls-6" x1="271.03" y1="70.9" x2="271.03" y2="70.9"/><line class="cls-6" x1="303.23" y1="54.75" x2="303.23" y2="54.75"/><line class="cls-6" x1="272.55" y1="59.34" x2="268.1" y2="55.95"/></g></g></g><g id="un_trucc" data-name="un trucc"><g id="muret-2" data-name="muret"><polygon class="cls-2" points="460.27 437.94 457.88 345.98 423.46 326.23 422.89 420.45 460.27 437.94"/><polygon class="cls-2" points="496.81 327.64 498.5 419.89 460.27 437.94 457.88 345.98 496.81 327.64"/><polygon class="cls-2" points="460.13 308.46 423.46 326.23 457.88 345.98 496.81 327.64 460.13 308.46"/></g><g id="sable-2" data-name="sable"><polygon class="cls-3" points="459.99 207.25 386.36 243.64 459.14 280.03 531.51 243.64 459.99 207.25"/><path class="cls-3" d="M386.36,332.93c1.27.85,72.79,36.39,72.79,36.39V280l-72.79-36.39Z"/><polygon class="cls-3" points="533.62 332.51 531.51 243.64 459.14 280.03 459.14 369.32 533.62 332.51"/></g><g id="cactu-2" data-name="cactu"><path class="cls-4" d="M395.67,242.16s63.48,33.43,63.48,31.74.42-89.71.42-89.71l-63.48-31.32Z"/><polygon class="cls-4" points="522.2 153.72 459.57 184.19 459.14 273.9 523.04 242.16 522.2 153.72"/><polygon class="cls-4" points="460.84 121.56 396.09 152.87 459.57 184.19 522.2 153.72 460.84 121.56"/><polyline class="cls-5" points="415.14 250.2 415.56 162.18 428.25 155.83"/><polyline class="cls-5" points="437.56 261.2 438.41 173.61 448.99 168.11"/><polyline class="cls-5" points="479.88 260.78 479.88 173.18 465.49 165.99"/><polyline class="cls-5" points="503.15 249.35 501.88 161.34 484.96 153.72"/><g id="pics-4" data-name="pics"><line class="cls-6" x1="395.25" y1="188.42" x2="390.17" y2="186.3"/><line class="cls-6" x1="399.06" y1="167.68" x2="390.17" y2="163.45"/><line class="cls-6" x1="397.36" y1="223.12" x2="390.17" y2="218.89"/><line class="cls-6" x1="458.3" y1="219.31" x2="452.37" y2="221.43"/><line class="cls-6" x1="455.34" y1="240.04" x2="461.68" y2="243.43"/><line class="cls-6" x1="461.68" y1="196.04" x2="452.8" y2="199"/><line class="cls-6" x1="421.62" y1="202.24" x2="424.87" y2="200.55"/><line class="cls-6" x1="486.65" y1="203.65" x2="489.61" y2="205.34"/><line class="cls-6" x1="520.93" y1="183.76" x2="528.12" y2="182.49"/><line class="cls-6" x1="520.08" y1="213.38" x2="528.12" y2="209.15"/><line class="cls-6" x1="450.47" y1="153.3" x2="450.47" y2="153.3"/><line class="cls-6" x1="472.9" y1="145.89" x2="472.9" y2="145.89"/><line class="cls-6" x1="491.31" y1="137.07" x2="495.11" y2="135.38"/><line class="cls-6" x1="458.72" y1="169.52" x2="458.72" y2="169.52"/><line class="cls-6" x1="483.27" y1="163.59" x2="483.27" y2="163.59"/><line class="cls-6" x1="426.95" y1="148.15" x2="426.95" y2="148.15"/><line class="cls-6" x1="459.15" y1="132" x2="459.15" y2="132"/><line class="cls-6" x1="428.47" y1="136.58" x2="424.02" y2="133.2"/></g></g></g><polygon class="cls-2" points="620.53 519.24 618.13 427.27 583.72 407.52 583.15 501.75 620.53 519.24"/><polygon class="cls-2" points="620.39 389.75 583.72 407.52 618.13 427.27 657.07 408.93 620.39 389.75"/><polygon class="cls-3" points="620.25 288.54 546.62 324.93 619.4 361.32 691.76 324.93 620.25 288.54"/><path class="cls-3" d="M546.62,414.22c1.27.85,72.78,36.39,72.78,36.39V361.32l-72.78-36.39Z"/><path class="cls-4" d="M555.93,323.45s63.47,33.43,63.47,31.74.43-89.71.43-89.71l-63.48-31.32Z"/><polygon class="cls-4" points="621.1 202.85 556.35 234.16 619.83 265.48 682.46 235.01 621.1 202.85"/><polyline class="cls-5" points="575.39 331.49 575.82 243.47 588.51 237.13"/><polyline class="cls-5" points="597.82 342.49 598.67 254.9 609.25 249.4"/><line class="cls-6" x1="555.51" y1="269.71" x2="550.43" y2="267.59"/><line class="cls-6" x1="559.31" y1="248.97" x2="550.43" y2="244.74"/><line class="cls-6" x1="557.62" y1="304.41" x2="550.43" y2="300.18"/><line class="cls-6" x1="581.88" y1="283.53" x2="585.13" y2="281.84"/><line class="cls-6" x1="587.21" y1="229.44" x2="587.21" y2="229.44"/><line class="cls-6" x1="588.72" y1="217.87" x2="584.28" y2="214.49"/><g id="ligne_2" data-name="ligne 2"><g id="un_truca-2" data-name="un truca"><g id="muret-3" data-name="muret"><polygon class="cls-2" points="149.06 441.37 146.66 349.4 112.24 329.65 111.68 423.88 149.06 441.37"/><polygon class="cls-2" points="185.59 331.06 187.28 423.31 149.06 441.37 146.66 349.4 185.59 331.06"/><polygon class="cls-2" points="148.92 311.88 112.24 329.65 146.66 349.4 185.59 331.06 148.92 311.88"/></g><g id="sable-3" data-name="sable"><polygon class="cls-3" points="148.78 210.67 75.14 247.06 147.93 283.46 220.29 247.06 148.78 210.67"/><path class="cls-3" d="M75.14,336.35c1.27.85,72.79,36.39,72.79,36.39V283.46l-72.79-36.4Z"/><polygon class="cls-3" points="222.41 335.93 220.29 247.06 147.93 283.46 147.93 372.74 222.41 335.93"/></g><g id="cactu-3" data-name="cactu"><path class="cls-4" d="M84.45,245.58s63.48,33.43,63.48,31.74.42-89.71.42-89.71L84.88,156.29Z"/><polygon class="cls-4" points="210.98 157.14 148.35 187.61 147.93 277.32 211.83 245.58 210.98 157.14"/><polygon class="cls-4" points="149.62 124.98 84.88 156.29 148.35 187.61 210.98 157.14 149.62 124.98"/><polyline class="cls-5" points="103.92 253.62 104.34 165.6 117.04 159.26"/><polyline class="cls-5" points="126.35 264.63 127.19 177.03 137.77 171.53"/><polyline class="cls-5" points="168.66 264.2 168.66 176.61 154.28 169.41"/><polyline class="cls-5" points="191.94 252.78 190.67 164.76 173.74 157.14"/><g id="pics-5" data-name="pics"><line class="cls-6" x1="84.03" y1="191.84" x2="78.95" y2="189.72"/><line class="cls-6" x1="87.84" y1="171.1" x2="78.95" y2="166.87"/><line class="cls-6" x1="86.15" y1="226.54" x2="78.95" y2="222.31"/><line class="cls-6" x1="147.08" y1="222.73" x2="141.16" y2="224.85"/><line class="cls-6" x1="144.12" y1="243.47" x2="150.47" y2="246.85"/><line class="cls-6" x1="150.47" y1="199.46" x2="141.58" y2="202.42"/><line class="cls-6" x1="110.41" y1="205.66" x2="113.65" y2="203.97"/><line class="cls-6" x1="175.43" y1="207.07" x2="178.4" y2="208.77"/><line class="cls-6" x1="209.71" y1="187.19" x2="216.9" y2="185.92"/><line class="cls-6" x1="208.86" y1="216.81" x2="216.9" y2="212.58"/><line class="cls-6" x1="139.25" y1="156.72" x2="139.25" y2="156.72"/><line class="cls-6" x1="161.68" y1="149.31" x2="161.68" y2="149.31"/><line class="cls-6" x1="180.09" y1="140.5" x2="183.9" y2="138.8"/><line class="cls-6" x1="147.51" y1="172.94" x2="147.51" y2="172.94"/><line class="cls-6" x1="172.05" y1="167.01" x2="172.05" y2="167.01"/><line class="cls-6" x1="115.73" y1="151.57" x2="115.73" y2="151.57"/><line class="cls-6" x1="147.93" y1="135.42" x2="147.93" y2="135.42"/><line class="cls-6" x1="117.25" y1="140" x2="112.81" y2="136.62"/></g></g></g><g id="un_trucc-2" data-name="un trucc"><g id="muret-4" data-name="muret"><polygon class="cls-2" points="304.98 518.61 302.58 426.64 268.16 406.9 267.6 501.12 304.98 518.61"/><polygon class="cls-2" points="341.51 408.31 343.2 500.56 304.98 518.61 302.58 426.64 341.51 408.31"/><polygon class="cls-2" points="304.83 389.12 268.16 406.9 302.58 426.64 341.51 408.31 304.83 389.12"/></g><g id="sable-4" data-name="sable"><polygon class="cls-3" points="304.69 287.92 231.06 324.31 303.85 360.7 376.21 324.31 304.69 287.92"/><path class="cls-3" d="M231.06,413.6c1.27.84,72.79,36.39,72.79,36.39V360.7l-72.79-36.39Z"/><polygon class="cls-3" points="378.32 413.17 376.21 324.31 303.85 360.7 303.85 449.99 378.32 413.17"/></g><g id="cactu-4" data-name="cactu"><path class="cls-4" d="M240.37,322.83s63.48,33.43,63.48,31.73.42-89.71.42-89.71L240.8,233.54Z"/><polygon class="cls-4" points="366.9 234.39 304.27 264.85 303.85 354.56 367.75 322.83 366.9 234.39"/><polygon class="cls-4" points="305.54 202.22 240.79 233.54 304.27 264.85 366.9 234.39 305.54 202.22"/><polyline class="cls-5" points="259.84 330.87 260.26 242.85 272.96 236.5"/><polyline class="cls-5" points="282.27 341.87 283.11 254.27 293.69 248.77"/><polyline class="cls-5" points="324.58 341.45 324.58 253.85 310.19 246.66"/><polyline class="cls-5" points="347.86 330.02 346.59 242 329.66 234.39"/><g id="pics-6" data-name="pics"><line class="cls-6" x1="239.95" y1="269.09" x2="234.87" y2="266.97"/><line class="cls-6" x1="243.76" y1="248.35" x2="234.87" y2="244.12"/><line class="cls-6" x1="242.06" y1="303.78" x2="234.87" y2="299.55"/><line class="cls-6" x1="303" y1="299.98" x2="297.08" y2="302.09"/><line class="cls-6" x1="300.04" y1="320.71" x2="306.39" y2="324.1"/><line class="cls-6" x1="306.39" y1="276.7" x2="297.5" y2="279.66"/><line class="cls-6" x1="266.33" y1="282.91" x2="269.57" y2="281.22"/><line class="cls-6" x1="331.35" y1="284.32" x2="334.32" y2="286.01"/><line class="cls-6" x1="365.63" y1="264.43" x2="372.82" y2="263.16"/><line class="cls-6" x1="364.78" y1="294.05" x2="372.82" y2="289.82"/><line class="cls-6" x1="295.17" y1="233.96" x2="295.17" y2="233.96"/><line class="cls-6" x1="317.6" y1="226.56" x2="317.6" y2="226.56"/><line class="cls-6" x1="336.01" y1="217.74" x2="339.82" y2="216.05"/><line class="cls-6" x1="303.42" y1="250.18" x2="303.42" y2="250.18"/><line class="cls-6" x1="327.97" y1="244.26" x2="327.97" y2="244.26"/><line class="cls-6" x1="271.65" y1="228.81" x2="271.65" y2="228.81"/><line class="cls-6" x1="303.85" y1="212.66" x2="303.85" y2="212.66"/><line class="cls-6" x1="273.17" y1="217.25" x2="268.72" y2="213.86"/></g></g></g><g id="un_trucd" data-name="un trucd"><g id="muret-5" data-name="muret"><polygon class="cls-2" points="465.23 599.9 462.84 507.93 428.42 488.19 427.85 582.41 465.23 599.9"/><polygon class="cls-2" points="501.77 489.6 503.46 581.85 465.23 599.9 462.84 507.93 501.77 489.6"/><polygon class="cls-2" points="465.09 470.41 428.42 488.19 462.84 507.93 501.77 489.6 465.09 470.41"/></g><g id="sable-5" data-name="sable"><polygon class="cls-3" points="464.95 369.21 391.32 405.6 464.11 441.99 536.47 405.6 464.95 369.21"/><path class="cls-3" d="M391.32,494.89c1.27.84,72.79,36.39,72.79,36.39V442L391.32,405.6Z"/><polygon class="cls-3" points="538.58 494.46 536.47 405.6 464.11 441.99 464.11 531.28 538.58 494.46"/></g><g id="cactu-5" data-name="cactu"><path class="cls-4" d="M400.63,404.12s63.48,33.43,63.48,31.73.42-89.71.42-89.71l-63.48-31.31Z"/><polygon class="cls-4" points="527.16 315.68 464.53 346.14 464.11 435.86 528 404.12 527.16 315.68"/><polygon class="cls-4" points="465.8 283.51 401.05 314.83 464.53 346.14 527.16 315.68 465.8 283.51"/><polyline class="cls-5" points="420.1 412.16 420.52 324.14 433.21 317.79"/><polyline class="cls-5" points="442.52 423.16 443.37 335.56 453.95 330.06"/><polyline class="cls-5" points="484.84 422.74 484.84 335.14 470.45 327.95"/><polyline class="cls-5" points="508.11 411.31 506.85 323.29 489.92 315.68"/><g id="pics-7" data-name="pics"><line class="cls-6" x1="400.21" y1="350.38" x2="395.13" y2="348.26"/><line class="cls-6" x1="404.02" y1="329.64" x2="395.13" y2="325.41"/><line class="cls-6" x1="402.32" y1="385.08" x2="395.13" y2="380.84"/><line class="cls-6" x1="463.26" y1="381.27" x2="457.33" y2="383.38"/><line class="cls-6" x1="460.3" y1="402" x2="466.64" y2="405.39"/><line class="cls-6" x1="466.64" y1="357.99" x2="457.76" y2="360.95"/><line class="cls-6" x1="426.58" y1="364.2" x2="429.83" y2="362.51"/><line class="cls-6" x1="491.61" y1="365.61" x2="494.57" y2="367.3"/><line class="cls-6" x1="525.89" y1="345.72" x2="533.08" y2="344.45"/><line class="cls-6" x1="525.04" y1="375.34" x2="533.08" y2="371.11"/><line class="cls-6" x1="455.43" y1="315.25" x2="455.43" y2="315.25"/><line class="cls-6" x1="477.86" y1="307.85" x2="477.86" y2="307.85"/><line class="cls-6" x1="496.27" y1="299.03" x2="500.07" y2="297.34"/><line class="cls-6" x1="463.68" y1="331.47" x2="463.68" y2="331.47"/><line class="cls-6" x1="488.23" y1="325.55" x2="488.23" y2="325.55"/><line class="cls-6" x1="431.91" y1="310.1" x2="431.91" y2="310.1"/><line class="cls-6" x1="464.11" y1="293.95" x2="464.11" y2="293.95"/><line class="cls-6" x1="433.43" y1="298.54" x2="428.98" y2="295.15"/></g></g></g></g><polygon class="cls-2" points="31.37 408.18 33.07 500.43 -5.16 518.49 -7.56 426.52 31.37 408.18"/><polygon class="cls-2" points="-5.3 389 -41.98 406.77 -7.56 426.52 31.37 408.18 -5.3 389"/><polygon class="cls-3" points="-5.44 287.79 -79.07 324.18 -6.29 360.57 66.07 324.18 -5.44 287.79"/><polygon class="cls-3" points="68.19 413.05 66.07 324.18 -6.29 360.57 -6.29 449.86 68.19 413.05"/><polygon class="cls-4" points="56.76 234.26 -5.87 264.73 -6.29 354.44 57.61 322.7 56.76 234.26"/><polygon class="cls-4" points="-4.6 202.1 -69.34 233.41 -5.87 264.73 56.76 234.26 -4.6 202.1"/><polyline class="cls-5" points="14.45 341.32 14.45 253.73 0.06 246.53"/><polyline class="cls-5" points="37.72 329.89 36.45 241.88 19.52 234.26"/><line class="cls-6" x1="21.22" y1="284.19" x2="24.18" y2="285.89"/><line class="cls-6" x1="55.49" y1="264.3" x2="62.69" y2="263.04"/><line class="cls-6" x1="54.65" y1="293.93" x2="62.69" y2="289.69"/><line class="cls-6" x1="7.46" y1="226.43" x2="7.46" y2="226.43"/><line class="cls-6" x1="25.87" y1="217.62" x2="29.68" y2="215.92"/><line class="cls-6" x1="17.83" y1="244.13" x2="17.83" y2="244.13"/><g id="un_trucc-3" data-name="un trucc"><g id="muret-6" data-name="muret"><polygon class="cls-2" points="150.76 595.73 148.36 503.76 113.94 484.02 113.38 578.24 150.76 595.73"/><polygon class="cls-2" points="187.29 485.43 188.98 577.68 150.76 595.73 148.36 503.76 187.29 485.43"/><polygon class="cls-2" points="150.62 466.24 113.94 484.02 148.36 503.76 187.29 485.43 150.62 466.24"/></g><g id="sable-6" data-name="sable"><polygon class="cls-3" points="150.48 365.04 76.84 401.43 149.63 437.82 221.99 401.43 150.48 365.04"/><path class="cls-3" d="M76.85,490.72c1.26.84,72.78,36.39,72.78,36.39V437.82L76.85,401.43Z"/><polygon class="cls-3" points="224.11 490.29 221.99 401.43 149.63 437.82 149.63 527.11 224.11 490.29"/></g><g id="cactu-6" data-name="cactu"><path class="cls-4" d="M86.16,400s63.47,33.43,63.47,31.73.42-89.71.42-89.71L86.58,310.66Z"/><polygon class="cls-4" points="212.68 311.5 150.05 341.97 149.63 431.68 213.53 399.95 212.68 311.5"/><polygon class="cls-4" points="151.32 279.34 86.58 310.66 150.05 341.97 212.68 311.5 151.32 279.34"/><polyline class="cls-5" points="105.62 407.99 106.04 319.97 118.74 313.62"/><polyline class="cls-5" points="128.05 418.99 128.9 331.39 139.47 325.89"/><polyline class="cls-5" points="170.37 418.57 170.37 330.97 155.98 323.78"/><polyline class="cls-5" points="193.64 407.14 192.37 319.12 175.44 311.5"/><g id="pics-8" data-name="pics"><line class="cls-6" x1="85.73" y1="346.2" x2="80.65" y2="344.09"/><line class="cls-6" x1="89.54" y1="325.47" x2="80.65" y2="321.24"/><line class="cls-6" x1="87.85" y1="380.9" x2="80.65" y2="376.67"/><line class="cls-6" x1="148.78" y1="377.1" x2="142.86" y2="379.21"/><line class="cls-6" x1="145.82" y1="397.83" x2="152.17" y2="401.22"/><line class="cls-6" x1="152.17" y1="353.82" x2="143.28" y2="356.78"/><line class="cls-6" x1="112.11" y1="360.03" x2="115.35" y2="358.34"/><line class="cls-6" x1="177.14" y1="361.44" x2="180.1" y2="363.13"/><line class="cls-6" x1="211.41" y1="341.55" x2="218.61" y2="340.28"/><line class="cls-6" x1="210.57" y1="371.17" x2="218.61" y2="366.94"/><line class="cls-6" x1="140.96" y1="311.08" x2="140.96" y2="311.08"/><line class="cls-6" x1="163.38" y1="303.68" x2="163.38" y2="303.68"/><line class="cls-6" x1="181.79" y1="294.86" x2="185.6" y2="293.17"/><line class="cls-6" x1="149.21" y1="327.3" x2="149.21" y2="327.3"/><line class="cls-6" x1="173.75" y1="321.38" x2="173.75" y2="321.38"/><line class="cls-6" x1="117.43" y1="305.93" x2="117.43" y2="305.93"/><line class="cls-6" x1="149.63" y1="289.78" x2="149.63" y2="289.78"/><line class="cls-6" x1="118.95" y1="294.37" x2="114.51" y2="290.98"/></g></g></g><g id="un_trucd-2" data-name="un trucd"><g id="muret-7" data-name="muret"><polygon class="cls-2" points="311.02 677.02 308.62 585.05 274.2 565.31 273.64 659.53 311.02 677.02"/><polygon class="cls-2" points="347.55 566.72 349.24 658.97 311.02 677.02 308.62 585.05 347.55 566.72"/><polygon class="cls-2" points="310.88 547.53 274.2 565.31 308.62 585.05 347.55 566.72 310.88 547.53"/></g><g id="sable-7" data-name="sable"><polygon class="cls-3" points="310.73 446.33 237.1 482.72 309.89 519.11 382.25 482.72 310.73 446.33"/><path class="cls-3" d="M237.1,572c1.27.84,72.79,36.39,72.79,36.39V519.11L237.1,482.72Z"/><polygon class="cls-3" points="384.37 571.58 382.25 482.72 309.89 519.11 309.89 608.4 384.37 571.58"/></g><g id="cactu-7" data-name="cactu"><path class="cls-4" d="M246.41,481.24s63.48,33.43,63.48,31.73.42-89.71.42-89.71L246.84,392Z"/><polygon class="cls-4" points="372.94 392.8 310.31 423.26 309.89 512.97 373.79 481.24 372.94 392.8"/><polygon class="cls-4" points="311.58 360.63 246.84 391.95 310.31 423.26 372.94 392.8 311.58 360.63"/><polyline class="cls-5" points="265.88 489.28 266.3 401.26 279 394.91"/><polyline class="cls-5" points="288.31 500.28 289.15 412.68 299.73 407.18"/><polyline class="cls-5" points="330.62 499.86 330.62 412.26 316.24 405.07"/><polyline class="cls-5" points="353.9 488.43 352.63 400.41 335.7 392.8"/><g id="pics-9" data-name="pics"><line class="cls-6" x1="245.99" y1="427.49" x2="240.91" y2="425.38"/><line class="cls-6" x1="249.8" y1="406.76" x2="240.91" y2="402.53"/><line class="cls-6" x1="248.11" y1="462.19" x2="240.91" y2="457.96"/><line class="cls-6" x1="309.04" y1="458.39" x2="303.12" y2="460.5"/><line class="cls-6" x1="306.08" y1="479.12" x2="312.43" y2="482.51"/><line class="cls-6" x1="312.43" y1="435.11" x2="303.54" y2="438.07"/><line class="cls-6" x1="272.37" y1="441.32" x2="275.61" y2="439.63"/><line class="cls-6" x1="337.39" y1="442.73" x2="340.36" y2="444.42"/><line class="cls-6" x1="371.67" y1="422.84" x2="378.86" y2="421.57"/><line class="cls-6" x1="370.82" y1="452.46" x2="378.86" y2="448.23"/><line class="cls-6" x1="301.21" y1="392.37" x2="301.21" y2="392.37"/><line class="cls-6" x1="323.64" y1="384.97" x2="323.64" y2="384.97"/><line class="cls-6" x1="342.05" y1="376.15" x2="345.86" y2="374.46"/><line class="cls-6" x1="309.46" y1="408.59" x2="309.46" y2="408.59"/><line class="cls-6" x1="334.01" y1="402.67" x2="334.01" y2="402.67"/><line class="cls-6" x1="277.69" y1="387.22" x2="277.69" y2="387.22"/><line class="cls-6" x1="309.89" y1="371.07" x2="309.89" y2="371.07"/><line class="cls-6" x1="279.21" y1="375.66" x2="274.77" y2="372.27"/></g></g></g><polygon class="cls-2" points="299.63 12.39 297.23 -79.58 262.81 -99.33 262.25 -5.1 299.63 12.39"/><polygon class="cls-2" points="336.16 -97.92 337.86 -5.67 299.63 12.39 297.23 -79.58 336.16 -97.92"/><polygon class="cls-2" points="455.55 89.63 453.15 -2.34 418.73 -22.08 418.17 72.14 455.55 89.63"/><polygon class="cls-2" points="492.08 -20.67 493.77 71.58 455.55 89.63 453.15 -2.34 492.08 -20.67"/><path class="cls-3" d="M381.63-15.38C382.9-14.54,454.42,21,454.42,21V-68.28l-72.79-36.39Z"/><polygon class="cls-3" points="528.9 -15.81 526.78 -104.67 454.42 -68.28 454.42 21.01 528.9 -15.81"/><polygon class="cls-2" points="615.8 170.92 613.41 78.95 578.99 59.21 578.43 153.43 615.8 170.92"/><polygon class="cls-2" points="615.66 41.43 578.99 59.21 613.41 78.95 652.34 60.62 615.66 41.43"/><polygon class="cls-3" points="615.52 -59.77 541.89 -23.38 614.68 13.01 687.04 -23.38 615.52 -59.77"/><path class="cls-3" d="M541.89,65.91c1.27.84,72.79,36.39,72.79,36.39V13L541.89-23.38Z"/><path class="cls-4" d="M551.2-24.86S614.68,8.57,614.68,6.88s.42-89.72.42-89.72l-63.47-31.31Z"/><g id="muret-8" data-name="muret"><polygon class="cls-2" points="144.33 93.05 141.93 1.09 107.52 -18.66 106.95 75.56 144.33 93.05"/><polygon class="cls-2" points="180.86 -17.25 182.56 75 144.33 93.05 141.93 1.09 180.86 -17.25"/><polygon class="cls-2" points="144.19 -36.43 107.52 -18.66 141.93 1.09 180.86 -17.25 144.19 -36.43"/></g><path class="cls-3" d="M70.42-12c1.27.85,72.78,36.39,72.78,36.39V-64.86L70.42-101.25Z"/><polygon class="cls-3" points="217.68 -12.38 215.56 -101.25 143.2 -64.86 143.2 24.43 217.68 -12.38"/><g id="muret-9" data-name="muret"><polygon class="cls-2" points="300.25 170.3 297.85 78.33 263.43 58.58 262.87 152.81 300.25 170.3"/><polygon class="cls-2" points="336.78 59.99 338.48 152.24 300.25 170.3 297.85 78.33 336.78 59.99"/><polygon class="cls-2" points="300.11 40.81 263.43 58.58 297.85 78.33 336.78 59.99 300.11 40.81"/></g><g id="sable-8" data-name="sable"><polygon class="cls-3" points="299.97 -60.4 226.34 -24 299.12 12.39 371.48 -24 299.97 -60.4"/><path class="cls-3" d="M226.34,65.28c1.27.85,72.78,36.4,72.78,36.4V12.39L226.34-24Z"/><polygon class="cls-3" points="373.6 64.86 371.48 -24 299.12 12.39 299.12 101.68 373.6 64.86"/></g><path class="cls-4" d="M235.65-25.49S299.12,7.94,299.12,6.25s.42-89.71.42-89.71l-63.47-31.31Z"/><polygon class="cls-4" points="362.17 -113.93 299.54 -83.46 299.12 6.25 363.02 -25.48 362.17 -113.93"/><g id="muret-10" data-name="muret"><polygon class="cls-2" points="460.51 251.59 458.11 159.62 423.69 139.87 423.13 234.1 460.51 251.59"/><polygon class="cls-2" points="497.04 141.28 498.73 233.53 460.51 251.59 458.11 159.62 497.04 141.28"/><polygon class="cls-2" points="460.37 122.1 423.69 139.87 458.11 159.62 497.04 141.28 460.37 122.1"/></g><g id="sable-9" data-name="sable"><polygon class="cls-3" points="460.23 20.89 386.59 57.29 459.38 93.68 531.74 57.29 460.23 20.89"/><path class="cls-3" d="M386.59,146.57c1.27.85,72.79,36.4,72.79,36.4V93.68L386.59,57.29Z"/><polygon class="cls-3" points="533.86 146.15 531.74 57.29 459.38 93.68 459.38 182.97 533.86 146.15"/></g><path class="cls-4" d="M395.9,55.8s63.48,33.44,63.48,31.74.42-89.71.42-89.71L396.33-33.48Z"/><polygon class="cls-4" points="522.43 -32.64 459.8 -2.17 459.38 87.54 523.28 55.8 522.43 -32.64"/><g id="traits"><polyline class="cls-5" points="415.37 63.84 415.79 -24.17 428.49 -30.52"/><polyline class="cls-5" points="437.8 74.85 438.64 -12.75 449.22 -18.25"/><polyline class="cls-5" points="480.11 74.42 480.11 -13.17 465.73 -20.36"/><polyline class="cls-5" points="503.39 63 502.12 -25.02 485.19 -32.64"/></g><line class="cls-6" x1="395.48" y1="2.06" x2="390.4" y2="-0.05"/><line class="cls-6" x1="397.6" y1="36.76" x2="390.4" y2="32.53"/><line class="cls-6" x1="458.53" y1="32.95" x2="452.61" y2="35.07"/><line class="cls-6" x1="455.57" y1="53.69" x2="461.92" y2="57.07"/><line class="cls-6" x1="461.92" y1="9.68" x2="453.03" y2="12.64"/><line class="cls-6" x1="421.86" y1="15.89" x2="425.1" y2="14.19"/><line class="cls-6" x1="486.88" y1="17.3" x2="489.85" y2="18.99"/><line class="cls-6" x1="520.31" y1="27.03" x2="528.35" y2="22.8"/><polygon class="cls-2" points="26.65 59.87 28.34 152.12 -9.89 170.17 -12.28 78.21 26.65 59.87"/><polygon class="cls-2" points="-10.03 40.69 -46.7 58.46 -12.28 78.21 26.65 59.87 -10.03 40.69"/><polygon class="cls-3" points="-10.17 -60.52 -83.8 -24.13 -11.02 12.26 61.35 -24.13 -10.17 -60.52"/><polygon class="cls-3" points="63.46 64.73 61.35 -24.13 -11.02 12.26 -11.02 101.55 63.46 64.73"/><polygon class="cls-4" points="52.04 -114.05 -10.59 -83.58 -11.02 6.13 52.88 -25.61 52.04 -114.05"/><g id="muret-11" data-name="muret"><polygon class="cls-2" points="146.03 247.42 143.63 155.45 109.22 135.7 108.65 229.93 146.03 247.42"/><polygon class="cls-2" points="182.56 137.11 184.26 229.36 146.03 247.42 143.63 155.45 182.56 137.11"/><polygon class="cls-2" points="145.89 117.93 109.22 135.7 143.63 155.45 182.56 137.11 145.89 117.93"/></g><g id="sable-10" data-name="sable"><polygon class="cls-3" points="145.75 16.72 72.12 53.12 144.9 89.51 217.26 53.12 145.75 16.72"/><path class="cls-3" d="M72.12,142.4c1.27.85,72.78,36.4,72.78,36.4V89.51L72.12,53.12Z"/><polygon class="cls-3" points="219.38 141.98 217.26 53.12 144.9 89.51 144.9 178.79 219.38 141.98"/></g><path class="cls-4" d="M81.43,51.63S144.9,85.06,144.9,83.37s.43-89.71.43-89.71L81.85-37.65Z"/><polygon class="cls-4" points="207.96 -36.81 145.33 -6.34 144.9 83.37 208.8 51.63 207.96 -36.81"/><g id="traits-2" data-name="traits"><polyline class="cls-5" points="100.89 59.67 101.32 -28.34 114.01 -34.69"/><polyline class="cls-5" points="123.32 70.68 124.17 -16.92 134.75 -22.42"/><polyline class="cls-5" points="165.64 70.25 165.64 -17.34 151.25 -24.54"/><polyline class="cls-5" points="188.91 58.83 187.64 -29.19 170.72 -36.81"/></g><line class="cls-6" x1="83.12" y1="32.59" x2="75.93" y2="28.36"/><line class="cls-6" x1="144.06" y1="28.78" x2="138.13" y2="30.9"/><line class="cls-6" x1="141.1" y1="49.52" x2="147.44" y2="52.9"/><line class="cls-6" x1="147.44" y1="5.51" x2="138.56" y2="8.47"/><line class="cls-6" x1="107.38" y1="11.72" x2="110.63" y2="10.02"/><line class="cls-6" x1="172.41" y1="13.13" x2="175.37" y2="14.82"/><line class="cls-6" x1="205.84" y1="22.86" x2="213.88" y2="18.63"/><g id="un_trucd-3" data-name="un trucd"><g id="muret-12" data-name="muret"><polygon class="cls-2" points="306.29 328.71 303.89 236.74 269.48 216.99 268.91 311.22 306.29 328.71"/><polygon class="cls-2" points="342.82 218.4 344.52 310.65 306.29 328.71 303.89 236.74 342.82 218.4"/><polygon class="cls-2" points="306.15 199.22 269.48 216.99 303.89 236.74 342.82 218.4 306.15 199.22"/></g><g id="sable-11" data-name="sable"><polygon class="cls-3" points="306.01 98.01 232.38 134.41 305.16 170.8 377.52 134.41 306.01 98.01"/><path class="cls-3" d="M232.38,223.69c1.27.85,72.78,36.4,72.78,36.4V170.8l-72.78-36.39Z"/><polygon class="cls-3" points="379.64 223.27 377.52 134.41 305.16 170.8 305.16 260.09 379.64 223.27"/></g><g id="cactu-8" data-name="cactu"><path class="cls-4" d="M241.69,132.92s63.47,33.43,63.47,31.74.42-89.71.42-89.71L242.11,43.64Z"/><polygon class="cls-4" points="368.21 44.48 305.58 74.95 305.16 164.66 369.06 132.92 368.21 44.48"/><polygon class="cls-4" points="306.85 12.32 242.11 43.64 305.58 74.95 368.21 44.48 306.85 12.32"/><polyline class="cls-5" points="261.15 140.97 261.58 52.95 274.27 46.6"/><polyline class="cls-5" points="283.58 151.97 284.43 64.37 295.01 58.87"/><polyline class="cls-5" points="325.9 151.54 325.9 63.95 311.51 56.76"/><polyline class="cls-5" points="349.17 140.12 347.9 52.1 330.98 44.48"/><g id="pics-10" data-name="pics"><line class="cls-6" x1="241.26" y1="79.18" x2="236.19" y2="77.07"/><line class="cls-6" x1="245.07" y1="58.45" x2="236.19" y2="54.22"/><line class="cls-6" x1="243.38" y1="113.88" x2="236.19" y2="109.65"/><line class="cls-6" x1="304.32" y1="110.07" x2="298.39" y2="112.19"/><line class="cls-6" x1="301.35" y1="130.81" x2="307.7" y2="134.19"/><line class="cls-6" x1="307.7" y1="86.8" x2="298.81" y2="89.76"/><line class="cls-6" x1="267.64" y1="93.01" x2="270.89" y2="91.31"/><line class="cls-6" x1="332.67" y1="94.42" x2="335.63" y2="96.11"/><line class="cls-6" x1="366.94" y1="74.53" x2="374.14" y2="73.26"/><line class="cls-6" x1="366.1" y1="104.15" x2="374.14" y2="99.92"/><line class="cls-6" x1="296.49" y1="44.06" x2="296.49" y2="44.06"/><line class="cls-6" x1="318.91" y1="36.65" x2="318.91" y2="36.65"/><line class="cls-6" x1="337.32" y1="27.84" x2="341.13" y2="26.15"/><line class="cls-6" x1="304.74" y1="60.28" x2="304.74" y2="60.28"/><line class="cls-6" x1="329.28" y1="54.36" x2="329.28" y2="54.36"/><line class="cls-6" x1="272.97" y1="38.91" x2="272.97" y2="38.91"/><line class="cls-6" x1="305.16" y1="22.76" x2="305.16" y2="22.76"/><line class="cls-6" x1="274.48" y1="27.34" x2="270.04" y2="23.96"/></g></g></g><path class="cls-7" d="M575,25V575H25V25H575M600,0H0V600H600V0Z"/></g></svg>