<svg xmlns="http://www.w3.org/2000/svg" xmlns:xlink="http://www.w3.org/1999/xlink" viewBox="0 0 600 600"><defs><style>.cls-1{fill:#0f3344;}.cls-2{fill:#164051;}.cls-3{stroke:#c6721e;fill:url(#Dégradé_sans_nom_5);}.cls-3,.cls-4{stroke-linecap:round;stroke-linejoin:round;}.cls-3,.cls-4,.cls-5{stroke-width:10px;}.cls-4{fill:#dc421c;}.cls-4,.cls-5{stroke:#b5392d;}.cls-5{fill:#fbf885;stroke-miterlimit:10;}.cls-6{fill:#172133;}</style><linearGradient id="Dégradé_sans_nom_5" x1="101.12" y1="108.69" x2="430.18" y2="368.38" gradientUnits="userSpaceOnUse"><stop offset="0" stop-color="#e28c27"/><stop offset="1" stop-color="#f5f468"/></linearGradient></defs><g id="dessin"><rect class="cls-1" width="600" height="600"/><polygon class="cls-2" points="228.74 210.16 384.38 258.33 512.29 157.43 514.58 320.34 650.07 410.81 495.84 463.32 451.66 620.14 354.06 489.69 191.27 496.13 285.18 363 228.74 210.16"/><polygon class="cls-2" points="90.16 374.48 106.94 408.48 144.47 413.94 117.31 440.4 123.72 477.78 90.16 460.13 56.6 477.78 63.01 440.4 35.85 413.94 73.38 408.48 90.16 374.48"/><polygon class="cls-2" points="272.1 105.64 292.5 73.79 277.82 38.93 314.42 48.49 343.04 23.76 345.26 61.52 377.62 81.09 342.4 94.87 333.78 131.7 309.79 102.46 272.1 105.64"/><g id="amu"><path class="cls-3" d="M332.51,491.26c82.06,22.84,142.12,22.84,181-41.45s3.38-86.29,5.07-109.13,6.77-22.83,6.77-22.83,21.15,20.3,35.53-5.93,14.38-55,14.38-55-6.77,38.91-20.3,40.6-24.53-11.84-22.84-26.22,9.3-22,9.3-22l-13.53-8.46s-14.38-43.14-66-82.05S352,130.05,344.36,103,352,62.38,352,62.38s-23.68,14.38-28.76,35.53,3.38,39.76,3.38,39.76-21.14,2.54-40.6,10.15-37.22,22-67.67,22-104,5.08-79.52-27.07,43.14-26.22,43.14-26.22,12.69,71.06,63.45-2.54-66-35.53-66-35.53l11-11S158.26,84.38,127,97.06,65.21,130.9,61,152.89,55.06,185,55.06,185s-11,1.69-11-14.38,12.69-31.3,12.69-31.3S21.22,167.27,24.61,202s17.76,32.14,20.3,47.37-6.77,53.29,20.3,75.28S124.42,340.68,149.8,361,250.46,468.42,332.51,491.26Z"/><g id="visage-5" data-name="visage"><path class="cls-4" d="M447,318.6l-37.43-18.39s8.88-19-8.88-42.51S374,232.2,374,232.2L367.06,264l-49.28-43-9.09.47L290.3,232.32l13.95,10.79s-12.05-1.27-22.84,2.54a166.26,166.26,0,0,0-20.3,8.88l10.79,7-29.19,43.14,43.78,67.25-33,20.3s60.27,50.12,85,55.19,33-14.59,53.29-9.51S425.43,474,425.43,474s46.95-1.9,64.08-42.51-.64-74.23,1.26-99.6,3.81-36.8,3.81-36.8-19.67-3.81-30.45,6.35S447,318.6,447,318.6Z"/><polygon class="cls-4" points="365.09 217.09 357.16 236.59 297.41 182.94 343.14 186.89 365.09 217.09"/><polygon class="cls-4" points="482.61 261.98 460.4 272.76 455.96 283.55 471.19 284.81 482.61 261.98"/><path class="cls-5" d="M384.39,323.14S346.7,358,316.18,340.86C273.79,317,308.68,248,351.7,270.43,380.49,285.45,384.39,323.14,384.39,323.14Z"/><path class="cls-5" d="M444,340.65s18.93-18,27.81-11.68,10.38,84.91-1.67,68.41S444,340.65,444,340.65Z"/><path class="cls-5" d="M415.78,355c38.57,8.94,27.92,81.84,27.92,81.84s-12.69-26-40-33.62-60.91,5.07-60.91,5.07S363.76,343,415.78,355Z"/></g></g><path class="cls-6" d="M575,25V575H25V25H575M600,0H0V600H600V0Z"/></g></svg>