<svg xmlns="http://www.w3.org/2000/svg" xmlns:xlink="http://www.w3.org/1999/xlink" viewBox="0 0 600 600"><defs><style>.cls-1{fill:url(#Dégradé_sans_nom_14);}.cls-2,.cls-4{stroke:#190b3d;}.cls-2,.cls-3,.cls-4,.cls-5{stroke-linecap:round;stroke-linejoin:round;stroke-width:10px;}.cls-2{fill:url(#Dégradé_sans_nom_23);}.cls-3{fill:#0f062b;stroke:#120933;}.cls-4{fill:#291254;}.cls-5{fill:none;stroke:#e6f3ec;}.cls-6{fill:#05040c;}</style><radialGradient id="Dégradé_sans_nom_14" cx="296.1" cy="210.16" r="377.42" gradientUnits="userSpaceOnUse"><stop offset="0" stop-color="#300e66"/><stop offset="1" stop-color="#0e0929"/></radialGradient><radialGradient id="Dégradé_sans_nom_23" cx="298.42" cy="433.9" r="96" gradientUnits="userSpaceOnUse"><stop offset="0.37" stop-color="#190b3d"/><stop offset="1" stop-color="#291254"/></radialGradient></defs><g id="dessin"><rect class="cls-1" width="600" height="600"/><g id="charac"><path class="cls-2" d="M554.68,634.42s-11.36-68.13-74.84-84.13c-65.44-16.49-124.39-30.45-128.52-71.23-4.27-42.22,18.58-76.9,18.58-76.9l-142.45-1s19.61,26.84,13.42,77.42S149,540.48,104.1,548.74s-66.58,80-66.58,80Z"/><path class="cls-3" d="M199.32,227.19l16.26,2.71s15.1,1.94,19.36-.77a30.57,30.57,0,0,0,7-6.19l3.1,11.22s5.81,1.55,19.74,0a156.22,156.22,0,0,0,24.39-4.64s8.52,8.13,16.64,9.67S336,241.9,336,241.9s15.87-5.42,16.64-8.51a31.22,31.22,0,0,0,.78-6.58s11.33,13.82,18.19,17.42c8.13,4.25,14.32-8.52,14.32-8.52l8.52-12L394,279.84s-48.77,12.39-84.38,12.39S193.9,274,193.9,274Z"/><path class="cls-4" d="M379.32,250.29c-10,7-24,1-33-6s-21,2-26-8c0,1-3.77.9-8,5s-8,11-11,11c-15-1-29.22-.52-44,3a77.84,77.84,0,0,0-6.9-6.81c-20,9-38.32-19-38.32-19l-13.53-4.92c-3.78,36.14-9.58,94.85,2,134.21,13.42,45.42,44.91,108.9,99.1,109.42,45.43.43,85.16-63,91.35-115.62,6-51.12,4.25-105.17,2.25-134.71C387.34,228,389.94,243.46,379.32,250.29Z"/><g id="headparts"><path class="cls-4" d="M213.77,172.55c-3.15-4.37.74-9.46,3.9-13.33-.24-1,1-4.36-.23-5.09-5.1.23-8.73-2-12.36-4.15-5.09-3.89,0-8.24,3.41-11.15-8.49-1-17,2.16-25.71.2a16.49,16.49,0,0,1-5.85-3.14c-6.55,9.91-9.82,20.35-8.32,30.42.65,4.32,1.35,9.34,2.12,14.89a38,38,0,0,1,8.42,1.71c15.82,8.75,33.38,23,49.84,13C227.88,186.87,220.36,179.17,213.77,172.55Z"/><path class="cls-4" d="M242.77,82.82c-6.38,3.06-12.9-4.32-14.4-9.09-2.3-8.88-2.82-19.06-5.27-27.82C206,56.32,191.43,70,183.22,84.22a16.59,16.59,0,0,0,6,2.77c8.83,1.41,17.12-2.26,25.65-1.8-3.21,3.11-8,7.78-2.71,11.34,3.76,2,7.52,3.92,12.59,3.37,1.26.65.25,4.11.55,5.07l-.57.8C235.71,102.6,245.35,95.89,242.77,82.82Z"/><path class="cls-4" d="M275.68,68.5c-1,3.38-1.86,6.76-2.46,10.07-.63,5,2.2,14.39,9.27,14.29-3.14,13-14.7,15-26,13.29-4.17,2.42-8.87,5.65-7.6,10.52,3.75,8.55,8,18.45,5.73,27.27a28.67,28.67,0,0,0,3.31-.78,12,12,0,0,1,2.11,3.88c15.13-.09,29.27-.3,44,2.59,3,.38,9.56-3.82,12.31-9.52.38-3,5.08-.36,8.18-1l.38-3a8.6,8.6,0,0,0,3.11,4.36c-2.78-6.76-7.19-12.76-7-20.69,2.85,1.37,5.95.76,6.2-1.22,5.36-10.41-2.66-26.55,16.06-23.16,1,.13,2.49-3.71,1.75-5.82a40.94,40.94,0,0,1-3.92-5.43C315.9,86,289.66,88.33,275.68,68.5Z"/><path class="cls-4" d="M356.94,36.71c5.83-5.11,13.3-6.68,21-8.37-13.76-9.14-30.15-15.94-47.09-18.25a141.78,141.78,0,0,0-35.42-.18c-.9,5.69-2.74,11.57-4.37,17.42,14,19.79,40.27,17.35,65.55,15.5C355.49,40.73,355.13,38.59,356.94,36.71Z"/><path class="cls-4" d="M432.21,162.87c.9-18.05-14.76-39.52-37.59-54.59-7.69,1.71-15.16,3.3-21,8.42-3.46,3.61,1,8.19,3.63,11.53.75,2.1-.72,6-1.71,5.83-18.74-3.29-10.63,12.81-15.93,23.25-.25,2-3.34,2.61-6.2,1.26-.17,7.92,4.27,13.91,7.09,20.64,5.49,3.87,15.19.27,21.71,6.75,8.09,8,21.26,15.69,32,9.95,11.37-5.49,10.65-21.14,17.8-30.47C432.12,164.57,432.16,163.7,432.21,162.87Z"/></g><g id="face"><path class="cls-5" d="M226,304.23s22.45-1.94,31.36-.78a38,38,0,0,1,15.29,5.61"/><path class="cls-5" d="M367.71,305.77s-22.45-1.94-31.36-.78a38,38,0,0,0-15.29,5.61"/><path class="cls-5" d="M224.68,334.23s7,9,24,13.54c10.06,2.71,20.9.2,20.9.2"/><path class="cls-5" d="M326.48,348.16s17.42,2.9,28.46-2.32A53,53,0,0,0,371,334.42"/><path class="cls-5" d="M277.9,424.92a62.62,62.62,0,0,1,20.71-2.29c13,.76,19.22,4.31,19.22,4.31"/></g></g><path class="cls-6" d="M575,25V575H25V25H575M600,0H0V600H600V0Z"/></g></svg>