<svg xmlns="http://www.w3.org/2000/svg" viewBox="0 0 600 600"><defs><style>.cls-1{fill:#322a26;}.cls-2{fill:#454b66;}.cls-3,.cls-4{fill:#e5e1c6;}.cls-3{stroke:#d6cfaa;}.cls-11,.cls-12,.cls-13,.cls-14,.cls-15,.cls-16,.cls-3,.cls-4,.cls-5{stroke-linecap:round;}.cls-11,.cls-12,.cls-13,.cls-14,.cls-16,.cls-3,.cls-4,.cls-5{stroke-linejoin:round;}.cls-11,.cls-12,.cls-13,.cls-14,.cls-3,.cls-7,.cls-8,.cls-9{stroke-width:10px;}.cls-4,.cls-5{stroke:#44433f;}.cls-10,.cls-4,.cls-5{stroke-width:5px;}.cls-5{fill:#595854;}.cls-10,.cls-11,.cls-6,.cls-8{fill:#c98d75;}.cls-10,.cls-11,.cls-6,.cls-7,.cls-8,.cls-9{stroke:#b77862;}.cls-10,.cls-15,.cls-6,.cls-7,.cls-8,.cls-9{stroke-miterlimit:10;}.cls-15,.cls-16,.cls-6{stroke-width:7px;}.cls-7{fill:#c1846f;}.cls-9{fill:#d39985;}.cls-12{fill:#989ba2;}.cls-12,.cls-13{stroke:#777b84;}.cls-13{fill:#777b84;}.cls-14{fill:#9b6350;stroke:#82593d;}.cls-15,.cls-16{fill:#cdb474;stroke:#ba9e5d;}.cls-17{fill:#191308;}</style></defs><g id="dessin"><rect class="cls-1" width="600" height="600"/><polygon class="cls-2" points="543.45 104.48 55.71 179.97 267.06 335.58 87.06 548.1 538.81 555.07 323.97 253.13 543.45 104.48"/><g id="map"><polygon class="cls-3" points="128.03 298.79 193.16 252.74 113.55 140.24 53.03 183.66 128.03 298.79"/><polygon class="cls-3" points="262.61 244.18 182.34 135.63 113.26 140.24 192.87 252.74 262.61 244.18"/><polygon class="cls-3" points="329.05 204.05 262.61 244.18 182.34 135.63 246.82 98.79 329.05 204.05"/><g id="chemin"><path class="cls-4" d="M109.9,242.1c.78.38,13,2.51,13,2.51"/><line class="cls-4" x1="117.26" y1="235.9" x2="116.68" y2="250.42"/><line class="cls-4" x1="124.23" y1="239.19" x2="130.42" y2="237.45"/><line class="cls-4" x1="137.39" y1="234.35" x2="139.71" y2="230.87"/><line class="cls-4" x1="142.42" y1="223.9" x2="142.03" y2="218.1"/><polyline class="cls-4" points="141.74 212.29 141.55 209.29 142.13 206.48"/><line class="cls-4" x1="145.32" y1="200.87" x2="150.74" y2="197.97"/><polyline class="cls-4" points="156.35 193.9 159.39 192.61 161 190.42"/><polyline class="cls-4" points="164.69 184.62 165.71 181.45 167.97 179"/><polyline class="cls-4" points="173.13 176.35 176.74 178.55 177.94 181.94"/><polyline class="cls-4" points="180.16 187.9 180.65 191.29 181.9 193.38"/><polyline class="cls-4" points="186.26 197.77 189.26 199.32 192.65 199.42"/><line class="cls-4" x1="198.55" y1="200.39" x2="204.65" y2="201.84"/><line class="cls-4" x1="210.54" y1="202.78" x2="215.39" y2="203.58"/><polyline class="cls-4" points="221.29 202.27 222.6 199.61 222.55 196.42"/><line class="cls-4" x1="224.1" y1="189.26" x2="225.45" y2="184.03"/><polyline class="cls-4" points="227.58 178.42 229.61 175.45 233 173.77"/><line class="cls-4" x1="239.19" y1="173.58" x2="245.39" y2="174.35"/><polyline class="cls-4" points="251.39 174.16 254.48 173.87 257.68 171.94"/><line class="cls-4" x1="262.23" y1="168.65" x2="266.68" y2="164.68"/><path class="cls-5" d="M270.29,108c-13.42,0-16.26,12.13-15.74,16.26S270,159.06,270,159.06s16.52-31.22,16.78-35.61S283.71,108,270.29,108Zm.77,20.9a5.16,5.16,0,1,1,5.17-5.16A5.16,5.16,0,0,1,271.06,128.87Z"/></g></g><g id="sac"><path class="cls-6" d="M442.25,88.51s14.26-36.32,35.66-33.4,30,45.65,30,45.65l-16.49-.64s11-34.6-14.08-38.69-18.88,31.71-18.88,31.71Z"/><path class="cls-7" d="M468.6,110.51c-50.09-8.18-75.2-4.22-84.7,26.3S367.22,194.35,364.25,203s-24.91,93,4.68,109.92,137.69,22.94,153.71,16S551.87,205.19,549,183.06s-1.32-49.87-31.25-60.25S468.6,110.51,468.6,110.51Z"/><path class="cls-8" d="M410.54,90.45c-6.75,2.88-5.37,20.15-8.93,44.79s-8.17,42.52,4.41,47.88,26,7.53,54.87,11.61,52.77,5.67,62.91.32,8.85-10.25,11.49-38.79,6.94-40.31,4-46.84-23.35-6.24-63.37-11.73S416.54,87.89,410.54,90.45Z"/><polygon class="cls-9" points="452.46 133.57 448.02 165.2 480.99 170.28 484.61 137.6 452.46 133.57"/><path class="cls-8" d="M411.86,206.57c-3.42,3.83-13.58,102.43-7.55,104.13s13.15-5.45,20.44-2.17,20.38,10.13,29,8.84,15-2.38,23.46.1,13.51,6.43,15.88-.85,19.76-90.29,14.09-94.79-34.14-5.7-49.31-7.6S415.27,202.74,411.86,206.57Z"/><g id="pochette"><polygon class="cls-8" points="390.34 217.6 378.83 305.61 360.6 303.8 350.76 284.11 359.53 206.64 375.48 215.27 390.34 217.6"/><line class="cls-10" x1="362.06" y1="299.72" x2="375.48" y2="215.27"/><path class="cls-11" d="M393.66,216.28s-15.44,2.33-20.28,5.66c-5,3.48-13.91,39.28-19.5,38.58s3.32-73.1,3.32-73.1,18.07,7.09,23.09,10.94C384.46,201.56,393.66,216.28,393.66,216.28Z"/></g><g id="pochette-2" data-name="pochette"><polygon class="cls-8" points="525.57 235.62 515 323.75 533.12 326.49 547.51 309.83 558.14 232.6 540.54 237.02 525.57 235.62"/><line class="cls-10" x1="532.71" y1="322.18" x2="540.54" y2="237.02"/><path class="cls-11" d="M522.68,233.52s14.39,6.06,18.25,10.49c4,4.61,3.79,41.49,9.38,42.2s14.82-71.67,14.82-71.67-19.26,2.41-25.07,4.91C535.23,221.52,522.68,233.52,522.68,233.52Z"/></g></g><g id="schlass"><path class="cls-12" d="M559.68,507.26s-62-19.57-85.52-17.19-61.45,7.2-61.45,7.2,4-11.74-5.2-16.42-28.26,16.2-28.26,16.2L249.45,508s13.11-27.15.77-46.39-38.32-33.49-38.32-33.49,21.39-5.63,31.32-6.49,31.28-.13,31.28-.13,11.81,28.12,27.42,23.61c29.83-8.62-13-26.4-13-26.4s17.91-3.35,29.81-4.3a226.11,226.11,0,0,1,23.31-.54s8,27.41,33.07,25.15c28.28-2.55-14.94-26.88-14.94-26.88s46.72-12.61,103.53,16.39S559.68,507.26,559.68,507.26Z"/><path class="cls-13" d="M488.2,470.37s-26-22.16-45-26.62-41.31-8.58-41.31-8.58,5,9.2-6.86,15c-22.23,10.93-58-.39-58-.39s-4.4,10.36-18.66,20-42.72,21-42.72,21,92.6-24,124.8-24.27S488.2,470.37,488.2,470.37Z"/><g id="manche"><polygon class="cls-14" points="232.07 482.85 132.23 501.74 125.96 481.97 223.57 460.29 232.07 482.85"/><line class="cls-14" x1="208.02" y1="465.52" x2="193.57" y2="490.29"/><line class="cls-14" x1="184.28" y1="472.23" x2="170.86" y2="493.9"/><path class="cls-14" d="M162.08,474.81c-1.54,1.54-12.38,21.67-12.38,21.67"/></g><path class="cls-15" d="M92.91,474.13c-2.77-.37-29.23-4.18-30.45-3.15s-21.12,26.34-21.12,26.34l15.41-.24s8.93,36.59,22.73,43.61,51.42-.7,51.42-.7S102.12,520.93,119,512.21s21.34-9.5,21.34-9.5l-5.23-27s-10.46-5.53-18.62-1.95S98,488,98,488l12.09,3.54s-7.28,28.62-25.57,18.18C58.15,494.67,92.91,474.13,92.91,474.13Z"/><g id="or-2" data-name="or"><path class="cls-16" d="M286.45,532s24.45,3.23,31.93-10.8-5.09-33.74-5.09-33.74,46.86,18.09,33.38-21C333,426.92,248,498.59,248,498.59s29-.61,36,11.79S286.45,532,286.45,532Z"/><path class="cls-15" d="M371.42,458.91s-5.66,1.35-6.1-2.46,4.47-12,11.48-7.66,9.81,17-17.27,27.47-53.53-3-53.53-3l8.3-14.72s25.3,12.29,35,8.66A147.76,147.76,0,0,0,365.64,460"/><path class="cls-16" d="M283.67,499.18c9.81,16.45,57.06,10.77,48.39-21.49S289.61,439.32,271.33,463s-31.16,52.42-31.16,52.42,5.75,2.35,5.62,5-3,7.25-3,7.25,9.8.65,20.47-6.9c10.93-7.73,29-35.24,29-35.24"/><path class="cls-16" d="M266.84,461.44c-5.73,11.74-24.12,52.12-32,60s-11.49,9.39-11.49,9.39l-32.87-4.26,22.24-11.51-19.16.8,15.88-27.36,13.05-2.11s-.38-28.85-4.95-37-18.38-11.67-18.38-11.67,13-22.19,25.6-14.6,16.56,26.08,16.56,26.08Z"/><path class="cls-16" d="M261.56,456.56s-25,6.53-7.05,19.57,35.6-8.3,26.14-25.79-33.16-11.3-35.51-5-6.82,17.73-10.75,18.51-18.67-4.05-18.67-4.05l1.42,12.82s13.46,5.75,17.75,3.35,13-10.41,13-10.41"/></g></g><path class="cls-17" d="M575,25V575H25V25H575M600,0H0V600H600V0Z"/></g></svg>