<svg xmlns="http://www.w3.org/2000/svg" viewBox="0 0 600 600"><defs><style>.cls-1{fill:#d16666;}.cls-2{fill:#ce564a;}.cls-3{fill:#ffeed2;stroke:#e5ceac;}.cls-3,.cls-4,.cls-6{stroke-linecap:round;stroke-linejoin:round;stroke-width:10px;}.cls-4{fill:#66757f;stroke:#485860;}.cls-5{fill:#292f33;}.cls-6{fill:#3a3a3a;stroke:#111;}.cls-7{fill:#b75548;}</style></defs><g id="dessin"><rect class="cls-1" width="600" height="600"/><path class="cls-2" d="M358.47,57.67c45.83,9.16,95.38,13.06,117.5,39.4,21.74,27.06,16.22,77.09,24.49,125.91,8.1,48.28,30,95.35,21,134-8.57,38-54.76,172.93-96.22,186-41.83,13.83-85.16,11-124.81,4.7A490.42,490.42,0,0,1,189.15,517.1c-36.54-15.5-69-141.41-88.28-173.93S80.7,266.68,84.12,221.41c2.72-45.65,9.76-92.61,34.3-126.57,24.91-34.67,68-56,110.1-59.24C271.29,32.7,312.48,48,358.47,57.67Z"/><g id="shitty_thing_ig" data-name="shitty thing ig"><path class="cls-3" d="M199.32,450.68S165.76,407.84,163,331.45,236,180.7,236,180.7H374.29s79.32,87.73,79.82,149.72-41.63,121.81-41.63,121.81Z"/><path class="cls-4" d="M522.11,600V585.7c0-47.36-54.59-87.13-100.39-100.39L188.48,480.1c-47,17.8-95.27,58.24-95.27,105.6V600Z"/><path class="cls-4" d="M161.86,367c-5.06,2.08,41.76,19.7,106.94,20.84,68.21,1.2,89.12,5.58,73.57,20.86C326,424.75,332.87,450,334,457.53s26.58,27.4,28.89,36.62-17.59,107.72-17.59,107.72l-124.8-3.6c-36.67-126.44-41.22-144-58.69-217C158.41,366.85,161.86,367,161.86,367Z"/><path class="cls-4" d="M455,366.38c5.06,2.07-41.76,19.7-106.92,20.84-68.21,1.2-89.13,5.58-73.57,20.86,16.38,16.09,42.56,41.35,41.4,48.84S256.29,484.34,254,493.55s17.57,106.38,17.57,106.38l123.77.14C432,473.63,437.57,453.63,455,380.68,458.48,366.26,455,366.38,455,366.38Z"/><path class="cls-4" d="M162.66,205.34S182.09,78.09,247.47,85.65c50.21,5.81,69.91,11.8,112,1.39,27.84-6.89,58.12,16.24,76.38,62.6a397.4,397.4,0,0,1,17.5,57.78s56.3-5.51,59.54,24.76S450.62,299.6,285.71,299.6c-92.42,0-187.78-33.71-192.31-61.92S162.66,205.34,162.66,205.34Z"/><path class="cls-5" d="M166.48,187.54s-3.86,15.79-5.8,26.75,3.23,18.53,38.67,26.08c47,10,152.67,9.89,215.28-5.48,25.14-6.17,41.26-10.29,39.33-22.63-2.39-15.27-2.81-15.24-7.74-31.56,0,0-21.12,7.17-49,13.72-38,8.92-142.45,13-192.74,2.06C177.7,190.62,166.48,187.54,166.48,187.54Z"/><line class="cls-6" x1="277.15" y1="325.6" x2="337.93" y2="325.6"/><path class="cls-6" d="M175.74,316.31l112.52-2.7s4.32,54.07-53.41,57S175.74,316.31,175.74,316.31Z"/><path class="cls-6" d="M326.73,312.93l112.39,6.25s0,54.23-57.77,52.6S326.73,312.93,326.73,312.93Z"/></g><path class="cls-7" d="M575,25V575H25V25H575M600,0H0V600H600V0Z"/></g></svg>