<svg xmlns="http://www.w3.org/2000/svg" viewBox="0 0 600 600"><defs><style>.cls-1{fill:#27476e;}.cls-2{fill:#375b7f;}.cls-3{fill:#f2d033;stroke:#ddb926;}.cls-3,.cls-4{stroke-miterlimit:10;}.cls-3,.cls-4,.cls-6{stroke-width:10px;}.cls-4{fill:#ddb926;stroke:#f7d857;}.cls-5,.cls-6{fill:#311847;stroke:#231038;}.cls-5,.cls-6,.cls-7,.cls-8,.cls-9{stroke-linecap:round;stroke-linejoin:round;}.cls-5,.cls-7,.cls-8,.cls-9{stroke-width:7px;}.cls-7,.cls-8{fill:none;}.cls-7,.cls-9{stroke:#261b33;}.cls-8{stroke:#130f19;}.cls-9{fill:#352842;}.cls-10{fill:#006992;}</style></defs><g id="dessin"><rect class="cls-1" width="600" height="600"/><polygon class="cls-2" points="92.87 506.29 16.23 196.23 161.39 478.42 195.06 45.26 269.39 483.06 449.39 53.39 376.23 494.68 595.71 241.52 501.64 523.71 92.87 506.29"/><g id="gold"><path class="cls-3" d="M290.05,285.94-130.1,579.45s265.73,60.36,433.8,54.25,419.75-47.28,419.75-47.28Z"/><g id="pieces"><path class="cls-4" d="M200.3,456.33c15.49-1,14.2,7-2.58,7.23S184.82,457.36,200.3,456.33Z"/><path class="cls-4" d="M196.1,543.9c15.48-1,14.19,7-2.58,7.23S180.61,544.94,196.1,543.9Z"/><path class="cls-4" d="M480,520.16c15.48-1,14.19,7-2.58,7.23S464.49,521.19,480,520.16Z"/><path class="cls-4" d="M286,561.62c15.48-1,14.19,7-2.58,7.23S270.5,562.66,286,561.62Z"/><path class="cls-4" d="M401.59,586.4c15.49-1,14.2,7-2.58,7.22S386.11,587.43,401.59,586.4Z"/><path class="cls-4" d="M282.42,332c15.48-1,14.19,7-2.58,7.22S266.94,333,282.42,332Z"/><path class="cls-4" d="M304.43,432.2c15.49-1,14.19,7-2.58,7.23S289,433.24,304.43,432.2Z"/><path class="cls-4" d="M385.78,442.48c15.48-1,14.19,7-2.59,7.23S370.29,443.52,385.78,442.48Z"/></g><g id="pieces1"><path class="cls-3" d="M385.57,497.3c-15.48-1-14.19,7,2.58,7.23S401.05,498.33,385.57,497.3Z"/><path class="cls-3" d="M428.48,565.77c-15.48-1-14.19,7,2.58,7.23S444,566.81,428.48,565.77Z"/><path class="cls-3" d="M104.35,546.16c-15.48-1-14.19,7,2.59,7.23S119.84,547.19,104.35,546.16Z"/><path class="cls-3" d="M148.15,486.46c-15.48-1-14.19,7,2.58,7.23S163.63,487.49,148.15,486.46Z"/><path class="cls-3" d="M462,468.74c-15.48-1-14.19,7,2.58,7.23S477.52,469.77,462,468.74Z"/><path class="cls-3" d="M355.25,378.72c-15.49-1-14.2,7,2.58,7.23S370.73,379.75,355.25,378.72Z"/><path class="cls-3" d="M250.47,377.69c-15.48-1-14.19,7,2.58,7.22S266,378.72,250.47,377.69Z"/><path class="cls-3" d="M242.42,475.19c-15.48-1-14.19,7,2.58,7.23S257.9,476.23,242.42,475.19Z"/></g></g><g id="drk"><path class="cls-5" d="M471.84,415.06s8.77,15,13.42,19.36,11.09,9.81,11.09,9.81,1.55,8.77,3.36,12.9,12.39,15.74,8,16.52S484,482.29,484,482.29s10.26-1.16,15.16-.13a36.27,36.27,0,0,0,10.58.26l-4.64,28.39s3.45-5.33,5.93-9.55c2.59-4.39,9-14.2,9-14.2s2.58,13.94,2.06,19.62c-.44,4.8,2.84,12.9,2.84,12.9s1.81-8.26,2.58-14.71a34.87,34.87,0,0,1,3.1-10.84s7.07,10,8.51,12.2S542,518,542,518s1.87-9.87-1-13.74S535.58,492,535.58,492s11.61,4.64,14.45,8,4.65,9.8,4.65,9.8,0-7.48-2.58-12.64-20.65-11.61-24.26-18.84-1.55-37.42-5.42-44.64-33.55-39.23-33.55-39.23Z"/><g id="aile"><path class="cls-6" d="M306.16,310.81s-77.42-52.13-138.32-54.2-96.52,3.62-96.52,3.62,39.23-13.42,67.1-15,32.52,7.74,50.06,2.58,50.58-27.36,50.58-27.36l82.59,57.81Z"/><path class="cls-6" d="M374.81,241.13s49,15.48,55.74,1-3.61-44.39-17-53.16-28.91-7.23-28.91-7.23,24.78-23.22,48.52,21.68,28.39,85.16,28.39,85.16L569.39,458.42s8.77,17.55,11.35,30.45-1.55,29.94-1.55,29.94-1.54-27.87-9.29-41.81-78.45-83.1-78.45-83.1Z"/></g><g id="body-3" data-name="body"><g id="pics"><path class="cls-7" d="M149.13,325.52s.39-2.71-4.26-5.42-8.13-1.94-8.13-1.94"/><path class="cls-7" d="M165.68,316.58s-4.45-5.52-9.39-7.64S150.1,307,150.1,307"/><path class="cls-7" d="M181,311.58s-3.48-6.48-6.48-9.1-9.1-5.13-9.1-5.13"/><path class="cls-7" d="M194.58,306.94s-1-6.2-4.93-10.46-11.52-6.19-11.52-6.19"/><path class="cls-7" d="M210.39,303.13s.09-6.39-2.42-9.87-8.81-5.91-8.81-5.91"/><path class="cls-7" d="M229.29,301.1s.1-5.33-1.64-8.81-10.65-6-10.65-6"/><path class="cls-7" d="M248.1,297.9s1.13-7-1.78-9.32-8.51-4.45-8.51-4.45"/><path class="cls-7" d="M502.83,338.75a27.07,27.07,0,0,0-.78-13.2c-2.23-7.49-4.93-9.67-4.93-9.67"/><path class="cls-7" d="M486.29,339.45a20.79,20.79,0,0,0-.52-10.58,29,29,0,0,0-4.9-9.29"/><path class="cls-7" d="M515.19,334.55s.78-3.1-.51-8.78-3.1-8.25-3.1-8.25"/><path class="cls-7" d="M471.15,338.25s1.56-7.82.22-12.27a23.24,23.24,0,0,0-3.94-7.54"/></g><path id="body-4" data-name="body" class="cls-6" d="M550.42,254.29s26.71,90.19-34.45,144-211.36-48.77-261.29-53-92.52,3.48-130.84,19S15.06,429.26-26,367.32s38.71-112.64,68.13-92.51-23.22,48-23.22,48S48,296.48,36,288s-52.65,11.09-55,34.71,8.52,62.45,55.35,53.55,118.46-67,168-75.49S359.73,281.09,401,293.39c36.39,10.84,37.55,40.64,80.52,42.19s49.93-14.32,44.51-34.06-17-49.94-17-49.94Z"/></g><g id="patte_arrière" data-name="patte arrière"><path class="cls-5" d="M339.26,322.81S304,330.94,295.9,343.52s-20.71,30.58-20.71,30.58l31.49,29.09,12.1-12.35,32.48,12.48L308.1,378.16s10.84-7.93,17.8-18.58,23-20.9,23-20.9"/><polyline class="cls-5" points="285.84 383.87 329.39 423.58 302.55 392.36"/><polyline class="cls-5" points="308.74 394.16 336.61 410.16 313.9 388.9"/></g><g id="tete-3" data-name="tete"><g id="cornes"><path class="cls-8" d="M536.87,230.81s6.45-20.65,18.58-25.29,14.2-9.55,14.2-9.55"/><path class="cls-8" d="M515.45,237.52s3.36-19.87,8.26-31A41.37,41.37,0,0,1,536.61,190"/><path class="cls-8" d="M493.26,237.52s0-12.91,2.06-18.07a33.21,33.21,0,0,1,4.39-8"/><path class="cls-8" d="M512.61,232.1s28.13-32,35.36-34.58,12.64-10.58,12.64-10.58"/><path class="cls-9" d="M498.42,239.06s2.84-15.09,6.32-27.87,7.74-12.64,9.16-19.35,1.94-20.26,1.94-20.26,3.61,18.07,2.06,23.23-9.16,45-9.16,45"/><path class="cls-9" d="M518.55,240.74s5.42-18.84,12.9-30.06,10.58-11.1,12.78-17.94,6.71-17.8,6.71-17.8-1.29,19.22-4.65,27.09S536.1,215.32,534,221.77s-6.71,20.39-6.71,20.39"/><path class="cls-9" d="M530.32,238.29s2.16-5.94,6.55-7.48,9.55-2.58,12.13-4.91,5.16-8,5.16-8-1.81,11.36-5.16,13.16-9.29,1.81-12.13,5.94a24.84,24.84,0,0,0-3.61,7.23"/></g><path class="cls-5" d="M531.19,243.71s14.46-18.06,32.91-11.87,16.64,12.64,16.64,12.64-7.09-8-17.16-8.38-6.32,4.77-4.26,8.64,5.23,4,12,12.26c5.42,6.58,8.65,17.42,8.65,17.42s-8-17.68-17.68-22.58-7.48,6.32-1.94,16.64,4.91,23.75,4.91,23.75-4.91-18.46-10.32-27-23.23-4.39-23.23-4.39"/><path class="cls-5" d="M525,246.13s4.26-1.84,5.32-3.58,0-4.26,0-4.26-.87.87-3.58,1.26-2.61-1.07-5.61-2.71-7.36-4.45-9.48-5.13-4.55,1.45-11.42,5.23-11.33-.88-11.33-.88a32.52,32.52,0,0,0-.19,5.42c.19,2.33,3,4.84,3,4.84s-.58,2.23-1.06,3.87.77,4.16,1,11-4.06,16.16-4.06,16.16l-2.81-2.33s.1,8.81.87,12.88,3.91,10.74,3.91,10.74,4.71,2.32,11.19-4.26,11.23-22.74,17-25,11.91-9.19,15.87-8.22,7.39-4.88,4.55-8.75Z"/></g><path class="cls-5" d="M453.06,374.29s-18-.58-30.19-3.68-19.16-10.64-34.45-3.67-14.13,32.9-6.19,43.93c4.53,6.3-4.27,16.78-8.85,25.41L371.19,450l5.36-11,13.61-7-4.32,12.84v12.32l3.49-10.65,8.57-11.8,5.1,23.74,2.26-25.1,11.55,9.87,6.06,13.16-3.45-16.07-8.55-11.8,16,3.41L438,439.13l-10.13-10.84-17.36-7.74S397.9,409.32,396.35,401s21.3,10.06,39.49,9.68,21.48-5.81,21.48-5.81"/><g id="aile-2" data-name="aile"><path class="cls-6" d="M234.42,206S134.29,173.52,88.87,173.52-63.39,192.61-63.39,192.61s190.45-7.22,275.1,42.33S348,332,348,332"/><path class="cls-6" d="M450.94,327.32s-56.52-107.87-103.49-143-93.93-48-93.93-48,97.54,57.3,97,72.78-16.52-7.74-21.16,1,9.8,26.84-1,23.23-19.61-37.16-34.06-36.13-21.68,6.19-43.87-20.65S206,143.06,206,143.06s7.74,10.33-8.26,24.26S52.23,134.81,52.23,134.81s80,29.93,168.25,77.93S354.16,364,366,417.65s-8.77,82.06-8.77,82.06,27.87-53.16,30.45-73.29-10.32-147.61-10.32-147.61,9.29,29.42,19.09,43.87,44.39,36.13,44.39,36.13"/></g></g><g id="epee"><polygon class="cls-3" points="127.06 427.97 89.9 378.42 103.32 370.16 141.52 419.19 127.06 427.97"/><polygon class="cls-3" points="91.45 370.68 77.52 352.61 87.84 347.97 98.16 368.61 91.45 370.68"/><polygon class="cls-3" points="81.64 385.64 115.19 370.68 107.45 355.19 72.36 378.42 81.64 385.64"/><circle class="cls-3" cx="78.55" cy="343.32" r="10.32"/></g><path class="cls-10" d="M575,25V575H25V25H575M600,0H0V600H600V0Z"/></g></svg>