<svg xmlns="http://www.w3.org/2000/svg" viewBox="0 0 600 600"><defs><style>.cls-1{fill:#59967e;}.cls-2{fill:#64af8f;}.cls-11,.cls-15,.cls-3{fill:#8b6866;}.cls-15,.cls-3{stroke:#775251;}.cls-10,.cls-11,.cls-14,.cls-15,.cls-18,.cls-19,.cls-20,.cls-21,.cls-23,.cls-3,.cls-4,.cls-5,.cls-6,.cls-8,.cls-9{stroke-linecap:round;}.cls-10,.cls-11,.cls-14,.cls-15,.cls-18,.cls-19,.cls-21,.cls-23,.cls-3,.cls-4,.cls-5,.cls-6,.cls-8,.cls-9{stroke-linejoin:round;}.cls-10,.cls-14,.cls-18,.cls-19,.cls-3,.cls-4,.cls-6{stroke-width:10px;}.cls-12,.cls-4,.cls-5{fill:#a34c43;}.cls-14,.cls-4,.cls-5{stroke:#8e3530;}.cls-20,.cls-21,.cls-5{stroke-width:7px;}.cls-6{fill:#3e555b;}.cls-10,.cls-6{stroke:#cdb474;}.cls-20,.cls-21,.cls-7{fill:#cdb474;}.cls-20,.cls-21,.cls-7,.cls-8{stroke:#ba9e5d;}.cls-20,.cls-7{stroke-miterlimit:10;}.cls-7{stroke-width:7.54px;}.cls-8{fill:#ba9e5d;stroke-width:4.56px;}.cls-9{fill:#f6e2c1;stroke:#d1c2b0;}.cls-11,.cls-15,.cls-9{stroke-width:5px;}.cls-10{fill:#6c7c7f;}.cls-11{stroke:#603d3d;}.cls-13{fill:#b67176;}.cls-14{fill:none;}.cls-16{fill:#efcdcb;}.cls-17{fill:#2d1212;}.cls-18{fill:#989ba2;}.cls-18,.cls-19{stroke:#777b84;}.cls-19{fill:#777b84;}.cls-22{fill:#3e7c61;}.cls-23{fill:#3b3f3d;stroke:#282828;stroke-width:4.06px;}</style></defs><g id="Calque_2" data-name="Calque 2"><rect class="cls-1" width="600" height="600"/><ellipse class="cls-2" cx="91.71" cy="518.48" rx="214.84" ry="333.87" transform="translate(-229.83 101.53) rotate(-27.61)"/><ellipse class="cls-2" cx="546.82" cy="354.77" rx="387.76" ry="205.55" transform="translate(113.92 842.07) rotate(-81.36)"/><g id="poke"><g id="body"><path id="corps" class="cls-3" d="M385.13,322.81s29.76,59,31,65.8c2.32,13.16-24.78,193.55-24.78,193.55l-97.55,24.78s-12.38-51.88-13.93-55-15.74-14.71-16.26-17.81c-.19-1.17-1.29-9.81-1.29-9.81l-19.87-17.8-37.68-41,10.07-38.2Z"/><path class="cls-3" d="M380.48,447.45s-2.32,20.52-3.09,24.39-10.45,20.9-10.45,20.9-51.1,16.65-55.36,15.87"/><g id="bras"><path class="cls-3" d="M218.68,425s-41.42,34.45-58.07,51.48-22.45,38.71-22.45,38.71-23.22,15.1-28.64,22.07-36,82.84-36,82.84l16.64,20.51s12.78-17.8,17.81-21.29,46.06-32.9,48.77-37.93,13.67-31,19.74-37.74c2.27-2.52,25.94-14.33,25.94-14.33L233.65,498"/><path class="cls-3" d="M231.84,488.48s-5,23.62-20.52,37.17-44.51,16.64-49.55,21.29c-4,3.71-8.12,11.22-8.12,11.22"/></g><path id="pec" class="cls-3" d="M269.77,525.9s-19.35-1.29-21.67-3.09-21.94-26.58-23-29.16,3.1-19.88,3.1-19.88"/><g id="autre_bras" data-name="autre bras"><path class="cls-3" d="M405.65,373.52a109.57,109.57,0,0,0,13.54-11.23c6.2-6.19,16.82-15,25.55-20.13,6.58-3.87,16.35-18.65,20.52-22.06s37.55-25.55,40.64-31.36S473.77,166,445.13,174.94s-15.1,56.12-13.94,66.19,1.55,24,5,31.35c1.35,2.85-51.49,20.91-51.49,20.91l-24,47.22"/><path class="cls-3" d="M356.87,362.68s10.28-58.37,27.1-70.84c24-17.81,55.35-18.19,55.35-18.19l3.87,9.16"/></g></g><g id="ceinture"><path class="cls-4" d="M282.68,580.61l-3.87-17a145.55,145.55,0,0,1,50.58-26.06c30.19-8.52,70.45-13.68,70.45-13.68a90.14,90.14,0,0,1,2.84,8.77c.77,3.36.77,21.42.77,21.42Z"/><path class="cls-5" d="M298.94,565.13s42.83-14.71,64.77-19.1a264.47,264.47,0,0,1,42.84-4.64l.77,18.06"/><path class="cls-6" d="M426.55,600.35s-15.74,7.23-34.07,13.94-50.83,23.23-50.83,23.23l-14.71-6.71-17.55,28.64-20.26-26.19-22.45,11.61s5.42-8,4.64-17-7-17.81-7-17.81l13.55-26.19s11.36,25,27.87,23.74,19.36-12.64,19.36-12.64l7.48-32.78s45.16,1.55,61.42-.51a168.31,168.31,0,0,0,26.84-5.42"/><path class="cls-6" d="M417.39,582.16s-36.91,5.94-55.74,8.52-46.46,14.45-46.46,14.45"/><g id="piece"><ellipse class="cls-7" cx="307" cy="591.84" rx="23.93" ry="26.71"/><path class="cls-8" d="M298.41,592.84s-1.13-3.44-2.23-4.12-4.29,1.16-4.29,1.16.29-9.91,12.24-12.3,15.71,4.31,15.71,4.31-3.1,1-4.18,2.45-.47,5-.47,5Z"/><path class="cls-8" d="M297.74,590.45s2.23,8.13,1.28,11a33.87,33.87,0,0,1-2.5,5.57s3.81-4.33,4.52-6.25.34-9.16.34-9.16"/><polygon class="cls-8" points="302.27 589.27 308.5 607.75 308.88 588.96 302.27 589.27"/><path class="cls-8" d="M311,591.26a44.54,44.54,0,0,0,3.67,5.45c1.76,2.09,7.39,4.39,7.39,4.39s-4.56-3.11-5.43-5.58a54.34,54.34,0,0,1-1.53-8.11Z"/></g></g><g id="habits"><path class="cls-6" d="M302.68,418l27.09,2.32,22.84-39.09,22.07-3.87-18.58-3.87s24-18.58,28.64-27.49,34.45-86.32,38.71-92.13l-28-15.48-56.26,93.93-35.87,22.2Z"/><path class="cls-9" d="M303.65,397.13s24.58-18.19,28.06-25.16,4.64-19.74,9.29-23,13.35,4.64,16.26,1,10.06-89.61,38.51-97.55,36.58-3.09,36.58-3.09S415.13,238.42,414,234.74s.12-7.94-3.29-9.87c-42.2-23.81-69.29-22.26-69.29-22.26s26.13,13,29.8,25.74-1.35,13-1.16,13.55-5.22-7-10.06-8.9-9.87,1.35-9.87,1.35,6.47,3.75,7.93,10.26c4.26,19-2.9,32.71-2.9,32.71a20.94,20.94,0,0,0-9.29-6.19,24,24,0,0,0-12.58-.39s9.09,5.42,10.64,9.29,1.16,16.45,1.16,16.45-5.22-5.22-10.83-6.58-13.75,1.36-13.75,1.36,7.55,3.87,9.87,9.29-28.06,45.1-28.06,45.1l1.94,10.25Z"/><path class="cls-6" d="M129.9,509.13a49.59,49.59,0,0,1,21.42-32.26c19.1-12.9,34.58-35.35,34.58-35.35s-25,28.64-6.19,22.71,67.35-26.58,67.35-26.58l-34.32-29.17-45.93,4.39"/><path class="cls-9" d="M222.48,437.52s-25.93-21.68-38.32-11.62-8.9,19.36-8.9,19.36-17.87-3.74-29.42-7.36c-12.61-3.94-22.07-13.16-21.29-25.16S128,398.42,128,398.42s1.36,9.55,2.13,12.52,3.68,8,3.68,8,2-16.25,7.74-26.71c7.16-13.1,14.32-18.2,14.32-18.2s-3.48,14.32-2.71,20.13a59.52,59.52,0,0,0,3.49,12.39s.93-10.65,3.16-15.55,8.06-11,8.06-11-2.64,10.45-1.67,15c1.34,6.37,5.93,7.62,5.93,7.62s-.54-17.41,5-29.81c6-13.35,12.2-19.35,12.2-19.35s-1.41,16,.38,23.8c1.75,7.55,9.49,15.29,9.49,15.29s.2-11.43,3.09-17c3.1-6,10.46-9.68,10.46-9.68s-1.16,11.42.19,16.84c1.49,6,16.06,16.07,16.06,16.07l27.1-5Z"/><path id="col" class="cls-10" d="M258.94,433s-5.68,23-25.55,10.84-29.16-35.36-29.16-35.36a127.86,127.86,0,0,1,18.06-8.77c8.52-3.1,37.94-5.94,37.94-5.94l64-46.71s8.25,34.33,3.87,48.78-13.42,19.1-20.91,14.71-12.38-15.23-12.38-15.23l-34.33,21.94Z"/></g><g id="head"><path class="cls-4" d="M298.94,316.87a59.08,59.08,0,0,1-10.07-23,52.32,52.32,0,0,1,1.81-25.29l9.55,21.68s2.06-18.84,3.87-22.19,8.25-14.45,19.87-21.94S341.52,234,341.52,234L324,292.1,305.9,319.19l28.52-12.64,20.52,3.87-21.68,15.87-29.68-2.19Z"/><path class="cls-4" d="M293.52,319.71s10.32-9.81,14.71-1.81-6.2,17.81-6.2,17.81Z"/><path class="cls-3" d="M246.94,392.87s35.22-9.29,46.45-31,9.29-66.06-36.39-66.71-42.06,39-42.06,39,2.45,4.65,2.45,7.74-3.23,4.39.38,15S246.94,392.87,246.94,392.87Z"/><path class="cls-11" d="M215.39,332.48s5.8-6.38,9.87-6.19a29.2,29.2,0,0,1,7.74,1.55"/><path class="cls-11" d="M245.77,324.23S257.42,313.55,262,312.1c4.91-1.55,10.45,1.42,10.45,1.42"/><path class="cls-12" d="M303.84,331.32s3.1,31.49.51,45.42-6.7,52.13-6.7,52.13l-4.65-32s-6.19,31-8.26,39.74-2.06,33.55-2.06,33.55S273.9,450,262,434.55,244,416,244,416L214,356.61l21.68-20.13Z"/><g id="dents_de_requin_grr" data-name="dents de requin grr"><path class="cls-13" d="M258.55,397.32l-5-40.45,18.38,30s-3.67,5-6.19,6.78A49.84,49.84,0,0,1,258.55,397.32Z"/><path class="cls-13" d="M274.23,382a75.7,75.7,0,0,0-.58-15.48,136.06,136.06,0,0,0-3.88-15.49s4.5,6.68,8.71,14.52a55.19,55.19,0,0,1,3.29,7.74s.1,1.26-2.9,5.42C277.65,380.44,274.23,382,274.23,382Z"/><path class="cls-13" d="M286.23,364.81a57.63,57.63,0,0,0-.58-10.07,49,49,0,0,0-1.75-7.93s5.81,6,7,8.71S286.23,364.81,286.23,364.81Z"/><polygon class="cls-13" points="293.39 352.81 286.42 344.68 298.42 343.71 293.39 352.81"/><path class="cls-13" d="M282.35,367.52a69.71,69.71,0,0,0-6.19-13.94,51.32,51.32,0,0,0-5.61-7.74h10.64Z"/><path class="cls-13" d="M270.35,376.81s-6-11.42-10.06-18.2A72.18,72.18,0,0,0,251.58,347l14.13-1.35s1.55,8.32,2.71,15.87S270.35,376.81,270.35,376.81Z"/><path class="cls-13" d="M253.9,391.52s-10.64-17.62-14.51-24.39a90.71,90.71,0,0,1-5.81-12,9.93,9.93,0,0,1,5.23-3.68c3.87-1.35,10.25-3.29,10.25-3.29s.39,8.32,1.17,17.81S253.9,391.52,253.9,391.52Z"/><path class="cls-13" d="M253.9,398.29a132.5,132.5,0,0,1-9.09-15.87c-4.65-9.48-10.46-20.71-10.46-20.71s1.75,14.9,3.1,21.29,3.49,14.52,3.49,14.52a10.36,10.36,0,0,0,5.41,1.16C250,398.68,253.9,398.29,253.9,398.29Z"/><path class="cls-13" d="M237.42,392.49a167.63,167.63,0,0,1-5-19.57c-1.57-9-2.69-15.11-2.69-15.11s-4.6,2.93-6.71,5.45a27.31,27.31,0,0,0-3.56,5.95Z"/></g><path class="cls-14" d="M303.84,331.32s3.1,31.49.51,45.42-6.7,52.13-6.7,52.13l-4.65-32s-6.19,31-8.26,39.74-2.06,33.55-2.06,33.55S273.9,450,262,434.55,244,416,244,416l-29-54.84L236.68,341Z"/><g id="visage"><path class="cls-15" d="M252.74,296.23s-10.84,7.22-13.93,10.83-6.2,10.33-6.2,10.33"/><path class="cls-15" d="M267.19,298.29s-9.29,5.16-12.38,9.29"/><path class="cls-16" d="M253.52,329.68s1.74-6.78,6.77-7.16,14.9,1.93,14.9,1.93-8.51,5.61-12,5.81A73,73,0,0,1,253.52,329.68Z"/><path class="cls-16" d="M221.13,342.9s1.62-7.52,5.88-9.21,7.6,2,4.08,5.34S221.13,342.9,221.13,342.9Z"/><circle class="cls-17" cx="262.32" cy="326.68" r="3.48"/><path class="cls-17" d="M231.83,338.18a3.34,3.34,0,1,0-4.53,3.17,12.52,12.52,0,0,0,3.79-2.32A6.15,6.15,0,0,0,231.83,338.18Z"/></g></g><g id="lame"><path class="cls-18" d="M94.55,325.13s47-44.9,69.16-53.16S222,251.32,222,251.32s-8.77-8.77-2.58-17S252,236.35,252,236.35l121.29-47.48s-23.74-18.58-21.16-41.29,19.61-47,19.61-47-21.68,4.39-31,8-28.13,13.68-28.13,13.68,1.81,30.45-14.19,33.29c-30.57,5.42,0-29.42,0-29.42s-17.55,4.9-28.65,9.29a227.15,227.15,0,0,0-21.16,9.81s4.91,28.13-18.58,37.16c-26.5,10.19,1.55-30.71,1.55-30.71S184.1,161,145.9,212.1,94.55,325.13,94.55,325.13Z"/><path class="cls-19" d="M142.42,260.48s13.55-31.35,28.64-43.74,33.29-25.93,33.29-25.93-.39,10.45,12.78,10.45c24.77,0,51.87-25.94,51.87-25.94s8.52,7.36,25.55,9.68,47.61,0,47.61,0-93.68,19.35-122.71,33.29S142.42,260.48,142.42,260.48Z"/><polygon class="cls-4" points="377.77 158.68 475.71 131.58 472.61 111.06 375.45 134.68 377.77 158.68"/><path class="cls-20" d="M497,88.61c2.32-1.55,24.39-16.64,25.94-16.26s30.58,14.33,30.58,14.33l-13.94,6.58s8.13,36.77-1.16,49.16S492,164.48,492,164.48s17.42-29.8-1.55-30.19-18.58,12.39-18.58,12.39L461,111.84s5.81-12.78,14.71-13.16,22.84,4.64,22.84,4.64l-9.29,8.52s19.16,22.47,31,5C537.26,91.71,497,88.61,497,88.61Z"/><polygon class="cls-3" points="391.32 131.19 406.81 111.45 460.23 106.81 471.45 136.23 466.42 166.81 423.58 184.23 391.32 131.19"/><path class="cls-6" d="M417.26,217.9,443.58,192,502.81,202l-28.65-36.77,4.26-10.84s-12.39,0-17.42-4.26-13.94-11.22-25.94-5-19.35,25.16-19.35,25.16Z"/><g id="or"><path class="cls-21" d="M350.68,226.81s-20.52,13.67-33.42,4.38-10.32-32.51-10.32-32.51-34.07,36.9-39.23-4.13c-5.22-41.51,102.71-14.71,102.71-14.71s-26.32,12.26-27.1,26.45S350.68,226.81,350.68,226.81Z"/><path class="cls-20" d="M242.16,198.68s5.68-1.29,4.39-4.91-9.29-8.77-13.68-1.8-1.29,19.61,27.61,17,46.71-26.32,46.71-26.32l-13.93-9.55S276,195.32,265.65,196.35a146.3,146.3,0,0,1-17.81.78"/><path class="cls-21" d="M338.68,196.1c-1.55,19.09-46.45,34.84-52.91,2.06s21.17-53.16,48-40,51.1,33.29,51.1,33.29-4.13,4.65-2.84,7,5.94,5.16,5.94,5.16-8.52,4.9-21.42,2.84C353.33,204.3,325,187.58,325,187.58"/><path class="cls-21" d="M337.13,154.81c10.32,8,44.64,36.13,55.22,39.74s14.46,3.35,14.46,3.35l27.61-18.32-25-.52,17.55-7.74-26.33-17.55L388,157.65s-12.39-26.07-11.87-35.36,11.35-18.58,11.35-18.58S366,89.52,358,101.9s-3.35,30.71-3.35,30.71Z"/><path class="cls-21" d="M339.71,148.1s25.29-5.16,15,14.45-35.62,8.26-34.84-11.61,24.77-24.78,29.68-20.13,13.93,12.9,17.8,11.87,15-11.87,15-11.87l4.39,12.13s-9.55,11.09-14.45,10.83S356,150.16,356,150.16"/></g></g></g><path class="cls-22" d="M575,25V575H25V25H575M600,0H0V600H600V0Z"/></g><g id="dessin"><g id="lunettes-5" data-name="lunettes"><line class="cls-23" x1="235.79" y1="333.75" x2="259.92" y2="326.02"/><path class="cls-23" d="M211.22,341.06l24.9-9.14s2.43,15.53-8.34,19.84S211.22,341.06,211.22,341.06Z"/><path class="cls-23" d="M247.05,328.58,275.88,318s3.55,16.53-8.92,21.53S247.05,328.58,247.05,328.58Z"/></g></g></svg>