<?xml version="1.0" encoding="utf-8"?>
<!-- Generator: Adobe Illustrator 26.0.2, SVG Export Plug-In . SVG Version: 6.00 Build 0)  -->
<svg version="1.1" id="Calque_1" xmlns="http://www.w3.org/2000/svg" xmlns:xlink="http://www.w3.org/1999/xlink" x="0px" y="0px"
	 viewBox="0 0 24 27.2" style="enable-background:new 0 0 24 27.2;" xml:space="preserve">
<style type="text/css">
	.st0{fill:#264DE4;}
	.st1{fill:#2965F1;}
	.st2{fill:#E44D26;}
	.st3{fill:#F16529;}
	.st4{fill:#FFFFFF;}
</style>
<g id="Calque_1_00000119806531114122642710000014236415036847506606_">
	<polygon id="polygon2989" class="st0" points="24,0 21.8,24.5 12,27.2 2.2,24.5 0,0 	"/>
	<polygon id="polygon2991" class="st1" points="19.9,22.9 21.8,2 12,2 12,25.1 	"/>
	<polygon class="st2" points="0,0 2.2,24.5 24,0 	"/>
	<polygon class="st3" points="21.8,2.5 21.8,2 12,2 12,13.5 	"/>
	<path class="st4" d="M2.1,5.6h1.5v1.5H5V5.6h1.5v4.6H5V8.7H3.6v1.5H2.1 M8.6,7.2H7.3V5.6h4.3v1.5h-1.4v3.1H8.6 M12.2,5.6h1.6l1,1.6
		l1-1.6h1.6v4.6h-1.5V8l-1.1,1.7L13.7,8v2.3h-1.5 M18.2,5.6h1.5v3.1h2.2v1.5h-3.7"/>
	<path id="path2999" class="st4" d="M5.6,14.9h3.6v1.5H7.2V18h2.1v1.5H5.6V14.9z"/>
	<path id="path3001" class="st4" d="M10,14.9h3.6v1.3h-2.1v0.3h2.1v3H10v-1.4h2.1v-0.3H10L10,14.9z"/>
	<path id="path3003" class="st4" d="M14.4,14.9H18v1.3h-2.1v0.3H18v3h-3.6v-1.4h2.1v-0.3h-2.1V14.9z"/>
</g>
</svg>
